%TF.GenerationSoftware,KiCad,Pcbnew,(6.0.0)*%
%TF.CreationDate,2023-06-01T11:48:41-04:00*%
%TF.ProjectId,SEPIC,53455049-432e-46b6-9963-61645f706362,rev?*%
%TF.SameCoordinates,Original*%
%TF.FileFunction,Legend,Top*%
%TF.FilePolarity,Positive*%
%FSLAX46Y46*%
G04 Gerber Fmt 4.6, Leading zero omitted, Abs format (unit mm)*
G04 Created by KiCad (PCBNEW (6.0.0)) date 2023-06-01 11:48:41*
%MOMM*%
%LPD*%
G01*
G04 APERTURE LIST*
%ADD10C,0.150000*%
%ADD11C,0.120000*%
G04 APERTURE END LIST*
D10*
X144416404Y-68737238D02*
X144609928Y-68737238D01*
X144803452Y-68834000D01*
X144900214Y-68930761D01*
X144996976Y-69124285D01*
X145093738Y-69511333D01*
X145093738Y-69995142D01*
X144996976Y-70382190D01*
X144900214Y-70575714D01*
X144803452Y-70672476D01*
X144609928Y-70769238D01*
X144416404Y-70769238D01*
X144222880Y-70672476D01*
X144126119Y-70575714D01*
X144029357Y-70382190D01*
X143932595Y-69995142D01*
X143932595Y-69511333D01*
X144029357Y-69124285D01*
X144126119Y-68930761D01*
X144222880Y-68834000D01*
X144416404Y-68737238D01*
X145674309Y-68737238D02*
X146351642Y-70769238D01*
X147028976Y-68737238D01*
X144706690Y-58577238D02*
X145384023Y-60609238D01*
X146061357Y-58577238D01*
X146738690Y-60609238D02*
X146738690Y-58577238D01*
X144706690Y-53497238D02*
X145384023Y-55529238D01*
X146061357Y-53497238D01*
X146738690Y-55529238D02*
X146738690Y-53497238D01*
X143545547Y-78897238D02*
X144222880Y-80929238D01*
X144900214Y-78897238D01*
X145964595Y-78897238D02*
X146351642Y-78897238D01*
X146545166Y-78994000D01*
X146738690Y-79187523D01*
X146835452Y-79574571D01*
X146835452Y-80251904D01*
X146738690Y-80638952D01*
X146545166Y-80832476D01*
X146351642Y-80929238D01*
X145964595Y-80929238D01*
X145771071Y-80832476D01*
X145577547Y-80638952D01*
X145480785Y-80251904D01*
X145480785Y-79574571D01*
X145577547Y-79187523D01*
X145771071Y-78994000D01*
X145964595Y-78897238D01*
X144416404Y-63657238D02*
X144609928Y-63657238D01*
X144803452Y-63754000D01*
X144900214Y-63850761D01*
X144996976Y-64044285D01*
X145093738Y-64431333D01*
X145093738Y-64915142D01*
X144996976Y-65302190D01*
X144900214Y-65495714D01*
X144803452Y-65592476D01*
X144609928Y-65689238D01*
X144416404Y-65689238D01*
X144222880Y-65592476D01*
X144126119Y-65495714D01*
X144029357Y-65302190D01*
X143932595Y-64915142D01*
X143932595Y-64431333D01*
X144029357Y-64044285D01*
X144126119Y-63850761D01*
X144222880Y-63754000D01*
X144416404Y-63657238D01*
X145674309Y-63657238D02*
X146351642Y-65689238D01*
X147028976Y-63657238D01*
X146836190Y-117931716D02*
X147126476Y-118028478D01*
X147610285Y-118028478D01*
X147803809Y-117931716D01*
X147900571Y-117834954D01*
X147997333Y-117641430D01*
X147997333Y-117447906D01*
X147900571Y-117254382D01*
X147803809Y-117157620D01*
X147610285Y-117060859D01*
X147223238Y-116964097D01*
X147029714Y-116867335D01*
X146932952Y-116770573D01*
X146836190Y-116577049D01*
X146836190Y-116383525D01*
X146932952Y-116190001D01*
X147029714Y-116093240D01*
X147223238Y-115996478D01*
X147707047Y-115996478D01*
X147997333Y-116093240D01*
X148868190Y-116964097D02*
X149545523Y-116964097D01*
X149835809Y-118028478D02*
X148868190Y-118028478D01*
X148868190Y-115996478D01*
X149835809Y-115996478D01*
X150706666Y-118028478D02*
X150706666Y-115996478D01*
X151480761Y-115996478D01*
X151674285Y-116093240D01*
X151771047Y-116190001D01*
X151867809Y-116383525D01*
X151867809Y-116673811D01*
X151771047Y-116867335D01*
X151674285Y-116964097D01*
X151480761Y-117060859D01*
X150706666Y-117060859D01*
X152738666Y-118028478D02*
X152738666Y-115996478D01*
X154867428Y-117834954D02*
X154770666Y-117931716D01*
X154480380Y-118028478D01*
X154286857Y-118028478D01*
X153996571Y-117931716D01*
X153803047Y-117738192D01*
X153706285Y-117544668D01*
X153609523Y-117157620D01*
X153609523Y-116867335D01*
X153706285Y-116480287D01*
X153803047Y-116286763D01*
X153996571Y-116093240D01*
X154286857Y-115996478D01*
X154480380Y-115996478D01*
X154770666Y-116093240D01*
X154867428Y-116190001D01*
X157286476Y-118028478D02*
X157286476Y-115996478D01*
X158060571Y-115996478D01*
X158254095Y-116093240D01*
X158350857Y-116190001D01*
X158447619Y-116383525D01*
X158447619Y-116673811D01*
X158350857Y-116867335D01*
X158254095Y-116964097D01*
X158060571Y-117060859D01*
X157286476Y-117060859D01*
X159221714Y-117931716D02*
X159512000Y-118028478D01*
X159995809Y-118028478D01*
X160189333Y-117931716D01*
X160286095Y-117834954D01*
X160382857Y-117641430D01*
X160382857Y-117447906D01*
X160286095Y-117254382D01*
X160189333Y-117157620D01*
X159995809Y-117060859D01*
X159608761Y-116964097D01*
X159415238Y-116867335D01*
X159318476Y-116770573D01*
X159221714Y-116577049D01*
X159221714Y-116383525D01*
X159318476Y-116190001D01*
X159415238Y-116093240D01*
X159608761Y-115996478D01*
X160092571Y-115996478D01*
X160382857Y-116093240D01*
X161253714Y-115996478D02*
X161253714Y-117641430D01*
X161350476Y-117834954D01*
X161447238Y-117931716D01*
X161640761Y-118028478D01*
X162027809Y-118028478D01*
X162221333Y-117931716D01*
X162318095Y-117834954D01*
X162414857Y-117641430D01*
X162414857Y-115996478D01*
X164640380Y-115996478D02*
X165317714Y-118028478D01*
X165995047Y-115996478D01*
X166672380Y-116964097D02*
X167349714Y-116964097D01*
X167640000Y-118028478D02*
X166672380Y-118028478D01*
X166672380Y-115996478D01*
X167640000Y-115996478D01*
X169672000Y-118028478D02*
X168994666Y-117060859D01*
X168510857Y-118028478D02*
X168510857Y-115996478D01*
X169284952Y-115996478D01*
X169478476Y-116093240D01*
X169575238Y-116190001D01*
X169672000Y-116383525D01*
X169672000Y-116673811D01*
X169575238Y-116867335D01*
X169478476Y-116964097D01*
X169284952Y-117060859D01*
X168510857Y-117060859D01*
X170542857Y-117834954D02*
X170639619Y-117931716D01*
X170542857Y-118028478D01*
X170446095Y-117931716D01*
X170542857Y-117834954D01*
X170542857Y-118028478D01*
X172865142Y-115996478D02*
X174219809Y-118028478D01*
X174219809Y-115996478D02*
X172865142Y-118028478D01*
X174993904Y-117254382D02*
X176542095Y-117254382D01*
X177896761Y-115996478D02*
X178090285Y-115996478D01*
X178283809Y-116093240D01*
X178380571Y-116190001D01*
X178477333Y-116383525D01*
X178574095Y-116770573D01*
X178574095Y-117254382D01*
X178477333Y-117641430D01*
X178380571Y-117834954D01*
X178283809Y-117931716D01*
X178090285Y-118028478D01*
X177896761Y-118028478D01*
X177703238Y-117931716D01*
X177606476Y-117834954D01*
X177509714Y-117641430D01*
X177412952Y-117254382D01*
X177412952Y-116770573D01*
X177509714Y-116383525D01*
X177606476Y-116190001D01*
X177703238Y-116093240D01*
X177896761Y-115996478D01*
X182154285Y-118028478D02*
X181476952Y-117060859D01*
X180993142Y-118028478D02*
X180993142Y-115996478D01*
X181767238Y-115996478D01*
X181960761Y-116093240D01*
X182057523Y-116190001D01*
X182154285Y-116383525D01*
X182154285Y-116673811D01*
X182057523Y-116867335D01*
X181960761Y-116964097D01*
X181767238Y-117060859D01*
X180993142Y-117060859D01*
X183025142Y-116964097D02*
X183702476Y-116964097D01*
X183992761Y-118028478D02*
X183025142Y-118028478D01*
X183025142Y-115996478D01*
X183992761Y-115996478D01*
X184573333Y-115996478D02*
X185250666Y-118028478D01*
X185928000Y-115996478D01*
X186605333Y-117834954D02*
X186702095Y-117931716D01*
X186605333Y-118028478D01*
X186508571Y-117931716D01*
X186605333Y-117834954D01*
X186605333Y-118028478D01*
X189024380Y-116190001D02*
X189121142Y-116093240D01*
X189314666Y-115996478D01*
X189798476Y-115996478D01*
X189992000Y-116093240D01*
X190088761Y-116190001D01*
X190185523Y-116383525D01*
X190185523Y-116577049D01*
X190088761Y-116867335D01*
X188927619Y-118028478D01*
X190185523Y-118028478D01*
X191153142Y-118028478D02*
X191540190Y-118028478D01*
X191733714Y-117931716D01*
X191830476Y-117834954D01*
X192024000Y-117544668D01*
X192120761Y-117157620D01*
X192120761Y-116383525D01*
X192024000Y-116190001D01*
X191927238Y-116093240D01*
X191733714Y-115996478D01*
X191346666Y-115996478D01*
X191153142Y-116093240D01*
X191056380Y-116190001D01*
X190959619Y-116383525D01*
X190959619Y-116867335D01*
X191056380Y-117060859D01*
X191153142Y-117157620D01*
X191346666Y-117254382D01*
X191733714Y-117254382D01*
X191927238Y-117157620D01*
X192024000Y-117060859D01*
X192120761Y-116867335D01*
X192991619Y-117254382D02*
X194539809Y-117254382D01*
X195894476Y-115996478D02*
X196088000Y-115996478D01*
X196281523Y-116093240D01*
X196378285Y-116190001D01*
X196475047Y-116383525D01*
X196571809Y-116770573D01*
X196571809Y-117254382D01*
X196475047Y-117641430D01*
X196378285Y-117834954D01*
X196281523Y-117931716D01*
X196088000Y-118028478D01*
X195894476Y-118028478D01*
X195700952Y-117931716D01*
X195604190Y-117834954D01*
X195507428Y-117641430D01*
X195410666Y-117254382D01*
X195410666Y-116770573D01*
X195507428Y-116383525D01*
X195604190Y-116190001D01*
X195700952Y-116093240D01*
X195894476Y-115996478D01*
X198410285Y-115996478D02*
X197442666Y-115996478D01*
X197345904Y-116964097D01*
X197442666Y-116867335D01*
X197636190Y-116770573D01*
X198120000Y-116770573D01*
X198313523Y-116867335D01*
X198410285Y-116964097D01*
X198507047Y-117157620D01*
X198507047Y-117641430D01*
X198410285Y-117834954D01*
X198313523Y-117931716D01*
X198120000Y-118028478D01*
X197636190Y-118028478D01*
X197442666Y-117931716D01*
X197345904Y-117834954D01*
X199377904Y-117254382D02*
X200926095Y-117254382D01*
X201796952Y-116190001D02*
X201893714Y-116093240D01*
X202087238Y-115996478D01*
X202571047Y-115996478D01*
X202764571Y-116093240D01*
X202861333Y-116190001D01*
X202958095Y-116383525D01*
X202958095Y-116577049D01*
X202861333Y-116867335D01*
X201700190Y-118028478D01*
X202958095Y-118028478D01*
X204216000Y-115996478D02*
X204409523Y-115996478D01*
X204603047Y-116093240D01*
X204699809Y-116190001D01*
X204796571Y-116383525D01*
X204893333Y-116770573D01*
X204893333Y-117254382D01*
X204796571Y-117641430D01*
X204699809Y-117834954D01*
X204603047Y-117931716D01*
X204409523Y-118028478D01*
X204216000Y-118028478D01*
X204022476Y-117931716D01*
X203925714Y-117834954D01*
X203828952Y-117641430D01*
X203732190Y-117254382D01*
X203732190Y-116770573D01*
X203828952Y-116383525D01*
X203925714Y-116190001D01*
X204022476Y-116093240D01*
X204216000Y-115996478D01*
X205667428Y-116190001D02*
X205764190Y-116093240D01*
X205957714Y-115996478D01*
X206441523Y-115996478D01*
X206635047Y-116093240D01*
X206731809Y-116190001D01*
X206828571Y-116383525D01*
X206828571Y-116577049D01*
X206731809Y-116867335D01*
X205570666Y-118028478D01*
X206828571Y-118028478D01*
X207602666Y-116190001D02*
X207699428Y-116093240D01*
X207892952Y-115996478D01*
X208376761Y-115996478D01*
X208570285Y-116093240D01*
X208667047Y-116190001D01*
X208763809Y-116383525D01*
X208763809Y-116577049D01*
X208667047Y-116867335D01*
X207505904Y-118028478D01*
X208763809Y-118028478D01*
X147948952Y-121299998D02*
X147948952Y-119267998D01*
X148626285Y-120719426D01*
X149303619Y-119267998D01*
X149303619Y-121299998D01*
X150948571Y-120235617D02*
X150271238Y-120235617D01*
X150271238Y-121299998D02*
X150271238Y-119267998D01*
X151238857Y-119267998D01*
X153174095Y-121299998D02*
X152496761Y-120332379D01*
X152012952Y-121299998D02*
X152012952Y-119267998D01*
X152787047Y-119267998D01*
X152980571Y-119364760D01*
X153077333Y-119461521D01*
X153174095Y-119655045D01*
X153174095Y-119945331D01*
X153077333Y-120138855D01*
X152980571Y-120235617D01*
X152787047Y-120332379D01*
X152012952Y-120332379D01*
X154044952Y-121106474D02*
X154141714Y-121203236D01*
X154044952Y-121299998D01*
X153948190Y-121203236D01*
X154044952Y-121106474D01*
X154044952Y-121299998D01*
X156947809Y-119267998D02*
X157141333Y-119267998D01*
X157334857Y-119364760D01*
X157431619Y-119461521D01*
X157528380Y-119655045D01*
X157625142Y-120042093D01*
X157625142Y-120525902D01*
X157528380Y-120912950D01*
X157431619Y-121106474D01*
X157334857Y-121203236D01*
X157141333Y-121299998D01*
X156947809Y-121299998D01*
X156754285Y-121203236D01*
X156657523Y-121106474D01*
X156560761Y-120912950D01*
X156464000Y-120525902D01*
X156464000Y-120042093D01*
X156560761Y-119655045D01*
X156657523Y-119461521D01*
X156754285Y-119364760D01*
X156947809Y-119267998D01*
X160044190Y-121299998D02*
X160044190Y-119267998D01*
X160721523Y-120719426D01*
X161398857Y-119267998D01*
X161398857Y-121299998D01*
X163043809Y-120235617D02*
X162366476Y-120235617D01*
X162366476Y-121299998D02*
X162366476Y-119267998D01*
X163334095Y-119267998D01*
X164108190Y-121299998D02*
X164108190Y-119267998D01*
X164592000Y-119267998D01*
X164882285Y-119364760D01*
X165075809Y-119558283D01*
X165172571Y-119751807D01*
X165269333Y-120138855D01*
X165269333Y-120429140D01*
X165172571Y-120816188D01*
X165075809Y-121009712D01*
X164882285Y-121203236D01*
X164592000Y-121299998D01*
X164108190Y-121299998D01*
X166140190Y-121106474D02*
X166236952Y-121203236D01*
X166140190Y-121299998D01*
X166043428Y-121203236D01*
X166140190Y-121106474D01*
X166140190Y-121299998D01*
X168656000Y-121299998D02*
X168656000Y-119267998D01*
X169139809Y-119267998D01*
X169430095Y-119364760D01*
X169623619Y-119558283D01*
X169720380Y-119751807D01*
X169817142Y-120138855D01*
X169817142Y-120429140D01*
X169720380Y-120816188D01*
X169623619Y-121009712D01*
X169430095Y-121203236D01*
X169139809Y-121299998D01*
X168656000Y-121299998D01*
X170688000Y-121299998D02*
X170688000Y-119267998D01*
X171171809Y-119267998D01*
X171462095Y-119364760D01*
X171655619Y-119558283D01*
X171752380Y-119751807D01*
X171849142Y-120138855D01*
X171849142Y-120429140D01*
X171752380Y-120816188D01*
X171655619Y-121009712D01*
X171462095Y-121203236D01*
X171171809Y-121299998D01*
X170688000Y-121299998D01*
X172720000Y-120525902D02*
X174268190Y-120525902D01*
X175235809Y-121299998D02*
X175235809Y-119267998D01*
X175913142Y-120719426D01*
X176590476Y-119267998D01*
X176590476Y-121299998D01*
X177558095Y-121299998D02*
X177558095Y-119267998D01*
X178235428Y-120719426D01*
X178912761Y-119267998D01*
X178912761Y-121299998D01*
X179880380Y-120525902D02*
X181428571Y-120525902D01*
X182783238Y-120332379D02*
X182783238Y-121299998D01*
X182105904Y-119267998D02*
X182783238Y-120332379D01*
X183460571Y-119267998D01*
X184524952Y-120332379D02*
X184524952Y-121299998D01*
X183847619Y-119267998D02*
X184524952Y-120332379D01*
X185202285Y-119267998D01*
X186266666Y-120332379D02*
X186266666Y-121299998D01*
X185589333Y-119267998D02*
X186266666Y-120332379D01*
X186944000Y-119267998D01*
X188008380Y-120332379D02*
X188008380Y-121299998D01*
X187331047Y-119267998D02*
X188008380Y-120332379D01*
X188685714Y-119267998D01*
X190814476Y-121203236D02*
X191104761Y-121299998D01*
X191588571Y-121299998D01*
X191782095Y-121203236D01*
X191878857Y-121106474D01*
X191975619Y-120912950D01*
X191975619Y-120719426D01*
X191878857Y-120525902D01*
X191782095Y-120429140D01*
X191588571Y-120332379D01*
X191201523Y-120235617D01*
X191008000Y-120138855D01*
X190911238Y-120042093D01*
X190814476Y-119848569D01*
X190814476Y-119655045D01*
X190911238Y-119461521D01*
X191008000Y-119364760D01*
X191201523Y-119267998D01*
X191685333Y-119267998D01*
X191975619Y-119364760D01*
X192846476Y-120235617D02*
X193523809Y-120235617D01*
X193814095Y-121299998D02*
X192846476Y-121299998D01*
X192846476Y-119267998D01*
X193814095Y-119267998D01*
X195846095Y-121299998D02*
X195168761Y-120332379D01*
X194684952Y-121299998D02*
X194684952Y-119267998D01*
X195459047Y-119267998D01*
X195652571Y-119364760D01*
X195749333Y-119461521D01*
X195846095Y-119655045D01*
X195846095Y-119945331D01*
X195749333Y-120138855D01*
X195652571Y-120235617D01*
X195459047Y-120332379D01*
X194684952Y-120332379D01*
X196716952Y-121106474D02*
X196813714Y-121203236D01*
X196716952Y-121299998D01*
X196620190Y-121203236D01*
X196716952Y-121106474D01*
X196716952Y-121299998D01*
X199136000Y-120719426D02*
X200103619Y-120719426D01*
X198942476Y-121299998D02*
X199619809Y-119267998D01*
X200297142Y-121299998D01*
X201651809Y-120235617D02*
X201942095Y-120332379D01*
X202038857Y-120429140D01*
X202135619Y-120622664D01*
X202135619Y-120912950D01*
X202038857Y-121106474D01*
X201942095Y-121203236D01*
X201748571Y-121299998D01*
X200974476Y-121299998D01*
X200974476Y-119267998D01*
X201651809Y-119267998D01*
X201845333Y-119364760D01*
X201942095Y-119461521D01*
X202038857Y-119655045D01*
X202038857Y-119848569D01*
X201942095Y-120042093D01*
X201845333Y-120138855D01*
X201651809Y-120235617D01*
X200974476Y-120235617D01*
X204167619Y-121106474D02*
X204070857Y-121203236D01*
X203780571Y-121299998D01*
X203587047Y-121299998D01*
X203296761Y-121203236D01*
X203103238Y-121009712D01*
X203006476Y-120816188D01*
X202909714Y-120429140D01*
X202909714Y-120138855D01*
X203006476Y-119751807D01*
X203103238Y-119558283D01*
X203296761Y-119364760D01*
X203587047Y-119267998D01*
X203780571Y-119267998D01*
X204070857Y-119364760D01*
X204167619Y-119461521D01*
X205038476Y-121299998D02*
X205038476Y-119267998D01*
X205522285Y-119267998D01*
X205812571Y-119364760D01*
X206006095Y-119558283D01*
X206102857Y-119751807D01*
X206199619Y-120138855D01*
X206199619Y-120429140D01*
X206102857Y-120816188D01*
X206006095Y-121009712D01*
X205812571Y-121203236D01*
X205522285Y-121299998D01*
X205038476Y-121299998D01*
X143545547Y-73817238D02*
X144222880Y-75849238D01*
X144900214Y-73817238D01*
X145964595Y-73817238D02*
X146351642Y-73817238D01*
X146545166Y-73914000D01*
X146738690Y-74107523D01*
X146835452Y-74494571D01*
X146835452Y-75171904D01*
X146738690Y-75558952D01*
X146545166Y-75752476D01*
X146351642Y-75849238D01*
X145964595Y-75849238D01*
X145771071Y-75752476D01*
X145577547Y-75558952D01*
X145480785Y-75171904D01*
X145480785Y-74494571D01*
X145577547Y-74107523D01*
X145771071Y-73914000D01*
X145964595Y-73817238D01*
%TO.C,D3*%
X198651904Y-95702380D02*
X198651904Y-94702380D01*
X198890000Y-94702380D01*
X199032857Y-94750000D01*
X199128095Y-94845238D01*
X199175714Y-94940476D01*
X199223333Y-95130952D01*
X199223333Y-95273809D01*
X199175714Y-95464285D01*
X199128095Y-95559523D01*
X199032857Y-95654761D01*
X198890000Y-95702380D01*
X198651904Y-95702380D01*
X199556666Y-94702380D02*
X200175714Y-94702380D01*
X199842380Y-95083333D01*
X199985238Y-95083333D01*
X200080476Y-95130952D01*
X200128095Y-95178571D01*
X200175714Y-95273809D01*
X200175714Y-95511904D01*
X200128095Y-95607142D01*
X200080476Y-95654761D01*
X199985238Y-95702380D01*
X199699523Y-95702380D01*
X199604285Y-95654761D01*
X199556666Y-95607142D01*
%TO.C,R5*%
X174442380Y-47156666D02*
X173966190Y-47490000D01*
X174442380Y-47728095D02*
X173442380Y-47728095D01*
X173442380Y-47347142D01*
X173490000Y-47251904D01*
X173537619Y-47204285D01*
X173632857Y-47156666D01*
X173775714Y-47156666D01*
X173870952Y-47204285D01*
X173918571Y-47251904D01*
X173966190Y-47347142D01*
X173966190Y-47728095D01*
X173442380Y-46251904D02*
X173442380Y-46728095D01*
X173918571Y-46775714D01*
X173870952Y-46728095D01*
X173823333Y-46632857D01*
X173823333Y-46394761D01*
X173870952Y-46299523D01*
X173918571Y-46251904D01*
X174013809Y-46204285D01*
X174251904Y-46204285D01*
X174347142Y-46251904D01*
X174394761Y-46299523D01*
X174442380Y-46394761D01*
X174442380Y-46632857D01*
X174394761Y-46728095D01*
X174347142Y-46775714D01*
%TO.C,R4*%
X189682380Y-48426666D02*
X189206190Y-48760000D01*
X189682380Y-48998095D02*
X188682380Y-48998095D01*
X188682380Y-48617142D01*
X188730000Y-48521904D01*
X188777619Y-48474285D01*
X188872857Y-48426666D01*
X189015714Y-48426666D01*
X189110952Y-48474285D01*
X189158571Y-48521904D01*
X189206190Y-48617142D01*
X189206190Y-48998095D01*
X189015714Y-47569523D02*
X189682380Y-47569523D01*
X188634761Y-47807619D02*
X189349047Y-48045714D01*
X189349047Y-47426666D01*
%TO.C,D5*%
X199842380Y-71223095D02*
X198842380Y-71223095D01*
X198842380Y-70985000D01*
X198890000Y-70842142D01*
X198985238Y-70746904D01*
X199080476Y-70699285D01*
X199270952Y-70651666D01*
X199413809Y-70651666D01*
X199604285Y-70699285D01*
X199699523Y-70746904D01*
X199794761Y-70842142D01*
X199842380Y-70985000D01*
X199842380Y-71223095D01*
X198842380Y-69746904D02*
X198842380Y-70223095D01*
X199318571Y-70270714D01*
X199270952Y-70223095D01*
X199223333Y-70127857D01*
X199223333Y-69889761D01*
X199270952Y-69794523D01*
X199318571Y-69746904D01*
X199413809Y-69699285D01*
X199651904Y-69699285D01*
X199747142Y-69746904D01*
X199794761Y-69794523D01*
X199842380Y-69889761D01*
X199842380Y-70127857D01*
X199794761Y-70223095D01*
X199747142Y-70270714D01*
%TO.C,C3*%
X173077142Y-72556666D02*
X173124761Y-72604285D01*
X173172380Y-72747142D01*
X173172380Y-72842380D01*
X173124761Y-72985238D01*
X173029523Y-73080476D01*
X172934285Y-73128095D01*
X172743809Y-73175714D01*
X172600952Y-73175714D01*
X172410476Y-73128095D01*
X172315238Y-73080476D01*
X172220000Y-72985238D01*
X172172380Y-72842380D01*
X172172380Y-72747142D01*
X172220000Y-72604285D01*
X172267619Y-72556666D01*
X172172380Y-72223333D02*
X172172380Y-71604285D01*
X172553333Y-71937619D01*
X172553333Y-71794761D01*
X172600952Y-71699523D01*
X172648571Y-71651904D01*
X172743809Y-71604285D01*
X172981904Y-71604285D01*
X173077142Y-71651904D01*
X173124761Y-71699523D01*
X173172380Y-71794761D01*
X173172380Y-72080476D01*
X173124761Y-72175714D01*
X173077142Y-72223333D01*
%TO.C,C1*%
X175093333Y-107037142D02*
X175045714Y-107084761D01*
X174902857Y-107132380D01*
X174807619Y-107132380D01*
X174664761Y-107084761D01*
X174569523Y-106989523D01*
X174521904Y-106894285D01*
X174474285Y-106703809D01*
X174474285Y-106560952D01*
X174521904Y-106370476D01*
X174569523Y-106275238D01*
X174664761Y-106180000D01*
X174807619Y-106132380D01*
X174902857Y-106132380D01*
X175045714Y-106180000D01*
X175093333Y-106227619D01*
X176045714Y-107132380D02*
X175474285Y-107132380D01*
X175760000Y-107132380D02*
X175760000Y-106132380D01*
X175664761Y-106275238D01*
X175569523Y-106370476D01*
X175474285Y-106418095D01*
%TO.C,H0*%
X154122380Y-68071904D02*
X153122380Y-68071904D01*
X153598571Y-68071904D02*
X153598571Y-67500476D01*
X154122380Y-67500476D02*
X153122380Y-67500476D01*
X153122380Y-66833809D02*
X153122380Y-66738571D01*
X153170000Y-66643333D01*
X153217619Y-66595714D01*
X153312857Y-66548095D01*
X153503333Y-66500476D01*
X153741428Y-66500476D01*
X153931904Y-66548095D01*
X154027142Y-66595714D01*
X154074761Y-66643333D01*
X154122380Y-66738571D01*
X154122380Y-66833809D01*
X154074761Y-66929047D01*
X154027142Y-66976666D01*
X153931904Y-67024285D01*
X153741428Y-67071904D01*
X153503333Y-67071904D01*
X153312857Y-67024285D01*
X153217619Y-66976666D01*
X153170000Y-66929047D01*
X153122380Y-66833809D01*
%TO.C,T2*%
X196937380Y-49021904D02*
X196937380Y-48450476D01*
X197937380Y-48736190D02*
X196937380Y-48736190D01*
X197032619Y-48164761D02*
X196985000Y-48117142D01*
X196937380Y-48021904D01*
X196937380Y-47783809D01*
X196985000Y-47688571D01*
X197032619Y-47640952D01*
X197127857Y-47593333D01*
X197223095Y-47593333D01*
X197365952Y-47640952D01*
X197937380Y-48212380D01*
X197937380Y-47593333D01*
%TO.C,C9*%
X178157142Y-62396666D02*
X178204761Y-62444285D01*
X178252380Y-62587142D01*
X178252380Y-62682380D01*
X178204761Y-62825238D01*
X178109523Y-62920476D01*
X178014285Y-62968095D01*
X177823809Y-63015714D01*
X177680952Y-63015714D01*
X177490476Y-62968095D01*
X177395238Y-62920476D01*
X177300000Y-62825238D01*
X177252380Y-62682380D01*
X177252380Y-62587142D01*
X177300000Y-62444285D01*
X177347619Y-62396666D01*
X178252380Y-61920476D02*
X178252380Y-61730000D01*
X178204761Y-61634761D01*
X178157142Y-61587142D01*
X178014285Y-61491904D01*
X177823809Y-61444285D01*
X177442857Y-61444285D01*
X177347619Y-61491904D01*
X177300000Y-61539523D01*
X177252380Y-61634761D01*
X177252380Y-61825238D01*
X177300000Y-61920476D01*
X177347619Y-61968095D01*
X177442857Y-62015714D01*
X177680952Y-62015714D01*
X177776190Y-61968095D01*
X177823809Y-61920476D01*
X177871428Y-61825238D01*
X177871428Y-61634761D01*
X177823809Y-61539523D01*
X177776190Y-61491904D01*
X177680952Y-61444285D01*
%TO.C,C10*%
X188317142Y-62872857D02*
X188364761Y-62920476D01*
X188412380Y-63063333D01*
X188412380Y-63158571D01*
X188364761Y-63301428D01*
X188269523Y-63396666D01*
X188174285Y-63444285D01*
X187983809Y-63491904D01*
X187840952Y-63491904D01*
X187650476Y-63444285D01*
X187555238Y-63396666D01*
X187460000Y-63301428D01*
X187412380Y-63158571D01*
X187412380Y-63063333D01*
X187460000Y-62920476D01*
X187507619Y-62872857D01*
X188412380Y-61920476D02*
X188412380Y-62491904D01*
X188412380Y-62206190D02*
X187412380Y-62206190D01*
X187555238Y-62301428D01*
X187650476Y-62396666D01*
X187698095Y-62491904D01*
X187412380Y-61301428D02*
X187412380Y-61206190D01*
X187460000Y-61110952D01*
X187507619Y-61063333D01*
X187602857Y-61015714D01*
X187793333Y-60968095D01*
X188031428Y-60968095D01*
X188221904Y-61015714D01*
X188317142Y-61063333D01*
X188364761Y-61110952D01*
X188412380Y-61206190D01*
X188412380Y-61301428D01*
X188364761Y-61396666D01*
X188317142Y-61444285D01*
X188221904Y-61491904D01*
X188031428Y-61539523D01*
X187793333Y-61539523D01*
X187602857Y-61491904D01*
X187507619Y-61444285D01*
X187460000Y-61396666D01*
X187412380Y-61301428D01*
%TO.C,C5*%
X193397142Y-72556666D02*
X193444761Y-72604285D01*
X193492380Y-72747142D01*
X193492380Y-72842380D01*
X193444761Y-72985238D01*
X193349523Y-73080476D01*
X193254285Y-73128095D01*
X193063809Y-73175714D01*
X192920952Y-73175714D01*
X192730476Y-73128095D01*
X192635238Y-73080476D01*
X192540000Y-72985238D01*
X192492380Y-72842380D01*
X192492380Y-72747142D01*
X192540000Y-72604285D01*
X192587619Y-72556666D01*
X192492380Y-71651904D02*
X192492380Y-72128095D01*
X192968571Y-72175714D01*
X192920952Y-72128095D01*
X192873333Y-72032857D01*
X192873333Y-71794761D01*
X192920952Y-71699523D01*
X192968571Y-71651904D01*
X193063809Y-71604285D01*
X193301904Y-71604285D01*
X193397142Y-71651904D01*
X193444761Y-71699523D01*
X193492380Y-71794761D01*
X193492380Y-72032857D01*
X193444761Y-72128095D01*
X193397142Y-72175714D01*
%TO.C,D6*%
X199842380Y-64873095D02*
X198842380Y-64873095D01*
X198842380Y-64635000D01*
X198890000Y-64492142D01*
X198985238Y-64396904D01*
X199080476Y-64349285D01*
X199270952Y-64301666D01*
X199413809Y-64301666D01*
X199604285Y-64349285D01*
X199699523Y-64396904D01*
X199794761Y-64492142D01*
X199842380Y-64635000D01*
X199842380Y-64873095D01*
X198842380Y-63444523D02*
X198842380Y-63635000D01*
X198890000Y-63730238D01*
X198937619Y-63777857D01*
X199080476Y-63873095D01*
X199270952Y-63920714D01*
X199651904Y-63920714D01*
X199747142Y-63873095D01*
X199794761Y-63825476D01*
X199842380Y-63730238D01*
X199842380Y-63539761D01*
X199794761Y-63444523D01*
X199747142Y-63396904D01*
X199651904Y-63349285D01*
X199413809Y-63349285D01*
X199318571Y-63396904D01*
X199270952Y-63444523D01*
X199223333Y-63539761D01*
X199223333Y-63730238D01*
X199270952Y-63825476D01*
X199318571Y-63873095D01*
X199413809Y-63920714D01*
%TO.C,R6*%
X176982380Y-47156666D02*
X176506190Y-47490000D01*
X176982380Y-47728095D02*
X175982380Y-47728095D01*
X175982380Y-47347142D01*
X176030000Y-47251904D01*
X176077619Y-47204285D01*
X176172857Y-47156666D01*
X176315714Y-47156666D01*
X176410952Y-47204285D01*
X176458571Y-47251904D01*
X176506190Y-47347142D01*
X176506190Y-47728095D01*
X175982380Y-46299523D02*
X175982380Y-46490000D01*
X176030000Y-46585238D01*
X176077619Y-46632857D01*
X176220476Y-46728095D01*
X176410952Y-46775714D01*
X176791904Y-46775714D01*
X176887142Y-46728095D01*
X176934761Y-46680476D01*
X176982380Y-46585238D01*
X176982380Y-46394761D01*
X176934761Y-46299523D01*
X176887142Y-46251904D01*
X176791904Y-46204285D01*
X176553809Y-46204285D01*
X176458571Y-46251904D01*
X176410952Y-46299523D01*
X176363333Y-46394761D01*
X176363333Y-46585238D01*
X176410952Y-46680476D01*
X176458571Y-46728095D01*
X176553809Y-46775714D01*
%TO.C,R2*%
X154122380Y-47156666D02*
X153646190Y-47490000D01*
X154122380Y-47728095D02*
X153122380Y-47728095D01*
X153122380Y-47347142D01*
X153170000Y-47251904D01*
X153217619Y-47204285D01*
X153312857Y-47156666D01*
X153455714Y-47156666D01*
X153550952Y-47204285D01*
X153598571Y-47251904D01*
X153646190Y-47347142D01*
X153646190Y-47728095D01*
X153217619Y-46775714D02*
X153170000Y-46728095D01*
X153122380Y-46632857D01*
X153122380Y-46394761D01*
X153170000Y-46299523D01*
X153217619Y-46251904D01*
X153312857Y-46204285D01*
X153408095Y-46204285D01*
X153550952Y-46251904D01*
X154122380Y-46823333D01*
X154122380Y-46204285D01*
%TO.C,T1*%
X152908095Y-101052380D02*
X153479523Y-101052380D01*
X153193809Y-102052380D02*
X153193809Y-101052380D01*
X154336666Y-102052380D02*
X153765238Y-102052380D01*
X154050952Y-102052380D02*
X154050952Y-101052380D01*
X153955714Y-101195238D01*
X153860476Y-101290476D01*
X153765238Y-101338095D01*
%TO.C,IC0*%
X161583809Y-47442380D02*
X161583809Y-46442380D01*
X162631428Y-47347142D02*
X162583809Y-47394761D01*
X162440952Y-47442380D01*
X162345714Y-47442380D01*
X162202857Y-47394761D01*
X162107619Y-47299523D01*
X162060000Y-47204285D01*
X162012380Y-47013809D01*
X162012380Y-46870952D01*
X162060000Y-46680476D01*
X162107619Y-46585238D01*
X162202857Y-46490000D01*
X162345714Y-46442380D01*
X162440952Y-46442380D01*
X162583809Y-46490000D01*
X162631428Y-46537619D01*
X163250476Y-46442380D02*
X163345714Y-46442380D01*
X163440952Y-46490000D01*
X163488571Y-46537619D01*
X163536190Y-46632857D01*
X163583809Y-46823333D01*
X163583809Y-47061428D01*
X163536190Y-47251904D01*
X163488571Y-47347142D01*
X163440952Y-47394761D01*
X163345714Y-47442380D01*
X163250476Y-47442380D01*
X163155238Y-47394761D01*
X163107619Y-47347142D01*
X163060000Y-47251904D01*
X163012380Y-47061428D01*
X163012380Y-46823333D01*
X163060000Y-46632857D01*
X163107619Y-46537619D01*
X163155238Y-46490000D01*
X163250476Y-46442380D01*
%TO.C,D1*%
X198651904Y-85542380D02*
X198651904Y-84542380D01*
X198890000Y-84542380D01*
X199032857Y-84590000D01*
X199128095Y-84685238D01*
X199175714Y-84780476D01*
X199223333Y-84970952D01*
X199223333Y-85113809D01*
X199175714Y-85304285D01*
X199128095Y-85399523D01*
X199032857Y-85494761D01*
X198890000Y-85542380D01*
X198651904Y-85542380D01*
X200175714Y-85542380D02*
X199604285Y-85542380D01*
X199890000Y-85542380D02*
X199890000Y-84542380D01*
X199794761Y-84685238D01*
X199699523Y-84780476D01*
X199604285Y-84828095D01*
%TO.C,D4*%
X198651904Y-100782380D02*
X198651904Y-99782380D01*
X198890000Y-99782380D01*
X199032857Y-99830000D01*
X199128095Y-99925238D01*
X199175714Y-100020476D01*
X199223333Y-100210952D01*
X199223333Y-100353809D01*
X199175714Y-100544285D01*
X199128095Y-100639523D01*
X199032857Y-100734761D01*
X198890000Y-100782380D01*
X198651904Y-100782380D01*
X200080476Y-100115714D02*
X200080476Y-100782380D01*
X199842380Y-99734761D02*
X199604285Y-100449047D01*
X200223333Y-100449047D01*
%TO.C,R3*%
X182062380Y-48426666D02*
X181586190Y-48760000D01*
X182062380Y-48998095D02*
X181062380Y-48998095D01*
X181062380Y-48617142D01*
X181110000Y-48521904D01*
X181157619Y-48474285D01*
X181252857Y-48426666D01*
X181395714Y-48426666D01*
X181490952Y-48474285D01*
X181538571Y-48521904D01*
X181586190Y-48617142D01*
X181586190Y-48998095D01*
X181062380Y-48093333D02*
X181062380Y-47474285D01*
X181443333Y-47807619D01*
X181443333Y-47664761D01*
X181490952Y-47569523D01*
X181538571Y-47521904D01*
X181633809Y-47474285D01*
X181871904Y-47474285D01*
X181967142Y-47521904D01*
X182014761Y-47569523D01*
X182062380Y-47664761D01*
X182062380Y-47950476D01*
X182014761Y-48045714D01*
X181967142Y-48093333D01*
%TO.C,C7*%
X157837142Y-62396666D02*
X157884761Y-62444285D01*
X157932380Y-62587142D01*
X157932380Y-62682380D01*
X157884761Y-62825238D01*
X157789523Y-62920476D01*
X157694285Y-62968095D01*
X157503809Y-63015714D01*
X157360952Y-63015714D01*
X157170476Y-62968095D01*
X157075238Y-62920476D01*
X156980000Y-62825238D01*
X156932380Y-62682380D01*
X156932380Y-62587142D01*
X156980000Y-62444285D01*
X157027619Y-62396666D01*
X156932380Y-62063333D02*
X156932380Y-61396666D01*
X157932380Y-61825238D01*
%TO.C,D2*%
X198651904Y-90622380D02*
X198651904Y-89622380D01*
X198890000Y-89622380D01*
X199032857Y-89670000D01*
X199128095Y-89765238D01*
X199175714Y-89860476D01*
X199223333Y-90050952D01*
X199223333Y-90193809D01*
X199175714Y-90384285D01*
X199128095Y-90479523D01*
X199032857Y-90574761D01*
X198890000Y-90622380D01*
X198651904Y-90622380D01*
X199604285Y-89717619D02*
X199651904Y-89670000D01*
X199747142Y-89622380D01*
X199985238Y-89622380D01*
X200080476Y-89670000D01*
X200128095Y-89717619D01*
X200175714Y-89812857D01*
X200175714Y-89908095D01*
X200128095Y-90050952D01*
X199556666Y-90622380D01*
X200175714Y-90622380D01*
%TO.C,C4*%
X183237142Y-72556666D02*
X183284761Y-72604285D01*
X183332380Y-72747142D01*
X183332380Y-72842380D01*
X183284761Y-72985238D01*
X183189523Y-73080476D01*
X183094285Y-73128095D01*
X182903809Y-73175714D01*
X182760952Y-73175714D01*
X182570476Y-73128095D01*
X182475238Y-73080476D01*
X182380000Y-72985238D01*
X182332380Y-72842380D01*
X182332380Y-72747142D01*
X182380000Y-72604285D01*
X182427619Y-72556666D01*
X182665714Y-71699523D02*
X183332380Y-71699523D01*
X182284761Y-71937619D02*
X182999047Y-72175714D01*
X182999047Y-71556666D01*
%TO.C,R0*%
X169362380Y-47156666D02*
X168886190Y-47490000D01*
X169362380Y-47728095D02*
X168362380Y-47728095D01*
X168362380Y-47347142D01*
X168410000Y-47251904D01*
X168457619Y-47204285D01*
X168552857Y-47156666D01*
X168695714Y-47156666D01*
X168790952Y-47204285D01*
X168838571Y-47251904D01*
X168886190Y-47347142D01*
X168886190Y-47728095D01*
X168362380Y-46537619D02*
X168362380Y-46442380D01*
X168410000Y-46347142D01*
X168457619Y-46299523D01*
X168552857Y-46251904D01*
X168743333Y-46204285D01*
X168981428Y-46204285D01*
X169171904Y-46251904D01*
X169267142Y-46299523D01*
X169314761Y-46347142D01*
X169362380Y-46442380D01*
X169362380Y-46537619D01*
X169314761Y-46632857D01*
X169267142Y-46680476D01*
X169171904Y-46728095D01*
X168981428Y-46775714D01*
X168743333Y-46775714D01*
X168552857Y-46728095D01*
X168457619Y-46680476D01*
X168410000Y-46632857D01*
X168362380Y-46537619D01*
%TO.C,L0*%
X175093333Y-93162380D02*
X174617142Y-93162380D01*
X174617142Y-92162380D01*
X175617142Y-92162380D02*
X175712380Y-92162380D01*
X175807619Y-92210000D01*
X175855238Y-92257619D01*
X175902857Y-92352857D01*
X175950476Y-92543333D01*
X175950476Y-92781428D01*
X175902857Y-92971904D01*
X175855238Y-93067142D01*
X175807619Y-93114761D01*
X175712380Y-93162380D01*
X175617142Y-93162380D01*
X175521904Y-93114761D01*
X175474285Y-93067142D01*
X175426666Y-92971904D01*
X175379047Y-92781428D01*
X175379047Y-92543333D01*
X175426666Y-92352857D01*
X175474285Y-92257619D01*
X175521904Y-92210000D01*
X175617142Y-92162380D01*
%TO.C,T0*%
X147407380Y-49021904D02*
X147407380Y-48450476D01*
X148407380Y-48736190D02*
X147407380Y-48736190D01*
X147407380Y-47926666D02*
X147407380Y-47831428D01*
X147455000Y-47736190D01*
X147502619Y-47688571D01*
X147597857Y-47640952D01*
X147788333Y-47593333D01*
X148026428Y-47593333D01*
X148216904Y-47640952D01*
X148312142Y-47688571D01*
X148359761Y-47736190D01*
X148407380Y-47831428D01*
X148407380Y-47926666D01*
X148359761Y-48021904D01*
X148312142Y-48069523D01*
X148216904Y-48117142D01*
X148026428Y-48164761D01*
X147788333Y-48164761D01*
X147597857Y-48117142D01*
X147502619Y-48069523D01*
X147455000Y-48021904D01*
X147407380Y-47926666D01*
%TO.C,R1*%
X171902380Y-47156666D02*
X171426190Y-47490000D01*
X171902380Y-47728095D02*
X170902380Y-47728095D01*
X170902380Y-47347142D01*
X170950000Y-47251904D01*
X170997619Y-47204285D01*
X171092857Y-47156666D01*
X171235714Y-47156666D01*
X171330952Y-47204285D01*
X171378571Y-47251904D01*
X171426190Y-47347142D01*
X171426190Y-47728095D01*
X171902380Y-46204285D02*
X171902380Y-46775714D01*
X171902380Y-46490000D02*
X170902380Y-46490000D01*
X171045238Y-46585238D01*
X171140476Y-46680476D01*
X171188095Y-46775714D01*
%TO.C,C0*%
X158583333Y-40997142D02*
X158535714Y-41044761D01*
X158392857Y-41092380D01*
X158297619Y-41092380D01*
X158154761Y-41044761D01*
X158059523Y-40949523D01*
X158011904Y-40854285D01*
X157964285Y-40663809D01*
X157964285Y-40520952D01*
X158011904Y-40330476D01*
X158059523Y-40235238D01*
X158154761Y-40140000D01*
X158297619Y-40092380D01*
X158392857Y-40092380D01*
X158535714Y-40140000D01*
X158583333Y-40187619D01*
X159202380Y-40092380D02*
X159297619Y-40092380D01*
X159392857Y-40140000D01*
X159440476Y-40187619D01*
X159488095Y-40282857D01*
X159535714Y-40473333D01*
X159535714Y-40711428D01*
X159488095Y-40901904D01*
X159440476Y-40997142D01*
X159392857Y-41044761D01*
X159297619Y-41092380D01*
X159202380Y-41092380D01*
X159107142Y-41044761D01*
X159059523Y-40997142D01*
X159011904Y-40901904D01*
X158964285Y-40711428D01*
X158964285Y-40473333D01*
X159011904Y-40282857D01*
X159059523Y-40187619D01*
X159107142Y-40140000D01*
X159202380Y-40092380D01*
%TO.C,T3*%
X198207380Y-49021904D02*
X198207380Y-48450476D01*
X199207380Y-48736190D02*
X198207380Y-48736190D01*
X198207380Y-48212380D02*
X198207380Y-47593333D01*
X198588333Y-47926666D01*
X198588333Y-47783809D01*
X198635952Y-47688571D01*
X198683571Y-47640952D01*
X198778809Y-47593333D01*
X199016904Y-47593333D01*
X199112142Y-47640952D01*
X199159761Y-47688571D01*
X199207380Y-47783809D01*
X199207380Y-48069523D01*
X199159761Y-48164761D01*
X199112142Y-48212380D01*
%TO.C,D0*%
X156662380Y-45823095D02*
X155662380Y-45823095D01*
X155662380Y-45585000D01*
X155710000Y-45442142D01*
X155805238Y-45346904D01*
X155900476Y-45299285D01*
X156090952Y-45251666D01*
X156233809Y-45251666D01*
X156424285Y-45299285D01*
X156519523Y-45346904D01*
X156614761Y-45442142D01*
X156662380Y-45585000D01*
X156662380Y-45823095D01*
X155662380Y-44632619D02*
X155662380Y-44537380D01*
X155710000Y-44442142D01*
X155757619Y-44394523D01*
X155852857Y-44346904D01*
X156043333Y-44299285D01*
X156281428Y-44299285D01*
X156471904Y-44346904D01*
X156567142Y-44394523D01*
X156614761Y-44442142D01*
X156662380Y-44537380D01*
X156662380Y-44632619D01*
X156614761Y-44727857D01*
X156567142Y-44775476D01*
X156471904Y-44823095D01*
X156281428Y-44870714D01*
X156043333Y-44870714D01*
X155852857Y-44823095D01*
X155757619Y-44775476D01*
X155710000Y-44727857D01*
X155662380Y-44632619D01*
%TO.C,C6*%
X197207142Y-72556666D02*
X197254761Y-72604285D01*
X197302380Y-72747142D01*
X197302380Y-72842380D01*
X197254761Y-72985238D01*
X197159523Y-73080476D01*
X197064285Y-73128095D01*
X196873809Y-73175714D01*
X196730952Y-73175714D01*
X196540476Y-73128095D01*
X196445238Y-73080476D01*
X196350000Y-72985238D01*
X196302380Y-72842380D01*
X196302380Y-72747142D01*
X196350000Y-72604285D01*
X196397619Y-72556666D01*
X196302380Y-71699523D02*
X196302380Y-71890000D01*
X196350000Y-71985238D01*
X196397619Y-72032857D01*
X196540476Y-72128095D01*
X196730952Y-72175714D01*
X197111904Y-72175714D01*
X197207142Y-72128095D01*
X197254761Y-72080476D01*
X197302380Y-71985238D01*
X197302380Y-71794761D01*
X197254761Y-71699523D01*
X197207142Y-71651904D01*
X197111904Y-71604285D01*
X196873809Y-71604285D01*
X196778571Y-71651904D01*
X196730952Y-71699523D01*
X196683333Y-71794761D01*
X196683333Y-71985238D01*
X196730952Y-72080476D01*
X196778571Y-72128095D01*
X196873809Y-72175714D01*
%TO.C,C2*%
X162917142Y-72556666D02*
X162964761Y-72604285D01*
X163012380Y-72747142D01*
X163012380Y-72842380D01*
X162964761Y-72985238D01*
X162869523Y-73080476D01*
X162774285Y-73128095D01*
X162583809Y-73175714D01*
X162440952Y-73175714D01*
X162250476Y-73128095D01*
X162155238Y-73080476D01*
X162060000Y-72985238D01*
X162012380Y-72842380D01*
X162012380Y-72747142D01*
X162060000Y-72604285D01*
X162107619Y-72556666D01*
X162107619Y-72175714D02*
X162060000Y-72128095D01*
X162012380Y-72032857D01*
X162012380Y-71794761D01*
X162060000Y-71699523D01*
X162107619Y-71651904D01*
X162202857Y-71604285D01*
X162298095Y-71604285D01*
X162440952Y-71651904D01*
X163012380Y-72223333D01*
X163012380Y-71604285D01*
%TO.C,C8*%
X167997142Y-62396666D02*
X168044761Y-62444285D01*
X168092380Y-62587142D01*
X168092380Y-62682380D01*
X168044761Y-62825238D01*
X167949523Y-62920476D01*
X167854285Y-62968095D01*
X167663809Y-63015714D01*
X167520952Y-63015714D01*
X167330476Y-62968095D01*
X167235238Y-62920476D01*
X167140000Y-62825238D01*
X167092380Y-62682380D01*
X167092380Y-62587142D01*
X167140000Y-62444285D01*
X167187619Y-62396666D01*
X167520952Y-61825238D02*
X167473333Y-61920476D01*
X167425714Y-61968095D01*
X167330476Y-62015714D01*
X167282857Y-62015714D01*
X167187619Y-61968095D01*
X167140000Y-61920476D01*
X167092380Y-61825238D01*
X167092380Y-61634761D01*
X167140000Y-61539523D01*
X167187619Y-61491904D01*
X167282857Y-61444285D01*
X167330476Y-61444285D01*
X167425714Y-61491904D01*
X167473333Y-61539523D01*
X167520952Y-61634761D01*
X167520952Y-61825238D01*
X167568571Y-61920476D01*
X167616190Y-61968095D01*
X167711428Y-62015714D01*
X167901904Y-62015714D01*
X167997142Y-61968095D01*
X168044761Y-61920476D01*
X168092380Y-61825238D01*
X168092380Y-61634761D01*
X168044761Y-61539523D01*
X167997142Y-61491904D01*
X167901904Y-61444285D01*
X167711428Y-61444285D01*
X167616190Y-61491904D01*
X167568571Y-61539523D01*
X167520952Y-61634761D01*
%TO.C,C11*%
X197207142Y-62872857D02*
X197254761Y-62920476D01*
X197302380Y-63063333D01*
X197302380Y-63158571D01*
X197254761Y-63301428D01*
X197159523Y-63396666D01*
X197064285Y-63444285D01*
X196873809Y-63491904D01*
X196730952Y-63491904D01*
X196540476Y-63444285D01*
X196445238Y-63396666D01*
X196350000Y-63301428D01*
X196302380Y-63158571D01*
X196302380Y-63063333D01*
X196350000Y-62920476D01*
X196397619Y-62872857D01*
X197302380Y-61920476D02*
X197302380Y-62491904D01*
X197302380Y-62206190D02*
X196302380Y-62206190D01*
X196445238Y-62301428D01*
X196540476Y-62396666D01*
X196588095Y-62491904D01*
X197302380Y-60968095D02*
X197302380Y-61539523D01*
X197302380Y-61253809D02*
X196302380Y-61253809D01*
X196445238Y-61349047D01*
X196540476Y-61444285D01*
X196588095Y-61539523D01*
D11*
%TO.C,D3*%
X202565000Y-95250000D02*
X201930000Y-95250000D01*
X208280000Y-97790000D02*
X190500000Y-97790000D01*
X203200000Y-94615000D02*
X203200000Y-95885000D01*
X202565000Y-94615000D02*
X202565000Y-95885000D01*
X202184000Y-95758000D02*
X202184000Y-95504000D01*
X203708000Y-95631000D02*
X203454000Y-95631000D01*
X202311000Y-94869000D02*
X202184000Y-94996000D01*
X190500000Y-92710000D02*
X208280000Y-92710000D01*
X203708000Y-94996000D02*
X203708000Y-94742000D01*
X202311000Y-94869000D02*
X202311000Y-94742000D01*
X202311000Y-94869000D02*
X202057000Y-94869000D01*
X203708000Y-94996000D02*
X203454000Y-94996000D01*
X203200000Y-95250000D02*
X203835000Y-95250000D01*
X202184000Y-94996000D02*
X202057000Y-94869000D01*
X203708000Y-94742000D02*
X203454000Y-94742000D01*
X202565000Y-95885000D02*
X203200000Y-95250000D01*
X190500000Y-97790000D02*
X190500000Y-92710000D01*
X208280000Y-92710000D02*
X208280000Y-97790000D01*
X202311000Y-95631000D02*
X202057000Y-95631000D01*
X202057000Y-94869000D02*
X202057000Y-94742000D01*
X203200000Y-95250000D02*
X202565000Y-94615000D01*
%TO.C,R5*%
X175260000Y-41910000D02*
X175260000Y-52070000D01*
X172720000Y-41910000D02*
X175260000Y-41910000D01*
X172720000Y-52070000D02*
X172720000Y-41910000D01*
X175260000Y-52070000D02*
X172720000Y-52070000D01*
%TO.C,R4*%
X185420000Y-52070000D02*
X185420000Y-44450000D01*
X193040000Y-52070000D02*
X185420000Y-52070000D01*
X193040000Y-44450000D02*
X193040000Y-52070000D01*
X185420000Y-44450000D02*
X193040000Y-44450000D01*
%TO.C,D5*%
X199771000Y-73406000D02*
X199644000Y-73279000D01*
X199009000Y-73406000D02*
X199009000Y-73152000D01*
X199771000Y-73152000D02*
X199898000Y-73152000D01*
X200660000Y-67310000D02*
X200660000Y-77470000D01*
X198120000Y-77470000D02*
X198120000Y-67310000D01*
X199644000Y-74803000D02*
X199644000Y-74549000D01*
X199009000Y-74803000D02*
X199009000Y-74549000D01*
X198882000Y-73279000D02*
X199136000Y-73279000D01*
X199771000Y-73406000D02*
X199771000Y-73152000D01*
X199390000Y-73660000D02*
X199390000Y-73025000D01*
X200025000Y-73660000D02*
X198755000Y-73660000D01*
X200660000Y-77470000D02*
X198120000Y-77470000D01*
X198120000Y-67310000D02*
X200660000Y-67310000D01*
X199390000Y-74295000D02*
X199390000Y-74930000D01*
X199771000Y-73406000D02*
X199898000Y-73406000D01*
X199390000Y-74295000D02*
X200025000Y-73660000D01*
X199644000Y-74803000D02*
X199898000Y-74803000D01*
X199644000Y-73279000D02*
X199771000Y-73152000D01*
X200025000Y-74295000D02*
X198755000Y-74295000D01*
X198755000Y-73660000D02*
X199390000Y-74295000D01*
X199898000Y-74803000D02*
X199898000Y-74549000D01*
%TO.C,C3*%
X170180000Y-69850000D02*
X170180000Y-68580000D01*
X175260000Y-72390000D02*
G75*
G03*
X175260000Y-72390000I-5080000J0D01*
G01*
%TO.C,C1*%
X190500000Y-101600000D02*
X190500000Y-111760000D01*
X160020000Y-111760000D02*
X160020000Y-101600000D01*
X160020000Y-101600000D02*
X190500000Y-101600000D01*
X190500000Y-111760000D02*
X160020000Y-111760000D01*
%TO.C,H0*%
X154940000Y-82550000D02*
X147320000Y-82550000D01*
X147320000Y-52070000D02*
X154940000Y-52070000D01*
X147320000Y-52070000D02*
X147320000Y-82550000D01*
X154940000Y-52070000D02*
X154940000Y-82550000D01*
X148590000Y-52070000D02*
X148590000Y-82550000D01*
%TO.C,T2*%
X198120000Y-44450000D02*
X198120000Y-52070000D01*
X194310000Y-48895000D02*
X194310000Y-47625000D01*
X198120000Y-52070000D02*
X193040000Y-52070000D01*
X193040000Y-44450000D02*
X198120000Y-44450000D01*
X193040000Y-52070000D02*
X193040000Y-44450000D01*
X194310000Y-47625000D02*
G75*
G03*
X194310000Y-48895000I0J-635000D01*
G01*
%TO.C,C9*%
X180340000Y-64770000D02*
X180340000Y-66040000D01*
X185420000Y-62230000D02*
G75*
G03*
X185420000Y-62230000I-5080000J0D01*
G01*
%TO.C,C10*%
X190500000Y-64770000D02*
X190500000Y-66040000D01*
X195580000Y-62230000D02*
G75*
G03*
X195580000Y-62230000I-5080000J0D01*
G01*
%TO.C,C5*%
X190500000Y-69850000D02*
X190500000Y-68580000D01*
X195580000Y-72390000D02*
G75*
G03*
X195580000Y-72390000I-5080000J0D01*
G01*
%TO.C,D6*%
X199136000Y-61341000D02*
X199009000Y-61468000D01*
X199009000Y-61468000D02*
X198882000Y-61468000D01*
X198882000Y-59817000D02*
X198882000Y-60071000D01*
X199009000Y-61214000D02*
X199136000Y-61341000D01*
X199009000Y-61214000D02*
X198882000Y-61214000D01*
X198755000Y-60325000D02*
X200025000Y-60325000D01*
X200660000Y-57150000D02*
X200660000Y-67310000D01*
X198120000Y-57150000D02*
X200660000Y-57150000D01*
X200025000Y-60960000D02*
X199390000Y-60325000D01*
X199898000Y-61341000D02*
X199644000Y-61341000D01*
X200660000Y-67310000D02*
X198120000Y-67310000D01*
X199390000Y-60960000D02*
X199390000Y-61595000D01*
X199136000Y-59817000D02*
X199136000Y-60071000D01*
X199390000Y-60325000D02*
X199390000Y-59690000D01*
X199009000Y-61214000D02*
X199009000Y-61468000D01*
X199136000Y-59817000D02*
X198882000Y-59817000D01*
X198755000Y-60960000D02*
X200025000Y-60960000D01*
X198120000Y-67310000D02*
X198120000Y-57150000D01*
X199771000Y-61214000D02*
X199771000Y-61468000D01*
X199390000Y-60325000D02*
X198755000Y-60960000D01*
X199771000Y-59817000D02*
X199771000Y-60071000D01*
%TO.C,R6*%
X177800000Y-52070000D02*
X175260000Y-52070000D01*
X175260000Y-41910000D02*
X177800000Y-41910000D01*
X175260000Y-52070000D02*
X175260000Y-41910000D01*
X177800000Y-41910000D02*
X177800000Y-52070000D01*
%TO.C,R2*%
X154940000Y-52070000D02*
X152400000Y-52070000D01*
X154940000Y-41910000D02*
X154940000Y-52070000D01*
X152400000Y-41910000D02*
X154940000Y-41910000D01*
X152400000Y-52070000D02*
X152400000Y-41910000D01*
%TO.C,T1*%
X156210000Y-93980000D02*
X156210000Y-91440000D01*
X153670000Y-93980000D02*
X153670000Y-91440000D01*
X147320000Y-93980000D02*
X160020000Y-93980000D01*
X147320000Y-102870000D02*
X160020000Y-102870000D01*
X160020000Y-93980000D02*
X160020000Y-111760000D01*
X147320000Y-93980000D02*
X147320000Y-88900000D01*
X160020000Y-93980000D02*
X160020000Y-88900000D01*
X160020000Y-88900000D02*
X147320000Y-88900000D01*
X151130000Y-93980000D02*
X151130000Y-91440000D01*
X147320000Y-111760000D02*
X147320000Y-93980000D01*
X160020000Y-111760000D02*
X147320000Y-111760000D01*
%TO.C,IC0*%
X167640000Y-52070000D02*
X167640000Y-41910000D01*
X167640000Y-41910000D02*
X157480000Y-41910000D01*
X157480000Y-41910000D02*
X157480000Y-52070000D01*
X157480000Y-52070000D02*
X167640000Y-52070000D01*
X161290000Y-41910000D02*
G75*
G03*
X163830000Y-41910000I1270000J0D01*
G01*
%TO.C,D1*%
X203708000Y-84836000D02*
X203708000Y-84582000D01*
X203200000Y-85090000D02*
X202565000Y-84455000D01*
X202565000Y-84455000D02*
X202565000Y-85725000D01*
X202311000Y-84709000D02*
X202311000Y-84582000D01*
X203708000Y-84582000D02*
X203454000Y-84582000D01*
X202565000Y-85090000D02*
X201930000Y-85090000D01*
X208280000Y-82550000D02*
X208280000Y-87630000D01*
X202565000Y-85725000D02*
X203200000Y-85090000D01*
X202311000Y-85471000D02*
X202057000Y-85471000D01*
X208280000Y-87630000D02*
X190500000Y-87630000D01*
X203708000Y-84836000D02*
X203454000Y-84836000D01*
X203200000Y-84455000D02*
X203200000Y-85725000D01*
X203708000Y-85471000D02*
X203454000Y-85471000D01*
X202184000Y-85598000D02*
X202184000Y-85344000D01*
X203200000Y-85090000D02*
X203835000Y-85090000D01*
X202311000Y-84709000D02*
X202184000Y-84836000D01*
X202184000Y-84836000D02*
X202057000Y-84709000D01*
X190500000Y-82550000D02*
X208280000Y-82550000D01*
X202057000Y-84709000D02*
X202057000Y-84582000D01*
X190500000Y-87630000D02*
X190500000Y-82550000D01*
X202311000Y-84709000D02*
X202057000Y-84709000D01*
%TO.C,D4*%
X202311000Y-100711000D02*
X202057000Y-100711000D01*
X203200000Y-99695000D02*
X203200000Y-100965000D01*
X202057000Y-99949000D02*
X202057000Y-99822000D01*
X203708000Y-100711000D02*
X203454000Y-100711000D01*
X202311000Y-99949000D02*
X202184000Y-100076000D01*
X203200000Y-100330000D02*
X203835000Y-100330000D01*
X202184000Y-100076000D02*
X202057000Y-99949000D01*
X202565000Y-100330000D02*
X201930000Y-100330000D01*
X203200000Y-100330000D02*
X202565000Y-99695000D01*
X190500000Y-97790000D02*
X208280000Y-97790000D01*
X208280000Y-97790000D02*
X208280000Y-102870000D01*
X202184000Y-100838000D02*
X202184000Y-100584000D01*
X202311000Y-99949000D02*
X202057000Y-99949000D01*
X208280000Y-102870000D02*
X190500000Y-102870000D01*
X203708000Y-100076000D02*
X203708000Y-99822000D01*
X202311000Y-99949000D02*
X202311000Y-99822000D01*
X203708000Y-100076000D02*
X203454000Y-100076000D01*
X190500000Y-102870000D02*
X190500000Y-97790000D01*
X202565000Y-100965000D02*
X203200000Y-100330000D01*
X202565000Y-99695000D02*
X202565000Y-100965000D01*
X203708000Y-99822000D02*
X203454000Y-99822000D01*
%TO.C,R3*%
X177800000Y-52070000D02*
X177800000Y-44450000D01*
X185420000Y-44450000D02*
X185420000Y-52070000D01*
X185420000Y-52070000D02*
X177800000Y-52070000D01*
X177800000Y-44450000D02*
X185420000Y-44450000D01*
%TO.C,C7*%
X160020000Y-64770000D02*
X160020000Y-66040000D01*
X165100000Y-62230000D02*
G75*
G03*
X165100000Y-62230000I-5080000J0D01*
G01*
%TO.C,D2*%
X202184000Y-89916000D02*
X202057000Y-89789000D01*
X208280000Y-87630000D02*
X208280000Y-92710000D01*
X190500000Y-87630000D02*
X208280000Y-87630000D01*
X202311000Y-90551000D02*
X202057000Y-90551000D01*
X202565000Y-90805000D02*
X203200000Y-90170000D01*
X202565000Y-89535000D02*
X202565000Y-90805000D01*
X208280000Y-92710000D02*
X190500000Y-92710000D01*
X203200000Y-90170000D02*
X203835000Y-90170000D01*
X190500000Y-92710000D02*
X190500000Y-87630000D01*
X202057000Y-89789000D02*
X202057000Y-89662000D01*
X202184000Y-90678000D02*
X202184000Y-90424000D01*
X203200000Y-89535000D02*
X203200000Y-90805000D01*
X203708000Y-89916000D02*
X203454000Y-89916000D01*
X202311000Y-89789000D02*
X202057000Y-89789000D01*
X203708000Y-89916000D02*
X203708000Y-89662000D01*
X202311000Y-89789000D02*
X202184000Y-89916000D01*
X203708000Y-90551000D02*
X203454000Y-90551000D01*
X203200000Y-90170000D02*
X202565000Y-89535000D01*
X203708000Y-89662000D02*
X203454000Y-89662000D01*
X202311000Y-89789000D02*
X202311000Y-89662000D01*
X202565000Y-90170000D02*
X201930000Y-90170000D01*
%TO.C,C4*%
X180340000Y-69850000D02*
X180340000Y-68580000D01*
X185420000Y-72390000D02*
G75*
G03*
X185420000Y-72390000I-5080000J0D01*
G01*
%TO.C,R0*%
X167640000Y-41910000D02*
X170180000Y-41910000D01*
X170180000Y-52070000D02*
X167640000Y-52070000D01*
X170180000Y-41910000D02*
X170180000Y-52070000D01*
X167640000Y-52070000D02*
X167640000Y-41910000D01*
%TO.C,L0*%
X162560000Y-87630000D02*
X162560000Y-96520000D01*
X190500000Y-101600000D02*
X160020000Y-101600000D01*
X190500000Y-82550000D02*
X190500000Y-101600000D01*
X160020000Y-82550000D02*
X190500000Y-82550000D01*
X160020000Y-101600000D02*
X160020000Y-82550000D01*
X187960000Y-87630000D02*
X187960000Y-96520000D01*
%TO.C,T0*%
X147320000Y-44450000D02*
X152400000Y-44450000D01*
X147320000Y-52070000D02*
X147320000Y-44450000D01*
X151130000Y-47625000D02*
X151130000Y-48895000D01*
X152400000Y-44450000D02*
X152400000Y-52070000D01*
X152400000Y-52070000D02*
X147320000Y-52070000D01*
X151130000Y-48895000D02*
G75*
G03*
X151130000Y-47625000I0J635000D01*
G01*
%TO.C,R1*%
X172720000Y-52070000D02*
X170180000Y-52070000D01*
X170180000Y-41910000D02*
X172720000Y-41910000D01*
X172720000Y-41910000D02*
X172720000Y-52070000D01*
X170180000Y-52070000D02*
X170180000Y-41910000D01*
%TO.C,C0*%
X162560000Y-39370000D02*
X162560000Y-41910000D01*
X154940000Y-39370000D02*
X162560000Y-39370000D01*
X162560000Y-41910000D02*
X154940000Y-41910000D01*
X154940000Y-41910000D02*
X154940000Y-39370000D01*
%TO.C,T3*%
X203200000Y-52070000D02*
X198120000Y-52070000D01*
X201930000Y-47625000D02*
X201930000Y-48895000D01*
X198120000Y-52070000D02*
X198120000Y-44450000D01*
X198120000Y-44450000D02*
X203200000Y-44450000D01*
X203200000Y-44450000D02*
X203200000Y-52070000D01*
X201930000Y-48895000D02*
G75*
G03*
X201930000Y-47625000I0J635000D01*
G01*
%TO.C,D0*%
X155829000Y-49403000D02*
X155829000Y-49149000D01*
X156210000Y-48260000D02*
X156210000Y-47625000D01*
X156591000Y-47752000D02*
X156718000Y-47752000D01*
X156845000Y-48895000D02*
X155575000Y-48895000D01*
X156591000Y-48006000D02*
X156718000Y-48006000D01*
X156464000Y-49403000D02*
X156718000Y-49403000D01*
X157480000Y-41910000D02*
X157480000Y-52070000D01*
X154940000Y-52070000D02*
X154940000Y-41910000D01*
X154940000Y-41910000D02*
X157480000Y-41910000D01*
X156845000Y-48260000D02*
X155575000Y-48260000D01*
X156210000Y-48895000D02*
X156210000Y-49530000D01*
X156464000Y-49403000D02*
X156464000Y-49149000D01*
X155829000Y-48006000D02*
X155829000Y-47752000D01*
X156464000Y-47879000D02*
X156591000Y-47752000D01*
X156210000Y-48895000D02*
X156845000Y-48260000D01*
X157480000Y-52070000D02*
X154940000Y-52070000D01*
X156591000Y-48006000D02*
X156591000Y-47752000D01*
X156718000Y-49403000D02*
X156718000Y-49149000D01*
X155702000Y-47879000D02*
X155956000Y-47879000D01*
X155575000Y-48260000D02*
X156210000Y-48895000D01*
X156591000Y-48006000D02*
X156464000Y-47879000D01*
%TO.C,C6*%
X195580000Y-68580000D02*
X198120000Y-68580000D01*
X198120000Y-76200000D02*
X195580000Y-76200000D01*
X195580000Y-76200000D02*
X195580000Y-68580000D01*
X198120000Y-68580000D02*
X198120000Y-76200000D01*
%TO.C,C2*%
X160020000Y-69850000D02*
X160020000Y-68580000D01*
X165100000Y-72390000D02*
G75*
G03*
X165100000Y-72390000I-5080000J0D01*
G01*
%TO.C,C8*%
X170180000Y-64770000D02*
X170180000Y-66040000D01*
X175260000Y-62230000D02*
G75*
G03*
X175260000Y-62230000I-5080000J0D01*
G01*
%TO.C,C11*%
X195580000Y-58420000D02*
X198120000Y-58420000D01*
X198120000Y-58420000D02*
X198120000Y-66040000D01*
X198120000Y-66040000D02*
X195580000Y-66040000D01*
X195580000Y-66040000D02*
X195580000Y-58420000D01*
%TD*%
M02*
