M48
; DRILL file {KiCad (6.0.0)} date Thu Jun  1 11:48:19 2023
; FORMAT={-:-/ absolute / inch / decimal}
; #@! TF.CreationDate,2023-06-01T11:48:19-04:00
; #@! TF.GenerationSoftware,Kicad,Pcbnew,(6.0.0)
; #@! TF.FileFunction,Plated,1,2,PTH
FMAT,2
INCH
; #@! TA.AperFunction,Plated,PTH,ComponentDrill
T1C0.0375
; #@! TA.AperFunction,Plated,PTH,ComponentDrill
T2C0.0500
; #@! TA.AperFunction,Plated,PTH,ViaDrill
T3C0.0625
; #@! TA.AperFunction,Plated,PTH,ComponentDrill
T4C0.0625
; #@! TA.AperFunction,Plated,PTH,ViaDrill
T5C0.1250
%
G90
G05
T1
X5.9Y-1.8
X5.9Y-1.9
X5.9Y-2.0
X6.05Y-1.7
X6.05Y-2.0
X6.15Y-1.6
X6.15Y-1.7
X6.15Y-2.0
X6.25Y-1.7
X6.25Y-1.8
X6.25Y-1.9
X6.25Y-2.0
X6.3Y-2.4
X6.3Y-2.5
X6.3Y-2.8
X6.3Y-2.9
X6.35Y-1.6
X6.55Y-1.7
X6.55Y-1.8
X6.55Y-1.9
X6.55Y-2.0
X6.65Y-1.7
X6.65Y-2.0
X6.7Y-2.4
X6.7Y-2.5
X6.7Y-2.8
X6.7Y-2.9
X6.75Y-1.7
X6.75Y-2.0
X6.85Y-1.7
X6.85Y-2.0
X6.95Y-1.7
X6.95Y-2.0
X7.05Y-1.8
X7.05Y-2.0
X7.1Y-2.4
X7.1Y-2.5
X7.1Y-2.8
X7.1Y-2.9
X7.25Y-1.9
X7.35Y-1.8
X7.35Y-2.0
X7.5Y-2.4
X7.5Y-2.5
X7.5Y-2.8
X7.5Y-2.9
X7.55Y-1.9
X7.7Y-1.8
X7.7Y-1.9
X7.7Y-2.0
X7.75Y-2.35
X7.75Y-2.55
X7.75Y-2.75
X7.75Y-2.95
X7.85Y-2.3
X7.85Y-2.6
X7.85Y-2.7
X7.85Y-3.0
X7.9Y-1.8
X7.9Y-1.9
X7.9Y-2.0
T2
X5.95Y-3.55
X6.05Y-3.55
X6.15Y-3.55
T3
X6.5Y-2.25
T4
X5.95Y-2.15
X5.95Y-2.35
X5.95Y-2.55
X5.95Y-2.75
X5.95Y-2.95
X5.95Y-3.15
X6.4Y-3.35
X6.4Y-3.9
X6.4Y-4.2
X7.4Y-3.35
X7.4Y-3.9
X7.4Y-4.2
X7.6Y-3.35
X7.6Y-3.55
X7.6Y-3.75
X7.6Y-3.95
X8.1Y-3.35
X8.1Y-3.55
X8.1Y-3.75
X8.1Y-3.95
T5
X5.25Y-1.25
X5.25Y-4.75
X8.75Y-1.25
X8.75Y-4.75
T0
M30
