%TF.GenerationSoftware,KiCad,Pcbnew,(6.0.0)*%
%TF.CreationDate,2023-06-01T11:48:42-04:00*%
%TF.ProjectId,SEPIC,53455049-432e-46b6-9963-61645f706362,rev?*%
%TF.SameCoordinates,Original*%
%TF.FileFunction,Soldermask,Top*%
%TF.FilePolarity,Negative*%
%FSLAX46Y46*%
G04 Gerber Fmt 4.6, Leading zero omitted, Abs format (unit mm)*
G04 Created by KiCad (PCBNEW (6.0.0)) date 2023-06-01 11:48:42*
%MOMM*%
%LPD*%
G01*
G04 APERTURE LIST*
G04 Aperture macros list*
%AMRoundRect*
0 Rectangle with rounded corners*
0 $1 Rounding radius*
0 $2 $3 $4 $5 $6 $7 $8 $9 X,Y pos of 4 corners*
0 Add a 4 corners polygon primitive as box body*
4,1,4,$2,$3,$4,$5,$6,$7,$8,$9,$2,$3,0*
0 Add four circle primitives for the rounded corners*
1,1,$1+$1,$2,$3*
1,1,$1+$1,$4,$5*
1,1,$1+$1,$6,$7*
1,1,$1+$1,$8,$9*
0 Add four rect primitives between the rounded corners*
20,1,$1+$1,$2,$3,$4,$5,0*
20,1,$1+$1,$4,$5,$6,$7,0*
20,1,$1+$1,$6,$7,$8,$9,0*
20,1,$1+$1,$8,$9,$2,$3,0*%
G04 Aperture macros list end*
%ADD10C,3.175000*%
%ADD11C,1.905000*%
%ADD12R,3.175000X3.175000*%
%ADD13R,1.905000X1.905000*%
%ADD14O,3.500000X3.500000*%
%ADD15RoundRect,0.635000X0.476250X0.476250X-0.476250X0.476250X-0.476250X-0.476250X0.476250X-0.476250X0*%
%ADD16C,2.222500*%
%ADD17R,11.430000X7.620000*%
%ADD18RoundRect,0.381000X-0.571500X-0.571500X0.571500X-0.571500X0.571500X0.571500X-0.571500X0.571500X0*%
G04 APERTURE END LIST*
D10*
%TO.C,D3*%
X205740000Y-95250000D03*
X193040000Y-95250000D03*
%TD*%
D11*
%TO.C,R5*%
X173990000Y-50800000D03*
X173990000Y-43180000D03*
%TD*%
%TO.C,R4*%
X186690000Y-45720000D03*
X191770000Y-48260000D03*
X186690000Y-50800000D03*
%TD*%
%TO.C,D5*%
X199390000Y-76200000D03*
X199390000Y-68580000D03*
%TD*%
%TO.C,C3*%
X170180000Y-73660000D03*
X170180000Y-71120000D03*
%TD*%
D10*
%TO.C,C1*%
X187960000Y-106680000D03*
X162560000Y-106680000D03*
%TD*%
D12*
%TO.C,H0*%
X151130000Y-54610000D03*
D10*
X151130000Y-59690000D03*
X151130000Y-74930000D03*
X151130000Y-80010000D03*
X151130000Y-64770000D03*
X151130000Y-69850000D03*
%TD*%
D13*
%TO.C,T2*%
X195580000Y-50800000D03*
D11*
X195580000Y-48260000D03*
X195580000Y-45720000D03*
%TD*%
%TO.C,C9*%
X180340000Y-60960000D03*
X180340000Y-63500000D03*
%TD*%
%TO.C,C10*%
X190500000Y-60960000D03*
X190500000Y-63500000D03*
%TD*%
%TO.C,C5*%
X190500000Y-73660000D03*
X190500000Y-71120000D03*
%TD*%
%TO.C,D6*%
X199390000Y-58420000D03*
X199390000Y-66040000D03*
%TD*%
%TO.C,R6*%
X176530000Y-43180000D03*
X176530000Y-50800000D03*
%TD*%
%TO.C,R2*%
X153670000Y-50800000D03*
X153670000Y-43180000D03*
%TD*%
D14*
%TO.C,T1*%
X153670000Y-106680000D03*
D15*
X156210000Y-90170000D03*
D16*
X153670000Y-90170000D03*
X151130000Y-90170000D03*
D17*
X153670000Y-106680000D03*
%TD*%
D18*
%TO.C,IC0*%
X158750000Y-43180000D03*
D11*
X158750000Y-45720000D03*
X158750000Y-48260000D03*
X158750000Y-50800000D03*
X166370000Y-50800000D03*
X166370000Y-48260000D03*
X166370000Y-45720000D03*
X166370000Y-43180000D03*
%TD*%
D10*
%TO.C,D1*%
X205740000Y-85090000D03*
X193040000Y-85090000D03*
%TD*%
%TO.C,D4*%
X205740000Y-100330000D03*
X193040000Y-100330000D03*
%TD*%
D11*
%TO.C,R3*%
X179070000Y-45720000D03*
X184150000Y-48260000D03*
X179070000Y-50800000D03*
%TD*%
%TO.C,C7*%
X160020000Y-60960000D03*
X160020000Y-63500000D03*
%TD*%
D10*
%TO.C,D2*%
X205740000Y-90170000D03*
X193040000Y-90170000D03*
%TD*%
D11*
%TO.C,C4*%
X180340000Y-73660000D03*
X180340000Y-71120000D03*
%TD*%
%TO.C,R0*%
X168910000Y-43180000D03*
X168910000Y-50800000D03*
%TD*%
D12*
%TO.C,L0*%
X162560000Y-85090000D03*
D10*
X162560000Y-99060000D03*
X187960000Y-99060000D03*
X187960000Y-85090000D03*
%TD*%
D13*
%TO.C,T0*%
X149860000Y-45720000D03*
D11*
X149860000Y-48260000D03*
X149860000Y-50800000D03*
%TD*%
%TO.C,R1*%
X171450000Y-50800000D03*
X171450000Y-43180000D03*
%TD*%
%TO.C,C0*%
X161290000Y-40640000D03*
X156210000Y-40640000D03*
%TD*%
D13*
%TO.C,T3*%
X200660000Y-45720000D03*
D11*
X200660000Y-48260000D03*
X200660000Y-50800000D03*
%TD*%
%TO.C,D0*%
X156210000Y-50800000D03*
X156210000Y-43180000D03*
%TD*%
%TO.C,C6*%
X196850000Y-74930000D03*
X196850000Y-69850000D03*
%TD*%
%TO.C,C2*%
X160020000Y-73660000D03*
X160020000Y-71120000D03*
%TD*%
%TO.C,C8*%
X170180000Y-60960000D03*
X170180000Y-63500000D03*
%TD*%
%TO.C,C11*%
X196850000Y-59690000D03*
X196850000Y-64770000D03*
%TD*%
M02*
