%TF.GenerationSoftware,KiCad,Pcbnew,(6.0.0)*%
%TF.CreationDate,2023-06-01T11:48:41-04:00*%
%TF.ProjectId,SEPIC,53455049-432e-46b6-9963-61645f706362,rev?*%
%TF.SameCoordinates,Original*%
%TF.FileFunction,Copper,L2,Bot*%
%TF.FilePolarity,Positive*%
%FSLAX46Y46*%
G04 Gerber Fmt 4.6, Leading zero omitted, Abs format (unit mm)*
G04 Created by KiCad (PCBNEW (6.0.0)) date 2023-06-01 11:48:41*
%MOMM*%
%LPD*%
G01*
G04 APERTURE LIST*
G04 Aperture macros list*
%AMRoundRect*
0 Rectangle with rounded corners*
0 $1 Rounding radius*
0 $2 $3 $4 $5 $6 $7 $8 $9 X,Y pos of 4 corners*
0 Add a 4 corners polygon primitive as box body*
4,1,4,$2,$3,$4,$5,$6,$7,$8,$9,$2,$3,0*
0 Add four circle primitives for the rounded corners*
1,1,$1+$1,$2,$3*
1,1,$1+$1,$4,$5*
1,1,$1+$1,$6,$7*
1,1,$1+$1,$8,$9*
0 Add four rect primitives between the rounded corners*
20,1,$1+$1,$2,$3,$4,$5,0*
20,1,$1+$1,$4,$5,$6,$7,0*
20,1,$1+$1,$6,$7,$8,$9,0*
20,1,$1+$1,$8,$9,$2,$3,0*%
G04 Aperture macros list end*
%TA.AperFunction,ComponentPad*%
%ADD10C,3.175000*%
%TD*%
%TA.AperFunction,ComponentPad*%
%ADD11C,1.905000*%
%TD*%
%TA.AperFunction,ComponentPad*%
%ADD12R,3.175000X3.175000*%
%TD*%
%TA.AperFunction,ComponentPad*%
%ADD13R,1.905000X1.905000*%
%TD*%
%TA.AperFunction,ComponentPad*%
%ADD14RoundRect,0.635000X0.476250X0.476250X-0.476250X0.476250X-0.476250X-0.476250X0.476250X-0.476250X0*%
%TD*%
%TA.AperFunction,ComponentPad*%
%ADD15C,2.222500*%
%TD*%
%TA.AperFunction,ComponentPad*%
%ADD16RoundRect,0.381000X-0.571500X-0.571500X0.571500X-0.571500X0.571500X0.571500X-0.571500X0.571500X0*%
%TD*%
%TA.AperFunction,ViaPad*%
%ADD17C,5.080000*%
%TD*%
%TA.AperFunction,ViaPad*%
%ADD18C,3.175000*%
%TD*%
%TA.AperFunction,Conductor*%
%ADD19C,0.254000*%
%TD*%
%TA.AperFunction,Conductor*%
%ADD20C,3.175000*%
%TD*%
%TA.AperFunction,Conductor*%
%ADD21C,2.540000*%
%TD*%
%TA.AperFunction,Conductor*%
%ADD22C,1.587500*%
%TD*%
%TA.AperFunction,Conductor*%
%ADD23C,6.350000*%
%TD*%
G04 APERTURE END LIST*
D10*
%TO.P,D3,1,K*%
%TO.N,VO*%
X205740000Y-95250000D03*
%TO.P,D3,2,A*%
%TO.N,Net-(C1-Pad1)*%
X193040000Y-95250000D03*
%TD*%
D11*
%TO.P,R5,1*%
%TO.N,Net-(R5-Pad1)*%
X173990000Y-50800000D03*
%TO.P,R5,2*%
%TO.N,VI*%
X173990000Y-43180000D03*
%TD*%
%TO.P,R4,1,1*%
%TO.N,0V*%
X186690000Y-45720000D03*
%TO.P,R4,2,2*%
%TO.N,Net-(R4-Pad2)*%
X191770000Y-48260000D03*
%TO.P,R4,3,3*%
%TO.N,VO*%
X186690000Y-50800000D03*
%TD*%
%TO.P,D5,1,K*%
%TO.N,VO*%
X199390000Y-76200000D03*
%TO.P,D5,2,A*%
%TO.N,0V*%
X199390000Y-68580000D03*
%TD*%
%TO.P,C3,1*%
%TO.N,VO*%
X170180000Y-73660000D03*
%TO.P,C3,2*%
%TO.N,0V*%
X170180000Y-71120000D03*
%TD*%
D10*
%TO.P,C1,1*%
%TO.N,Net-(C1-Pad1)*%
X187960000Y-106680000D03*
%TO.P,C1,2*%
%TO.N,Net-(C1-Pad2)*%
X162560000Y-106680000D03*
%TD*%
D12*
%TO.P,H0,1,Pin_1*%
%TO.N,VI*%
X151130000Y-54610000D03*
D10*
%TO.P,H0,2,Pin_2*%
X151130000Y-59690000D03*
%TO.P,H0,3,Pin_3*%
%TO.N,VO*%
X151130000Y-74930000D03*
%TO.P,H0,4,Pin_4*%
X151130000Y-80010000D03*
%TO.P,H0,5,Pin_5*%
%TO.N,0V*%
X151130000Y-64770000D03*
%TO.P,H0,6,Pin_6*%
X151130000Y-69850000D03*
%TD*%
D13*
%TO.P,T2,1,S*%
%TO.N,0V*%
X195580000Y-50800000D03*
D11*
%TO.P,T2,2,G*%
%TO.N,Net-(R4-Pad2)*%
X195580000Y-48260000D03*
%TO.P,T2,3,D*%
%TO.N,Net-(R5-Pad1)*%
X195580000Y-45720000D03*
%TD*%
%TO.P,C9,1*%
%TO.N,VI*%
X180340000Y-60960000D03*
%TO.P,C9,2*%
%TO.N,0V*%
X180340000Y-63500000D03*
%TD*%
%TO.P,C10,1*%
%TO.N,VI*%
X190500000Y-60960000D03*
%TO.P,C10,2*%
%TO.N,0V*%
X190500000Y-63500000D03*
%TD*%
%TO.P,C5,1*%
%TO.N,VO*%
X190500000Y-73660000D03*
%TO.P,C5,2*%
%TO.N,0V*%
X190500000Y-71120000D03*
%TD*%
%TO.P,D6,1,K*%
%TO.N,VI*%
X199390000Y-58420000D03*
%TO.P,D6,2,A*%
%TO.N,0V*%
X199390000Y-66040000D03*
%TD*%
%TO.P,R6,1*%
%TO.N,Net-(R6-Pad1)*%
X176530000Y-43180000D03*
%TO.P,R6,2*%
%TO.N,Net-(R5-Pad1)*%
X176530000Y-50800000D03*
%TD*%
%TO.P,R2,1*%
%TO.N,VI*%
X153670000Y-50800000D03*
%TO.P,R2,2*%
%TO.N,Net-(R2-Pad2)*%
X153670000Y-43180000D03*
%TD*%
D14*
%TO.P,T1,1,S*%
%TO.N,Net-(IC0-Pad3)*%
X156210000Y-90170000D03*
D15*
%TO.P,T1,2,G*%
%TO.N,Net-(C1-Pad2)*%
X153670000Y-90170000D03*
%TO.P,T1,3,D*%
%TO.N,0V*%
X151130000Y-90170000D03*
%TD*%
D16*
%TO.P,IC0,1,GND*%
%TO.N,0V*%
X158750000Y-43180000D03*
D11*
%TO.P,IC0,2,TRG*%
%TO.N,CAP*%
X158750000Y-45720000D03*
%TO.P,IC0,3,Q*%
%TO.N,Net-(IC0-Pad3)*%
X158750000Y-48260000D03*
%TO.P,IC0,4,RST*%
%TO.N,VI*%
X158750000Y-50800000D03*
%TO.P,IC0,5,CTL*%
%TO.N,Net-(D0-Pad1)*%
X166370000Y-50800000D03*
%TO.P,IC0,6,THR*%
%TO.N,CAP*%
X166370000Y-48260000D03*
%TO.P,IC0,7,DCH*%
%TO.N,Net-(IC0-Pad7)*%
X166370000Y-45720000D03*
%TO.P,IC0,8,VCC*%
%TO.N,VI*%
X166370000Y-43180000D03*
%TD*%
D10*
%TO.P,D1,1,K*%
%TO.N,VO*%
X205740000Y-85090000D03*
%TO.P,D1,2,A*%
%TO.N,Net-(C1-Pad1)*%
X193040000Y-85090000D03*
%TD*%
%TO.P,D4,1,K*%
%TO.N,VO*%
X205740000Y-100330000D03*
%TO.P,D4,2,A*%
%TO.N,Net-(C1-Pad1)*%
X193040000Y-100330000D03*
%TD*%
D11*
%TO.P,R3,1,1*%
%TO.N,0V*%
X179070000Y-45720000D03*
%TO.P,R3,2,2*%
%TO.N,FB*%
X184150000Y-48260000D03*
%TO.P,R3,3,3*%
%TO.N,VO*%
X179070000Y-50800000D03*
%TD*%
%TO.P,C7,1*%
%TO.N,VI*%
X160020000Y-60960000D03*
%TO.P,C7,2*%
%TO.N,0V*%
X160020000Y-63500000D03*
%TD*%
D10*
%TO.P,D2,1,K*%
%TO.N,VO*%
X205740000Y-90170000D03*
%TO.P,D2,2,A*%
%TO.N,Net-(C1-Pad1)*%
X193040000Y-90170000D03*
%TD*%
D11*
%TO.P,C4,1*%
%TO.N,VO*%
X180340000Y-73660000D03*
%TO.P,C4,2*%
%TO.N,0V*%
X180340000Y-71120000D03*
%TD*%
%TO.P,R0,1*%
%TO.N,VI*%
X168910000Y-43180000D03*
%TO.P,R0,2*%
%TO.N,Net-(IC0-Pad7)*%
X168910000Y-50800000D03*
%TD*%
D12*
%TO.P,L0,1*%
%TO.N,VI*%
X162560000Y-85090000D03*
D10*
%TO.P,L0,2*%
%TO.N,Net-(C1-Pad2)*%
X162560000Y-99060000D03*
%TO.P,L0,3*%
%TO.N,Net-(C1-Pad1)*%
X187960000Y-99060000D03*
%TO.P,L0,4*%
%TO.N,0V*%
X187960000Y-85090000D03*
%TD*%
D13*
%TO.P,T0,1,E*%
%TO.N,CAP*%
X149860000Y-45720000D03*
D11*
%TO.P,T0,2,B*%
%TO.N,Net-(R2-Pad2)*%
X149860000Y-48260000D03*
%TO.P,T0,3,C*%
%TO.N,FB*%
X149860000Y-50800000D03*
%TD*%
%TO.P,R1,1*%
%TO.N,Net-(IC0-Pad7)*%
X171450000Y-50800000D03*
%TO.P,R1,2*%
%TO.N,CAP*%
X171450000Y-43180000D03*
%TD*%
%TO.P,C0,1*%
%TO.N,CAP*%
X161290000Y-40640000D03*
%TO.P,C0,2*%
%TO.N,0V*%
X156210000Y-40640000D03*
%TD*%
D13*
%TO.P,T3,1,E*%
%TO.N,VI*%
X200660000Y-45720000D03*
D11*
%TO.P,T3,2,B*%
%TO.N,Net-(R6-Pad1)*%
X200660000Y-48260000D03*
%TO.P,T3,3,C*%
%TO.N,FB*%
X200660000Y-50800000D03*
%TD*%
%TO.P,D0,1,K*%
%TO.N,Net-(D0-Pad1)*%
X156210000Y-50800000D03*
%TO.P,D0,2,A*%
%TO.N,0V*%
X156210000Y-43180000D03*
%TD*%
%TO.P,C6,1*%
%TO.N,VO*%
X196850000Y-74930000D03*
%TO.P,C6,2*%
%TO.N,0V*%
X196850000Y-69850000D03*
%TD*%
%TO.P,C2,1*%
%TO.N,VO*%
X160020000Y-73660000D03*
%TO.P,C2,2*%
%TO.N,0V*%
X160020000Y-71120000D03*
%TD*%
%TO.P,C8,1*%
%TO.N,VI*%
X170180000Y-60960000D03*
%TO.P,C8,2*%
%TO.N,0V*%
X170180000Y-63500000D03*
%TD*%
%TO.P,C11,1*%
%TO.N,VI*%
X196850000Y-59690000D03*
%TO.P,C11,2*%
%TO.N,0V*%
X196850000Y-64770000D03*
%TD*%
D17*
%TO.N,0V*%
X222250000Y-120650000D03*
X222250000Y-31750000D03*
X133350000Y-31750000D03*
X133350000Y-120650000D03*
D18*
%TO.N,VI*%
X165100000Y-57150000D03*
%TD*%
D19*
%TO.N,CAP*%
X158750000Y-45720000D02*
X161290000Y-43180000D01*
X161290000Y-43180000D02*
X161290000Y-40640000D01*
D20*
%TO.N,Net-(C1-Pad1)*%
X190500000Y-87630000D02*
X190500000Y-102870000D01*
X187960000Y-90170000D02*
X187960000Y-106680000D01*
X193040000Y-101600000D02*
X193040000Y-100330000D01*
X187960000Y-106680000D02*
X193040000Y-101600000D01*
X193040000Y-85090000D02*
X187960000Y-90170000D01*
X193040000Y-85090000D02*
X193040000Y-100330000D01*
D21*
%TO.N,Net-(C1-Pad2)*%
X161925000Y-101600000D02*
X162560000Y-101600000D01*
D20*
X162560000Y-99060000D02*
X162560000Y-104140000D01*
D21*
X162560000Y-102870000D02*
X162560000Y-99060000D01*
D19*
X161290000Y-104140000D02*
X162560000Y-104140000D01*
D20*
X162560000Y-104140000D02*
X162560000Y-106680000D01*
D21*
X153670000Y-90170000D02*
X153670000Y-93345000D01*
X153670000Y-93345000D02*
X161925000Y-101600000D01*
D22*
%TO.N,VO*%
X199390000Y-76200000D02*
X199390000Y-78740000D01*
D19*
X201930000Y-73660000D02*
X199390000Y-76200000D01*
D22*
X199390000Y-78740000D02*
X196850000Y-81280000D01*
D20*
X151130000Y-74930000D02*
X151130000Y-80010000D01*
D19*
X186690000Y-50800000D02*
X190500000Y-46990000D01*
D22*
X196850000Y-73660000D02*
X152400000Y-73660000D01*
X196850000Y-81280000D02*
X152400000Y-81280000D01*
X199390000Y-76200000D02*
X196850000Y-73660000D01*
X152400000Y-73660000D02*
X151130000Y-74930000D01*
D19*
X190500000Y-46990000D02*
X196850000Y-46990000D01*
D20*
X205740000Y-100330000D02*
X205740000Y-85090000D01*
D19*
X196850000Y-46990000D02*
X199390000Y-49530000D01*
D20*
X198755000Y-78105000D02*
X205105000Y-84455000D01*
D23*
X153670000Y-77470000D02*
X196850000Y-77470000D01*
D19*
X201930000Y-49530000D02*
X201930000Y-73660000D01*
X179070000Y-50800000D02*
X186690000Y-50800000D01*
D22*
X152400000Y-81280000D02*
X151130000Y-80010000D01*
D19*
X199390000Y-49530000D02*
X201930000Y-49530000D01*
%TO.N,Net-(D0-Pad1)*%
X165100000Y-52070000D02*
X166370000Y-50800000D01*
X157480000Y-52070000D02*
X165100000Y-52070000D01*
X156210000Y-50800000D02*
X157480000Y-52070000D01*
%TO.N,VI*%
X166370000Y-43180000D02*
X168910000Y-43180000D01*
D20*
X151130000Y-54610000D02*
X151130000Y-59690000D01*
D22*
X152400000Y-53340000D02*
X153670000Y-53340000D01*
X152400000Y-60960000D02*
X196850000Y-60960000D01*
D19*
X172720000Y-41910000D02*
X173990000Y-43180000D01*
D22*
X199390000Y-55880000D02*
X199390000Y-58420000D01*
X151130000Y-59690000D02*
X152400000Y-60960000D01*
X153670000Y-53340000D02*
X196850000Y-53340000D01*
D19*
X196850000Y-41910000D02*
X200660000Y-45720000D01*
X151130000Y-54610000D02*
X151130000Y-53340000D01*
X153670000Y-50800000D02*
X154940000Y-49530000D01*
X160020000Y-49530000D02*
X166370000Y-43180000D01*
D22*
X196850000Y-60960000D02*
X199390000Y-58420000D01*
D23*
X153670000Y-57150000D02*
X196850000Y-57150000D01*
D19*
X168910000Y-43180000D02*
X170180000Y-41910000D01*
D22*
X151130000Y-54610000D02*
X152400000Y-53340000D01*
D19*
X170180000Y-41910000D02*
X172720000Y-41910000D01*
X154940000Y-49530000D02*
X157480000Y-49530000D01*
X153670000Y-50800000D02*
X153670000Y-53340000D01*
X157480000Y-49530000D02*
X160020000Y-49530000D01*
D22*
X196850000Y-53340000D02*
X199390000Y-55880000D01*
D19*
X158750000Y-50800000D02*
X160020000Y-49530000D01*
X172720000Y-41910000D02*
X196850000Y-41910000D01*
%TO.N,Net-(IC0-Pad3)*%
X152400000Y-49530000D02*
X148590000Y-49530000D01*
X148590000Y-49530000D02*
X148590000Y-82550000D01*
X148590000Y-82550000D02*
X156210000Y-90170000D01*
X158750000Y-48260000D02*
X153670000Y-48260000D01*
X153670000Y-48260000D02*
X152400000Y-49530000D01*
%TO.N,Net-(IC0-Pad7)*%
X168910000Y-48260000D02*
X168910000Y-50800000D01*
X166370000Y-45720000D02*
X168910000Y-48260000D01*
X168910000Y-48260000D02*
X171450000Y-50800000D01*
%TO.N,Net-(R2-Pad2)*%
X153670000Y-44450000D02*
X153670000Y-43180000D01*
X149860000Y-48260000D02*
X153670000Y-44450000D01*
%TO.N,Net-(R4-Pad2)*%
X191770000Y-48260000D02*
X195580000Y-48260000D01*
%TO.N,Net-(R5-Pad1)*%
X173990000Y-50800000D02*
X176530000Y-50800000D01*
X176530000Y-45720000D02*
X177800000Y-44450000D01*
X194310000Y-44450000D02*
X195580000Y-45720000D01*
X176530000Y-50800000D02*
X176530000Y-45720000D01*
X177800000Y-44450000D02*
X194310000Y-44450000D01*
%TO.N,Net-(R6-Pad1)*%
X176530000Y-43180000D02*
X195580000Y-43180000D01*
X195580000Y-43180000D02*
X200660000Y-48260000D01*
%TD*%
%TA.AperFunction,Conductor*%
%TO.N,0V*%
G36*
X227907121Y-26055002D02*
G01*
X227953614Y-26108658D01*
X227965000Y-26161000D01*
X227965000Y-126239000D01*
X227944998Y-126307121D01*
X227891342Y-126353614D01*
X227839000Y-126365000D01*
X127761000Y-126365000D01*
X127692879Y-126344998D01*
X127646386Y-126291342D01*
X127635000Y-126239000D01*
X127635000Y-110490000D01*
X147955000Y-110490000D01*
X159385000Y-110490000D01*
X159385000Y-102870000D01*
X147955000Y-102870000D01*
X147955000Y-110490000D01*
X127635000Y-110490000D01*
X127635000Y-82523208D01*
X147822776Y-82523208D01*
X147823369Y-82530500D01*
X147823369Y-82530503D01*
X147827085Y-82576183D01*
X147827500Y-82586398D01*
X147827500Y-82594525D01*
X147830811Y-82622924D01*
X147831238Y-82627244D01*
X147837191Y-82700426D01*
X147839447Y-82707388D01*
X147840643Y-82713376D01*
X147842051Y-82719333D01*
X147842899Y-82726607D01*
X147845397Y-82733489D01*
X147845398Y-82733493D01*
X147867945Y-82795607D01*
X147869355Y-82799711D01*
X147891987Y-82869575D01*
X147895787Y-82875838D01*
X147898325Y-82881380D01*
X147901067Y-82886856D01*
X147903566Y-82893741D01*
X147907581Y-82899865D01*
X147943815Y-82955132D01*
X147946130Y-82958800D01*
X147984227Y-83021581D01*
X147987941Y-83025786D01*
X147987943Y-83025789D01*
X147991667Y-83030005D01*
X147991638Y-83030031D01*
X147994238Y-83032962D01*
X147997042Y-83036316D01*
X148001054Y-83042435D01*
X148019692Y-83060091D01*
X148057586Y-83095988D01*
X148060028Y-83098366D01*
X153112538Y-88150876D01*
X153146564Y-88213188D01*
X153141499Y-88284003D01*
X153098952Y-88340839D01*
X153070746Y-88356755D01*
X152874561Y-88436218D01*
X152826460Y-88455701D01*
X152761698Y-88493621D01*
X152598984Y-88588894D01*
X152587826Y-88595427D01*
X152371861Y-88768138D01*
X152183091Y-88970216D01*
X152025469Y-89197427D01*
X152023439Y-89201508D01*
X151927979Y-89393390D01*
X151902297Y-89445012D01*
X151816156Y-89707785D01*
X151815376Y-89712276D01*
X151815376Y-89712277D01*
X151770353Y-89971584D01*
X151768850Y-89980240D01*
X151764500Y-90067618D01*
X151764500Y-93231518D01*
X151763727Y-93245454D01*
X151760811Y-93271657D01*
X151760966Y-93276214D01*
X151760966Y-93276218D01*
X151764427Y-93377859D01*
X151764500Y-93382147D01*
X151764500Y-93415247D01*
X151764665Y-93417519D01*
X151764665Y-93417523D01*
X151766587Y-93444004D01*
X151766843Y-93448820D01*
X151770221Y-93548028D01*
X151775563Y-93577569D01*
X151777243Y-93590863D01*
X151779415Y-93620807D01*
X151780399Y-93625262D01*
X151780399Y-93625265D01*
X151800814Y-93717732D01*
X151801763Y-93722462D01*
X151819428Y-93820146D01*
X151820881Y-93824475D01*
X151820882Y-93824480D01*
X151828979Y-93848609D01*
X151832563Y-93861532D01*
X151839032Y-93890835D01*
X151840650Y-93895106D01*
X151840651Y-93895109D01*
X151874193Y-93983642D01*
X151875816Y-93988186D01*
X151907401Y-94082311D01*
X151920959Y-94109092D01*
X151926367Y-94121355D01*
X151937004Y-94149430D01*
X151939218Y-94153417D01*
X151939219Y-94153418D01*
X151985207Y-94236212D01*
X151987474Y-94240485D01*
X152032299Y-94329030D01*
X152034929Y-94332765D01*
X152049580Y-94353573D01*
X152056698Y-94364920D01*
X152071281Y-94391173D01*
X152131527Y-94470114D01*
X152134343Y-94473956D01*
X152191503Y-94555135D01*
X152194080Y-94557983D01*
X152194084Y-94557987D01*
X152219262Y-94585803D01*
X152226005Y-94593911D01*
X152239047Y-94611000D01*
X152335266Y-94705060D01*
X152336282Y-94706066D01*
X160300095Y-102669879D01*
X160334121Y-102732191D01*
X160337000Y-102758974D01*
X160337000Y-106603102D01*
X160336730Y-106611343D01*
X160332230Y-106680000D01*
X160332500Y-106684119D01*
X160332500Y-106684120D01*
X160336864Y-106750703D01*
X160337000Y-106753450D01*
X160337000Y-106754901D01*
X160347543Y-106913636D01*
X160351289Y-106970782D01*
X160351364Y-106971161D01*
X160351597Y-106974664D01*
X160352421Y-106978753D01*
X160352422Y-106978757D01*
X160385914Y-107144862D01*
X160385979Y-107145184D01*
X160407333Y-107252536D01*
X160408139Y-107256589D01*
X160408668Y-107258148D01*
X160408951Y-107259353D01*
X160409140Y-107260048D01*
X160409967Y-107264151D01*
X160411329Y-107268106D01*
X160462092Y-107415532D01*
X160462270Y-107416053D01*
X160501809Y-107532531D01*
X160503134Y-107535217D01*
X160504504Y-107538833D01*
X160504748Y-107539414D01*
X160506112Y-107543375D01*
X160574641Y-107680224D01*
X160574949Y-107680844D01*
X160630695Y-107793885D01*
X160632994Y-107797326D01*
X160633287Y-107797833D01*
X160636138Y-107803129D01*
X160636470Y-107803695D01*
X160638341Y-107807431D01*
X160640691Y-107810888D01*
X160640691Y-107810889D01*
X160721655Y-107930023D01*
X160722207Y-107930842D01*
X160792591Y-108036180D01*
X160795307Y-108039277D01*
X160797824Y-108042557D01*
X160797652Y-108042689D01*
X160799393Y-108044939D01*
X160799409Y-108044927D01*
X160801983Y-108048221D01*
X160804332Y-108051678D01*
X160900505Y-108159241D01*
X160901307Y-108160147D01*
X160982004Y-108252165D01*
X160982013Y-108252174D01*
X160984729Y-108255271D01*
X160987833Y-108257993D01*
X160990741Y-108260901D01*
X160990682Y-108260960D01*
X160997402Y-108267615D01*
X161001168Y-108271827D01*
X161004338Y-108274544D01*
X161004339Y-108274545D01*
X161108308Y-108363658D01*
X161109387Y-108364594D01*
X161185082Y-108430976D01*
X161203820Y-108447409D01*
X161207548Y-108449900D01*
X161219536Y-108458991D01*
X161225390Y-108464009D01*
X161341322Y-108539296D01*
X161342586Y-108540129D01*
X161446115Y-108609305D01*
X161449810Y-108611127D01*
X161449813Y-108611129D01*
X161451965Y-108612190D01*
X161464851Y-108619517D01*
X161473061Y-108624849D01*
X161476839Y-108626643D01*
X161476841Y-108626644D01*
X161595359Y-108682920D01*
X161597042Y-108683734D01*
X161703765Y-108736365D01*
X161703773Y-108736368D01*
X161707469Y-108738191D01*
X161715590Y-108740948D01*
X161729128Y-108746438D01*
X161736053Y-108749727D01*
X161736058Y-108749729D01*
X161739828Y-108751519D01*
X161866329Y-108792135D01*
X161868183Y-108792747D01*
X161983411Y-108831861D01*
X161987450Y-108832664D01*
X161987456Y-108832666D01*
X161993831Y-108833934D01*
X162007757Y-108837542D01*
X162017020Y-108840516D01*
X162021004Y-108841795D01*
X162080323Y-108852468D01*
X162149274Y-108864874D01*
X162151543Y-108865304D01*
X162160311Y-108867048D01*
X162269218Y-108888711D01*
X162273334Y-108888981D01*
X162273335Y-108888981D01*
X162281860Y-108889540D01*
X162295922Y-108891261D01*
X162307528Y-108893349D01*
X162307536Y-108893350D01*
X162311650Y-108894090D01*
X162315826Y-108894280D01*
X162315829Y-108894280D01*
X162439407Y-108899892D01*
X162441931Y-108900032D01*
X162555880Y-108907500D01*
X162560000Y-108907770D01*
X162564120Y-108907500D01*
X162564122Y-108907500D01*
X162574684Y-108906808D01*
X162588635Y-108906668D01*
X162602488Y-108907297D01*
X162602493Y-108907297D01*
X162606659Y-108907486D01*
X162610807Y-108907123D01*
X162610811Y-108907123D01*
X162731749Y-108896542D01*
X162734490Y-108896333D01*
X162772554Y-108893838D01*
X162850782Y-108888711D01*
X162854827Y-108887906D01*
X162854845Y-108887904D01*
X162867216Y-108885443D01*
X162880812Y-108883502D01*
X162896679Y-108882114D01*
X162896697Y-108882111D01*
X162900849Y-108881748D01*
X162904916Y-108880839D01*
X162904935Y-108880836D01*
X163021133Y-108854862D01*
X163024005Y-108854255D01*
X163136589Y-108831861D01*
X163154399Y-108825816D01*
X163167402Y-108822167D01*
X163189050Y-108817328D01*
X163302579Y-108775557D01*
X163305585Y-108774494D01*
X163408616Y-108739520D01*
X163408617Y-108739520D01*
X163412531Y-108738191D01*
X163431231Y-108728969D01*
X163443450Y-108723726D01*
X163466199Y-108715356D01*
X163469894Y-108713408D01*
X163571202Y-108659994D01*
X163574239Y-108658445D01*
X163632203Y-108629860D01*
X163673885Y-108609305D01*
X163677306Y-108607019D01*
X163677320Y-108607011D01*
X163692918Y-108596589D01*
X163704154Y-108589897D01*
X163723729Y-108579576D01*
X163723732Y-108579574D01*
X163727427Y-108577626D01*
X163730826Y-108575211D01*
X163730830Y-108575208D01*
X163822397Y-108510134D01*
X163825386Y-108508075D01*
X163867203Y-108480134D01*
X163916180Y-108447409D01*
X163934926Y-108430969D01*
X163945006Y-108423002D01*
X163964739Y-108408978D01*
X163964744Y-108408974D01*
X163968145Y-108406557D01*
X163971193Y-108403715D01*
X163971200Y-108403709D01*
X164051736Y-108328609D01*
X164054589Y-108326029D01*
X164132174Y-108257988D01*
X164132182Y-108257980D01*
X164135271Y-108255271D01*
X164137979Y-108252183D01*
X164137985Y-108252177D01*
X164153049Y-108234999D01*
X164161847Y-108225927D01*
X164184124Y-108205154D01*
X164186773Y-108201929D01*
X164186780Y-108201922D01*
X164255280Y-108118527D01*
X164257914Y-108115424D01*
X164324686Y-108039286D01*
X164324692Y-108039278D01*
X164327409Y-108036180D01*
X164343531Y-108012052D01*
X164350924Y-108002088D01*
X164371568Y-107976955D01*
X164429495Y-107883529D01*
X164431816Y-107879925D01*
X164487007Y-107797326D01*
X164487015Y-107797313D01*
X164489305Y-107793885D01*
X164503042Y-107766029D01*
X164508959Y-107755366D01*
X164524977Y-107729533D01*
X164524980Y-107729527D01*
X164527185Y-107725971D01*
X164571362Y-107627673D01*
X164573277Y-107623606D01*
X164600428Y-107568550D01*
X164618191Y-107532531D01*
X164628829Y-107501193D01*
X164633210Y-107490055D01*
X164648241Y-107456610D01*
X164649434Y-107452608D01*
X164649437Y-107452600D01*
X164678419Y-107355380D01*
X164679855Y-107350874D01*
X164700326Y-107290571D01*
X164711861Y-107256589D01*
X164718717Y-107222121D01*
X164721547Y-107210706D01*
X164731414Y-107177610D01*
X164732608Y-107173605D01*
X164748798Y-107071390D01*
X164749668Y-107066521D01*
X164765661Y-106986116D01*
X164768711Y-106970782D01*
X164771142Y-106933697D01*
X164772423Y-106922229D01*
X164778257Y-106885394D01*
X164778257Y-106885392D01*
X164778806Y-106881927D01*
X164783000Y-106789563D01*
X164783000Y-106756898D01*
X164783270Y-106748657D01*
X164787500Y-106684119D01*
X164787770Y-106680000D01*
X164783270Y-106611343D01*
X164783000Y-106603102D01*
X164783000Y-99136898D01*
X164783270Y-99128657D01*
X164787500Y-99064119D01*
X164787770Y-99060000D01*
X164783136Y-98989297D01*
X164783000Y-98986550D01*
X164783000Y-98985099D01*
X164772457Y-98826364D01*
X164768711Y-98769218D01*
X164768636Y-98768839D01*
X164768403Y-98765336D01*
X164734021Y-98594816D01*
X164711861Y-98483411D01*
X164711332Y-98481852D01*
X164711049Y-98480647D01*
X164710860Y-98479952D01*
X164710033Y-98475849D01*
X164657908Y-98324468D01*
X164657730Y-98323947D01*
X164619520Y-98211384D01*
X164619520Y-98211383D01*
X164618191Y-98207469D01*
X164616866Y-98204783D01*
X164615496Y-98201167D01*
X164615252Y-98200586D01*
X164613888Y-98196625D01*
X164545322Y-98059702D01*
X164545016Y-98059086D01*
X164491134Y-97949824D01*
X164489305Y-97946115D01*
X164487005Y-97942672D01*
X164486713Y-97942167D01*
X164483862Y-97936871D01*
X164483530Y-97936305D01*
X164481659Y-97932569D01*
X164398344Y-97809976D01*
X164397792Y-97809156D01*
X164329699Y-97707247D01*
X164329698Y-97707245D01*
X164327409Y-97703820D01*
X164324693Y-97700723D01*
X164322176Y-97697443D01*
X164322348Y-97697311D01*
X164320607Y-97695061D01*
X164320591Y-97695073D01*
X164318017Y-97691779D01*
X164315668Y-97688322D01*
X164219452Y-97580711D01*
X164218693Y-97579853D01*
X164137996Y-97487835D01*
X164137984Y-97487823D01*
X164135271Y-97484729D01*
X164132167Y-97482007D01*
X164129259Y-97479099D01*
X164129318Y-97479040D01*
X164122598Y-97472385D01*
X164118832Y-97468173D01*
X164055594Y-97413971D01*
X164011692Y-97376342D01*
X164010613Y-97375406D01*
X163919282Y-97295311D01*
X163919279Y-97295308D01*
X163916180Y-97292591D01*
X163912452Y-97290100D01*
X163900463Y-97281008D01*
X163894610Y-97275991D01*
X163778678Y-97200704D01*
X163777414Y-97199871D01*
X163673885Y-97130695D01*
X163670190Y-97128873D01*
X163670187Y-97128871D01*
X163668035Y-97127810D01*
X163655149Y-97120483D01*
X163646939Y-97115151D01*
X163576186Y-97081555D01*
X163524641Y-97057080D01*
X163522958Y-97056266D01*
X163416235Y-97003635D01*
X163416227Y-97003632D01*
X163412531Y-97001809D01*
X163404410Y-96999052D01*
X163390872Y-96993562D01*
X163383947Y-96990273D01*
X163383940Y-96990270D01*
X163380172Y-96988481D01*
X163253671Y-96947865D01*
X163251817Y-96947253D01*
X163136589Y-96908139D01*
X163132550Y-96907336D01*
X163132544Y-96907334D01*
X163126169Y-96906066D01*
X163112243Y-96902458D01*
X163102980Y-96899484D01*
X163102978Y-96899484D01*
X163098996Y-96898205D01*
X162970726Y-96875126D01*
X162968457Y-96874696D01*
X162854829Y-96852094D01*
X162850782Y-96851289D01*
X162846666Y-96851019D01*
X162846665Y-96851019D01*
X162838140Y-96850460D01*
X162824078Y-96848739D01*
X162812472Y-96846651D01*
X162812464Y-96846650D01*
X162808350Y-96845910D01*
X162804174Y-96845720D01*
X162804171Y-96845720D01*
X162680593Y-96840108D01*
X162678069Y-96839968D01*
X162564120Y-96832500D01*
X162560000Y-96832230D01*
X162555880Y-96832500D01*
X162555878Y-96832500D01*
X162545316Y-96833192D01*
X162531365Y-96833332D01*
X162517512Y-96832703D01*
X162517507Y-96832703D01*
X162513341Y-96832514D01*
X162509193Y-96832877D01*
X162509189Y-96832877D01*
X162388251Y-96843458D01*
X162385510Y-96843667D01*
X162351290Y-96845910D01*
X162269218Y-96851289D01*
X162265173Y-96852094D01*
X162265155Y-96852096D01*
X162252784Y-96854557D01*
X162239188Y-96856498D01*
X162223321Y-96857886D01*
X162223303Y-96857889D01*
X162219151Y-96858252D01*
X162215084Y-96859161D01*
X162215065Y-96859164D01*
X162098867Y-96885138D01*
X162095995Y-96885745D01*
X161983411Y-96908139D01*
X161965601Y-96914184D01*
X161952598Y-96917833D01*
X161930950Y-96922672D01*
X161817422Y-96964443D01*
X161814416Y-96965506D01*
X161707469Y-97001809D01*
X161703768Y-97003634D01*
X161703766Y-97003635D01*
X161688771Y-97011030D01*
X161676551Y-97016274D01*
X161653801Y-97024644D01*
X161650108Y-97026591D01*
X161650106Y-97026592D01*
X161548798Y-97080006D01*
X161545761Y-97081555D01*
X161504871Y-97101720D01*
X161446115Y-97130695D01*
X161442694Y-97132981D01*
X161442680Y-97132989D01*
X161427082Y-97143411D01*
X161415846Y-97150103D01*
X161396271Y-97160424D01*
X161396268Y-97160426D01*
X161392573Y-97162374D01*
X161389174Y-97164789D01*
X161389170Y-97164792D01*
X161297603Y-97229866D01*
X161294615Y-97231924D01*
X161203820Y-97292591D01*
X161185074Y-97309031D01*
X161174994Y-97316998D01*
X161155261Y-97331022D01*
X161155256Y-97331026D01*
X161151855Y-97333443D01*
X161148807Y-97336285D01*
X161148800Y-97336291D01*
X161068264Y-97411391D01*
X161065411Y-97413971D01*
X160987826Y-97482012D01*
X160987818Y-97482020D01*
X160984729Y-97484729D01*
X160982021Y-97487817D01*
X160982015Y-97487823D01*
X160966951Y-97505001D01*
X160958153Y-97514073D01*
X160935876Y-97534846D01*
X160933230Y-97538068D01*
X160933220Y-97538078D01*
X160864720Y-97621473D01*
X160862085Y-97624577D01*
X160849057Y-97639432D01*
X160789103Y-97677459D01*
X160718108Y-97677035D01*
X160665232Y-97645448D01*
X155612405Y-92592621D01*
X155578379Y-92530309D01*
X155575500Y-92503526D01*
X155575500Y-92042750D01*
X155595502Y-91974629D01*
X155649158Y-91928136D01*
X155701500Y-91916750D01*
X156749384Y-91916750D01*
X156751924Y-91916543D01*
X156751934Y-91916543D01*
X156814535Y-91911451D01*
X156892397Y-91905118D01*
X156897599Y-91903782D01*
X156897601Y-91903782D01*
X157106625Y-91850113D01*
X157112066Y-91848716D01*
X157117169Y-91846380D01*
X157117171Y-91846379D01*
X157189826Y-91813115D01*
X157318274Y-91754307D01*
X157504506Y-91624873D01*
X157664873Y-91464506D01*
X157794307Y-91278274D01*
X157888716Y-91072066D01*
X157945118Y-90852397D01*
X157956750Y-90709384D01*
X157956750Y-89630616D01*
X157954620Y-89604419D01*
X157946397Y-89503330D01*
X157945118Y-89487603D01*
X157934183Y-89445012D01*
X157890113Y-89273375D01*
X157888716Y-89267934D01*
X157870720Y-89228626D01*
X157821207Y-89120482D01*
X157794307Y-89061726D01*
X157664873Y-88875494D01*
X157504506Y-88715127D01*
X157371552Y-88622722D01*
X157322880Y-88588894D01*
X157322878Y-88588893D01*
X157318274Y-88585693D01*
X157189826Y-88526885D01*
X157117171Y-88493621D01*
X157117169Y-88493620D01*
X157112066Y-88491284D01*
X156966817Y-88453990D01*
X156897601Y-88436218D01*
X156897599Y-88436218D01*
X156892397Y-88434882D01*
X156810612Y-88428230D01*
X156751934Y-88423457D01*
X156751924Y-88423457D01*
X156749384Y-88423250D01*
X155670616Y-88423250D01*
X155668077Y-88423457D01*
X155668065Y-88423457D01*
X155609387Y-88428230D01*
X155539869Y-88413816D01*
X155510078Y-88391740D01*
X149389405Y-82271067D01*
X149355379Y-82208755D01*
X149352500Y-82181972D01*
X149352500Y-81687046D01*
X149372502Y-81618925D01*
X149426158Y-81572432D01*
X149496432Y-81562328D01*
X149561012Y-81591822D01*
X149566658Y-81597023D01*
X149568383Y-81598712D01*
X149571168Y-81601827D01*
X149574338Y-81604544D01*
X149574339Y-81604545D01*
X149678308Y-81693658D01*
X149679387Y-81694594D01*
X149773820Y-81777409D01*
X149777548Y-81779900D01*
X149789536Y-81788991D01*
X149795390Y-81794009D01*
X149911322Y-81869296D01*
X149912586Y-81870129D01*
X150016115Y-81939305D01*
X150019810Y-81941127D01*
X150019813Y-81941129D01*
X150021965Y-81942190D01*
X150034851Y-81949517D01*
X150043061Y-81954849D01*
X150046839Y-81956643D01*
X150046841Y-81956644D01*
X150165359Y-82012920D01*
X150167042Y-82013734D01*
X150273765Y-82066365D01*
X150273773Y-82066368D01*
X150277469Y-82068191D01*
X150285590Y-82070948D01*
X150299128Y-82076438D01*
X150306053Y-82079727D01*
X150306060Y-82079730D01*
X150309828Y-82081519D01*
X150436329Y-82122135D01*
X150438183Y-82122747D01*
X150553411Y-82161861D01*
X150557450Y-82162664D01*
X150557456Y-82162666D01*
X150563831Y-82163934D01*
X150577757Y-82167542D01*
X150587020Y-82170516D01*
X150591004Y-82171795D01*
X150647567Y-82181972D01*
X150719274Y-82194874D01*
X150721543Y-82195304D01*
X150839218Y-82218711D01*
X150843334Y-82218981D01*
X150843335Y-82218981D01*
X150851860Y-82219540D01*
X150865922Y-82221261D01*
X150877528Y-82223349D01*
X150877536Y-82223350D01*
X150881650Y-82224090D01*
X150885826Y-82224280D01*
X150885829Y-82224280D01*
X151009407Y-82229892D01*
X151011931Y-82230032D01*
X151125880Y-82237500D01*
X151130000Y-82237770D01*
X151134120Y-82237500D01*
X151134122Y-82237500D01*
X151144684Y-82236808D01*
X151158635Y-82236668D01*
X151172488Y-82237297D01*
X151172493Y-82237297D01*
X151176659Y-82237486D01*
X151180807Y-82237123D01*
X151180811Y-82237123D01*
X151263183Y-82229916D01*
X151332788Y-82243905D01*
X151361216Y-82264343D01*
X151402183Y-82303492D01*
X151404227Y-82305491D01*
X151431493Y-82332757D01*
X151433467Y-82334431D01*
X151440309Y-82340233D01*
X151445865Y-82345235D01*
X151497461Y-82394542D01*
X151527209Y-82414834D01*
X151537694Y-82422823D01*
X151561199Y-82442757D01*
X151561205Y-82442761D01*
X151565150Y-82446107D01*
X151569586Y-82448762D01*
X151569589Y-82448764D01*
X151626369Y-82482746D01*
X151632667Y-82486773D01*
X151691614Y-82526984D01*
X151696299Y-82529159D01*
X151696303Y-82529161D01*
X151724269Y-82542142D01*
X151735916Y-82548308D01*
X151766815Y-82566801D01*
X151798644Y-82579339D01*
X151833194Y-82592949D01*
X151840064Y-82595893D01*
X151900096Y-82623759D01*
X151900100Y-82623760D01*
X151904791Y-82625938D01*
X151939493Y-82635562D01*
X151951982Y-82639741D01*
X151980669Y-82651042D01*
X151980681Y-82651046D01*
X151985485Y-82652938D01*
X151990540Y-82654022D01*
X151990541Y-82654022D01*
X152055264Y-82667897D01*
X152062526Y-82669681D01*
X152131267Y-82688745D01*
X152167065Y-82692571D01*
X152180086Y-82694657D01*
X152210225Y-82701118D01*
X152210227Y-82701118D01*
X152215287Y-82702203D01*
X152220448Y-82702446D01*
X152220453Y-82702447D01*
X152272328Y-82704893D01*
X152286567Y-82705564D01*
X152294012Y-82706137D01*
X152323135Y-82709250D01*
X152361754Y-82709250D01*
X152367688Y-82709390D01*
X152450050Y-82713274D01*
X152476975Y-82710111D01*
X152491676Y-82709250D01*
X160604808Y-82709250D01*
X160672929Y-82729252D01*
X160719422Y-82782908D01*
X160729526Y-82853182D01*
X160700032Y-82917762D01*
X160668947Y-82943704D01*
X160650586Y-82954563D01*
X160579902Y-82996365D01*
X160466365Y-83109902D01*
X160462331Y-83116723D01*
X160453224Y-83132123D01*
X160384631Y-83248107D01*
X160382420Y-83255718D01*
X160382419Y-83255720D01*
X160341629Y-83396119D01*
X160341628Y-83396124D01*
X160339835Y-83402296D01*
X160339331Y-83408706D01*
X160337194Y-83435856D01*
X160337000Y-83438319D01*
X160337001Y-86741680D01*
X160339835Y-86777704D01*
X160384631Y-86931893D01*
X160466365Y-87070098D01*
X160579902Y-87183635D01*
X160718107Y-87265369D01*
X160725718Y-87267580D01*
X160725720Y-87267581D01*
X160866119Y-87308371D01*
X160866124Y-87308372D01*
X160872296Y-87310165D01*
X160893919Y-87311867D01*
X160905862Y-87312807D01*
X160905871Y-87312807D01*
X160908319Y-87313000D01*
X162558663Y-87313000D01*
X164211680Y-87312999D01*
X164230923Y-87311485D01*
X164241286Y-87310670D01*
X164241287Y-87310670D01*
X164247704Y-87310165D01*
X164253884Y-87308370D01*
X164253887Y-87308369D01*
X164394280Y-87267581D01*
X164394282Y-87267580D01*
X164401893Y-87265369D01*
X164540098Y-87183635D01*
X164653635Y-87070098D01*
X164735369Y-86931893D01*
X164778369Y-86783887D01*
X164778371Y-86783881D01*
X164778372Y-86783876D01*
X164780165Y-86777704D01*
X164781867Y-86756081D01*
X164782807Y-86744138D01*
X164782807Y-86744129D01*
X164783000Y-86741681D01*
X164782999Y-83438320D01*
X164780165Y-83402296D01*
X164770157Y-83367846D01*
X164737581Y-83255720D01*
X164737580Y-83255718D01*
X164735369Y-83248107D01*
X164666777Y-83132123D01*
X164657669Y-83116723D01*
X164653635Y-83109902D01*
X164540098Y-82996365D01*
X164469415Y-82954563D01*
X164451053Y-82943704D01*
X164402600Y-82891811D01*
X164389895Y-82821960D01*
X164416970Y-82756329D01*
X164475231Y-82715755D01*
X164515192Y-82709250D01*
X192365192Y-82709250D01*
X192433313Y-82729252D01*
X192479806Y-82782908D01*
X192489910Y-82853182D01*
X192460416Y-82917762D01*
X192408704Y-82953498D01*
X192407205Y-82954050D01*
X192394918Y-82957736D01*
X192392672Y-82958422D01*
X192388603Y-82959377D01*
X192384703Y-82960859D01*
X192384698Y-82960860D01*
X192287862Y-82997644D01*
X192283621Y-82999169D01*
X192244218Y-83012545D01*
X192187469Y-83031809D01*
X192168771Y-83041030D01*
X192156551Y-83046274D01*
X192133801Y-83054644D01*
X192130104Y-83056593D01*
X192127928Y-83057562D01*
X192118563Y-83061790D01*
X192116446Y-83062759D01*
X192112537Y-83064244D01*
X192108862Y-83066231D01*
X192108860Y-83066232D01*
X192019620Y-83114484D01*
X192015422Y-83116653D01*
X191926115Y-83160695D01*
X191922694Y-83162981D01*
X191922673Y-83162993D01*
X191907082Y-83173411D01*
X191895846Y-83180103D01*
X191876267Y-83190426D01*
X191876262Y-83190429D01*
X191872573Y-83192374D01*
X191869176Y-83194788D01*
X191867318Y-83195931D01*
X191858463Y-83201443D01*
X191856447Y-83202713D01*
X191852766Y-83204703D01*
X191809039Y-83236472D01*
X191769047Y-83265527D01*
X191764989Y-83268355D01*
X191683820Y-83322591D01*
X191665074Y-83339031D01*
X191654994Y-83346998D01*
X191635271Y-83361015D01*
X191635267Y-83361018D01*
X191631855Y-83363443D01*
X191628791Y-83366300D01*
X191626896Y-83367846D01*
X191617090Y-83375930D01*
X191613851Y-83378283D01*
X191611251Y-83380657D01*
X191611245Y-83380662D01*
X191546637Y-83439658D01*
X191545574Y-83440629D01*
X191522485Y-83463718D01*
X191516468Y-83469355D01*
X191464729Y-83514729D01*
X191462021Y-83517817D01*
X191462015Y-83517823D01*
X191446951Y-83535001D01*
X191438153Y-83544073D01*
X191415876Y-83564846D01*
X191413227Y-83568071D01*
X191394572Y-83590782D01*
X191386302Y-83599901D01*
X188958662Y-86027542D01*
X188955498Y-86030598D01*
X188875876Y-86104846D01*
X188873223Y-86108075D01*
X188873220Y-86108079D01*
X188854574Y-86130780D01*
X188846304Y-86139900D01*
X186418683Y-88567521D01*
X186415520Y-88570577D01*
X186388872Y-88595427D01*
X186335876Y-88644846D01*
X186265540Y-88730474D01*
X186263020Y-88733446D01*
X186190064Y-88816782D01*
X186187746Y-88820271D01*
X186174203Y-88840655D01*
X186166627Y-88850894D01*
X186148432Y-88873045D01*
X186146233Y-88876592D01*
X186146232Y-88876593D01*
X186090075Y-88967164D01*
X186087937Y-88970494D01*
X186030383Y-89057120D01*
X186026640Y-89062754D01*
X186014069Y-89088528D01*
X186007923Y-89099662D01*
X185992815Y-89124029D01*
X185991104Y-89127837D01*
X185991102Y-89127840D01*
X185947417Y-89225043D01*
X185945738Y-89228626D01*
X185899018Y-89324417D01*
X185899011Y-89324433D01*
X185897184Y-89328180D01*
X185895865Y-89332146D01*
X185888140Y-89355367D01*
X185883509Y-89367244D01*
X185871759Y-89393390D01*
X185870565Y-89397396D01*
X185840110Y-89499555D01*
X185838920Y-89503327D01*
X185803968Y-89608396D01*
X185803183Y-89612512D01*
X185798598Y-89636547D01*
X185795579Y-89648933D01*
X185787392Y-89676395D01*
X185786738Y-89680525D01*
X185770064Y-89785800D01*
X185769383Y-89789699D01*
X185748632Y-89898478D01*
X185747031Y-89927104D01*
X185745680Y-89939748D01*
X185741194Y-89968073D01*
X185737000Y-90060437D01*
X185737000Y-90103015D01*
X185736804Y-90110048D01*
X185732148Y-90193331D01*
X185732468Y-90197490D01*
X185732468Y-90197492D01*
X185736629Y-90251569D01*
X185737000Y-90261235D01*
X185737000Y-98983102D01*
X185736730Y-98991343D01*
X185732230Y-99060000D01*
X185732500Y-99064119D01*
X185736730Y-99128657D01*
X185737000Y-99136898D01*
X185737000Y-106603102D01*
X185736730Y-106611343D01*
X185732230Y-106680000D01*
X185732500Y-106684118D01*
X185732500Y-106688245D01*
X185732418Y-106688245D01*
X185732463Y-106697700D01*
X185732148Y-106703331D01*
X185732468Y-106707489D01*
X185732468Y-106707493D01*
X185742534Y-106838308D01*
X185742625Y-106839590D01*
X185747536Y-106913527D01*
X185747536Y-106913529D01*
X185747543Y-106913636D01*
X185751222Y-106969767D01*
X185751223Y-106969774D01*
X185751289Y-106970782D01*
X185751364Y-106971161D01*
X185751597Y-106974664D01*
X185752423Y-106978762D01*
X185752739Y-106981126D01*
X185754153Y-106991319D01*
X185754482Y-106993605D01*
X185754803Y-106997773D01*
X185782975Y-107130314D01*
X185783226Y-107131528D01*
X185785915Y-107144867D01*
X185785979Y-107145184D01*
X185807333Y-107252536D01*
X185808139Y-107256589D01*
X185808667Y-107258145D01*
X185808948Y-107259342D01*
X185809140Y-107260048D01*
X185809967Y-107264151D01*
X185811329Y-107268106D01*
X185811994Y-107270554D01*
X185814680Y-107280239D01*
X185815334Y-107282549D01*
X185816202Y-107286634D01*
X185817604Y-107290571D01*
X185861601Y-107414130D01*
X185861981Y-107415212D01*
X185862073Y-107415478D01*
X185862270Y-107416053D01*
X185901809Y-107532531D01*
X185903132Y-107535213D01*
X185904504Y-107538836D01*
X185904754Y-107539430D01*
X185906112Y-107543375D01*
X185907985Y-107547114D01*
X185908889Y-107549265D01*
X185912940Y-107558763D01*
X185913864Y-107560899D01*
X185915266Y-107564836D01*
X185917175Y-107568550D01*
X185975979Y-107682972D01*
X185976918Y-107684837D01*
X186030695Y-107793885D01*
X186032992Y-107797323D01*
X186033286Y-107797832D01*
X186036142Y-107803136D01*
X186036471Y-107803696D01*
X186038341Y-107807431D01*
X186040691Y-107810889D01*
X186041879Y-107812913D01*
X186047225Y-107821918D01*
X186048347Y-107823786D01*
X186050252Y-107827492D01*
X186052634Y-107830919D01*
X186052638Y-107830926D01*
X186124643Y-107934527D01*
X186125918Y-107936396D01*
X186192591Y-108036180D01*
X186195307Y-108039277D01*
X186197824Y-108042557D01*
X186197652Y-108042689D01*
X186199396Y-108044942D01*
X186199412Y-108044930D01*
X186201982Y-108048220D01*
X186204332Y-108051678D01*
X186207115Y-108054791D01*
X186208458Y-108056510D01*
X186215071Y-108064884D01*
X186216410Y-108066561D01*
X186218792Y-108069988D01*
X186300737Y-108159728D01*
X186305010Y-108164408D01*
X186306697Y-108166293D01*
X186382004Y-108252165D01*
X186382013Y-108252174D01*
X186384729Y-108255271D01*
X186387833Y-108257993D01*
X186390741Y-108260901D01*
X186390682Y-108260960D01*
X186397402Y-108267615D01*
X186401168Y-108271827D01*
X186404339Y-108274545D01*
X186405974Y-108276146D01*
X186413324Y-108283269D01*
X186415098Y-108284970D01*
X186417922Y-108288063D01*
X186514122Y-108368785D01*
X186516132Y-108370509D01*
X186542674Y-108393785D01*
X186580236Y-108426726D01*
X186603820Y-108447409D01*
X186607548Y-108449900D01*
X186619536Y-108458991D01*
X186625390Y-108464009D01*
X186628899Y-108466288D01*
X186630816Y-108467722D01*
X186638891Y-108473698D01*
X186640937Y-108475195D01*
X186644146Y-108477888D01*
X186647684Y-108480133D01*
X186647685Y-108480134D01*
X186748208Y-108543928D01*
X186750696Y-108545548D01*
X186846115Y-108609305D01*
X186849810Y-108611127D01*
X186849813Y-108611129D01*
X186851965Y-108612190D01*
X186864851Y-108619517D01*
X186873061Y-108624849D01*
X186876837Y-108626642D01*
X186878966Y-108627832D01*
X186887868Y-108632746D01*
X186889952Y-108633882D01*
X186893486Y-108636125D01*
X186897284Y-108637880D01*
X186897286Y-108637881D01*
X187003278Y-108686855D01*
X187006157Y-108688229D01*
X187103765Y-108736365D01*
X187103773Y-108736368D01*
X187107469Y-108738191D01*
X187115590Y-108740948D01*
X187129125Y-108746437D01*
X187139828Y-108751519D01*
X187143809Y-108752797D01*
X187145933Y-108753638D01*
X187155700Y-108757446D01*
X187157780Y-108758244D01*
X187161565Y-108759993D01*
X187274949Y-108795091D01*
X187278167Y-108796135D01*
X187316478Y-108809140D01*
X187379501Y-108830534D01*
X187379505Y-108830535D01*
X187383411Y-108831861D01*
X187387459Y-108832666D01*
X187387462Y-108832667D01*
X187393831Y-108833934D01*
X187407757Y-108837542D01*
X187413126Y-108839265D01*
X187421004Y-108841795D01*
X187425126Y-108842537D01*
X187427359Y-108843093D01*
X187437437Y-108845550D01*
X187439679Y-108846084D01*
X187443671Y-108847320D01*
X187447792Y-108848017D01*
X187558504Y-108866743D01*
X187562070Y-108867399D01*
X187615660Y-108878058D01*
X187669218Y-108888711D01*
X187673334Y-108888981D01*
X187673335Y-108888981D01*
X187681860Y-108889540D01*
X187695922Y-108891261D01*
X187707532Y-108893350D01*
X187707545Y-108893351D01*
X187711650Y-108894090D01*
X187715820Y-108894279D01*
X187718172Y-108894543D01*
X187728278Y-108895623D01*
X187730726Y-108895872D01*
X187734849Y-108896569D01*
X187765337Y-108897634D01*
X187849066Y-108900558D01*
X187852909Y-108900751D01*
X187938350Y-108906351D01*
X187952784Y-108907297D01*
X187955881Y-108907500D01*
X187960000Y-108907770D01*
X187964120Y-108907500D01*
X187964122Y-108907500D01*
X187974684Y-108906808D01*
X187988635Y-108906668D01*
X188002487Y-108907297D01*
X188002493Y-108907297D01*
X188006659Y-108907486D01*
X188010809Y-108907123D01*
X188013150Y-108907074D01*
X188023467Y-108906803D01*
X188025797Y-108906730D01*
X188029982Y-108906876D01*
X188080785Y-108901894D01*
X188141576Y-108895934D01*
X188145631Y-108895603D01*
X188196436Y-108892273D01*
X188250782Y-108888711D01*
X188254827Y-108887906D01*
X188254845Y-108887904D01*
X188267216Y-108885443D01*
X188280812Y-108883502D01*
X188296669Y-108882115D01*
X188296689Y-108882112D01*
X188300849Y-108881748D01*
X188304931Y-108880835D01*
X188307439Y-108880447D01*
X188317263Y-108878873D01*
X188319718Y-108878467D01*
X188323886Y-108878058D01*
X188430943Y-108852948D01*
X188435066Y-108852055D01*
X188536589Y-108831861D01*
X188554399Y-108825816D01*
X188567402Y-108822167D01*
X188589050Y-108817328D01*
X188592968Y-108815887D01*
X188595077Y-108815266D01*
X188605082Y-108812264D01*
X188607328Y-108811578D01*
X188611397Y-108810623D01*
X188615297Y-108809141D01*
X188615302Y-108809140D01*
X188712138Y-108772356D01*
X188716379Y-108770831D01*
X188773312Y-108751504D01*
X188812531Y-108738191D01*
X188831231Y-108728969D01*
X188843450Y-108723726D01*
X188866199Y-108715356D01*
X188869896Y-108713407D01*
X188872072Y-108712438D01*
X188881437Y-108708210D01*
X188883554Y-108707241D01*
X188887463Y-108705756D01*
X188980381Y-108655515D01*
X188984580Y-108653346D01*
X189073885Y-108609305D01*
X189077306Y-108607019D01*
X189077327Y-108607007D01*
X189092918Y-108596589D01*
X189104154Y-108589897D01*
X189123733Y-108579574D01*
X189123738Y-108579571D01*
X189127427Y-108577626D01*
X189130830Y-108575208D01*
X189132682Y-108574069D01*
X189141537Y-108568557D01*
X189143553Y-108567287D01*
X189147234Y-108565297D01*
X189230953Y-108504473D01*
X189235011Y-108501645D01*
X189287935Y-108466282D01*
X189316180Y-108447409D01*
X189334926Y-108430969D01*
X189345006Y-108423002D01*
X189364729Y-108408985D01*
X189364738Y-108408978D01*
X189368145Y-108406557D01*
X189371209Y-108403700D01*
X189373104Y-108402154D01*
X189382910Y-108394070D01*
X189386149Y-108391717D01*
X189388749Y-108389343D01*
X189388755Y-108389338D01*
X189453363Y-108330342D01*
X189453371Y-108330334D01*
X189454426Y-108329371D01*
X189477515Y-108306282D01*
X189483532Y-108300645D01*
X189532182Y-108257980D01*
X189535271Y-108255271D01*
X189537979Y-108252183D01*
X189537985Y-108252177D01*
X189553049Y-108234999D01*
X189561847Y-108225927D01*
X189584124Y-108205154D01*
X189605428Y-108179218D01*
X189613698Y-108170099D01*
X194581317Y-103202479D01*
X194584480Y-103199423D01*
X194661068Y-103128004D01*
X194661070Y-103128002D01*
X194664124Y-103125154D01*
X194734460Y-103039526D01*
X194736985Y-103036549D01*
X194809936Y-102953218D01*
X194825798Y-102929344D01*
X194833373Y-102919106D01*
X194851568Y-102896955D01*
X194859881Y-102883548D01*
X194909925Y-102802836D01*
X194912063Y-102799506D01*
X194971047Y-102710728D01*
X194971050Y-102710723D01*
X194973360Y-102707246D01*
X194975188Y-102703498D01*
X194975192Y-102703491D01*
X194985926Y-102681482D01*
X194992087Y-102670321D01*
X195004981Y-102649526D01*
X195004982Y-102649524D01*
X195007185Y-102645971D01*
X195046824Y-102557770D01*
X195052576Y-102544972D01*
X195054255Y-102541389D01*
X195100983Y-102445582D01*
X195100987Y-102445571D01*
X195102817Y-102441820D01*
X195111865Y-102414619D01*
X195116496Y-102402742D01*
X195119330Y-102396438D01*
X195128241Y-102376610D01*
X195159888Y-102270454D01*
X195161072Y-102266700D01*
X195194712Y-102165575D01*
X195194715Y-102165562D01*
X195196032Y-102161604D01*
X195201402Y-102133453D01*
X195204421Y-102121067D01*
X195212608Y-102093605D01*
X195229936Y-101984200D01*
X195230617Y-101980301D01*
X195241253Y-101924545D01*
X195251368Y-101871522D01*
X195252969Y-101842896D01*
X195254321Y-101830243D01*
X195257571Y-101809728D01*
X195258806Y-101801927D01*
X195263000Y-101709563D01*
X195263000Y-101666985D01*
X195263196Y-101659952D01*
X195265239Y-101623407D01*
X195267852Y-101576669D01*
X195263371Y-101518431D01*
X195263000Y-101508765D01*
X195263000Y-100406898D01*
X195263270Y-100398657D01*
X195267500Y-100334119D01*
X195267770Y-100330000D01*
X195263270Y-100261343D01*
X195263000Y-100253102D01*
X195263000Y-95326898D01*
X195263270Y-95318657D01*
X195267500Y-95254119D01*
X195267770Y-95250000D01*
X195263270Y-95181343D01*
X195263000Y-95173102D01*
X195263000Y-90246898D01*
X195263270Y-90238657D01*
X195267500Y-90174119D01*
X195267770Y-90170000D01*
X195263270Y-90101343D01*
X195263000Y-90093102D01*
X195263000Y-85166898D01*
X195263270Y-85158657D01*
X195267500Y-85094119D01*
X195267770Y-85090000D01*
X195267500Y-85085880D01*
X195267500Y-85081755D01*
X195267582Y-85081755D01*
X195267537Y-85072296D01*
X195267852Y-85066669D01*
X195257462Y-84931635D01*
X195257372Y-84930374D01*
X195252457Y-84856363D01*
X195252450Y-84856256D01*
X195248778Y-84800233D01*
X195248777Y-84800226D01*
X195248711Y-84799218D01*
X195248636Y-84798839D01*
X195248403Y-84795336D01*
X195247577Y-84791238D01*
X195247261Y-84788874D01*
X195245847Y-84778681D01*
X195245518Y-84776395D01*
X195245197Y-84772227D01*
X195217024Y-84639682D01*
X195216773Y-84638469D01*
X195214061Y-84625014D01*
X195213998Y-84624700D01*
X195192667Y-84517461D01*
X195192665Y-84517455D01*
X195191861Y-84513411D01*
X195191333Y-84511855D01*
X195191052Y-84510658D01*
X195190860Y-84509952D01*
X195190033Y-84505849D01*
X195188671Y-84501893D01*
X195188006Y-84499446D01*
X195185320Y-84489761D01*
X195184666Y-84487451D01*
X195183798Y-84483366D01*
X195138399Y-84355870D01*
X195138019Y-84354788D01*
X195137927Y-84354522D01*
X195137693Y-84353838D01*
X195099520Y-84241384D01*
X195099520Y-84241383D01*
X195098191Y-84237469D01*
X195096868Y-84234787D01*
X195095496Y-84231164D01*
X195095246Y-84230570D01*
X195093888Y-84226625D01*
X195092015Y-84222885D01*
X195091111Y-84220735D01*
X195087060Y-84211237D01*
X195086136Y-84209101D01*
X195084734Y-84205164D01*
X195024021Y-84087028D01*
X195023082Y-84085163D01*
X194971130Y-83979816D01*
X194969305Y-83976115D01*
X194967008Y-83972677D01*
X194966714Y-83972168D01*
X194963858Y-83966864D01*
X194963529Y-83966304D01*
X194961659Y-83962569D01*
X194959308Y-83959109D01*
X194958121Y-83957087D01*
X194952775Y-83948082D01*
X194951653Y-83946214D01*
X194949748Y-83942508D01*
X194947366Y-83939081D01*
X194947362Y-83939074D01*
X194875357Y-83835473D01*
X194874082Y-83833604D01*
X194807409Y-83733820D01*
X194804693Y-83730723D01*
X194802176Y-83727443D01*
X194802348Y-83727311D01*
X194800604Y-83725058D01*
X194800588Y-83725070D01*
X194798018Y-83721780D01*
X194795668Y-83718322D01*
X194792885Y-83715209D01*
X194791542Y-83713490D01*
X194784929Y-83705116D01*
X194783590Y-83703439D01*
X194781208Y-83700012D01*
X194694969Y-83605568D01*
X194693303Y-83603707D01*
X194617996Y-83517835D01*
X194617984Y-83517823D01*
X194615271Y-83514729D01*
X194612167Y-83512007D01*
X194609259Y-83509099D01*
X194609318Y-83509040D01*
X194602598Y-83502385D01*
X194598832Y-83498173D01*
X194595661Y-83495455D01*
X194594026Y-83493854D01*
X194586676Y-83486731D01*
X194584902Y-83485030D01*
X194582078Y-83481937D01*
X194485878Y-83401215D01*
X194483856Y-83399481D01*
X194480023Y-83396119D01*
X194424011Y-83346998D01*
X194399283Y-83325312D01*
X194399281Y-83325310D01*
X194396180Y-83322591D01*
X194392452Y-83320100D01*
X194380463Y-83311008D01*
X194377787Y-83308714D01*
X194377786Y-83308713D01*
X194374610Y-83305991D01*
X194371101Y-83303712D01*
X194369184Y-83302278D01*
X194361109Y-83296302D01*
X194359063Y-83294805D01*
X194355854Y-83292112D01*
X194313963Y-83265527D01*
X194251792Y-83226072D01*
X194249304Y-83224452D01*
X194178360Y-83177049D01*
X194153885Y-83160695D01*
X194150190Y-83158873D01*
X194150187Y-83158871D01*
X194148035Y-83157810D01*
X194135149Y-83150483D01*
X194126939Y-83145151D01*
X194123163Y-83143358D01*
X194121034Y-83142168D01*
X194112070Y-83137220D01*
X194110044Y-83136115D01*
X194106514Y-83133875D01*
X194102727Y-83132125D01*
X194102723Y-83132123D01*
X193996678Y-83083124D01*
X193993841Y-83081770D01*
X193892531Y-83031809D01*
X193884410Y-83029052D01*
X193870872Y-83023562D01*
X193863947Y-83020273D01*
X193863940Y-83020270D01*
X193860172Y-83018481D01*
X193856195Y-83017204D01*
X193853989Y-83016331D01*
X193844277Y-83012545D01*
X193842223Y-83011757D01*
X193838435Y-83010006D01*
X193834449Y-83008772D01*
X193834446Y-83008771D01*
X193778443Y-82991435D01*
X193725031Y-82974902D01*
X193721813Y-82973858D01*
X193664972Y-82954563D01*
X193606896Y-82913726D01*
X193580118Y-82847973D01*
X193593139Y-82778181D01*
X193641826Y-82726507D01*
X193705474Y-82709250D01*
X196739351Y-82709250D01*
X196757103Y-82710507D01*
X196758106Y-82710649D01*
X196764946Y-82711623D01*
X196770109Y-82711506D01*
X196770111Y-82711506D01*
X196868126Y-82709282D01*
X196870984Y-82709250D01*
X196909574Y-82709250D01*
X196921110Y-82708301D01*
X196928560Y-82707910D01*
X196999909Y-82706292D01*
X197035293Y-82699606D01*
X197048357Y-82697840D01*
X197079080Y-82695314D01*
X197079082Y-82695314D01*
X197084234Y-82694890D01*
X197089243Y-82693632D01*
X197089248Y-82693631D01*
X197153436Y-82677508D01*
X197160736Y-82675903D01*
X197225762Y-82663616D01*
X197225766Y-82663615D01*
X197230846Y-82662655D01*
X197264654Y-82650284D01*
X197277251Y-82646408D01*
X197282157Y-82645176D01*
X197312177Y-82637635D01*
X197316961Y-82635555D01*
X197377618Y-82609181D01*
X197384559Y-82606405D01*
X197398689Y-82601234D01*
X197451556Y-82581888D01*
X197456059Y-82579340D01*
X197456062Y-82579339D01*
X197482889Y-82564161D01*
X197494690Y-82558277D01*
X197522966Y-82545982D01*
X197522967Y-82545982D01*
X197527708Y-82543920D01*
X197587635Y-82505152D01*
X197594012Y-82501290D01*
X197627004Y-82482624D01*
X197656110Y-82466156D01*
X197684127Y-82443550D01*
X197694807Y-82435819D01*
X197720693Y-82419072D01*
X197725038Y-82416261D01*
X197777814Y-82368238D01*
X197783485Y-82363378D01*
X197803662Y-82347098D01*
X197803671Y-82347090D01*
X197806281Y-82344984D01*
X197833566Y-82317699D01*
X197837861Y-82313600D01*
X197895050Y-82261562D01*
X197898869Y-82258087D01*
X197915679Y-82236802D01*
X197925465Y-82225800D01*
X198739639Y-81411626D01*
X198801951Y-81377600D01*
X198872766Y-81382665D01*
X198917829Y-81411626D01*
X203480095Y-85973891D01*
X203514121Y-86036203D01*
X203517000Y-86062986D01*
X203517000Y-90093102D01*
X203516730Y-90101343D01*
X203512230Y-90170000D01*
X203512500Y-90174119D01*
X203516730Y-90238657D01*
X203517000Y-90246898D01*
X203517000Y-95173102D01*
X203516730Y-95181343D01*
X203512230Y-95250000D01*
X203512500Y-95254119D01*
X203516730Y-95318657D01*
X203517000Y-95326898D01*
X203517000Y-100253102D01*
X203516730Y-100261343D01*
X203512230Y-100330000D01*
X203512500Y-100334119D01*
X203512500Y-100334120D01*
X203516864Y-100400703D01*
X203517000Y-100403450D01*
X203517000Y-100404901D01*
X203527543Y-100563636D01*
X203531289Y-100620782D01*
X203531364Y-100621161D01*
X203531597Y-100624664D01*
X203532421Y-100628753D01*
X203532422Y-100628757D01*
X203565914Y-100794862D01*
X203565979Y-100795184D01*
X203587333Y-100902536D01*
X203588139Y-100906589D01*
X203588668Y-100908148D01*
X203588951Y-100909353D01*
X203589140Y-100910048D01*
X203589967Y-100914151D01*
X203591329Y-100918106D01*
X203642092Y-101065532D01*
X203642270Y-101066053D01*
X203681809Y-101182531D01*
X203683134Y-101185217D01*
X203684504Y-101188833D01*
X203684748Y-101189414D01*
X203686112Y-101193375D01*
X203754641Y-101330224D01*
X203754949Y-101330844D01*
X203810695Y-101443885D01*
X203812994Y-101447326D01*
X203813287Y-101447833D01*
X203816138Y-101453129D01*
X203816470Y-101453695D01*
X203818341Y-101457431D01*
X203820691Y-101460888D01*
X203820691Y-101460889D01*
X203901655Y-101580023D01*
X203902202Y-101580835D01*
X203972591Y-101686180D01*
X203975307Y-101689277D01*
X203977824Y-101692557D01*
X203977652Y-101692689D01*
X203979393Y-101694939D01*
X203979409Y-101694927D01*
X203981983Y-101698221D01*
X203984332Y-101701678D01*
X204080505Y-101809241D01*
X204081307Y-101810147D01*
X204162004Y-101902165D01*
X204162013Y-101902174D01*
X204164729Y-101905271D01*
X204167833Y-101907993D01*
X204170741Y-101910901D01*
X204170682Y-101910960D01*
X204177402Y-101917615D01*
X204181168Y-101921827D01*
X204184338Y-101924544D01*
X204184339Y-101924545D01*
X204288308Y-102013658D01*
X204289387Y-102014594D01*
X204365082Y-102080976D01*
X204383820Y-102097409D01*
X204387548Y-102099900D01*
X204399536Y-102108991D01*
X204405390Y-102114009D01*
X204521322Y-102189296D01*
X204522586Y-102190129D01*
X204626115Y-102259305D01*
X204629810Y-102261127D01*
X204629813Y-102261129D01*
X204631965Y-102262190D01*
X204644851Y-102269517D01*
X204653061Y-102274849D01*
X204656839Y-102276643D01*
X204656841Y-102276644D01*
X204775359Y-102332920D01*
X204777042Y-102333734D01*
X204883765Y-102386365D01*
X204883773Y-102386368D01*
X204887469Y-102388191D01*
X204895590Y-102390948D01*
X204909128Y-102396438D01*
X204916053Y-102399727D01*
X204916060Y-102399730D01*
X204919828Y-102401519D01*
X205046329Y-102442135D01*
X205048183Y-102442747D01*
X205163411Y-102481861D01*
X205167450Y-102482664D01*
X205167456Y-102482666D01*
X205173831Y-102483934D01*
X205187757Y-102487542D01*
X205197020Y-102490516D01*
X205201004Y-102491795D01*
X205270216Y-102504248D01*
X205329274Y-102514874D01*
X205331543Y-102515304D01*
X205449218Y-102538711D01*
X205453334Y-102538981D01*
X205453335Y-102538981D01*
X205461860Y-102539540D01*
X205475922Y-102541261D01*
X205487528Y-102543349D01*
X205487536Y-102543350D01*
X205491650Y-102544090D01*
X205495826Y-102544280D01*
X205495829Y-102544280D01*
X205619407Y-102549892D01*
X205621931Y-102550032D01*
X205735880Y-102557500D01*
X205740000Y-102557770D01*
X205744120Y-102557500D01*
X205744122Y-102557500D01*
X205754684Y-102556808D01*
X205768635Y-102556668D01*
X205782488Y-102557297D01*
X205782493Y-102557297D01*
X205786659Y-102557486D01*
X205790807Y-102557123D01*
X205790811Y-102557123D01*
X205911749Y-102546542D01*
X205914490Y-102546333D01*
X205952554Y-102543838D01*
X206030782Y-102538711D01*
X206034827Y-102537906D01*
X206034845Y-102537904D01*
X206047216Y-102535443D01*
X206060812Y-102533502D01*
X206076679Y-102532114D01*
X206076697Y-102532111D01*
X206080849Y-102531748D01*
X206084916Y-102530839D01*
X206084935Y-102530836D01*
X206201133Y-102504862D01*
X206204005Y-102504255D01*
X206316589Y-102481861D01*
X206334399Y-102475816D01*
X206347402Y-102472167D01*
X206369050Y-102467328D01*
X206482579Y-102425557D01*
X206485585Y-102424494D01*
X206588616Y-102389520D01*
X206588617Y-102389520D01*
X206592531Y-102388191D01*
X206611231Y-102378969D01*
X206623450Y-102373726D01*
X206626478Y-102372612D01*
X206646199Y-102365356D01*
X206706175Y-102333734D01*
X206751202Y-102309994D01*
X206754239Y-102308445D01*
X206795129Y-102288280D01*
X206853885Y-102259305D01*
X206857306Y-102257019D01*
X206857320Y-102257011D01*
X206872918Y-102246589D01*
X206884154Y-102239897D01*
X206903729Y-102229576D01*
X206903732Y-102229574D01*
X206907427Y-102227626D01*
X206910826Y-102225211D01*
X206910830Y-102225208D01*
X207002397Y-102160134D01*
X207005386Y-102158075D01*
X207006248Y-102157499D01*
X207096180Y-102097409D01*
X207114926Y-102080969D01*
X207125006Y-102073002D01*
X207144739Y-102058978D01*
X207144744Y-102058974D01*
X207148145Y-102056557D01*
X207151193Y-102053715D01*
X207151200Y-102053709D01*
X207231736Y-101978609D01*
X207234589Y-101976029D01*
X207312174Y-101907988D01*
X207312182Y-101907980D01*
X207315271Y-101905271D01*
X207317979Y-101902183D01*
X207317985Y-101902177D01*
X207333049Y-101884999D01*
X207341847Y-101875927D01*
X207364124Y-101855154D01*
X207366770Y-101851932D01*
X207366780Y-101851922D01*
X207435280Y-101768527D01*
X207437914Y-101765424D01*
X207504686Y-101689286D01*
X207504692Y-101689278D01*
X207507409Y-101686180D01*
X207509703Y-101682747D01*
X207523531Y-101662052D01*
X207530924Y-101652088D01*
X207551568Y-101626955D01*
X207609495Y-101533529D01*
X207611816Y-101529925D01*
X207667007Y-101447326D01*
X207667015Y-101447313D01*
X207669305Y-101443885D01*
X207683042Y-101416029D01*
X207688959Y-101405366D01*
X207704977Y-101379533D01*
X207704980Y-101379527D01*
X207707185Y-101375971D01*
X207751362Y-101277673D01*
X207753277Y-101273606D01*
X207796370Y-101186223D01*
X207798191Y-101182531D01*
X207808829Y-101151193D01*
X207813210Y-101140055D01*
X207828241Y-101106610D01*
X207829434Y-101102608D01*
X207829437Y-101102600D01*
X207858419Y-101005380D01*
X207859855Y-101000874D01*
X207890534Y-100910498D01*
X207891861Y-100906589D01*
X207898717Y-100872121D01*
X207901547Y-100860706D01*
X207911414Y-100827610D01*
X207912608Y-100823605D01*
X207928798Y-100721390D01*
X207929668Y-100716521D01*
X207932153Y-100704029D01*
X207948711Y-100620782D01*
X207951142Y-100583697D01*
X207952423Y-100572229D01*
X207958257Y-100535394D01*
X207958257Y-100535392D01*
X207958806Y-100531927D01*
X207963000Y-100439563D01*
X207963000Y-100406898D01*
X207963270Y-100398657D01*
X207967500Y-100334119D01*
X207967770Y-100330000D01*
X207963270Y-100261343D01*
X207963000Y-100253102D01*
X207963000Y-95326898D01*
X207963270Y-95318657D01*
X207967500Y-95254119D01*
X207967770Y-95250000D01*
X207963270Y-95181343D01*
X207963000Y-95173102D01*
X207963000Y-90246898D01*
X207963270Y-90238657D01*
X207967500Y-90174119D01*
X207967770Y-90170000D01*
X207963270Y-90101343D01*
X207963000Y-90093102D01*
X207963000Y-85166898D01*
X207963270Y-85158657D01*
X207967500Y-85094119D01*
X207967770Y-85090000D01*
X207963136Y-85019297D01*
X207963000Y-85016550D01*
X207963000Y-85015099D01*
X207957419Y-84931064D01*
X207952457Y-84856364D01*
X207952450Y-84856256D01*
X207951845Y-84847031D01*
X207948711Y-84799218D01*
X207948636Y-84798839D01*
X207948403Y-84795336D01*
X207914021Y-84624816D01*
X207891861Y-84513411D01*
X207891332Y-84511852D01*
X207891049Y-84510647D01*
X207890860Y-84509952D01*
X207890033Y-84505849D01*
X207837908Y-84354468D01*
X207837730Y-84353947D01*
X207799520Y-84241384D01*
X207799520Y-84241383D01*
X207798191Y-84237469D01*
X207796866Y-84234783D01*
X207795496Y-84231167D01*
X207795252Y-84230586D01*
X207793888Y-84226625D01*
X207725322Y-84089702D01*
X207725016Y-84089086D01*
X207723544Y-84086100D01*
X207669305Y-83976115D01*
X207667005Y-83972672D01*
X207666713Y-83972167D01*
X207663862Y-83966871D01*
X207663530Y-83966305D01*
X207661659Y-83962569D01*
X207648026Y-83942508D01*
X207578345Y-83839977D01*
X207577792Y-83839156D01*
X207509699Y-83737247D01*
X207509698Y-83737245D01*
X207507409Y-83733820D01*
X207504693Y-83730723D01*
X207502176Y-83727443D01*
X207502348Y-83727311D01*
X207500607Y-83725061D01*
X207500591Y-83725073D01*
X207498017Y-83721779D01*
X207495668Y-83718322D01*
X207399452Y-83610711D01*
X207398693Y-83609853D01*
X207317996Y-83517835D01*
X207317984Y-83517823D01*
X207315271Y-83514729D01*
X207312167Y-83512007D01*
X207309259Y-83509099D01*
X207309318Y-83509040D01*
X207302598Y-83502385D01*
X207298832Y-83498173D01*
X207289959Y-83490568D01*
X207191692Y-83406342D01*
X207190613Y-83405406D01*
X207099282Y-83325311D01*
X207099277Y-83325307D01*
X207096180Y-83322591D01*
X207092452Y-83320100D01*
X207080463Y-83311008D01*
X207074610Y-83305991D01*
X206987145Y-83249190D01*
X206953836Y-83217581D01*
X206816717Y-83028851D01*
X206814348Y-83026257D01*
X206814341Y-83026248D01*
X206755342Y-82961637D01*
X206755334Y-82961629D01*
X206754371Y-82960574D01*
X200856155Y-77062359D01*
X200822129Y-77000047D01*
X200819250Y-76973264D01*
X200819250Y-76924191D01*
X200828841Y-76875973D01*
X200903055Y-76696805D01*
X200903057Y-76696799D01*
X200904947Y-76692236D01*
X200963299Y-76449186D01*
X200982910Y-76200000D01*
X200963299Y-75950814D01*
X200932189Y-75821235D01*
X200935735Y-75750328D01*
X200965612Y-75702726D01*
X202421528Y-74246810D01*
X202435941Y-74234423D01*
X202447665Y-74225795D01*
X202453564Y-74221454D01*
X202487979Y-74180945D01*
X202494909Y-74173429D01*
X202500653Y-74167685D01*
X202502927Y-74164811D01*
X202502933Y-74164804D01*
X202518372Y-74145289D01*
X202521163Y-74141885D01*
X202563945Y-74091528D01*
X202563948Y-74091524D01*
X202568684Y-74085949D01*
X202572011Y-74079434D01*
X202575392Y-74074364D01*
X202578617Y-74069142D01*
X202583160Y-74063400D01*
X202614246Y-73996888D01*
X202616152Y-73992988D01*
X202646213Y-73934117D01*
X202649543Y-73927596D01*
X202651284Y-73920479D01*
X202653411Y-73914761D01*
X202655342Y-73908955D01*
X202658443Y-73902321D01*
X202673391Y-73830461D01*
X202674359Y-73826181D01*
X202690469Y-73760343D01*
X202691804Y-73754888D01*
X202692500Y-73743670D01*
X202692539Y-73743672D01*
X202692772Y-73739771D01*
X202693161Y-73735412D01*
X202694652Y-73728244D01*
X202692546Y-73650424D01*
X202692500Y-73647015D01*
X202692500Y-49557954D01*
X202692742Y-49550152D01*
X202693992Y-49530000D01*
X202696568Y-49488484D01*
X202685580Y-49424541D01*
X202684610Y-49417804D01*
X202682959Y-49403644D01*
X202677101Y-49353393D01*
X202674601Y-49346504D01*
X202673824Y-49344362D01*
X202668085Y-49322719D01*
X202667697Y-49320463D01*
X202667696Y-49320461D01*
X202666457Y-49313249D01*
X202641053Y-49253547D01*
X202638565Y-49247229D01*
X202618931Y-49193137D01*
X202618929Y-49193134D01*
X202616434Y-49186259D01*
X202612425Y-49180145D01*
X202612423Y-49180140D01*
X202611170Y-49178230D01*
X202600601Y-49158478D01*
X202596841Y-49149641D01*
X202568090Y-49110573D01*
X202558396Y-49097400D01*
X202554506Y-49091803D01*
X202522961Y-49043689D01*
X202518946Y-49037565D01*
X202511968Y-49030954D01*
X202497151Y-49014177D01*
X202491454Y-49006436D01*
X202442008Y-48964428D01*
X202436955Y-48959894D01*
X202389865Y-48915286D01*
X202383539Y-48911611D01*
X202383534Y-48911608D01*
X202381564Y-48910464D01*
X202363269Y-48897535D01*
X202361527Y-48896055D01*
X202355949Y-48891316D01*
X202349432Y-48887988D01*
X202349427Y-48887985D01*
X202298185Y-48861820D01*
X202292199Y-48858557D01*
X202286069Y-48854996D01*
X202248033Y-48832903D01*
X202199175Y-48781391D01*
X202185921Y-48711643D01*
X202188801Y-48694534D01*
X202232142Y-48514007D01*
X202232144Y-48513995D01*
X202233299Y-48509186D01*
X202252910Y-48260000D01*
X202233299Y-48010814D01*
X202202190Y-47881239D01*
X202176101Y-47772569D01*
X202176099Y-47772564D01*
X202174947Y-47767764D01*
X202173057Y-47763201D01*
X202173055Y-47763195D01*
X202081188Y-47541408D01*
X202081186Y-47541404D01*
X202079293Y-47536834D01*
X202076707Y-47532614D01*
X201965050Y-47350406D01*
X201946512Y-47281872D01*
X201967968Y-47214195D01*
X201995254Y-47185014D01*
X201998277Y-47182669D01*
X202005098Y-47178635D01*
X202118635Y-47065098D01*
X202200369Y-46926893D01*
X202202581Y-46919280D01*
X202243371Y-46778881D01*
X202243372Y-46778876D01*
X202245165Y-46772704D01*
X202247432Y-46743899D01*
X202247807Y-46739138D01*
X202247807Y-46739129D01*
X202248000Y-46736681D01*
X202247999Y-44703320D01*
X202245165Y-44667296D01*
X202225409Y-44599293D01*
X202202581Y-44520720D01*
X202202580Y-44520718D01*
X202200369Y-44513107D01*
X202118635Y-44374902D01*
X202005098Y-44261365D01*
X201920855Y-44211544D01*
X201873716Y-44183666D01*
X201873715Y-44183666D01*
X201866893Y-44179631D01*
X201859282Y-44177420D01*
X201859280Y-44177419D01*
X201718881Y-44136629D01*
X201718876Y-44136628D01*
X201712704Y-44134835D01*
X201691081Y-44133133D01*
X201679138Y-44132193D01*
X201679129Y-44132193D01*
X201676681Y-44132000D01*
X201607735Y-44132000D01*
X200202529Y-44132001D01*
X200134408Y-44111999D01*
X200113434Y-44095096D01*
X197436810Y-41418472D01*
X197424423Y-41404059D01*
X197415795Y-41392335D01*
X197411454Y-41386436D01*
X197370945Y-41352021D01*
X197363429Y-41345091D01*
X197357685Y-41339347D01*
X197354811Y-41337073D01*
X197354804Y-41337067D01*
X197335289Y-41321628D01*
X197331885Y-41318837D01*
X197281528Y-41276055D01*
X197281524Y-41276052D01*
X197275949Y-41271316D01*
X197269432Y-41267988D01*
X197264368Y-41264611D01*
X197259144Y-41261384D01*
X197253400Y-41256840D01*
X197190797Y-41227581D01*
X197186918Y-41225768D01*
X197182967Y-41223837D01*
X197124117Y-41193787D01*
X197117596Y-41190457D01*
X197110481Y-41188716D01*
X197104735Y-41186579D01*
X197098952Y-41184655D01*
X197092321Y-41181556D01*
X197020443Y-41166606D01*
X197016171Y-41165639D01*
X196944888Y-41148196D01*
X196939289Y-41147849D01*
X196939285Y-41147848D01*
X196933670Y-41147500D01*
X196933672Y-41147461D01*
X196929771Y-41147228D01*
X196925412Y-41146839D01*
X196918244Y-41145348D01*
X196910927Y-41145546D01*
X196840423Y-41147454D01*
X196837014Y-41147500D01*
X172808435Y-41147500D01*
X172797236Y-41147001D01*
X172795406Y-41146838D01*
X172788244Y-41145348D01*
X172718774Y-41147228D01*
X172710423Y-41147454D01*
X172707014Y-41147500D01*
X170247368Y-41147500D01*
X170228420Y-41146067D01*
X170221033Y-41144943D01*
X170214024Y-41143877D01*
X170214022Y-41143877D01*
X170206792Y-41142777D01*
X170199500Y-41143370D01*
X170199497Y-41143370D01*
X170153825Y-41147085D01*
X170143611Y-41147500D01*
X170135475Y-41147500D01*
X170131840Y-41147924D01*
X170131837Y-41147924D01*
X170118065Y-41149530D01*
X170107084Y-41150810D01*
X170102713Y-41151243D01*
X170091701Y-41152138D01*
X170036872Y-41156597D01*
X170036869Y-41156598D01*
X170029573Y-41157191D01*
X170022609Y-41159447D01*
X170016614Y-41160645D01*
X170010664Y-41162051D01*
X170003393Y-41162899D01*
X169934398Y-41187943D01*
X169930252Y-41189366D01*
X169867388Y-41209731D01*
X169867386Y-41209732D01*
X169860425Y-41211987D01*
X169854170Y-41215783D01*
X169848633Y-41218318D01*
X169843142Y-41221068D01*
X169836259Y-41223566D01*
X169830135Y-41227581D01*
X169774868Y-41263815D01*
X169771200Y-41266130D01*
X169708419Y-41304227D01*
X169704212Y-41307943D01*
X169704208Y-41307946D01*
X169699995Y-41311668D01*
X169699969Y-41311638D01*
X169697041Y-41314236D01*
X169693687Y-41317040D01*
X169687565Y-41321054D01*
X169682532Y-41326367D01*
X169633995Y-41377604D01*
X169631617Y-41380046D01*
X169407275Y-41604388D01*
X169344963Y-41638414D01*
X169288766Y-41637811D01*
X169159186Y-41606701D01*
X168910000Y-41587090D01*
X168660814Y-41606701D01*
X168533832Y-41637187D01*
X168422569Y-41663899D01*
X168422564Y-41663901D01*
X168417764Y-41665053D01*
X168413201Y-41666943D01*
X168413195Y-41666945D01*
X168191408Y-41758812D01*
X168191404Y-41758814D01*
X168186834Y-41760707D01*
X167973711Y-41891309D01*
X167783643Y-42053643D01*
X167780435Y-42057399D01*
X167735811Y-42109647D01*
X167676361Y-42148456D01*
X167605366Y-42148962D01*
X167544189Y-42109647D01*
X167499565Y-42057399D01*
X167496357Y-42053643D01*
X167306289Y-41891309D01*
X167093166Y-41760707D01*
X167088596Y-41758814D01*
X167088592Y-41758812D01*
X166866805Y-41666945D01*
X166866799Y-41666943D01*
X166862236Y-41665053D01*
X166857436Y-41663901D01*
X166857431Y-41663899D01*
X166746168Y-41637187D01*
X166619186Y-41606701D01*
X166370000Y-41587090D01*
X166120814Y-41606701D01*
X165993832Y-41637187D01*
X165882569Y-41663899D01*
X165882564Y-41663901D01*
X165877764Y-41665053D01*
X165873201Y-41666943D01*
X165873195Y-41666945D01*
X165651408Y-41758812D01*
X165651404Y-41758814D01*
X165646834Y-41760707D01*
X165433711Y-41891309D01*
X165243643Y-42053643D01*
X165081309Y-42243711D01*
X164950707Y-42456834D01*
X164948814Y-42461404D01*
X164948812Y-42461408D01*
X164856945Y-42683195D01*
X164856943Y-42683201D01*
X164855053Y-42687764D01*
X164853901Y-42692564D01*
X164853899Y-42692569D01*
X164827187Y-42803832D01*
X164796701Y-42930814D01*
X164777090Y-43180000D01*
X164796701Y-43429186D01*
X164827811Y-43558765D01*
X164824265Y-43629673D01*
X164794388Y-43677275D01*
X160509020Y-47962642D01*
X160446708Y-47996668D01*
X160375892Y-47991603D01*
X160319057Y-47949056D01*
X160297407Y-47902962D01*
X160266105Y-47772581D01*
X160266099Y-47772563D01*
X160264947Y-47767764D01*
X160263057Y-47763201D01*
X160263055Y-47763195D01*
X160171188Y-47541408D01*
X160171186Y-47541404D01*
X160169293Y-47536834D01*
X160038691Y-47323711D01*
X159876357Y-47133643D01*
X159820353Y-47085811D01*
X159781544Y-47026361D01*
X159781038Y-46955366D01*
X159820353Y-46894189D01*
X159872601Y-46849565D01*
X159876357Y-46846357D01*
X160038691Y-46656289D01*
X160169293Y-46443166D01*
X160171188Y-46438592D01*
X160263055Y-46216805D01*
X160263057Y-46216799D01*
X160264947Y-46212236D01*
X160266104Y-46207419D01*
X160297406Y-46077038D01*
X160323299Y-45969186D01*
X160342910Y-45720000D01*
X160323299Y-45470814D01*
X160292189Y-45341235D01*
X160295735Y-45270328D01*
X160325612Y-45222726D01*
X161781528Y-43766810D01*
X161795941Y-43754423D01*
X161807665Y-43745795D01*
X161813564Y-43741454D01*
X161847979Y-43700945D01*
X161854909Y-43693429D01*
X161860653Y-43687685D01*
X161862927Y-43684811D01*
X161862933Y-43684804D01*
X161878372Y-43665289D01*
X161881163Y-43661885D01*
X161923945Y-43611528D01*
X161923948Y-43611524D01*
X161928684Y-43605949D01*
X161932011Y-43599434D01*
X161935392Y-43594364D01*
X161938617Y-43589142D01*
X161943160Y-43583400D01*
X161974246Y-43516888D01*
X161976152Y-43512988D01*
X162006213Y-43454117D01*
X162009543Y-43447596D01*
X162011284Y-43440479D01*
X162013411Y-43434761D01*
X162015342Y-43428955D01*
X162018443Y-43422321D01*
X162033391Y-43350461D01*
X162034359Y-43346181D01*
X162050469Y-43280343D01*
X162051804Y-43274888D01*
X162052500Y-43263670D01*
X162052539Y-43263672D01*
X162052772Y-43259771D01*
X162053161Y-43255412D01*
X162054652Y-43248244D01*
X162052546Y-43170424D01*
X162052500Y-43167015D01*
X162052500Y-42105753D01*
X162072502Y-42037632D01*
X162112665Y-41998320D01*
X162145563Y-41978160D01*
X162226289Y-41928691D01*
X162416357Y-41766357D01*
X162578691Y-41576289D01*
X162709293Y-41363166D01*
X162711188Y-41358592D01*
X162803055Y-41136805D01*
X162803057Y-41136799D01*
X162804947Y-41132236D01*
X162863299Y-40889186D01*
X162882910Y-40640000D01*
X162863299Y-40390814D01*
X162804947Y-40147764D01*
X162803057Y-40143201D01*
X162803055Y-40143195D01*
X162711188Y-39921408D01*
X162711186Y-39921404D01*
X162709293Y-39916834D01*
X162578691Y-39703711D01*
X162416357Y-39513643D01*
X162226289Y-39351309D01*
X162013166Y-39220707D01*
X162008596Y-39218814D01*
X162008592Y-39218812D01*
X161786805Y-39126945D01*
X161786799Y-39126943D01*
X161782236Y-39125053D01*
X161777436Y-39123901D01*
X161777431Y-39123899D01*
X161666168Y-39097187D01*
X161539186Y-39066701D01*
X161290000Y-39047090D01*
X161040814Y-39066701D01*
X160913832Y-39097187D01*
X160802569Y-39123899D01*
X160802564Y-39123901D01*
X160797764Y-39125053D01*
X160793201Y-39126943D01*
X160793195Y-39126945D01*
X160571408Y-39218812D01*
X160571404Y-39218814D01*
X160566834Y-39220707D01*
X160353711Y-39351309D01*
X160163643Y-39513643D01*
X160001309Y-39703711D01*
X159870707Y-39916834D01*
X159868814Y-39921404D01*
X159868812Y-39921408D01*
X159776945Y-40143195D01*
X159776943Y-40143201D01*
X159775053Y-40147764D01*
X159716701Y-40390814D01*
X159697090Y-40640000D01*
X159716701Y-40889186D01*
X159775053Y-41132236D01*
X159776943Y-41136799D01*
X159776945Y-41136805D01*
X159868812Y-41358592D01*
X159870707Y-41363166D01*
X160001309Y-41576289D01*
X160163643Y-41766357D01*
X160353711Y-41928691D01*
X160434437Y-41978160D01*
X160467335Y-41998320D01*
X160514966Y-42050968D01*
X160527500Y-42105753D01*
X160527500Y-42811972D01*
X160507498Y-42880093D01*
X160490595Y-42901067D01*
X159247274Y-44144388D01*
X159184962Y-44178414D01*
X159128765Y-44177811D01*
X158999186Y-44146701D01*
X158750000Y-44127090D01*
X158500814Y-44146701D01*
X158373832Y-44177187D01*
X158262569Y-44203899D01*
X158262564Y-44203901D01*
X158257764Y-44205053D01*
X158253201Y-44206943D01*
X158253195Y-44206945D01*
X158031408Y-44298812D01*
X158031404Y-44298814D01*
X158026834Y-44300707D01*
X157813711Y-44431309D01*
X157623643Y-44593643D01*
X157461309Y-44783711D01*
X157330707Y-44996834D01*
X157328814Y-45001404D01*
X157328812Y-45001408D01*
X157236945Y-45223195D01*
X157236943Y-45223201D01*
X157235053Y-45227764D01*
X157233901Y-45232564D01*
X157233899Y-45232569D01*
X157216358Y-45305632D01*
X157176701Y-45470814D01*
X157157090Y-45720000D01*
X157176701Y-45969186D01*
X157202594Y-46077038D01*
X157233897Y-46207419D01*
X157235053Y-46212236D01*
X157236943Y-46216799D01*
X157236945Y-46216805D01*
X157328812Y-46438592D01*
X157330707Y-46443166D01*
X157461309Y-46656289D01*
X157623643Y-46846357D01*
X157627399Y-46849565D01*
X157679647Y-46894189D01*
X157718456Y-46953639D01*
X157718962Y-47024634D01*
X157679647Y-47085811D01*
X157623643Y-47133643D01*
X157461309Y-47323711D01*
X157443013Y-47353568D01*
X157391680Y-47437335D01*
X157339032Y-47484966D01*
X157284247Y-47497500D01*
X152005028Y-47497500D01*
X151936907Y-47477498D01*
X151890414Y-47423842D01*
X151880310Y-47353568D01*
X151909804Y-47288988D01*
X151915933Y-47282405D01*
X154161528Y-45036810D01*
X154175941Y-45024423D01*
X154187665Y-45015795D01*
X154193564Y-45011454D01*
X154227979Y-44970945D01*
X154234909Y-44963429D01*
X154240653Y-44957685D01*
X154242927Y-44954811D01*
X154242933Y-44954804D01*
X154258372Y-44935289D01*
X154261163Y-44931885D01*
X154303945Y-44881528D01*
X154303948Y-44881524D01*
X154308684Y-44875949D01*
X154312012Y-44869432D01*
X154315389Y-44864368D01*
X154318616Y-44859144D01*
X154323160Y-44853400D01*
X154354242Y-44786896D01*
X154356147Y-44782999D01*
X154389543Y-44717596D01*
X154391284Y-44710482D01*
X154393416Y-44704748D01*
X154395344Y-44698952D01*
X154398444Y-44692320D01*
X154410301Y-44635315D01*
X154443756Y-44572695D01*
X154467824Y-44553543D01*
X154606289Y-44468691D01*
X154796357Y-44306357D01*
X154958691Y-44116289D01*
X155089293Y-43903166D01*
X155091188Y-43898592D01*
X155183055Y-43676805D01*
X155183057Y-43676799D01*
X155184947Y-43672236D01*
X155187031Y-43663558D01*
X155222231Y-43516940D01*
X155243299Y-43429186D01*
X155262910Y-43180000D01*
X155243299Y-42930814D01*
X155212813Y-42803832D01*
X155186101Y-42692569D01*
X155186099Y-42692564D01*
X155184947Y-42687764D01*
X155183057Y-42683201D01*
X155183055Y-42683195D01*
X155091188Y-42461408D01*
X155091186Y-42461404D01*
X155089293Y-42456834D01*
X154958691Y-42243711D01*
X154796357Y-42053643D01*
X154606289Y-41891309D01*
X154393166Y-41760707D01*
X154388596Y-41758814D01*
X154388592Y-41758812D01*
X154166805Y-41666945D01*
X154166799Y-41666943D01*
X154162236Y-41665053D01*
X154157436Y-41663901D01*
X154157431Y-41663899D01*
X154046168Y-41637187D01*
X153919186Y-41606701D01*
X153670000Y-41587090D01*
X153420814Y-41606701D01*
X153293832Y-41637187D01*
X153182569Y-41663899D01*
X153182564Y-41663901D01*
X153177764Y-41665053D01*
X153173201Y-41666943D01*
X153173195Y-41666945D01*
X152951408Y-41758812D01*
X152951404Y-41758814D01*
X152946834Y-41760707D01*
X152733711Y-41891309D01*
X152543643Y-42053643D01*
X152381309Y-42243711D01*
X152250707Y-42456834D01*
X152248814Y-42461404D01*
X152248812Y-42461408D01*
X152156945Y-42683195D01*
X152156943Y-42683201D01*
X152155053Y-42687764D01*
X152153901Y-42692564D01*
X152153899Y-42692569D01*
X152127187Y-42803832D01*
X152096701Y-42930814D01*
X152077090Y-43180000D01*
X152096701Y-43429186D01*
X152117769Y-43516940D01*
X152152970Y-43663558D01*
X152155053Y-43672236D01*
X152156943Y-43676799D01*
X152156945Y-43676805D01*
X152248812Y-43898592D01*
X152250707Y-43903166D01*
X152381309Y-44116289D01*
X152543643Y-44306357D01*
X152547399Y-44309565D01*
X152550653Y-44312819D01*
X152584679Y-44375131D01*
X152579614Y-44445946D01*
X152550653Y-44491009D01*
X151663094Y-45378568D01*
X151600782Y-45412594D01*
X151529967Y-45407529D01*
X151473131Y-45364982D01*
X151448320Y-45298462D01*
X151447999Y-45289473D01*
X151447999Y-44703320D01*
X151445165Y-44667296D01*
X151425409Y-44599293D01*
X151402581Y-44520720D01*
X151402580Y-44520718D01*
X151400369Y-44513107D01*
X151318635Y-44374902D01*
X151205098Y-44261365D01*
X151120855Y-44211544D01*
X151073716Y-44183666D01*
X151073715Y-44183666D01*
X151066893Y-44179631D01*
X151059282Y-44177420D01*
X151059280Y-44177419D01*
X150918881Y-44136629D01*
X150918876Y-44136628D01*
X150912704Y-44134835D01*
X150891081Y-44133133D01*
X150879138Y-44132193D01*
X150879129Y-44132193D01*
X150876681Y-44132000D01*
X149860823Y-44132000D01*
X148843320Y-44132001D01*
X148824077Y-44133515D01*
X148813714Y-44134330D01*
X148813713Y-44134330D01*
X148807296Y-44134835D01*
X148801116Y-44136630D01*
X148801113Y-44136631D01*
X148660720Y-44177419D01*
X148660718Y-44177420D01*
X148653107Y-44179631D01*
X148646285Y-44183666D01*
X148646284Y-44183666D01*
X148599145Y-44211544D01*
X148514902Y-44261365D01*
X148401365Y-44374902D01*
X148319631Y-44513107D01*
X148317420Y-44520718D01*
X148317419Y-44520720D01*
X148276629Y-44661119D01*
X148276628Y-44661124D01*
X148274835Y-44667296D01*
X148274331Y-44673706D01*
X148272194Y-44700856D01*
X148272000Y-44703319D01*
X148272001Y-46736680D01*
X148274835Y-46772704D01*
X148276630Y-46778881D01*
X148276631Y-46778887D01*
X148317419Y-46919280D01*
X148319631Y-46926893D01*
X148401365Y-47065098D01*
X148514902Y-47178635D01*
X148521723Y-47182669D01*
X148524746Y-47185014D01*
X148566311Y-47242571D01*
X148570160Y-47313463D01*
X148554950Y-47350406D01*
X148443293Y-47532614D01*
X148440707Y-47536834D01*
X148438814Y-47541404D01*
X148438812Y-47541408D01*
X148346945Y-47763195D01*
X148346943Y-47763201D01*
X148345053Y-47767764D01*
X148343901Y-47772564D01*
X148343899Y-47772569D01*
X148317810Y-47881239D01*
X148286701Y-48010814D01*
X148267090Y-48260000D01*
X148286701Y-48509186D01*
X148320476Y-48649865D01*
X148331026Y-48693810D01*
X148327479Y-48764718D01*
X148286159Y-48822453D01*
X148259424Y-48837272D01*
X148259684Y-48837791D01*
X148253135Y-48841070D01*
X148246259Y-48843566D01*
X148240145Y-48847575D01*
X148240140Y-48847577D01*
X148238230Y-48848830D01*
X148218478Y-48859399D01*
X148209641Y-48863159D01*
X148203745Y-48867498D01*
X148157400Y-48901604D01*
X148151803Y-48905494D01*
X148097565Y-48941054D01*
X148090954Y-48948032D01*
X148074177Y-48962849D01*
X148066436Y-48968546D01*
X148061699Y-48974122D01*
X148024428Y-49017992D01*
X148019894Y-49023045D01*
X147975286Y-49070135D01*
X147971611Y-49076461D01*
X147971608Y-49076466D01*
X147970464Y-49078436D01*
X147957535Y-49096731D01*
X147951316Y-49104051D01*
X147947988Y-49110568D01*
X147947985Y-49110573D01*
X147921820Y-49161815D01*
X147918560Y-49167796D01*
X147885981Y-49223884D01*
X147883197Y-49233076D01*
X147874824Y-49253851D01*
X147870457Y-49262404D01*
X147868717Y-49269515D01*
X147855041Y-49325403D01*
X147853249Y-49331957D01*
X147834442Y-49394054D01*
X147833989Y-49401359D01*
X147833847Y-49403644D01*
X147830479Y-49425782D01*
X147828196Y-49435112D01*
X147827848Y-49440714D01*
X147827848Y-49440717D01*
X147827789Y-49441680D01*
X147827500Y-49446330D01*
X147827500Y-49502046D01*
X147827258Y-49509847D01*
X147823432Y-49571516D01*
X147824672Y-49578732D01*
X147825680Y-49584597D01*
X147827500Y-49605936D01*
X147827500Y-82482624D01*
X147826067Y-82501574D01*
X147823876Y-82515973D01*
X147823876Y-82515979D01*
X147822776Y-82523208D01*
X127635000Y-82523208D01*
X127635000Y-26161000D01*
X127655002Y-26092879D01*
X127708658Y-26046386D01*
X127761000Y-26035000D01*
X227839000Y-26035000D01*
X227907121Y-26055002D01*
G37*
%TD.AperFunction*%
%TA.AperFunction,Conductor*%
G36*
X201088051Y-58766111D02*
G01*
X201143963Y-58809865D01*
X201167500Y-58883196D01*
X201167500Y-73291972D01*
X201147498Y-73360093D01*
X201130595Y-73381067D01*
X200514723Y-73996940D01*
X199950559Y-74561104D01*
X199888247Y-74595129D01*
X199817432Y-74590065D01*
X199772369Y-74561104D01*
X197938876Y-72727611D01*
X197927211Y-72714169D01*
X197925558Y-72711967D01*
X197925556Y-72711964D01*
X197922453Y-72707832D01*
X197847839Y-72636529D01*
X197845795Y-72634530D01*
X197818507Y-72607242D01*
X197809674Y-72599751D01*
X197804119Y-72594749D01*
X197756276Y-72549029D01*
X197756275Y-72549028D01*
X197752539Y-72545458D01*
X197725808Y-72527223D01*
X197722798Y-72525170D01*
X197712317Y-72517186D01*
X197684850Y-72493893D01*
X197647094Y-72471296D01*
X197623622Y-72457248D01*
X197617345Y-72453235D01*
X197558386Y-72413016D01*
X197553698Y-72410840D01*
X197553693Y-72410837D01*
X197525728Y-72397856D01*
X197514079Y-72391688D01*
X197483184Y-72373199D01*
X197416776Y-72347040D01*
X197409939Y-72344109D01*
X197349895Y-72316237D01*
X197349893Y-72316236D01*
X197345209Y-72314062D01*
X197310508Y-72304439D01*
X197298012Y-72300257D01*
X197264514Y-72287062D01*
X197194739Y-72272103D01*
X197187500Y-72270326D01*
X197118733Y-72251255D01*
X197113601Y-72250707D01*
X197113598Y-72250706D01*
X197097093Y-72248942D01*
X197082935Y-72247429D01*
X197069914Y-72245343D01*
X197039775Y-72238882D01*
X197039773Y-72238882D01*
X197034713Y-72237797D01*
X197029552Y-72237554D01*
X197029547Y-72237553D01*
X196977672Y-72235107D01*
X196963433Y-72234436D01*
X196955988Y-72233863D01*
X196926865Y-72230750D01*
X196888246Y-72230750D01*
X196882311Y-72230610D01*
X196799950Y-72226726D01*
X196776396Y-72229493D01*
X196773025Y-72229889D01*
X196758324Y-72230750D01*
X191224191Y-72230750D01*
X191175973Y-72221159D01*
X190996805Y-72146945D01*
X190996799Y-72146943D01*
X190992236Y-72145053D01*
X190987436Y-72143901D01*
X190987431Y-72143899D01*
X190876168Y-72117187D01*
X190749186Y-72086701D01*
X190500000Y-72067090D01*
X190250814Y-72086701D01*
X190123832Y-72117187D01*
X190012569Y-72143899D01*
X190012564Y-72143901D01*
X190007764Y-72145053D01*
X190003201Y-72146943D01*
X190003195Y-72146945D01*
X189824027Y-72221159D01*
X189775809Y-72230750D01*
X181064191Y-72230750D01*
X181015973Y-72221159D01*
X180836805Y-72146945D01*
X180836799Y-72146943D01*
X180832236Y-72145053D01*
X180827436Y-72143901D01*
X180827431Y-72143899D01*
X180716168Y-72117187D01*
X180589186Y-72086701D01*
X180340000Y-72067090D01*
X180090814Y-72086701D01*
X179963832Y-72117187D01*
X179852569Y-72143899D01*
X179852564Y-72143901D01*
X179847764Y-72145053D01*
X179843201Y-72146943D01*
X179843195Y-72146945D01*
X179664027Y-72221159D01*
X179615809Y-72230750D01*
X170904191Y-72230750D01*
X170855973Y-72221159D01*
X170676805Y-72146945D01*
X170676799Y-72146943D01*
X170672236Y-72145053D01*
X170667436Y-72143901D01*
X170667431Y-72143899D01*
X170556168Y-72117187D01*
X170429186Y-72086701D01*
X170180000Y-72067090D01*
X169930814Y-72086701D01*
X169803832Y-72117187D01*
X169692569Y-72143899D01*
X169692564Y-72143901D01*
X169687764Y-72145053D01*
X169683201Y-72146943D01*
X169683195Y-72146945D01*
X169504027Y-72221159D01*
X169455809Y-72230750D01*
X160744191Y-72230750D01*
X160695973Y-72221159D01*
X160516805Y-72146945D01*
X160516799Y-72146943D01*
X160512236Y-72145053D01*
X160507436Y-72143901D01*
X160507431Y-72143899D01*
X160396168Y-72117187D01*
X160269186Y-72086701D01*
X160020000Y-72067090D01*
X159770814Y-72086701D01*
X159643832Y-72117187D01*
X159532569Y-72143899D01*
X159532564Y-72143901D01*
X159527764Y-72145053D01*
X159523201Y-72146943D01*
X159523195Y-72146945D01*
X159344027Y-72221159D01*
X159295809Y-72230750D01*
X152510649Y-72230750D01*
X152492897Y-72229493D01*
X152490174Y-72229105D01*
X152490166Y-72229105D01*
X152485054Y-72228377D01*
X152479892Y-72228494D01*
X152479889Y-72228494D01*
X152381894Y-72230718D01*
X152379035Y-72230750D01*
X152340426Y-72230750D01*
X152328878Y-72231700D01*
X152321428Y-72232091D01*
X152250091Y-72233709D01*
X152245018Y-72234668D01*
X152245014Y-72234668D01*
X152214716Y-72240393D01*
X152201647Y-72242160D01*
X152170919Y-72244686D01*
X152170915Y-72244687D01*
X152165766Y-72245110D01*
X152143487Y-72250706D01*
X152096561Y-72262492D01*
X152089263Y-72264097D01*
X152056321Y-72270322D01*
X152019154Y-72277345D01*
X152014307Y-72279119D01*
X152014299Y-72279121D01*
X151985343Y-72289717D01*
X151972739Y-72293595D01*
X151946232Y-72300253D01*
X151937823Y-72302365D01*
X151933086Y-72304424D01*
X151933082Y-72304426D01*
X151872378Y-72330821D01*
X151865439Y-72333596D01*
X151798444Y-72358113D01*
X151793937Y-72360663D01*
X151767115Y-72375838D01*
X151755312Y-72381723D01*
X151722292Y-72396080D01*
X151662355Y-72434855D01*
X151655987Y-72438711D01*
X151598392Y-72471296D01*
X151598384Y-72471301D01*
X151593890Y-72473844D01*
X151589867Y-72477090D01*
X151565873Y-72496450D01*
X151555192Y-72504181D01*
X151524962Y-72523739D01*
X151521134Y-72527222D01*
X151521133Y-72527223D01*
X151472194Y-72571755D01*
X151466515Y-72576622D01*
X151446338Y-72592902D01*
X151446329Y-72592910D01*
X151443719Y-72595016D01*
X151416434Y-72622301D01*
X151412139Y-72626399D01*
X151355345Y-72678078D01*
X151291499Y-72709130D01*
X151264828Y-72710755D01*
X151253986Y-72710262D01*
X151250588Y-72710108D01*
X151248069Y-72709968D01*
X151134120Y-72702500D01*
X151130000Y-72702230D01*
X151125880Y-72702500D01*
X151125878Y-72702500D01*
X151115316Y-72703192D01*
X151101365Y-72703332D01*
X151087512Y-72702703D01*
X151087507Y-72702703D01*
X151083341Y-72702514D01*
X151079193Y-72702877D01*
X151079189Y-72702877D01*
X150958251Y-72713458D01*
X150955510Y-72713667D01*
X150917446Y-72716162D01*
X150839218Y-72721289D01*
X150835173Y-72722094D01*
X150835155Y-72722096D01*
X150822784Y-72724557D01*
X150809188Y-72726498D01*
X150793321Y-72727886D01*
X150793303Y-72727889D01*
X150789151Y-72728252D01*
X150785084Y-72729161D01*
X150785065Y-72729164D01*
X150668867Y-72755138D01*
X150665995Y-72755745D01*
X150553411Y-72778139D01*
X150535601Y-72784184D01*
X150522598Y-72787833D01*
X150500950Y-72792672D01*
X150387422Y-72834443D01*
X150384416Y-72835506D01*
X150277469Y-72871809D01*
X150273768Y-72873634D01*
X150273766Y-72873635D01*
X150258771Y-72881030D01*
X150246551Y-72886274D01*
X150223801Y-72894644D01*
X150220108Y-72896591D01*
X150220106Y-72896592D01*
X150118798Y-72950006D01*
X150115761Y-72951555D01*
X150074871Y-72971720D01*
X150016115Y-73000695D01*
X150012694Y-73002981D01*
X150012680Y-73002989D01*
X149997082Y-73013411D01*
X149985846Y-73020103D01*
X149966271Y-73030424D01*
X149966268Y-73030426D01*
X149962573Y-73032374D01*
X149959174Y-73034789D01*
X149959170Y-73034792D01*
X149867603Y-73099866D01*
X149864615Y-73101924D01*
X149773820Y-73162591D01*
X149755074Y-73179031D01*
X149744994Y-73186998D01*
X149725261Y-73201022D01*
X149725256Y-73201026D01*
X149721855Y-73203443D01*
X149718807Y-73206285D01*
X149718800Y-73206291D01*
X149638264Y-73281391D01*
X149635411Y-73283971D01*
X149561578Y-73348722D01*
X149497175Y-73378599D01*
X149426842Y-73368915D01*
X149372910Y-73322742D01*
X149352500Y-73253991D01*
X149352500Y-61367046D01*
X149372502Y-61298925D01*
X149426158Y-61252432D01*
X149496432Y-61242328D01*
X149561012Y-61271822D01*
X149566658Y-61277023D01*
X149568383Y-61278712D01*
X149571168Y-61281827D01*
X149574338Y-61284544D01*
X149574339Y-61284545D01*
X149678308Y-61373658D01*
X149679387Y-61374594D01*
X149773820Y-61457409D01*
X149777548Y-61459900D01*
X149789536Y-61468991D01*
X149795390Y-61474009D01*
X149911322Y-61549296D01*
X149912586Y-61550129D01*
X150016115Y-61619305D01*
X150019810Y-61621127D01*
X150019813Y-61621129D01*
X150021965Y-61622190D01*
X150034851Y-61629517D01*
X150043061Y-61634849D01*
X150046839Y-61636643D01*
X150046841Y-61636644D01*
X150165359Y-61692920D01*
X150167042Y-61693734D01*
X150273765Y-61746365D01*
X150273773Y-61746368D01*
X150277469Y-61748191D01*
X150285590Y-61750948D01*
X150299128Y-61756438D01*
X150306053Y-61759727D01*
X150306060Y-61759730D01*
X150309828Y-61761519D01*
X150436329Y-61802135D01*
X150438183Y-61802747D01*
X150553411Y-61841861D01*
X150557450Y-61842664D01*
X150557456Y-61842666D01*
X150563831Y-61843934D01*
X150577757Y-61847542D01*
X150587020Y-61850516D01*
X150591004Y-61851795D01*
X150677643Y-61867383D01*
X150719274Y-61874874D01*
X150721543Y-61875304D01*
X150839218Y-61898711D01*
X150843334Y-61898981D01*
X150843335Y-61898981D01*
X150851860Y-61899540D01*
X150865922Y-61901261D01*
X150877528Y-61903349D01*
X150877536Y-61903350D01*
X150881650Y-61904090D01*
X150885826Y-61904280D01*
X150885829Y-61904280D01*
X151009407Y-61909892D01*
X151011931Y-61910032D01*
X151125880Y-61917500D01*
X151130000Y-61917770D01*
X151134120Y-61917500D01*
X151134122Y-61917500D01*
X151144684Y-61916808D01*
X151158635Y-61916668D01*
X151172488Y-61917297D01*
X151172493Y-61917297D01*
X151176659Y-61917486D01*
X151180807Y-61917123D01*
X151180811Y-61917123D01*
X151263183Y-61909916D01*
X151332788Y-61923905D01*
X151361216Y-61944343D01*
X151402183Y-61983492D01*
X151404227Y-61985491D01*
X151431493Y-62012757D01*
X151433467Y-62014431D01*
X151440309Y-62020233D01*
X151445865Y-62025235D01*
X151497461Y-62074542D01*
X151527209Y-62094834D01*
X151537694Y-62102823D01*
X151561199Y-62122757D01*
X151561205Y-62122761D01*
X151565150Y-62126107D01*
X151569586Y-62128762D01*
X151569589Y-62128764D01*
X151626369Y-62162746D01*
X151632667Y-62166773D01*
X151691614Y-62206984D01*
X151696299Y-62209159D01*
X151696303Y-62209161D01*
X151724269Y-62222142D01*
X151735916Y-62228308D01*
X151766815Y-62246801D01*
X151798644Y-62259339D01*
X151833194Y-62272949D01*
X151840064Y-62275893D01*
X151900096Y-62303759D01*
X151900100Y-62303760D01*
X151904791Y-62305938D01*
X151939493Y-62315562D01*
X151951982Y-62319741D01*
X151980669Y-62331042D01*
X151980681Y-62331046D01*
X151985485Y-62332938D01*
X151990540Y-62334022D01*
X151990541Y-62334022D01*
X152055264Y-62347897D01*
X152062526Y-62349681D01*
X152131267Y-62368745D01*
X152167065Y-62372571D01*
X152180086Y-62374657D01*
X152210225Y-62381118D01*
X152210227Y-62381118D01*
X152215287Y-62382203D01*
X152220448Y-62382446D01*
X152220453Y-62382447D01*
X152272328Y-62384893D01*
X152286567Y-62385564D01*
X152294012Y-62386137D01*
X152323135Y-62389250D01*
X152361754Y-62389250D01*
X152367688Y-62389390D01*
X152450050Y-62393274D01*
X152476975Y-62390111D01*
X152491676Y-62389250D01*
X159295809Y-62389250D01*
X159344027Y-62398841D01*
X159523195Y-62473055D01*
X159523201Y-62473057D01*
X159527764Y-62474947D01*
X159532564Y-62476099D01*
X159532569Y-62476101D01*
X159643832Y-62502813D01*
X159770814Y-62533299D01*
X160020000Y-62552910D01*
X160269186Y-62533299D01*
X160396168Y-62502813D01*
X160507431Y-62476101D01*
X160507436Y-62476099D01*
X160512236Y-62474947D01*
X160516799Y-62473057D01*
X160516805Y-62473055D01*
X160695973Y-62398841D01*
X160744191Y-62389250D01*
X169455809Y-62389250D01*
X169504027Y-62398841D01*
X169683195Y-62473055D01*
X169683201Y-62473057D01*
X169687764Y-62474947D01*
X169692564Y-62476099D01*
X169692569Y-62476101D01*
X169803832Y-62502813D01*
X169930814Y-62533299D01*
X170180000Y-62552910D01*
X170429186Y-62533299D01*
X170556168Y-62502813D01*
X170667431Y-62476101D01*
X170667436Y-62476099D01*
X170672236Y-62474947D01*
X170676799Y-62473057D01*
X170676805Y-62473055D01*
X170855973Y-62398841D01*
X170904191Y-62389250D01*
X179615809Y-62389250D01*
X179664027Y-62398841D01*
X179843195Y-62473055D01*
X179843201Y-62473057D01*
X179847764Y-62474947D01*
X179852564Y-62476099D01*
X179852569Y-62476101D01*
X179963832Y-62502813D01*
X180090814Y-62533299D01*
X180340000Y-62552910D01*
X180589186Y-62533299D01*
X180716168Y-62502813D01*
X180827431Y-62476101D01*
X180827436Y-62476099D01*
X180832236Y-62474947D01*
X180836799Y-62473057D01*
X180836805Y-62473055D01*
X181015973Y-62398841D01*
X181064191Y-62389250D01*
X189775809Y-62389250D01*
X189824027Y-62398841D01*
X190003195Y-62473055D01*
X190003201Y-62473057D01*
X190007764Y-62474947D01*
X190012564Y-62476099D01*
X190012569Y-62476101D01*
X190123832Y-62502813D01*
X190250814Y-62533299D01*
X190500000Y-62552910D01*
X190749186Y-62533299D01*
X190876168Y-62502813D01*
X190987431Y-62476101D01*
X190987436Y-62476099D01*
X190992236Y-62474947D01*
X190996799Y-62473057D01*
X190996805Y-62473055D01*
X191175973Y-62398841D01*
X191224191Y-62389250D01*
X196739351Y-62389250D01*
X196757103Y-62390507D01*
X196758106Y-62390649D01*
X196764946Y-62391623D01*
X196770109Y-62391506D01*
X196770111Y-62391506D01*
X196868126Y-62389282D01*
X196870984Y-62389250D01*
X196909574Y-62389250D01*
X196921110Y-62388301D01*
X196928560Y-62387910D01*
X196999909Y-62386292D01*
X197035293Y-62379606D01*
X197048357Y-62377840D01*
X197079080Y-62375314D01*
X197079082Y-62375314D01*
X197084234Y-62374890D01*
X197089243Y-62373632D01*
X197089248Y-62373631D01*
X197153436Y-62357508D01*
X197160736Y-62355903D01*
X197225762Y-62343616D01*
X197225766Y-62343615D01*
X197230846Y-62342655D01*
X197264654Y-62330284D01*
X197277251Y-62326408D01*
X197282157Y-62325176D01*
X197312177Y-62317635D01*
X197316961Y-62315555D01*
X197377618Y-62289181D01*
X197384559Y-62286405D01*
X197398689Y-62281234D01*
X197451556Y-62261888D01*
X197456059Y-62259340D01*
X197456062Y-62259339D01*
X197482889Y-62244161D01*
X197494690Y-62238277D01*
X197522966Y-62225982D01*
X197522967Y-62225982D01*
X197527708Y-62223920D01*
X197587635Y-62185152D01*
X197594012Y-62181290D01*
X197651608Y-62148703D01*
X197656110Y-62146156D01*
X197684127Y-62123550D01*
X197694807Y-62115819D01*
X197720693Y-62099072D01*
X197725038Y-62096261D01*
X197777814Y-62048238D01*
X197783485Y-62043378D01*
X197803662Y-62027098D01*
X197803671Y-62027090D01*
X197806281Y-62024984D01*
X197833566Y-61997699D01*
X197837861Y-61993600D01*
X197895050Y-61941562D01*
X197898869Y-61938087D01*
X197915679Y-61916802D01*
X197925465Y-61905800D01*
X199888551Y-59942714D01*
X199929428Y-59915400D01*
X200108592Y-59841188D01*
X200108596Y-59841186D01*
X200113166Y-59839293D01*
X200326289Y-59708691D01*
X200516357Y-59546357D01*
X200678691Y-59356289D01*
X200809293Y-59143166D01*
X200811188Y-59138592D01*
X200903055Y-58916805D01*
X200903057Y-58916799D01*
X200904947Y-58912236D01*
X200918981Y-58853781D01*
X200954334Y-58792212D01*
X201017360Y-58759530D01*
X201088051Y-58766111D01*
G37*
%TD.AperFunction*%
%TA.AperFunction,Conductor*%
G36*
X197296477Y-48529368D02*
G01*
X197339020Y-48557358D01*
X198803190Y-50021528D01*
X198815577Y-50035941D01*
X198828546Y-50053564D01*
X198834129Y-50058307D01*
X198869055Y-50087979D01*
X198876571Y-50094909D01*
X198882315Y-50100653D01*
X198885189Y-50102927D01*
X198885196Y-50102933D01*
X198904711Y-50118372D01*
X198908115Y-50121163D01*
X198958472Y-50163945D01*
X198958476Y-50163948D01*
X198964051Y-50168684D01*
X198970566Y-50172011D01*
X198975636Y-50175392D01*
X198980858Y-50178617D01*
X198986600Y-50183160D01*
X199053112Y-50214245D01*
X199057013Y-50216153D01*
X199066646Y-50221072D01*
X199118218Y-50269866D01*
X199135224Y-50338796D01*
X199131863Y-50362702D01*
X199086701Y-50550814D01*
X199067090Y-50800000D01*
X199086701Y-51049186D01*
X199114162Y-51163568D01*
X199134284Y-51247379D01*
X199145053Y-51292236D01*
X199146943Y-51296799D01*
X199146945Y-51296805D01*
X199238812Y-51518592D01*
X199240707Y-51523166D01*
X199371309Y-51736289D01*
X199533643Y-51926357D01*
X199723711Y-52088691D01*
X199936834Y-52219293D01*
X199941404Y-52221186D01*
X199941408Y-52221188D01*
X200163195Y-52313055D01*
X200163201Y-52313057D01*
X200167764Y-52314947D01*
X200172564Y-52316099D01*
X200172569Y-52316101D01*
X200283832Y-52342813D01*
X200410814Y-52373299D01*
X200660000Y-52392910D01*
X200909186Y-52373299D01*
X200913995Y-52372145D01*
X200913998Y-52372144D01*
X201012086Y-52348595D01*
X201082994Y-52352142D01*
X201140728Y-52393462D01*
X201166958Y-52459435D01*
X201167500Y-52471114D01*
X201167500Y-57956804D01*
X201147498Y-58024925D01*
X201093842Y-58071418D01*
X201023568Y-58081522D01*
X200958988Y-58052028D01*
X200918981Y-57986219D01*
X200906101Y-57932569D01*
X200906099Y-57932564D01*
X200904947Y-57927764D01*
X200903057Y-57923201D01*
X200903055Y-57923195D01*
X200828841Y-57744027D01*
X200819250Y-57695809D01*
X200819250Y-55990649D01*
X200820507Y-55972897D01*
X200820895Y-55970174D01*
X200820895Y-55970166D01*
X200821623Y-55965054D01*
X200819282Y-55861894D01*
X200819250Y-55859035D01*
X200819250Y-55820426D01*
X200818300Y-55808878D01*
X200817909Y-55801419D01*
X200816408Y-55735253D01*
X200816291Y-55730091D01*
X200809607Y-55694715D01*
X200807840Y-55681647D01*
X200805314Y-55650926D01*
X200804890Y-55645766D01*
X200787503Y-55576546D01*
X200785900Y-55569252D01*
X200773616Y-55504238D01*
X200773615Y-55504236D01*
X200772655Y-55499153D01*
X200760282Y-55465341D01*
X200756408Y-55452748D01*
X200748894Y-55422834D01*
X200748893Y-55422831D01*
X200747635Y-55417823D01*
X200719180Y-55352380D01*
X200716405Y-55345442D01*
X200693666Y-55283304D01*
X200693665Y-55283303D01*
X200691887Y-55278443D01*
X200674156Y-55247104D01*
X200668276Y-55235310D01*
X200655982Y-55207034D01*
X200655981Y-55207032D01*
X200653920Y-55202292D01*
X200651116Y-55197958D01*
X200651113Y-55197952D01*
X200615156Y-55142371D01*
X200611285Y-55135978D01*
X200578707Y-55078397D01*
X200578704Y-55078393D01*
X200576156Y-55073889D01*
X200553543Y-55045865D01*
X200545816Y-55035190D01*
X200529073Y-55009309D01*
X200526261Y-55004962D01*
X200478234Y-54952181D01*
X200473377Y-54946514D01*
X200457098Y-54926338D01*
X200457091Y-54926330D01*
X200454984Y-54923719D01*
X200427699Y-54896434D01*
X200423600Y-54892139D01*
X200371562Y-54834950D01*
X200368087Y-54831131D01*
X200346802Y-54814321D01*
X200335800Y-54804535D01*
X197938876Y-52407611D01*
X197927211Y-52394169D01*
X197925558Y-52391967D01*
X197925556Y-52391964D01*
X197922453Y-52387832D01*
X197847839Y-52316529D01*
X197845795Y-52314530D01*
X197818507Y-52287242D01*
X197809674Y-52279751D01*
X197804119Y-52274749D01*
X197756276Y-52229029D01*
X197756275Y-52229028D01*
X197752539Y-52225458D01*
X197746280Y-52221188D01*
X197722798Y-52205170D01*
X197712317Y-52197186D01*
X197684850Y-52173893D01*
X197647094Y-52151296D01*
X197623622Y-52137248D01*
X197617345Y-52133235D01*
X197558386Y-52093016D01*
X197553698Y-52090840D01*
X197553693Y-52090837D01*
X197525728Y-52077856D01*
X197514079Y-52071688D01*
X197483184Y-52053199D01*
X197416776Y-52027040D01*
X197409939Y-52024109D01*
X197349895Y-51996237D01*
X197349893Y-51996236D01*
X197345209Y-51994062D01*
X197310508Y-51984439D01*
X197298012Y-51980257D01*
X197264514Y-51967062D01*
X197194739Y-51952103D01*
X197187500Y-51950326D01*
X197118733Y-51931255D01*
X197113601Y-51930707D01*
X197113598Y-51930706D01*
X197097093Y-51928942D01*
X197082935Y-51927429D01*
X197069914Y-51925343D01*
X197039775Y-51918882D01*
X197039773Y-51918882D01*
X197034713Y-51917797D01*
X197029552Y-51917554D01*
X197029547Y-51917553D01*
X196977672Y-51915107D01*
X196963433Y-51914436D01*
X196955988Y-51913863D01*
X196926865Y-51910750D01*
X196888246Y-51910750D01*
X196882311Y-51910610D01*
X196799950Y-51906726D01*
X196774192Y-51909752D01*
X196773025Y-51909889D01*
X196758324Y-51910750D01*
X188096771Y-51910750D01*
X188028650Y-51890748D01*
X187982157Y-51837092D01*
X187972053Y-51766818D01*
X187989338Y-51718915D01*
X188106707Y-51527386D01*
X188109293Y-51523166D01*
X188111188Y-51518592D01*
X188203055Y-51296805D01*
X188203057Y-51296799D01*
X188204947Y-51292236D01*
X188215717Y-51247379D01*
X188235838Y-51163568D01*
X188263299Y-51049186D01*
X188282910Y-50800000D01*
X188263299Y-50550814D01*
X188232189Y-50421235D01*
X188235735Y-50350328D01*
X188265612Y-50302726D01*
X190010980Y-48557358D01*
X190073292Y-48523332D01*
X190144107Y-48528397D01*
X190200943Y-48570944D01*
X190222593Y-48617038D01*
X190253895Y-48747419D01*
X190253899Y-48747431D01*
X190255053Y-48752236D01*
X190256943Y-48756799D01*
X190256945Y-48756805D01*
X190348812Y-48978592D01*
X190350707Y-48983166D01*
X190481309Y-49196289D01*
X190643643Y-49386357D01*
X190833711Y-49548691D01*
X191046834Y-49679293D01*
X191051404Y-49681186D01*
X191051408Y-49681188D01*
X191273195Y-49773055D01*
X191273201Y-49773057D01*
X191277764Y-49774947D01*
X191282564Y-49776099D01*
X191282569Y-49776101D01*
X191393832Y-49802813D01*
X191520814Y-49833299D01*
X191770000Y-49852910D01*
X192019186Y-49833299D01*
X192146168Y-49802813D01*
X192257431Y-49776101D01*
X192257436Y-49776099D01*
X192262236Y-49774947D01*
X192266799Y-49773057D01*
X192266805Y-49773055D01*
X192488592Y-49681188D01*
X192488596Y-49681186D01*
X192493166Y-49679293D01*
X192706289Y-49548691D01*
X192896357Y-49386357D01*
X193058691Y-49196289D01*
X193111218Y-49110573D01*
X193128320Y-49082665D01*
X193180968Y-49035034D01*
X193235753Y-49022500D01*
X194114247Y-49022500D01*
X194182368Y-49042502D01*
X194221680Y-49082665D01*
X194238782Y-49110573D01*
X194291309Y-49196289D01*
X194453643Y-49386357D01*
X194643711Y-49548691D01*
X194856834Y-49679293D01*
X194861404Y-49681186D01*
X194861408Y-49681188D01*
X195083195Y-49773055D01*
X195083201Y-49773057D01*
X195087764Y-49774947D01*
X195092564Y-49776099D01*
X195092569Y-49776101D01*
X195203832Y-49802813D01*
X195330814Y-49833299D01*
X195580000Y-49852910D01*
X195829186Y-49833299D01*
X195956168Y-49802813D01*
X196067431Y-49776101D01*
X196067436Y-49776099D01*
X196072236Y-49774947D01*
X196076799Y-49773057D01*
X196076805Y-49773055D01*
X196298592Y-49681188D01*
X196298596Y-49681186D01*
X196303166Y-49679293D01*
X196516289Y-49548691D01*
X196706357Y-49386357D01*
X196868691Y-49196289D01*
X196999293Y-48983166D01*
X197001188Y-48978592D01*
X197093055Y-48756805D01*
X197093057Y-48756799D01*
X197094947Y-48752236D01*
X197096101Y-48747431D01*
X197096105Y-48747419D01*
X197127407Y-48617038D01*
X197162759Y-48555469D01*
X197225786Y-48522787D01*
X197296477Y-48529368D01*
G37*
%TD.AperFunction*%
%TA.AperFunction,Conductor*%
G36*
X193977009Y-45232502D02*
G01*
X194023502Y-45286158D01*
X194033606Y-45356432D01*
X194031408Y-45367906D01*
X194006701Y-45470814D01*
X193987090Y-45720000D01*
X194006701Y-45969186D01*
X194007855Y-45973995D01*
X194007856Y-45973998D01*
X194031405Y-46072086D01*
X194027858Y-46142994D01*
X193986538Y-46200728D01*
X193920565Y-46226958D01*
X193908886Y-46227500D01*
X190567377Y-46227500D01*
X190548427Y-46226067D01*
X190534028Y-46223876D01*
X190534022Y-46223876D01*
X190526793Y-46222776D01*
X190519501Y-46223369D01*
X190519498Y-46223369D01*
X190473818Y-46227085D01*
X190463603Y-46227500D01*
X190455475Y-46227500D01*
X190451853Y-46227922D01*
X190451840Y-46227923D01*
X190427086Y-46230809D01*
X190422727Y-46231240D01*
X190349574Y-46237191D01*
X190342612Y-46239447D01*
X190336624Y-46240643D01*
X190330667Y-46242051D01*
X190323393Y-46242899D01*
X190316511Y-46245397D01*
X190316507Y-46245398D01*
X190254393Y-46267945D01*
X190250289Y-46269355D01*
X190180425Y-46291987D01*
X190174162Y-46295787D01*
X190168620Y-46298325D01*
X190163144Y-46301067D01*
X190156259Y-46303566D01*
X190150135Y-46307581D01*
X190094868Y-46343815D01*
X190091200Y-46346130D01*
X190028419Y-46384227D01*
X190024214Y-46387941D01*
X190024211Y-46387943D01*
X190019995Y-46391667D01*
X190019969Y-46391638D01*
X190017038Y-46394238D01*
X190013684Y-46397042D01*
X190007565Y-46401054D01*
X189954012Y-46457586D01*
X189951634Y-46460028D01*
X187187274Y-49224388D01*
X187124962Y-49258414D01*
X187068765Y-49257811D01*
X186939186Y-49226701D01*
X186690000Y-49207090D01*
X186440814Y-49226701D01*
X186319260Y-49255884D01*
X186202569Y-49283899D01*
X186202564Y-49283901D01*
X186197764Y-49285053D01*
X186193201Y-49286943D01*
X186193195Y-49286945D01*
X185971408Y-49378812D01*
X185971404Y-49378814D01*
X185966834Y-49380707D01*
X185753711Y-49511309D01*
X185563643Y-49673643D01*
X185401309Y-49863711D01*
X185398727Y-49867925D01*
X185331680Y-49977335D01*
X185279032Y-50024966D01*
X185224247Y-50037500D01*
X184613196Y-50037500D01*
X184545075Y-50017498D01*
X184498582Y-49963842D01*
X184488478Y-49893568D01*
X184517972Y-49828988D01*
X184583781Y-49788981D01*
X184637431Y-49776101D01*
X184637436Y-49776099D01*
X184642236Y-49774947D01*
X184646799Y-49773057D01*
X184646805Y-49773055D01*
X184868592Y-49681188D01*
X184868596Y-49681186D01*
X184873166Y-49679293D01*
X185086289Y-49548691D01*
X185276357Y-49386357D01*
X185438691Y-49196289D01*
X185569293Y-48983166D01*
X185571188Y-48978592D01*
X185663055Y-48756805D01*
X185663057Y-48756799D01*
X185664947Y-48752236D01*
X185666104Y-48747419D01*
X185708472Y-48570944D01*
X185723299Y-48509186D01*
X185742910Y-48260000D01*
X185723299Y-48010814D01*
X185692190Y-47881239D01*
X185666101Y-47772569D01*
X185666099Y-47772564D01*
X185664947Y-47767764D01*
X185663057Y-47763201D01*
X185663055Y-47763195D01*
X185571188Y-47541408D01*
X185571186Y-47541404D01*
X185569293Y-47536834D01*
X185438691Y-47323711D01*
X185276357Y-47133643D01*
X185086289Y-46971309D01*
X184873166Y-46840707D01*
X184868596Y-46838814D01*
X184868592Y-46838812D01*
X184646805Y-46746945D01*
X184646799Y-46746943D01*
X184642236Y-46745053D01*
X184637436Y-46743901D01*
X184637431Y-46743899D01*
X184526168Y-46717187D01*
X184399186Y-46686701D01*
X184150000Y-46667090D01*
X183900814Y-46686701D01*
X183773832Y-46717187D01*
X183662569Y-46743899D01*
X183662564Y-46743901D01*
X183657764Y-46745053D01*
X183653201Y-46746943D01*
X183653195Y-46746945D01*
X183431408Y-46838812D01*
X183431404Y-46838814D01*
X183426834Y-46840707D01*
X183213711Y-46971309D01*
X183023643Y-47133643D01*
X182861309Y-47323711D01*
X182730707Y-47536834D01*
X182728814Y-47541404D01*
X182728812Y-47541408D01*
X182636945Y-47763195D01*
X182636943Y-47763201D01*
X182635053Y-47767764D01*
X182633901Y-47772564D01*
X182633899Y-47772569D01*
X182607810Y-47881239D01*
X182576701Y-48010814D01*
X182557090Y-48260000D01*
X182576701Y-48509186D01*
X182591528Y-48570944D01*
X182633897Y-48747419D01*
X182635053Y-48752236D01*
X182636943Y-48756799D01*
X182636945Y-48756805D01*
X182728812Y-48978592D01*
X182730707Y-48983166D01*
X182861309Y-49196289D01*
X183023643Y-49386357D01*
X183213711Y-49548691D01*
X183426834Y-49679293D01*
X183431404Y-49681186D01*
X183431408Y-49681188D01*
X183653195Y-49773055D01*
X183653201Y-49773057D01*
X183657764Y-49774947D01*
X183662564Y-49776099D01*
X183662569Y-49776101D01*
X183716219Y-49788981D01*
X183777788Y-49824334D01*
X183810470Y-49887360D01*
X183803889Y-49958051D01*
X183760135Y-50013963D01*
X183686804Y-50037500D01*
X180535753Y-50037500D01*
X180467632Y-50017498D01*
X180428320Y-49977335D01*
X180361273Y-49867925D01*
X180358691Y-49863711D01*
X180196357Y-49673643D01*
X180006289Y-49511309D01*
X179793166Y-49380707D01*
X179788596Y-49378814D01*
X179788592Y-49378812D01*
X179566805Y-49286945D01*
X179566799Y-49286943D01*
X179562236Y-49285053D01*
X179557436Y-49283901D01*
X179557431Y-49283899D01*
X179440740Y-49255884D01*
X179319186Y-49226701D01*
X179070000Y-49207090D01*
X178820814Y-49226701D01*
X178699260Y-49255884D01*
X178582569Y-49283899D01*
X178582564Y-49283901D01*
X178577764Y-49285053D01*
X178573201Y-49286943D01*
X178573195Y-49286945D01*
X178351408Y-49378812D01*
X178351404Y-49378814D01*
X178346834Y-49380707D01*
X178133711Y-49511309D01*
X177943643Y-49673643D01*
X177940435Y-49677399D01*
X177895811Y-49729647D01*
X177836361Y-49768456D01*
X177765366Y-49768962D01*
X177704189Y-49729647D01*
X177659565Y-49677399D01*
X177656357Y-49673643D01*
X177466289Y-49511309D01*
X177352665Y-49441680D01*
X177305034Y-49389032D01*
X177292500Y-49334247D01*
X177292500Y-46088028D01*
X177312502Y-46019907D01*
X177329405Y-45998933D01*
X178078933Y-45249405D01*
X178141245Y-45215379D01*
X178168028Y-45212500D01*
X193908888Y-45212500D01*
X193977009Y-45232502D01*
G37*
%TD.AperFunction*%
%TD*%
M02*
