%TF.GenerationSoftware,KiCad,Pcbnew,(6.0.0)*%
%TF.CreationDate,2023-06-01T11:58:54-04:00*%
%TF.ProjectId,SEPIC,53455049-432e-46b6-9963-61645f706362,rev?*%
%TF.SameCoordinates,Original*%
%TF.FileFunction,Soldermask,Top*%
%TF.FilePolarity,Negative*%
%FSLAX46Y46*%
G04 Gerber Fmt 4.6, Leading zero omitted, Abs format (unit mm)*
G04 Created by KiCad (PCBNEW (6.0.0)) date 2023-06-01 11:58:54*
%MOMM*%
%LPD*%
G01*
G04 APERTURE LIST*
G04 Aperture macros list*
%AMRoundRect*
0 Rectangle with rounded corners*
0 $1 Rounding radius*
0 $2 $3 $4 $5 $6 $7 $8 $9 X,Y pos of 4 corners*
0 Add a 4 corners polygon primitive as box body*
4,1,4,$2,$3,$4,$5,$6,$7,$8,$9,$2,$3,0*
0 Add four circle primitives for the rounded corners*
1,1,$1+$1,$2,$3*
1,1,$1+$1,$4,$5*
1,1,$1+$1,$6,$7*
1,1,$1+$1,$8,$9*
0 Add four rect primitives between the rounded corners*
20,1,$1+$1,$2,$3,$4,$5,0*
20,1,$1+$1,$4,$5,$6,$7,0*
20,1,$1+$1,$6,$7,$8,$9,0*
20,1,$1+$1,$8,$9,$2,$3,0*%
G04 Aperture macros list end*
%ADD10C,3.175000*%
%ADD11C,1.905000*%
%ADD12R,1.905000X1.905000*%
%ADD13O,3.500000X3.500000*%
%ADD14RoundRect,0.635000X0.476250X0.476250X-0.476250X0.476250X-0.476250X-0.476250X0.476250X-0.476250X0*%
%ADD15C,2.222500*%
%ADD16R,11.430000X7.620000*%
%ADD17R,3.175000X3.175000*%
%ADD18C,1.587500*%
%ADD19RoundRect,0.381000X-0.571500X-0.571500X0.571500X-0.571500X0.571500X0.571500X-0.571500X0.571500X0*%
G04 APERTURE END LIST*
D10*
%TO.C,D2*%
X208280000Y-45720000D03*
X195580000Y-45720000D03*
%TD*%
D11*
%TO.C,C5*%
X166370000Y-80010000D03*
X167640000Y-80010000D03*
X173990000Y-80010000D03*
X172720000Y-80010000D03*
%TD*%
D12*
%TO.C,T0*%
X154940000Y-31750000D03*
D11*
X154940000Y-34290000D03*
X154940000Y-36830000D03*
%TD*%
D10*
%TO.C,D4*%
X208280000Y-55880000D03*
X195580000Y-55880000D03*
%TD*%
%TO.C,D1*%
X208280000Y-40640000D03*
X195580000Y-40640000D03*
%TD*%
D11*
%TO.C,C0*%
X151130000Y-29210000D03*
X156210000Y-29210000D03*
%TD*%
%TO.C,R2*%
X158750000Y-36830000D03*
X158750000Y-29210000D03*
%TD*%
D13*
%TO.C,T1*%
X156210000Y-58420000D03*
D14*
X158750000Y-41910000D03*
D15*
X156210000Y-41910000D03*
X153670000Y-41910000D03*
D16*
X156210000Y-58420000D03*
%TD*%
D10*
%TO.C,D3*%
X208280000Y-50800000D03*
X195580000Y-50800000D03*
%TD*%
D11*
%TO.C,R4*%
X191770000Y-31750000D03*
X196850000Y-34290000D03*
X191770000Y-36830000D03*
%TD*%
D12*
%TO.C,T3*%
X205740000Y-31750000D03*
D11*
X205740000Y-34290000D03*
X205740000Y-36830000D03*
%TD*%
%TO.C,C4*%
X187960000Y-68580000D03*
X182880000Y-68580000D03*
%TD*%
%TO.C,D6*%
X166370000Y-71120000D03*
X173990000Y-71120000D03*
%TD*%
D10*
%TO.C,C1*%
X190500000Y-62230000D03*
X165100000Y-62230000D03*
%TD*%
D11*
%TO.C,R8*%
X204470000Y-29210000D03*
X196850000Y-29210000D03*
%TD*%
D17*
%TO.C,H0*%
X165100000Y-107950000D03*
D10*
X170180000Y-107950000D03*
X175260000Y-107950000D03*
X180340000Y-107950000D03*
X185420000Y-107950000D03*
X190500000Y-107950000D03*
%TD*%
D11*
%TO.C,D5*%
X189230000Y-71120000D03*
X181610000Y-71120000D03*
%TD*%
D18*
%TO.C,D7*%
X151130000Y-34290000D03*
X151130000Y-36830000D03*
%TD*%
D11*
%TO.C,R1*%
X176530000Y-36830000D03*
X176530000Y-29210000D03*
%TD*%
D17*
%TO.C,L0*%
X165100000Y-40640000D03*
D10*
X165100000Y-54610000D03*
X190500000Y-54610000D03*
X190500000Y-40640000D03*
%TD*%
D11*
%TO.C,R3*%
X184150000Y-31750000D03*
X189230000Y-34290000D03*
X184150000Y-36830000D03*
%TD*%
D12*
%TO.C,T4*%
X210820000Y-31750000D03*
D11*
X210820000Y-34290000D03*
X210820000Y-36830000D03*
%TD*%
%TO.C,R0*%
X173990000Y-29210000D03*
X173990000Y-36830000D03*
%TD*%
%TO.C,R5*%
X179070000Y-36830000D03*
X179070000Y-29210000D03*
%TD*%
D18*
%TO.C,D8*%
X212090000Y-29210000D03*
X209550000Y-29210000D03*
%TD*%
D11*
%TO.C,R7*%
X148590000Y-36830000D03*
X148590000Y-29210000D03*
%TD*%
%TO.C,C2*%
X189230000Y-80010000D03*
X187960000Y-80010000D03*
X181610000Y-80010000D03*
X182880000Y-80010000D03*
%TD*%
%TO.C,C7*%
X167640000Y-68580000D03*
X172720000Y-68580000D03*
%TD*%
D19*
%TO.C,IC0*%
X163830000Y-29210000D03*
D11*
X163830000Y-31750000D03*
X163830000Y-34290000D03*
X163830000Y-36830000D03*
X171450000Y-36830000D03*
X171450000Y-34290000D03*
X171450000Y-31750000D03*
X171450000Y-29210000D03*
%TD*%
%TO.C,C6*%
X167640000Y-95250000D03*
X166370000Y-95250000D03*
X173990000Y-95250000D03*
X172720000Y-95250000D03*
%TD*%
D12*
%TO.C,T2*%
X200660000Y-36830000D03*
D11*
X200660000Y-34290000D03*
X200660000Y-31750000D03*
%TD*%
%TO.C,C3*%
X189230000Y-95250000D03*
X187960000Y-95250000D03*
X181610000Y-95250000D03*
X182880000Y-95250000D03*
%TD*%
%TO.C,R6*%
X181610000Y-29210000D03*
X181610000Y-36830000D03*
%TD*%
%TO.C,D0*%
X161290000Y-36830000D03*
X161290000Y-29210000D03*
%TD*%
M02*
