M48
; DRILL file {KiCad (6.0.0)} date Thu Jun  1 11:58:57 2023
; FORMAT={-:-/ absolute / inch / decimal}
; #@! TF.CreationDate,2023-06-01T11:58:57-04:00
; #@! TF.GenerationSoftware,Kicad,Pcbnew,(6.0.0)
; #@! TF.FileFunction,Plated,1,2,PTH
FMAT,2
INCH
; #@! TA.AperFunction,Plated,PTH,ComponentDrill
T1C0.0375
; #@! TA.AperFunction,Plated,PTH,ComponentDrill
T2C0.0500
; #@! TA.AperFunction,Plated,PTH,ComponentDrill
T3C0.0625
; #@! TA.AperFunction,Plated,PTH,ViaDrill
T4C0.1250
%
G90
G05
T1
X5.85Y-1.15
X5.85Y-1.45
X5.95Y-1.15
X5.95Y-1.35
X5.95Y-1.45
X6.1Y-1.25
X6.1Y-1.35
X6.1Y-1.45
X6.15Y-1.15
X6.25Y-1.15
X6.25Y-1.45
X6.35Y-1.15
X6.35Y-1.45
X6.45Y-1.15
X6.45Y-1.25
X6.45Y-1.35
X6.45Y-1.45
X6.55Y-2.8
X6.55Y-3.15
X6.55Y-3.75
X6.6Y-2.7
X6.6Y-3.15
X6.6Y-3.75
X6.75Y-1.15
X6.75Y-1.25
X6.75Y-1.35
X6.75Y-1.45
X6.8Y-2.7
X6.8Y-3.15
X6.8Y-3.75
X6.85Y-1.15
X6.85Y-1.45
X6.85Y-2.8
X6.85Y-3.15
X6.85Y-3.75
X6.95Y-1.15
X6.95Y-1.45
X7.05Y-1.15
X7.05Y-1.45
X7.15Y-1.15
X7.15Y-1.45
X7.15Y-2.8
X7.15Y-3.15
X7.15Y-3.75
X7.2Y-2.7
X7.2Y-3.15
X7.2Y-3.75
X7.25Y-1.25
X7.25Y-1.45
X7.4Y-2.7
X7.4Y-3.15
X7.4Y-3.75
X7.45Y-1.35
X7.45Y-2.8
X7.45Y-3.15
X7.45Y-3.75
X7.55Y-1.25
X7.55Y-1.45
X7.75Y-1.15
X7.75Y-1.35
X7.9Y-1.25
X7.9Y-1.35
X7.9Y-1.45
X8.05Y-1.15
X8.1Y-1.25
X8.1Y-1.35
X8.1Y-1.45
X8.25Y-1.15
X8.3Y-1.25
X8.3Y-1.35
X8.3Y-1.45
X8.35Y-1.15
T2
X6.05Y-1.65
X6.15Y-1.65
X6.25Y-1.65
X6.5Y-2.45
X7.5Y-2.45
T3
X6.5Y-1.6
X6.5Y-2.15
X6.5Y-4.25
X6.7Y-4.25
X6.9Y-4.25
X7.1Y-4.25
X7.3Y-4.25
X7.5Y-1.6
X7.5Y-2.15
X7.5Y-4.25
X7.7Y-1.6
X7.7Y-1.8
X7.7Y-2.0
X7.7Y-2.2
X8.2Y-1.6
X8.2Y-1.8
X8.2Y-2.0
X8.2Y-2.2
T4
X5.25Y-1.25
X5.25Y-4.75
X8.75Y-1.25
X8.75Y-4.75
T0
M30
