%TF.GenerationSoftware,KiCad,Pcbnew,(6.0.0)*%
%TF.CreationDate,2023-06-01T11:58:54-04:00*%
%TF.ProjectId,SEPIC,53455049-432e-46b6-9963-61645f706362,rev?*%
%TF.SameCoordinates,Original*%
%TF.FileFunction,Copper,L2,Bot*%
%TF.FilePolarity,Positive*%
%FSLAX46Y46*%
G04 Gerber Fmt 4.6, Leading zero omitted, Abs format (unit mm)*
G04 Created by KiCad (PCBNEW (6.0.0)) date 2023-06-01 11:58:54*
%MOMM*%
%LPD*%
G01*
G04 APERTURE LIST*
G04 Aperture macros list*
%AMRoundRect*
0 Rectangle with rounded corners*
0 $1 Rounding radius*
0 $2 $3 $4 $5 $6 $7 $8 $9 X,Y pos of 4 corners*
0 Add a 4 corners polygon primitive as box body*
4,1,4,$2,$3,$4,$5,$6,$7,$8,$9,$2,$3,0*
0 Add four circle primitives for the rounded corners*
1,1,$1+$1,$2,$3*
1,1,$1+$1,$4,$5*
1,1,$1+$1,$6,$7*
1,1,$1+$1,$8,$9*
0 Add four rect primitives between the rounded corners*
20,1,$1+$1,$2,$3,$4,$5,0*
20,1,$1+$1,$4,$5,$6,$7,0*
20,1,$1+$1,$6,$7,$8,$9,0*
20,1,$1+$1,$8,$9,$2,$3,0*%
G04 Aperture macros list end*
%TA.AperFunction,ComponentPad*%
%ADD10C,3.175000*%
%TD*%
%TA.AperFunction,ComponentPad*%
%ADD11C,1.905000*%
%TD*%
%TA.AperFunction,ComponentPad*%
%ADD12R,1.905000X1.905000*%
%TD*%
%TA.AperFunction,ComponentPad*%
%ADD13RoundRect,0.635000X0.476250X0.476250X-0.476250X0.476250X-0.476250X-0.476250X0.476250X-0.476250X0*%
%TD*%
%TA.AperFunction,ComponentPad*%
%ADD14C,2.222500*%
%TD*%
%TA.AperFunction,ComponentPad*%
%ADD15R,3.175000X3.175000*%
%TD*%
%TA.AperFunction,ComponentPad*%
%ADD16C,1.587500*%
%TD*%
%TA.AperFunction,ComponentPad*%
%ADD17RoundRect,0.381000X-0.571500X-0.571500X0.571500X-0.571500X0.571500X0.571500X-0.571500X0.571500X0*%
%TD*%
%TA.AperFunction,ViaPad*%
%ADD18C,5.080000*%
%TD*%
%TA.AperFunction,Conductor*%
%ADD19C,0.254000*%
%TD*%
G04 APERTURE END LIST*
D10*
%TO.P,D2,1,K*%
%TO.N,VO*%
X208280000Y-45720000D03*
%TO.P,D2,2,A*%
%TO.N,Net-(C1-Pad1)*%
X195580000Y-45720000D03*
%TD*%
D11*
%TO.P,C5,1*%
%TO.N,VI*%
X166370000Y-80010000D03*
X167640000Y-80010000D03*
%TO.P,C5,2*%
%TO.N,0V*%
X173990000Y-80010000D03*
X172720000Y-80010000D03*
%TD*%
D12*
%TO.P,T0,1,E*%
%TO.N,CAP*%
X154940000Y-31750000D03*
D11*
%TO.P,T0,2,B*%
%TO.N,Net-(R2-Pad2)*%
X154940000Y-34290000D03*
%TO.P,T0,3,C*%
%TO.N,FB*%
X154940000Y-36830000D03*
%TD*%
D10*
%TO.P,D4,1,K*%
%TO.N,VO*%
X208280000Y-55880000D03*
%TO.P,D4,2,A*%
%TO.N,Net-(C1-Pad1)*%
X195580000Y-55880000D03*
%TD*%
%TO.P,D1,1,K*%
%TO.N,VO*%
X208280000Y-40640000D03*
%TO.P,D1,2,A*%
%TO.N,Net-(C1-Pad1)*%
X195580000Y-40640000D03*
%TD*%
D11*
%TO.P,C0,1*%
%TO.N,CAP*%
X151130000Y-29210000D03*
%TO.P,C0,2*%
%TO.N,0V*%
X156210000Y-29210000D03*
%TD*%
%TO.P,R2,1*%
%TO.N,VI*%
X158750000Y-36830000D03*
%TO.P,R2,2*%
%TO.N,Net-(R2-Pad2)*%
X158750000Y-29210000D03*
%TD*%
D13*
%TO.P,T1,1,G*%
%TO.N,Net-(IC0-Pad3)*%
X158750000Y-41910000D03*
D14*
%TO.P,T1,2,D*%
%TO.N,Net-(C1-Pad2)*%
X156210000Y-41910000D03*
%TO.P,T1,3,S*%
%TO.N,0V*%
X153670000Y-41910000D03*
%TD*%
D10*
%TO.P,D3,1,K*%
%TO.N,VO*%
X208280000Y-50800000D03*
%TO.P,D3,2,A*%
%TO.N,Net-(C1-Pad1)*%
X195580000Y-50800000D03*
%TD*%
D11*
%TO.P,R4,1,1*%
%TO.N,VO*%
X191770000Y-31750000D03*
%TO.P,R4,2,2*%
%TO.N,Net-(R4-Pad2)*%
X196850000Y-34290000D03*
%TO.P,R4,3,3*%
%TO.N,0V*%
X191770000Y-36830000D03*
%TD*%
D12*
%TO.P,T3,1,E*%
%TO.N,VI*%
X205740000Y-31750000D03*
D11*
%TO.P,T3,2,B*%
%TO.N,Net-(R6-Pad1)*%
X205740000Y-34290000D03*
%TO.P,T3,3,C*%
%TO.N,FB*%
X205740000Y-36830000D03*
%TD*%
%TO.P,C4,1*%
%TO.N,VO*%
X187960000Y-68580000D03*
%TO.P,C4,2*%
%TO.N,0V*%
X182880000Y-68580000D03*
%TD*%
%TO.P,D6,1,K*%
%TO.N,VI*%
X166370000Y-71120000D03*
%TO.P,D6,2,A*%
%TO.N,0V*%
X173990000Y-71120000D03*
%TD*%
D10*
%TO.P,C1,1*%
%TO.N,Net-(C1-Pad1)*%
X190500000Y-62230000D03*
%TO.P,C1,2*%
%TO.N,Net-(C1-Pad2)*%
X165100000Y-62230000D03*
%TD*%
D11*
%TO.P,R8,1*%
%TO.N,Net-(R8-Pad1)*%
X204470000Y-29210000D03*
%TO.P,R8,2*%
%TO.N,O{slash}D*%
X196850000Y-29210000D03*
%TD*%
D15*
%TO.P,H0,1,Pin_1*%
%TO.N,VI*%
X165100000Y-107950000D03*
D10*
%TO.P,H0,2,Pin_2*%
X170180000Y-107950000D03*
%TO.P,H0,3,Pin_3*%
%TO.N,0V*%
X175260000Y-107950000D03*
%TO.P,H0,4,Pin_4*%
X180340000Y-107950000D03*
%TO.P,H0,5,Pin_5*%
%TO.N,VO*%
X185420000Y-107950000D03*
%TO.P,H0,6,Pin_6*%
X190500000Y-107950000D03*
%TD*%
D11*
%TO.P,D5,1,K*%
%TO.N,VO*%
X189230000Y-71120000D03*
%TO.P,D5,2,A*%
%TO.N,0V*%
X181610000Y-71120000D03*
%TD*%
D16*
%TO.P,D7,1,K*%
%TO.N,Net-(D7-Pad1)*%
X151130000Y-34290000D03*
%TO.P,D7,2,A*%
%TO.N,VI*%
X151130000Y-36830000D03*
%TD*%
D11*
%TO.P,R1,1*%
%TO.N,Net-(IC0-Pad7)*%
X176530000Y-36830000D03*
%TO.P,R1,2*%
%TO.N,CAP*%
X176530000Y-29210000D03*
%TD*%
D15*
%TO.P,L0,1*%
%TO.N,VI*%
X165100000Y-40640000D03*
D10*
%TO.P,L0,2*%
%TO.N,Net-(C1-Pad2)*%
X165100000Y-54610000D03*
%TO.P,L0,3*%
%TO.N,Net-(C1-Pad1)*%
X190500000Y-54610000D03*
%TO.P,L0,4*%
%TO.N,0V*%
X190500000Y-40640000D03*
%TD*%
D11*
%TO.P,R3,1,1*%
%TO.N,VO*%
X184150000Y-31750000D03*
%TO.P,R3,2,2*%
%TO.N,FB*%
X189230000Y-34290000D03*
%TO.P,R3,3,3*%
%TO.N,0V*%
X184150000Y-36830000D03*
%TD*%
D12*
%TO.P,T4,1,E*%
%TO.N,Net-(D8-Pad1)*%
X210820000Y-31750000D03*
D11*
%TO.P,T4,2,B*%
%TO.N,Net-(R8-Pad1)*%
X210820000Y-34290000D03*
%TO.P,T4,3,C*%
%TO.N,0V*%
X210820000Y-36830000D03*
%TD*%
%TO.P,R0,1*%
%TO.N,VI*%
X173990000Y-29210000D03*
%TO.P,R0,2*%
%TO.N,Net-(IC0-Pad7)*%
X173990000Y-36830000D03*
%TD*%
%TO.P,R5,1*%
%TO.N,O{slash}D*%
X179070000Y-36830000D03*
%TO.P,R5,2*%
%TO.N,VI*%
X179070000Y-29210000D03*
%TD*%
D16*
%TO.P,D8,1,K*%
%TO.N,Net-(D8-Pad1)*%
X212090000Y-29210000D03*
%TO.P,D8,2,A*%
%TO.N,VI*%
X209550000Y-29210000D03*
%TD*%
D11*
%TO.P,R7,1*%
%TO.N,Net-(D7-Pad1)*%
X148590000Y-36830000D03*
%TO.P,R7,2*%
%TO.N,0V*%
X148590000Y-29210000D03*
%TD*%
%TO.P,C2,1*%
%TO.N,VO*%
X189230000Y-80010000D03*
X187960000Y-80010000D03*
%TO.P,C2,2*%
%TO.N,0V*%
X181610000Y-80010000D03*
X182880000Y-80010000D03*
%TD*%
%TO.P,C7,1*%
%TO.N,VI*%
X167640000Y-68580000D03*
%TO.P,C7,2*%
%TO.N,0V*%
X172720000Y-68580000D03*
%TD*%
D17*
%TO.P,IC0,1,GND*%
%TO.N,0V*%
X163830000Y-29210000D03*
D11*
%TO.P,IC0,2,TRG*%
%TO.N,CAP*%
X163830000Y-31750000D03*
%TO.P,IC0,3,Q*%
%TO.N,Net-(IC0-Pad3)*%
X163830000Y-34290000D03*
%TO.P,IC0,4,RST*%
%TO.N,VI*%
X163830000Y-36830000D03*
%TO.P,IC0,5,CTL*%
%TO.N,Net-(D0-Pad1)*%
X171450000Y-36830000D03*
%TO.P,IC0,6,THR*%
%TO.N,CAP*%
X171450000Y-34290000D03*
%TO.P,IC0,7,DCH*%
%TO.N,Net-(IC0-Pad7)*%
X171450000Y-31750000D03*
%TO.P,IC0,8,VCC*%
%TO.N,VI*%
X171450000Y-29210000D03*
%TD*%
%TO.P,C6,1*%
%TO.N,VI*%
X167640000Y-95250000D03*
X166370000Y-95250000D03*
%TO.P,C6,2*%
%TO.N,0V*%
X173990000Y-95250000D03*
X172720000Y-95250000D03*
%TD*%
D12*
%TO.P,T2,1,S*%
%TO.N,0V*%
X200660000Y-36830000D03*
D11*
%TO.P,T2,2,G*%
%TO.N,Net-(R4-Pad2)*%
X200660000Y-34290000D03*
%TO.P,T2,3,D*%
%TO.N,O{slash}D*%
X200660000Y-31750000D03*
%TD*%
%TO.P,C3,1*%
%TO.N,VO*%
X189230000Y-95250000D03*
X187960000Y-95250000D03*
%TO.P,C3,2*%
%TO.N,0V*%
X181610000Y-95250000D03*
X182880000Y-95250000D03*
%TD*%
%TO.P,R6,1*%
%TO.N,Net-(R6-Pad1)*%
X181610000Y-29210000D03*
%TO.P,R6,2*%
%TO.N,O{slash}D*%
X181610000Y-36830000D03*
%TD*%
%TO.P,D0,1,K*%
%TO.N,Net-(D0-Pad1)*%
X161290000Y-36830000D03*
%TO.P,D0,2,A*%
%TO.N,0V*%
X161290000Y-29210000D03*
%TD*%
D18*
%TO.N,0V*%
X133350000Y-120650000D03*
X222250000Y-120650000D03*
X222250000Y-31750000D03*
X133350000Y-31750000D03*
%TD*%
D19*
%TO.N,CAP*%
X171450000Y-34290000D02*
X176530000Y-29210000D01*
%TO.N,VI*%
X163830000Y-36830000D02*
X171450000Y-29210000D01*
%TO.N,Net-(D0-Pad1)*%
X161290000Y-36830000D02*
X162559511Y-38099511D01*
X170180489Y-38099511D02*
X171450000Y-36830000D01*
X162559511Y-38099511D02*
X170180489Y-38099511D01*
%TO.N,Net-(D7-Pad1)*%
X148590000Y-36830000D02*
X151130000Y-34290000D01*
%TO.N,Net-(IC0-Pad3)*%
X162560000Y-35560000D02*
X160020000Y-35560000D01*
X160020000Y-40640000D02*
X158750000Y-41910000D01*
X160020000Y-35560000D02*
X160020000Y-40640000D01*
X163830000Y-34290000D02*
X162560000Y-35560000D01*
%TO.N,Net-(R2-Pad2)*%
X158750000Y-30480000D02*
X158750000Y-29210000D01*
X154940000Y-34290000D02*
X158750000Y-30480000D01*
%TO.N,FB*%
X203200000Y-34290000D02*
X201930000Y-35560000D01*
X161290489Y-30479511D02*
X167640489Y-30479511D01*
X203200000Y-30480000D02*
X203200000Y-34290000D01*
X170180000Y-27940000D02*
X200660000Y-27940000D01*
X189230000Y-34290000D02*
X190500000Y-35560000D01*
X167640489Y-30479511D02*
X170180000Y-27940000D01*
X154940000Y-36830000D02*
X161290489Y-30479511D01*
X190500000Y-35560000D02*
X201930000Y-35560000D01*
X203200000Y-34290000D02*
X205740000Y-36830000D01*
X200660000Y-27940000D02*
X203200000Y-30480000D01*
%TO.N,O{slash}D*%
X181610000Y-36830000D02*
X189230000Y-29210000D01*
X189230000Y-29210000D02*
X196850000Y-29210000D01*
%TD*%
%TA.AperFunction,Conductor*%
%TO.N,0V*%
G36*
X227907121Y-26055002D02*
G01*
X227953614Y-26108658D01*
X227965000Y-26161000D01*
X227965000Y-126239000D01*
X227944998Y-126307121D01*
X227891342Y-126353614D01*
X227839000Y-126365000D01*
X127761000Y-126365000D01*
X127692879Y-126344998D01*
X127646386Y-126291342D01*
X127635000Y-126239000D01*
X127635000Y-106298319D01*
X162877000Y-106298319D01*
X162877001Y-109601680D01*
X162879835Y-109637704D01*
X162881630Y-109643881D01*
X162881631Y-109643887D01*
X162922419Y-109784280D01*
X162924631Y-109791893D01*
X163006365Y-109930098D01*
X163119902Y-110043635D01*
X163258107Y-110125369D01*
X163265718Y-110127580D01*
X163265720Y-110127581D01*
X163406119Y-110168371D01*
X163406124Y-110168372D01*
X163412296Y-110170165D01*
X163433919Y-110171867D01*
X163445862Y-110172807D01*
X163445871Y-110172807D01*
X163448319Y-110173000D01*
X165098663Y-110173000D01*
X166751680Y-110172999D01*
X166770923Y-110171485D01*
X166781286Y-110170670D01*
X166781287Y-110170670D01*
X166787704Y-110170165D01*
X166793884Y-110168370D01*
X166793887Y-110168369D01*
X166934280Y-110127581D01*
X166934282Y-110127580D01*
X166941893Y-110125369D01*
X167080098Y-110043635D01*
X167193635Y-109930098D01*
X167275369Y-109791893D01*
X167277581Y-109784280D01*
X167318371Y-109643881D01*
X167318372Y-109643876D01*
X167320165Y-109637704D01*
X167321867Y-109616081D01*
X167322807Y-109604138D01*
X167322807Y-109604129D01*
X167323000Y-109601681D01*
X167322999Y-107950000D01*
X167952230Y-107950000D01*
X167971289Y-108240782D01*
X168028139Y-108526589D01*
X168121809Y-108802531D01*
X168123632Y-108806227D01*
X168123635Y-108806235D01*
X168227897Y-109017654D01*
X168250695Y-109063885D01*
X168412591Y-109306180D01*
X168415305Y-109309274D01*
X168415309Y-109309280D01*
X168602020Y-109522182D01*
X168604729Y-109525271D01*
X168607818Y-109527980D01*
X168820720Y-109714691D01*
X168820726Y-109714695D01*
X168823820Y-109717409D01*
X168827246Y-109719698D01*
X168827251Y-109719702D01*
X169062680Y-109877010D01*
X169066115Y-109879305D01*
X169069818Y-109881131D01*
X169323765Y-110006365D01*
X169323773Y-110006368D01*
X169327469Y-110008191D01*
X169331384Y-110009520D01*
X169599504Y-110100535D01*
X169599508Y-110100536D01*
X169603411Y-110101861D01*
X169607450Y-110102664D01*
X169607456Y-110102666D01*
X169885175Y-110157907D01*
X169885178Y-110157907D01*
X169889218Y-110158711D01*
X169893329Y-110158980D01*
X169893333Y-110158981D01*
X170175881Y-110177500D01*
X170180000Y-110177770D01*
X170184119Y-110177500D01*
X170466667Y-110158981D01*
X170466671Y-110158980D01*
X170470782Y-110158711D01*
X170474822Y-110157907D01*
X170474825Y-110157907D01*
X170752544Y-110102666D01*
X170752550Y-110102664D01*
X170756589Y-110101861D01*
X170760492Y-110100536D01*
X170760496Y-110100535D01*
X171028616Y-110009520D01*
X171032531Y-110008191D01*
X171036227Y-110006368D01*
X171036235Y-110006365D01*
X171290182Y-109881131D01*
X171293885Y-109879305D01*
X171297320Y-109877010D01*
X171532749Y-109719702D01*
X171532754Y-109719698D01*
X171536180Y-109717409D01*
X171539274Y-109714695D01*
X171539280Y-109714691D01*
X171752182Y-109527980D01*
X171755271Y-109525271D01*
X171757980Y-109522182D01*
X171944691Y-109309280D01*
X171944695Y-109309274D01*
X171947409Y-109306180D01*
X172109305Y-109063885D01*
X172132103Y-109017654D01*
X172236365Y-108806235D01*
X172236368Y-108806227D01*
X172238191Y-108802531D01*
X172331861Y-108526589D01*
X172388711Y-108240782D01*
X172407770Y-107950000D01*
X183192230Y-107950000D01*
X183211289Y-108240782D01*
X183268139Y-108526589D01*
X183361809Y-108802531D01*
X183363632Y-108806227D01*
X183363635Y-108806235D01*
X183467897Y-109017654D01*
X183490695Y-109063885D01*
X183652591Y-109306180D01*
X183655305Y-109309274D01*
X183655309Y-109309280D01*
X183842020Y-109522182D01*
X183844729Y-109525271D01*
X183847818Y-109527980D01*
X184060720Y-109714691D01*
X184060726Y-109714695D01*
X184063820Y-109717409D01*
X184067246Y-109719698D01*
X184067251Y-109719702D01*
X184302680Y-109877010D01*
X184306115Y-109879305D01*
X184309818Y-109881131D01*
X184563765Y-110006365D01*
X184563773Y-110006368D01*
X184567469Y-110008191D01*
X184571384Y-110009520D01*
X184839504Y-110100535D01*
X184839508Y-110100536D01*
X184843411Y-110101861D01*
X184847450Y-110102664D01*
X184847456Y-110102666D01*
X185125175Y-110157907D01*
X185125178Y-110157907D01*
X185129218Y-110158711D01*
X185133329Y-110158980D01*
X185133333Y-110158981D01*
X185415881Y-110177500D01*
X185420000Y-110177770D01*
X185424119Y-110177500D01*
X185706667Y-110158981D01*
X185706671Y-110158980D01*
X185710782Y-110158711D01*
X185714822Y-110157907D01*
X185714825Y-110157907D01*
X185992544Y-110102666D01*
X185992550Y-110102664D01*
X185996589Y-110101861D01*
X186000492Y-110100536D01*
X186000496Y-110100535D01*
X186268616Y-110009520D01*
X186272531Y-110008191D01*
X186276227Y-110006368D01*
X186276235Y-110006365D01*
X186530182Y-109881131D01*
X186533885Y-109879305D01*
X186537320Y-109877010D01*
X186772749Y-109719702D01*
X186772754Y-109719698D01*
X186776180Y-109717409D01*
X186779274Y-109714695D01*
X186779280Y-109714691D01*
X186992182Y-109527980D01*
X186995271Y-109525271D01*
X186997980Y-109522182D01*
X187184691Y-109309280D01*
X187184695Y-109309274D01*
X187187409Y-109306180D01*
X187349305Y-109063885D01*
X187372103Y-109017654D01*
X187476365Y-108806235D01*
X187476368Y-108806227D01*
X187478191Y-108802531D01*
X187571861Y-108526589D01*
X187628711Y-108240782D01*
X187647770Y-107950000D01*
X188272230Y-107950000D01*
X188291289Y-108240782D01*
X188348139Y-108526589D01*
X188441809Y-108802531D01*
X188443632Y-108806227D01*
X188443635Y-108806235D01*
X188547897Y-109017654D01*
X188570695Y-109063885D01*
X188732591Y-109306180D01*
X188735305Y-109309274D01*
X188735309Y-109309280D01*
X188922020Y-109522182D01*
X188924729Y-109525271D01*
X188927818Y-109527980D01*
X189140720Y-109714691D01*
X189140726Y-109714695D01*
X189143820Y-109717409D01*
X189147246Y-109719698D01*
X189147251Y-109719702D01*
X189382680Y-109877010D01*
X189386115Y-109879305D01*
X189389818Y-109881131D01*
X189643765Y-110006365D01*
X189643773Y-110006368D01*
X189647469Y-110008191D01*
X189651384Y-110009520D01*
X189919504Y-110100535D01*
X189919508Y-110100536D01*
X189923411Y-110101861D01*
X189927450Y-110102664D01*
X189927456Y-110102666D01*
X190205175Y-110157907D01*
X190205178Y-110157907D01*
X190209218Y-110158711D01*
X190213329Y-110158980D01*
X190213333Y-110158981D01*
X190495881Y-110177500D01*
X190500000Y-110177770D01*
X190504119Y-110177500D01*
X190786667Y-110158981D01*
X190786671Y-110158980D01*
X190790782Y-110158711D01*
X190794822Y-110157907D01*
X190794825Y-110157907D01*
X191072544Y-110102666D01*
X191072550Y-110102664D01*
X191076589Y-110101861D01*
X191080492Y-110100536D01*
X191080496Y-110100535D01*
X191348616Y-110009520D01*
X191352531Y-110008191D01*
X191356227Y-110006368D01*
X191356235Y-110006365D01*
X191610182Y-109881131D01*
X191613885Y-109879305D01*
X191617320Y-109877010D01*
X191852749Y-109719702D01*
X191852754Y-109719698D01*
X191856180Y-109717409D01*
X191859274Y-109714695D01*
X191859280Y-109714691D01*
X192072182Y-109527980D01*
X192075271Y-109525271D01*
X192077980Y-109522182D01*
X192264691Y-109309280D01*
X192264695Y-109309274D01*
X192267409Y-109306180D01*
X192429305Y-109063885D01*
X192452103Y-109017654D01*
X192556365Y-108806235D01*
X192556368Y-108806227D01*
X192558191Y-108802531D01*
X192651861Y-108526589D01*
X192708711Y-108240782D01*
X192727770Y-107950000D01*
X192708711Y-107659218D01*
X192651861Y-107373411D01*
X192558191Y-107097469D01*
X192556368Y-107093773D01*
X192556365Y-107093765D01*
X192431131Y-106839818D01*
X192429305Y-106836115D01*
X192267409Y-106593820D01*
X192264695Y-106590726D01*
X192264691Y-106590720D01*
X192077980Y-106377818D01*
X192075271Y-106374729D01*
X192072182Y-106372020D01*
X191859280Y-106185309D01*
X191859274Y-106185305D01*
X191856180Y-106182591D01*
X191852754Y-106180302D01*
X191852749Y-106180298D01*
X191617320Y-106022990D01*
X191617318Y-106022989D01*
X191613885Y-106020695D01*
X191524719Y-105976723D01*
X191356235Y-105893635D01*
X191356227Y-105893632D01*
X191352531Y-105891809D01*
X191348616Y-105890480D01*
X191080496Y-105799465D01*
X191080492Y-105799464D01*
X191076589Y-105798139D01*
X191072550Y-105797336D01*
X191072544Y-105797334D01*
X190794825Y-105742093D01*
X190794822Y-105742093D01*
X190790782Y-105741289D01*
X190786671Y-105741020D01*
X190786667Y-105741019D01*
X190504119Y-105722500D01*
X190500000Y-105722230D01*
X190495881Y-105722500D01*
X190213333Y-105741019D01*
X190213329Y-105741020D01*
X190209218Y-105741289D01*
X190205178Y-105742093D01*
X190205175Y-105742093D01*
X189927456Y-105797334D01*
X189927450Y-105797336D01*
X189923411Y-105798139D01*
X189919508Y-105799464D01*
X189919504Y-105799465D01*
X189651384Y-105890480D01*
X189647469Y-105891809D01*
X189643773Y-105893632D01*
X189643765Y-105893635D01*
X189475281Y-105976723D01*
X189386115Y-106020695D01*
X189382682Y-106022989D01*
X189382680Y-106022990D01*
X189147251Y-106180298D01*
X189147246Y-106180302D01*
X189143820Y-106182591D01*
X189140726Y-106185305D01*
X189140720Y-106185309D01*
X188927818Y-106372020D01*
X188924729Y-106374729D01*
X188922020Y-106377818D01*
X188735309Y-106590720D01*
X188735305Y-106590726D01*
X188732591Y-106593820D01*
X188570695Y-106836115D01*
X188568869Y-106839818D01*
X188443635Y-107093765D01*
X188443632Y-107093773D01*
X188441809Y-107097469D01*
X188348139Y-107373411D01*
X188291289Y-107659218D01*
X188272230Y-107950000D01*
X187647770Y-107950000D01*
X187628711Y-107659218D01*
X187571861Y-107373411D01*
X187478191Y-107097469D01*
X187476368Y-107093773D01*
X187476365Y-107093765D01*
X187351131Y-106839818D01*
X187349305Y-106836115D01*
X187187409Y-106593820D01*
X187184695Y-106590726D01*
X187184691Y-106590720D01*
X186997980Y-106377818D01*
X186995271Y-106374729D01*
X186992182Y-106372020D01*
X186779280Y-106185309D01*
X186779274Y-106185305D01*
X186776180Y-106182591D01*
X186772754Y-106180302D01*
X186772749Y-106180298D01*
X186537320Y-106022990D01*
X186537318Y-106022989D01*
X186533885Y-106020695D01*
X186444719Y-105976723D01*
X186276235Y-105893635D01*
X186276227Y-105893632D01*
X186272531Y-105891809D01*
X186268616Y-105890480D01*
X186000496Y-105799465D01*
X186000492Y-105799464D01*
X185996589Y-105798139D01*
X185992550Y-105797336D01*
X185992544Y-105797334D01*
X185714825Y-105742093D01*
X185714822Y-105742093D01*
X185710782Y-105741289D01*
X185706671Y-105741020D01*
X185706667Y-105741019D01*
X185424119Y-105722500D01*
X185420000Y-105722230D01*
X185415881Y-105722500D01*
X185133333Y-105741019D01*
X185133329Y-105741020D01*
X185129218Y-105741289D01*
X185125178Y-105742093D01*
X185125175Y-105742093D01*
X184847456Y-105797334D01*
X184847450Y-105797336D01*
X184843411Y-105798139D01*
X184839508Y-105799464D01*
X184839504Y-105799465D01*
X184571384Y-105890480D01*
X184567469Y-105891809D01*
X184563773Y-105893632D01*
X184563765Y-105893635D01*
X184395281Y-105976723D01*
X184306115Y-106020695D01*
X184302682Y-106022989D01*
X184302680Y-106022990D01*
X184067251Y-106180298D01*
X184067246Y-106180302D01*
X184063820Y-106182591D01*
X184060726Y-106185305D01*
X184060720Y-106185309D01*
X183847818Y-106372020D01*
X183844729Y-106374729D01*
X183842020Y-106377818D01*
X183655309Y-106590720D01*
X183655305Y-106590726D01*
X183652591Y-106593820D01*
X183490695Y-106836115D01*
X183488869Y-106839818D01*
X183363635Y-107093765D01*
X183363632Y-107093773D01*
X183361809Y-107097469D01*
X183268139Y-107373411D01*
X183211289Y-107659218D01*
X183192230Y-107950000D01*
X172407770Y-107950000D01*
X172388711Y-107659218D01*
X172331861Y-107373411D01*
X172238191Y-107097469D01*
X172236368Y-107093773D01*
X172236365Y-107093765D01*
X172111131Y-106839818D01*
X172109305Y-106836115D01*
X171947409Y-106593820D01*
X171944695Y-106590726D01*
X171944691Y-106590720D01*
X171757980Y-106377818D01*
X171755271Y-106374729D01*
X171752182Y-106372020D01*
X171539280Y-106185309D01*
X171539274Y-106185305D01*
X171536180Y-106182591D01*
X171532754Y-106180302D01*
X171532749Y-106180298D01*
X171297320Y-106022990D01*
X171297318Y-106022989D01*
X171293885Y-106020695D01*
X171204719Y-105976723D01*
X171036235Y-105893635D01*
X171036227Y-105893632D01*
X171032531Y-105891809D01*
X171028616Y-105890480D01*
X170760496Y-105799465D01*
X170760492Y-105799464D01*
X170756589Y-105798139D01*
X170752550Y-105797336D01*
X170752544Y-105797334D01*
X170474825Y-105742093D01*
X170474822Y-105742093D01*
X170470782Y-105741289D01*
X170466671Y-105741020D01*
X170466667Y-105741019D01*
X170184119Y-105722500D01*
X170180000Y-105722230D01*
X170175881Y-105722500D01*
X169893333Y-105741019D01*
X169893329Y-105741020D01*
X169889218Y-105741289D01*
X169885178Y-105742093D01*
X169885175Y-105742093D01*
X169607456Y-105797334D01*
X169607450Y-105797336D01*
X169603411Y-105798139D01*
X169599508Y-105799464D01*
X169599504Y-105799465D01*
X169331384Y-105890480D01*
X169327469Y-105891809D01*
X169323773Y-105893632D01*
X169323765Y-105893635D01*
X169155281Y-105976723D01*
X169066115Y-106020695D01*
X169062682Y-106022989D01*
X169062680Y-106022990D01*
X168827251Y-106180298D01*
X168827246Y-106180302D01*
X168823820Y-106182591D01*
X168820726Y-106185305D01*
X168820720Y-106185309D01*
X168607818Y-106372020D01*
X168604729Y-106374729D01*
X168602020Y-106377818D01*
X168415309Y-106590720D01*
X168415305Y-106590726D01*
X168412591Y-106593820D01*
X168250695Y-106836115D01*
X168248869Y-106839818D01*
X168123635Y-107093765D01*
X168123632Y-107093773D01*
X168121809Y-107097469D01*
X168028139Y-107373411D01*
X167971289Y-107659218D01*
X167952230Y-107950000D01*
X167322999Y-107950000D01*
X167322999Y-106298320D01*
X167320165Y-106262296D01*
X167297799Y-106185309D01*
X167277581Y-106115720D01*
X167277580Y-106115718D01*
X167275369Y-106108107D01*
X167193635Y-105969902D01*
X167080098Y-105856365D01*
X166941893Y-105774631D01*
X166934282Y-105772420D01*
X166934280Y-105772419D01*
X166793881Y-105731629D01*
X166793876Y-105731628D01*
X166787704Y-105729835D01*
X166766081Y-105728133D01*
X166754138Y-105727193D01*
X166754129Y-105727193D01*
X166751681Y-105727000D01*
X165101337Y-105727000D01*
X163448320Y-105727001D01*
X163429077Y-105728515D01*
X163418714Y-105729330D01*
X163418713Y-105729330D01*
X163412296Y-105729835D01*
X163406116Y-105731630D01*
X163406113Y-105731631D01*
X163265720Y-105772419D01*
X163265718Y-105772420D01*
X163258107Y-105774631D01*
X163119902Y-105856365D01*
X163006365Y-105969902D01*
X162924631Y-106108107D01*
X162922420Y-106115718D01*
X162922419Y-106115720D01*
X162881629Y-106256119D01*
X162881628Y-106256124D01*
X162879835Y-106262296D01*
X162879331Y-106268706D01*
X162877194Y-106295856D01*
X162877000Y-106298319D01*
X127635000Y-106298319D01*
X127635000Y-95250000D01*
X164777090Y-95250000D01*
X164796701Y-95499186D01*
X164855053Y-95742236D01*
X164856943Y-95746799D01*
X164856945Y-95746805D01*
X164948812Y-95968592D01*
X164950707Y-95973166D01*
X165081309Y-96186289D01*
X165243643Y-96376357D01*
X165433711Y-96538691D01*
X165646834Y-96669293D01*
X165651404Y-96671186D01*
X165651408Y-96671188D01*
X165873195Y-96763055D01*
X165873201Y-96763057D01*
X165877764Y-96764947D01*
X165882564Y-96766099D01*
X165882569Y-96766101D01*
X165993832Y-96792813D01*
X166120814Y-96823299D01*
X166370000Y-96842910D01*
X166619186Y-96823299D01*
X166746168Y-96792813D01*
X166857431Y-96766101D01*
X166857436Y-96766099D01*
X166862236Y-96764947D01*
X166866799Y-96763057D01*
X166866805Y-96763055D01*
X166956782Y-96725785D01*
X167027372Y-96718196D01*
X167053218Y-96725785D01*
X167143195Y-96763055D01*
X167143201Y-96763057D01*
X167147764Y-96764947D01*
X167152564Y-96766099D01*
X167152569Y-96766101D01*
X167263832Y-96792813D01*
X167390814Y-96823299D01*
X167640000Y-96842910D01*
X167889186Y-96823299D01*
X168016168Y-96792813D01*
X168127431Y-96766101D01*
X168127436Y-96766099D01*
X168132236Y-96764947D01*
X168136799Y-96763057D01*
X168136805Y-96763055D01*
X168358592Y-96671188D01*
X168358596Y-96671186D01*
X168363166Y-96669293D01*
X168576289Y-96538691D01*
X168766357Y-96376357D01*
X168928691Y-96186289D01*
X169059293Y-95973166D01*
X169061188Y-95968592D01*
X169153055Y-95746805D01*
X169153057Y-95746799D01*
X169154947Y-95742236D01*
X169213299Y-95499186D01*
X169232910Y-95250000D01*
X186367090Y-95250000D01*
X186386701Y-95499186D01*
X186445053Y-95742236D01*
X186446943Y-95746799D01*
X186446945Y-95746805D01*
X186538812Y-95968592D01*
X186540707Y-95973166D01*
X186671309Y-96186289D01*
X186833643Y-96376357D01*
X187023711Y-96538691D01*
X187236834Y-96669293D01*
X187241404Y-96671186D01*
X187241408Y-96671188D01*
X187463195Y-96763055D01*
X187463201Y-96763057D01*
X187467764Y-96764947D01*
X187472564Y-96766099D01*
X187472569Y-96766101D01*
X187583832Y-96792813D01*
X187710814Y-96823299D01*
X187960000Y-96842910D01*
X188209186Y-96823299D01*
X188336168Y-96792813D01*
X188447431Y-96766101D01*
X188447436Y-96766099D01*
X188452236Y-96764947D01*
X188456799Y-96763057D01*
X188456805Y-96763055D01*
X188546782Y-96725785D01*
X188617372Y-96718196D01*
X188643218Y-96725785D01*
X188733195Y-96763055D01*
X188733201Y-96763057D01*
X188737764Y-96764947D01*
X188742564Y-96766099D01*
X188742569Y-96766101D01*
X188853832Y-96792813D01*
X188980814Y-96823299D01*
X189230000Y-96842910D01*
X189479186Y-96823299D01*
X189606168Y-96792813D01*
X189717431Y-96766101D01*
X189717436Y-96766099D01*
X189722236Y-96764947D01*
X189726799Y-96763057D01*
X189726805Y-96763055D01*
X189948592Y-96671188D01*
X189948596Y-96671186D01*
X189953166Y-96669293D01*
X190166289Y-96538691D01*
X190356357Y-96376357D01*
X190518691Y-96186289D01*
X190649293Y-95973166D01*
X190651188Y-95968592D01*
X190743055Y-95746805D01*
X190743057Y-95746799D01*
X190744947Y-95742236D01*
X190803299Y-95499186D01*
X190822910Y-95250000D01*
X190803299Y-95000814D01*
X190744947Y-94757764D01*
X190743057Y-94753201D01*
X190743055Y-94753195D01*
X190651188Y-94531408D01*
X190651186Y-94531404D01*
X190649293Y-94526834D01*
X190518691Y-94313711D01*
X190356357Y-94123643D01*
X190166289Y-93961309D01*
X189953166Y-93830707D01*
X189948596Y-93828814D01*
X189948592Y-93828812D01*
X189726805Y-93736945D01*
X189726799Y-93736943D01*
X189722236Y-93735053D01*
X189717436Y-93733901D01*
X189717431Y-93733899D01*
X189606168Y-93707187D01*
X189479186Y-93676701D01*
X189230000Y-93657090D01*
X188980814Y-93676701D01*
X188853832Y-93707187D01*
X188742569Y-93733899D01*
X188742564Y-93733901D01*
X188737764Y-93735053D01*
X188733201Y-93736943D01*
X188733195Y-93736945D01*
X188643218Y-93774215D01*
X188572628Y-93781804D01*
X188546782Y-93774215D01*
X188456805Y-93736945D01*
X188456799Y-93736943D01*
X188452236Y-93735053D01*
X188447436Y-93733901D01*
X188447431Y-93733899D01*
X188336168Y-93707187D01*
X188209186Y-93676701D01*
X187960000Y-93657090D01*
X187710814Y-93676701D01*
X187583832Y-93707187D01*
X187472569Y-93733899D01*
X187472564Y-93733901D01*
X187467764Y-93735053D01*
X187463201Y-93736943D01*
X187463195Y-93736945D01*
X187241408Y-93828812D01*
X187241404Y-93828814D01*
X187236834Y-93830707D01*
X187023711Y-93961309D01*
X186833643Y-94123643D01*
X186671309Y-94313711D01*
X186540707Y-94526834D01*
X186538814Y-94531404D01*
X186538812Y-94531408D01*
X186446945Y-94753195D01*
X186446943Y-94753201D01*
X186445053Y-94757764D01*
X186386701Y-95000814D01*
X186367090Y-95250000D01*
X169232910Y-95250000D01*
X169213299Y-95000814D01*
X169154947Y-94757764D01*
X169153057Y-94753201D01*
X169153055Y-94753195D01*
X169061188Y-94531408D01*
X169061186Y-94531404D01*
X169059293Y-94526834D01*
X168928691Y-94313711D01*
X168766357Y-94123643D01*
X168576289Y-93961309D01*
X168363166Y-93830707D01*
X168358596Y-93828814D01*
X168358592Y-93828812D01*
X168136805Y-93736945D01*
X168136799Y-93736943D01*
X168132236Y-93735053D01*
X168127436Y-93733901D01*
X168127431Y-93733899D01*
X168016168Y-93707187D01*
X167889186Y-93676701D01*
X167640000Y-93657090D01*
X167390814Y-93676701D01*
X167263832Y-93707187D01*
X167152569Y-93733899D01*
X167152564Y-93733901D01*
X167147764Y-93735053D01*
X167143201Y-93736943D01*
X167143195Y-93736945D01*
X167053218Y-93774215D01*
X166982628Y-93781804D01*
X166956782Y-93774215D01*
X166866805Y-93736945D01*
X166866799Y-93736943D01*
X166862236Y-93735053D01*
X166857436Y-93733901D01*
X166857431Y-93733899D01*
X166746168Y-93707187D01*
X166619186Y-93676701D01*
X166370000Y-93657090D01*
X166120814Y-93676701D01*
X165993832Y-93707187D01*
X165882569Y-93733899D01*
X165882564Y-93733901D01*
X165877764Y-93735053D01*
X165873201Y-93736943D01*
X165873195Y-93736945D01*
X165651408Y-93828812D01*
X165651404Y-93828814D01*
X165646834Y-93830707D01*
X165433711Y-93961309D01*
X165243643Y-94123643D01*
X165081309Y-94313711D01*
X164950707Y-94526834D01*
X164948814Y-94531404D01*
X164948812Y-94531408D01*
X164856945Y-94753195D01*
X164856943Y-94753201D01*
X164855053Y-94757764D01*
X164796701Y-95000814D01*
X164777090Y-95250000D01*
X127635000Y-95250000D01*
X127635000Y-80010000D01*
X164777090Y-80010000D01*
X164796701Y-80259186D01*
X164855053Y-80502236D01*
X164856943Y-80506799D01*
X164856945Y-80506805D01*
X164948812Y-80728592D01*
X164950707Y-80733166D01*
X165081309Y-80946289D01*
X165243643Y-81136357D01*
X165433711Y-81298691D01*
X165646834Y-81429293D01*
X165651404Y-81431186D01*
X165651408Y-81431188D01*
X165873195Y-81523055D01*
X165873201Y-81523057D01*
X165877764Y-81524947D01*
X165882564Y-81526099D01*
X165882569Y-81526101D01*
X165993832Y-81552813D01*
X166120814Y-81583299D01*
X166370000Y-81602910D01*
X166619186Y-81583299D01*
X166746168Y-81552813D01*
X166857431Y-81526101D01*
X166857436Y-81526099D01*
X166862236Y-81524947D01*
X166866799Y-81523057D01*
X166866805Y-81523055D01*
X166956782Y-81485785D01*
X167027372Y-81478196D01*
X167053218Y-81485785D01*
X167143195Y-81523055D01*
X167143201Y-81523057D01*
X167147764Y-81524947D01*
X167152564Y-81526099D01*
X167152569Y-81526101D01*
X167263832Y-81552813D01*
X167390814Y-81583299D01*
X167640000Y-81602910D01*
X167889186Y-81583299D01*
X168016168Y-81552813D01*
X168127431Y-81526101D01*
X168127436Y-81526099D01*
X168132236Y-81524947D01*
X168136799Y-81523057D01*
X168136805Y-81523055D01*
X168358592Y-81431188D01*
X168358596Y-81431186D01*
X168363166Y-81429293D01*
X168576289Y-81298691D01*
X168766357Y-81136357D01*
X168928691Y-80946289D01*
X169059293Y-80733166D01*
X169061188Y-80728592D01*
X169153055Y-80506805D01*
X169153057Y-80506799D01*
X169154947Y-80502236D01*
X169213299Y-80259186D01*
X169232910Y-80010000D01*
X186367090Y-80010000D01*
X186386701Y-80259186D01*
X186445053Y-80502236D01*
X186446943Y-80506799D01*
X186446945Y-80506805D01*
X186538812Y-80728592D01*
X186540707Y-80733166D01*
X186671309Y-80946289D01*
X186833643Y-81136357D01*
X187023711Y-81298691D01*
X187236834Y-81429293D01*
X187241404Y-81431186D01*
X187241408Y-81431188D01*
X187463195Y-81523055D01*
X187463201Y-81523057D01*
X187467764Y-81524947D01*
X187472564Y-81526099D01*
X187472569Y-81526101D01*
X187583832Y-81552813D01*
X187710814Y-81583299D01*
X187960000Y-81602910D01*
X188209186Y-81583299D01*
X188336168Y-81552813D01*
X188447431Y-81526101D01*
X188447436Y-81526099D01*
X188452236Y-81524947D01*
X188456799Y-81523057D01*
X188456805Y-81523055D01*
X188546782Y-81485785D01*
X188617372Y-81478196D01*
X188643218Y-81485785D01*
X188733195Y-81523055D01*
X188733201Y-81523057D01*
X188737764Y-81524947D01*
X188742564Y-81526099D01*
X188742569Y-81526101D01*
X188853832Y-81552813D01*
X188980814Y-81583299D01*
X189230000Y-81602910D01*
X189479186Y-81583299D01*
X189606168Y-81552813D01*
X189717431Y-81526101D01*
X189717436Y-81526099D01*
X189722236Y-81524947D01*
X189726799Y-81523057D01*
X189726805Y-81523055D01*
X189948592Y-81431188D01*
X189948596Y-81431186D01*
X189953166Y-81429293D01*
X190166289Y-81298691D01*
X190356357Y-81136357D01*
X190518691Y-80946289D01*
X190649293Y-80733166D01*
X190651188Y-80728592D01*
X190743055Y-80506805D01*
X190743057Y-80506799D01*
X190744947Y-80502236D01*
X190803299Y-80259186D01*
X190822910Y-80010000D01*
X190803299Y-79760814D01*
X190744947Y-79517764D01*
X190743057Y-79513201D01*
X190743055Y-79513195D01*
X190651188Y-79291408D01*
X190651186Y-79291404D01*
X190649293Y-79286834D01*
X190518691Y-79073711D01*
X190356357Y-78883643D01*
X190166289Y-78721309D01*
X189953166Y-78590707D01*
X189948596Y-78588814D01*
X189948592Y-78588812D01*
X189726805Y-78496945D01*
X189726799Y-78496943D01*
X189722236Y-78495053D01*
X189717436Y-78493901D01*
X189717431Y-78493899D01*
X189606168Y-78467187D01*
X189479186Y-78436701D01*
X189230000Y-78417090D01*
X188980814Y-78436701D01*
X188853832Y-78467187D01*
X188742569Y-78493899D01*
X188742564Y-78493901D01*
X188737764Y-78495053D01*
X188733201Y-78496943D01*
X188733195Y-78496945D01*
X188643218Y-78534215D01*
X188572628Y-78541804D01*
X188546782Y-78534215D01*
X188456805Y-78496945D01*
X188456799Y-78496943D01*
X188452236Y-78495053D01*
X188447436Y-78493901D01*
X188447431Y-78493899D01*
X188336168Y-78467187D01*
X188209186Y-78436701D01*
X187960000Y-78417090D01*
X187710814Y-78436701D01*
X187583832Y-78467187D01*
X187472569Y-78493899D01*
X187472564Y-78493901D01*
X187467764Y-78495053D01*
X187463201Y-78496943D01*
X187463195Y-78496945D01*
X187241408Y-78588812D01*
X187241404Y-78588814D01*
X187236834Y-78590707D01*
X187023711Y-78721309D01*
X186833643Y-78883643D01*
X186671309Y-79073711D01*
X186540707Y-79286834D01*
X186538814Y-79291404D01*
X186538812Y-79291408D01*
X186446945Y-79513195D01*
X186446943Y-79513201D01*
X186445053Y-79517764D01*
X186386701Y-79760814D01*
X186367090Y-80010000D01*
X169232910Y-80010000D01*
X169213299Y-79760814D01*
X169154947Y-79517764D01*
X169153057Y-79513201D01*
X169153055Y-79513195D01*
X169061188Y-79291408D01*
X169061186Y-79291404D01*
X169059293Y-79286834D01*
X168928691Y-79073711D01*
X168766357Y-78883643D01*
X168576289Y-78721309D01*
X168363166Y-78590707D01*
X168358596Y-78588814D01*
X168358592Y-78588812D01*
X168136805Y-78496945D01*
X168136799Y-78496943D01*
X168132236Y-78495053D01*
X168127436Y-78493901D01*
X168127431Y-78493899D01*
X168016168Y-78467187D01*
X167889186Y-78436701D01*
X167640000Y-78417090D01*
X167390814Y-78436701D01*
X167263832Y-78467187D01*
X167152569Y-78493899D01*
X167152564Y-78493901D01*
X167147764Y-78495053D01*
X167143201Y-78496943D01*
X167143195Y-78496945D01*
X167053218Y-78534215D01*
X166982628Y-78541804D01*
X166956782Y-78534215D01*
X166866805Y-78496945D01*
X166866799Y-78496943D01*
X166862236Y-78495053D01*
X166857436Y-78493901D01*
X166857431Y-78493899D01*
X166746168Y-78467187D01*
X166619186Y-78436701D01*
X166370000Y-78417090D01*
X166120814Y-78436701D01*
X165993832Y-78467187D01*
X165882569Y-78493899D01*
X165882564Y-78493901D01*
X165877764Y-78495053D01*
X165873201Y-78496943D01*
X165873195Y-78496945D01*
X165651408Y-78588812D01*
X165651404Y-78588814D01*
X165646834Y-78590707D01*
X165433711Y-78721309D01*
X165243643Y-78883643D01*
X165081309Y-79073711D01*
X164950707Y-79286834D01*
X164948814Y-79291404D01*
X164948812Y-79291408D01*
X164856945Y-79513195D01*
X164856943Y-79513201D01*
X164855053Y-79517764D01*
X164796701Y-79760814D01*
X164777090Y-80010000D01*
X127635000Y-80010000D01*
X127635000Y-71120000D01*
X164777090Y-71120000D01*
X164796701Y-71369186D01*
X164855053Y-71612236D01*
X164856943Y-71616799D01*
X164856945Y-71616805D01*
X164948812Y-71838592D01*
X164950707Y-71843166D01*
X165081309Y-72056289D01*
X165243643Y-72246357D01*
X165433711Y-72408691D01*
X165646834Y-72539293D01*
X165651404Y-72541186D01*
X165651408Y-72541188D01*
X165873195Y-72633055D01*
X165873201Y-72633057D01*
X165877764Y-72634947D01*
X165882564Y-72636099D01*
X165882569Y-72636101D01*
X165993832Y-72662813D01*
X166120814Y-72693299D01*
X166370000Y-72712910D01*
X166619186Y-72693299D01*
X166746168Y-72662813D01*
X166857431Y-72636101D01*
X166857436Y-72636099D01*
X166862236Y-72634947D01*
X166866799Y-72633057D01*
X166866805Y-72633055D01*
X167088592Y-72541188D01*
X167088596Y-72541186D01*
X167093166Y-72539293D01*
X167306289Y-72408691D01*
X167496357Y-72246357D01*
X167658691Y-72056289D01*
X167789293Y-71843166D01*
X167791188Y-71838592D01*
X167883055Y-71616805D01*
X167883057Y-71616799D01*
X167884947Y-71612236D01*
X167943299Y-71369186D01*
X167962910Y-71120000D01*
X167943299Y-70870814D01*
X167884947Y-70627764D01*
X167883057Y-70623201D01*
X167883055Y-70623195D01*
X167791188Y-70401408D01*
X167791186Y-70401404D01*
X167789293Y-70396834D01*
X167786707Y-70392614D01*
X167786702Y-70392604D01*
X167758951Y-70347319D01*
X167740412Y-70278786D01*
X167761868Y-70211109D01*
X167816507Y-70165776D01*
X167856496Y-70155873D01*
X167884242Y-70153689D01*
X167884253Y-70153687D01*
X167889186Y-70153299D01*
X168016168Y-70122813D01*
X168127431Y-70096101D01*
X168127436Y-70096099D01*
X168132236Y-70094947D01*
X168136799Y-70093057D01*
X168136805Y-70093055D01*
X168358592Y-70001188D01*
X168358596Y-70001186D01*
X168363166Y-69999293D01*
X168576289Y-69868691D01*
X168766357Y-69706357D01*
X168928691Y-69516289D01*
X169059293Y-69303166D01*
X169061188Y-69298592D01*
X169153055Y-69076805D01*
X169153057Y-69076799D01*
X169154947Y-69072236D01*
X169213299Y-68829186D01*
X169232910Y-68580000D01*
X186367090Y-68580000D01*
X186386701Y-68829186D01*
X186445053Y-69072236D01*
X186446943Y-69076799D01*
X186446945Y-69076805D01*
X186538812Y-69298592D01*
X186540707Y-69303166D01*
X186671309Y-69516289D01*
X186833643Y-69706357D01*
X187023711Y-69868691D01*
X187236834Y-69999293D01*
X187241404Y-70001186D01*
X187241408Y-70001188D01*
X187463195Y-70093055D01*
X187463201Y-70093057D01*
X187467764Y-70094947D01*
X187472564Y-70096099D01*
X187472569Y-70096101D01*
X187583832Y-70122813D01*
X187710814Y-70153299D01*
X187715747Y-70153687D01*
X187715758Y-70153689D01*
X187743504Y-70155873D01*
X187809845Y-70181158D01*
X187851984Y-70238297D01*
X187856543Y-70309147D01*
X187841049Y-70347319D01*
X187813298Y-70392604D01*
X187813293Y-70392614D01*
X187810707Y-70396834D01*
X187808814Y-70401404D01*
X187808812Y-70401408D01*
X187716945Y-70623195D01*
X187716943Y-70623201D01*
X187715053Y-70627764D01*
X187656701Y-70870814D01*
X187637090Y-71120000D01*
X187656701Y-71369186D01*
X187715053Y-71612236D01*
X187716943Y-71616799D01*
X187716945Y-71616805D01*
X187808812Y-71838592D01*
X187810707Y-71843166D01*
X187941309Y-72056289D01*
X188103643Y-72246357D01*
X188293711Y-72408691D01*
X188506834Y-72539293D01*
X188511404Y-72541186D01*
X188511408Y-72541188D01*
X188733195Y-72633055D01*
X188733201Y-72633057D01*
X188737764Y-72634947D01*
X188742564Y-72636099D01*
X188742569Y-72636101D01*
X188853832Y-72662813D01*
X188980814Y-72693299D01*
X189230000Y-72712910D01*
X189479186Y-72693299D01*
X189606168Y-72662813D01*
X189717431Y-72636101D01*
X189717436Y-72636099D01*
X189722236Y-72634947D01*
X189726799Y-72633057D01*
X189726805Y-72633055D01*
X189948592Y-72541188D01*
X189948596Y-72541186D01*
X189953166Y-72539293D01*
X190166289Y-72408691D01*
X190356357Y-72246357D01*
X190518691Y-72056289D01*
X190649293Y-71843166D01*
X190651188Y-71838592D01*
X190743055Y-71616805D01*
X190743057Y-71616799D01*
X190744947Y-71612236D01*
X190803299Y-71369186D01*
X190822910Y-71120000D01*
X190803299Y-70870814D01*
X190744947Y-70627764D01*
X190743057Y-70623201D01*
X190743055Y-70623195D01*
X190651188Y-70401408D01*
X190651186Y-70401404D01*
X190649293Y-70396834D01*
X190518691Y-70183711D01*
X190356357Y-69993643D01*
X190166289Y-69831309D01*
X189953166Y-69700707D01*
X189948596Y-69698814D01*
X189948592Y-69698812D01*
X189726805Y-69606945D01*
X189726799Y-69606943D01*
X189722236Y-69605053D01*
X189717436Y-69603901D01*
X189717431Y-69603899D01*
X189606168Y-69577187D01*
X189479186Y-69546701D01*
X189474253Y-69546313D01*
X189474242Y-69546311D01*
X189446496Y-69544127D01*
X189380155Y-69518842D01*
X189338016Y-69461703D01*
X189333457Y-69390853D01*
X189348951Y-69352681D01*
X189376702Y-69307396D01*
X189376708Y-69307385D01*
X189379293Y-69303166D01*
X189381188Y-69298592D01*
X189473055Y-69076805D01*
X189473057Y-69076799D01*
X189474947Y-69072236D01*
X189533299Y-68829186D01*
X189552910Y-68580000D01*
X189533299Y-68330814D01*
X189474947Y-68087764D01*
X189473057Y-68083201D01*
X189473055Y-68083195D01*
X189381188Y-67861408D01*
X189381186Y-67861404D01*
X189379293Y-67856834D01*
X189248691Y-67643711D01*
X189086357Y-67453643D01*
X188896289Y-67291309D01*
X188683166Y-67160707D01*
X188678596Y-67158814D01*
X188678592Y-67158812D01*
X188456805Y-67066945D01*
X188456799Y-67066943D01*
X188452236Y-67065053D01*
X188447436Y-67063901D01*
X188447431Y-67063899D01*
X188336168Y-67037187D01*
X188209186Y-67006701D01*
X187960000Y-66987090D01*
X187710814Y-67006701D01*
X187583832Y-67037187D01*
X187472569Y-67063899D01*
X187472564Y-67063901D01*
X187467764Y-67065053D01*
X187463201Y-67066943D01*
X187463195Y-67066945D01*
X187241408Y-67158812D01*
X187241404Y-67158814D01*
X187236834Y-67160707D01*
X187023711Y-67291309D01*
X186833643Y-67453643D01*
X186671309Y-67643711D01*
X186540707Y-67856834D01*
X186538814Y-67861404D01*
X186538812Y-67861408D01*
X186446945Y-68083195D01*
X186446943Y-68083201D01*
X186445053Y-68087764D01*
X186386701Y-68330814D01*
X186367090Y-68580000D01*
X169232910Y-68580000D01*
X169213299Y-68330814D01*
X169154947Y-68087764D01*
X169153057Y-68083201D01*
X169153055Y-68083195D01*
X169061188Y-67861408D01*
X169061186Y-67861404D01*
X169059293Y-67856834D01*
X168928691Y-67643711D01*
X168766357Y-67453643D01*
X168576289Y-67291309D01*
X168363166Y-67160707D01*
X168358596Y-67158814D01*
X168358592Y-67158812D01*
X168136805Y-67066945D01*
X168136799Y-67066943D01*
X168132236Y-67065053D01*
X168127436Y-67063901D01*
X168127431Y-67063899D01*
X168016168Y-67037187D01*
X167889186Y-67006701D01*
X167640000Y-66987090D01*
X167390814Y-67006701D01*
X167263832Y-67037187D01*
X167152569Y-67063899D01*
X167152564Y-67063901D01*
X167147764Y-67065053D01*
X167143201Y-67066943D01*
X167143195Y-67066945D01*
X166921408Y-67158812D01*
X166921404Y-67158814D01*
X166916834Y-67160707D01*
X166703711Y-67291309D01*
X166513643Y-67453643D01*
X166351309Y-67643711D01*
X166220707Y-67856834D01*
X166218814Y-67861404D01*
X166218812Y-67861408D01*
X166126945Y-68083195D01*
X166126943Y-68083201D01*
X166125053Y-68087764D01*
X166066701Y-68330814D01*
X166047090Y-68580000D01*
X166066701Y-68829186D01*
X166125053Y-69072236D01*
X166126943Y-69076799D01*
X166126945Y-69076805D01*
X166218812Y-69298592D01*
X166220707Y-69303166D01*
X166223292Y-69307385D01*
X166223298Y-69307396D01*
X166251049Y-69352681D01*
X166269588Y-69421214D01*
X166248132Y-69488891D01*
X166193493Y-69534224D01*
X166153504Y-69544127D01*
X166125758Y-69546311D01*
X166125747Y-69546313D01*
X166120814Y-69546701D01*
X165993832Y-69577187D01*
X165882569Y-69603899D01*
X165882564Y-69603901D01*
X165877764Y-69605053D01*
X165873201Y-69606943D01*
X165873195Y-69606945D01*
X165651408Y-69698812D01*
X165651404Y-69698814D01*
X165646834Y-69700707D01*
X165433711Y-69831309D01*
X165243643Y-69993643D01*
X165081309Y-70183711D01*
X164950707Y-70396834D01*
X164948814Y-70401404D01*
X164948812Y-70401408D01*
X164856945Y-70623195D01*
X164856943Y-70623201D01*
X164855053Y-70627764D01*
X164796701Y-70870814D01*
X164777090Y-71120000D01*
X127635000Y-71120000D01*
X127635000Y-62230000D01*
X162872230Y-62230000D01*
X162891289Y-62520782D01*
X162948139Y-62806589D01*
X163041809Y-63082531D01*
X163043632Y-63086227D01*
X163043635Y-63086235D01*
X163147897Y-63297654D01*
X163170695Y-63343885D01*
X163332591Y-63586180D01*
X163335305Y-63589274D01*
X163335309Y-63589280D01*
X163522020Y-63802182D01*
X163524729Y-63805271D01*
X163527818Y-63807980D01*
X163740720Y-63994691D01*
X163740726Y-63994695D01*
X163743820Y-63997409D01*
X163747246Y-63999698D01*
X163747251Y-63999702D01*
X163982680Y-64157010D01*
X163986115Y-64159305D01*
X163989818Y-64161131D01*
X164243765Y-64286365D01*
X164243773Y-64286368D01*
X164247469Y-64288191D01*
X164251384Y-64289520D01*
X164519504Y-64380535D01*
X164519508Y-64380536D01*
X164523411Y-64381861D01*
X164527450Y-64382664D01*
X164527456Y-64382666D01*
X164805175Y-64437907D01*
X164805178Y-64437907D01*
X164809218Y-64438711D01*
X164813329Y-64438980D01*
X164813333Y-64438981D01*
X165095881Y-64457500D01*
X165100000Y-64457770D01*
X165104119Y-64457500D01*
X165386667Y-64438981D01*
X165386671Y-64438980D01*
X165390782Y-64438711D01*
X165394822Y-64437907D01*
X165394825Y-64437907D01*
X165672544Y-64382666D01*
X165672550Y-64382664D01*
X165676589Y-64381861D01*
X165680492Y-64380536D01*
X165680496Y-64380535D01*
X165948616Y-64289520D01*
X165952531Y-64288191D01*
X165956227Y-64286368D01*
X165956235Y-64286365D01*
X166210182Y-64161131D01*
X166213885Y-64159305D01*
X166217320Y-64157010D01*
X166452749Y-63999702D01*
X166452754Y-63999698D01*
X166456180Y-63997409D01*
X166459274Y-63994695D01*
X166459280Y-63994691D01*
X166672182Y-63807980D01*
X166675271Y-63805271D01*
X166677980Y-63802182D01*
X166864691Y-63589280D01*
X166864695Y-63589274D01*
X166867409Y-63586180D01*
X167029305Y-63343885D01*
X167052103Y-63297654D01*
X167156365Y-63086235D01*
X167156368Y-63086227D01*
X167158191Y-63082531D01*
X167251861Y-62806589D01*
X167308711Y-62520782D01*
X167327770Y-62230000D01*
X188272230Y-62230000D01*
X188291289Y-62520782D01*
X188348139Y-62806589D01*
X188441809Y-63082531D01*
X188443632Y-63086227D01*
X188443635Y-63086235D01*
X188547897Y-63297654D01*
X188570695Y-63343885D01*
X188732591Y-63586180D01*
X188735305Y-63589274D01*
X188735309Y-63589280D01*
X188922020Y-63802182D01*
X188924729Y-63805271D01*
X188927818Y-63807980D01*
X189140720Y-63994691D01*
X189140726Y-63994695D01*
X189143820Y-63997409D01*
X189147246Y-63999698D01*
X189147251Y-63999702D01*
X189382680Y-64157010D01*
X189386115Y-64159305D01*
X189389818Y-64161131D01*
X189643765Y-64286365D01*
X189643773Y-64286368D01*
X189647469Y-64288191D01*
X189651384Y-64289520D01*
X189919504Y-64380535D01*
X189919508Y-64380536D01*
X189923411Y-64381861D01*
X189927450Y-64382664D01*
X189927456Y-64382666D01*
X190205175Y-64437907D01*
X190205178Y-64437907D01*
X190209218Y-64438711D01*
X190213329Y-64438980D01*
X190213333Y-64438981D01*
X190495881Y-64457500D01*
X190500000Y-64457770D01*
X190504119Y-64457500D01*
X190786667Y-64438981D01*
X190786671Y-64438980D01*
X190790782Y-64438711D01*
X190794822Y-64437907D01*
X190794825Y-64437907D01*
X191072544Y-64382666D01*
X191072550Y-64382664D01*
X191076589Y-64381861D01*
X191080492Y-64380536D01*
X191080496Y-64380535D01*
X191348616Y-64289520D01*
X191352531Y-64288191D01*
X191356227Y-64286368D01*
X191356235Y-64286365D01*
X191610182Y-64161131D01*
X191613885Y-64159305D01*
X191617320Y-64157010D01*
X191852749Y-63999702D01*
X191852754Y-63999698D01*
X191856180Y-63997409D01*
X191859274Y-63994695D01*
X191859280Y-63994691D01*
X192072182Y-63807980D01*
X192075271Y-63805271D01*
X192077980Y-63802182D01*
X192264691Y-63589280D01*
X192264695Y-63589274D01*
X192267409Y-63586180D01*
X192429305Y-63343885D01*
X192452103Y-63297654D01*
X192556365Y-63086235D01*
X192556368Y-63086227D01*
X192558191Y-63082531D01*
X192651861Y-62806589D01*
X192708711Y-62520782D01*
X192727770Y-62230000D01*
X192708711Y-61939218D01*
X192651861Y-61653411D01*
X192558191Y-61377469D01*
X192556368Y-61373773D01*
X192556365Y-61373765D01*
X192431131Y-61119818D01*
X192429305Y-61116115D01*
X192267409Y-60873820D01*
X192264695Y-60870726D01*
X192264691Y-60870720D01*
X192077980Y-60657818D01*
X192075271Y-60654729D01*
X192072182Y-60652020D01*
X191859280Y-60465309D01*
X191859274Y-60465305D01*
X191856180Y-60462591D01*
X191852754Y-60460302D01*
X191852749Y-60460298D01*
X191617320Y-60302990D01*
X191617318Y-60302989D01*
X191613885Y-60300695D01*
X191529302Y-60258983D01*
X191356235Y-60173635D01*
X191356227Y-60173632D01*
X191352531Y-60171809D01*
X191348616Y-60170480D01*
X191080496Y-60079465D01*
X191080492Y-60079464D01*
X191076589Y-60078139D01*
X191072550Y-60077336D01*
X191072544Y-60077334D01*
X190794825Y-60022093D01*
X190794822Y-60022093D01*
X190790782Y-60021289D01*
X190786671Y-60021020D01*
X190786667Y-60021019D01*
X190504119Y-60002500D01*
X190500000Y-60002230D01*
X190495881Y-60002500D01*
X190213333Y-60021019D01*
X190213329Y-60021020D01*
X190209218Y-60021289D01*
X190205178Y-60022093D01*
X190205175Y-60022093D01*
X189927456Y-60077334D01*
X189927450Y-60077336D01*
X189923411Y-60078139D01*
X189919508Y-60079464D01*
X189919504Y-60079465D01*
X189651384Y-60170480D01*
X189647469Y-60171809D01*
X189643773Y-60173632D01*
X189643765Y-60173635D01*
X189470698Y-60258983D01*
X189386115Y-60300695D01*
X189382682Y-60302989D01*
X189382680Y-60302990D01*
X189147251Y-60460298D01*
X189147246Y-60460302D01*
X189143820Y-60462591D01*
X189140726Y-60465305D01*
X189140720Y-60465309D01*
X188927818Y-60652020D01*
X188924729Y-60654729D01*
X188922020Y-60657818D01*
X188735309Y-60870720D01*
X188735305Y-60870726D01*
X188732591Y-60873820D01*
X188570695Y-61116115D01*
X188568869Y-61119818D01*
X188443635Y-61373765D01*
X188443632Y-61373773D01*
X188441809Y-61377469D01*
X188348139Y-61653411D01*
X188291289Y-61939218D01*
X188272230Y-62230000D01*
X167327770Y-62230000D01*
X167308711Y-61939218D01*
X167251861Y-61653411D01*
X167158191Y-61377469D01*
X167156368Y-61373773D01*
X167156365Y-61373765D01*
X167031131Y-61119818D01*
X167029305Y-61116115D01*
X166867409Y-60873820D01*
X166864695Y-60870726D01*
X166864691Y-60870720D01*
X166677980Y-60657818D01*
X166675271Y-60654729D01*
X166672182Y-60652020D01*
X166459280Y-60465309D01*
X166459274Y-60465305D01*
X166456180Y-60462591D01*
X166452754Y-60460302D01*
X166452749Y-60460298D01*
X166217320Y-60302990D01*
X166217318Y-60302989D01*
X166213885Y-60300695D01*
X166129302Y-60258983D01*
X165956235Y-60173635D01*
X165956227Y-60173632D01*
X165952531Y-60171809D01*
X165948616Y-60170480D01*
X165680496Y-60079465D01*
X165680492Y-60079464D01*
X165676589Y-60078139D01*
X165672550Y-60077336D01*
X165672544Y-60077334D01*
X165394825Y-60022093D01*
X165394822Y-60022093D01*
X165390782Y-60021289D01*
X165386671Y-60021020D01*
X165386667Y-60021019D01*
X165104119Y-60002500D01*
X165100000Y-60002230D01*
X165095881Y-60002500D01*
X164813333Y-60021019D01*
X164813329Y-60021020D01*
X164809218Y-60021289D01*
X164805178Y-60022093D01*
X164805175Y-60022093D01*
X164527456Y-60077334D01*
X164527450Y-60077336D01*
X164523411Y-60078139D01*
X164519508Y-60079464D01*
X164519504Y-60079465D01*
X164251384Y-60170480D01*
X164247469Y-60171809D01*
X164243773Y-60173632D01*
X164243765Y-60173635D01*
X164070698Y-60258983D01*
X163986115Y-60300695D01*
X163982682Y-60302989D01*
X163982680Y-60302990D01*
X163747251Y-60460298D01*
X163747246Y-60460302D01*
X163743820Y-60462591D01*
X163740726Y-60465305D01*
X163740720Y-60465309D01*
X163527818Y-60652020D01*
X163524729Y-60654729D01*
X163522020Y-60657818D01*
X163335309Y-60870720D01*
X163335305Y-60870726D01*
X163332591Y-60873820D01*
X163170695Y-61116115D01*
X163168869Y-61119818D01*
X163043635Y-61373765D01*
X163043632Y-61373773D01*
X163041809Y-61377469D01*
X162948139Y-61653411D01*
X162891289Y-61939218D01*
X162872230Y-62230000D01*
X127635000Y-62230000D01*
X127635000Y-58420000D01*
X153819783Y-58420000D01*
X153838631Y-58719574D01*
X153894876Y-59014423D01*
X153987632Y-59299898D01*
X153989319Y-59303484D01*
X153989321Y-59303488D01*
X154113749Y-59567910D01*
X154113753Y-59567917D01*
X154115437Y-59571496D01*
X154276274Y-59824934D01*
X154467607Y-60056216D01*
X154686418Y-60261694D01*
X154689620Y-60264021D01*
X154689622Y-60264022D01*
X154926049Y-60435796D01*
X154926054Y-60435799D01*
X154929258Y-60438127D01*
X154932727Y-60440034D01*
X154932730Y-60440036D01*
X154978702Y-60465309D01*
X155192295Y-60582733D01*
X155344499Y-60642995D01*
X155467699Y-60691773D01*
X155467702Y-60691774D01*
X155471382Y-60693231D01*
X155475221Y-60694217D01*
X155475225Y-60694218D01*
X155610151Y-60728861D01*
X155762118Y-60767880D01*
X155766046Y-60768376D01*
X155766050Y-60768377D01*
X155911018Y-60786690D01*
X156059917Y-60805500D01*
X156360083Y-60805500D01*
X156508982Y-60786690D01*
X156653950Y-60768377D01*
X156653954Y-60768376D01*
X156657882Y-60767880D01*
X156809849Y-60728861D01*
X156944775Y-60694218D01*
X156944779Y-60694217D01*
X156948618Y-60693231D01*
X156952298Y-60691774D01*
X156952301Y-60691773D01*
X157075501Y-60642995D01*
X157227705Y-60582733D01*
X157441299Y-60465309D01*
X157487270Y-60440036D01*
X157487273Y-60440034D01*
X157490742Y-60438127D01*
X157493946Y-60435799D01*
X157493951Y-60435796D01*
X157730378Y-60264022D01*
X157730380Y-60264021D01*
X157733582Y-60261694D01*
X157952393Y-60056216D01*
X158143726Y-59824934D01*
X158304563Y-59571496D01*
X158306247Y-59567917D01*
X158306251Y-59567910D01*
X158430679Y-59303488D01*
X158430681Y-59303484D01*
X158432368Y-59299898D01*
X158525124Y-59014423D01*
X158581369Y-58719574D01*
X158600217Y-58420000D01*
X158581369Y-58120426D01*
X158525124Y-57825577D01*
X158432368Y-57540102D01*
X158430679Y-57536512D01*
X158306251Y-57272090D01*
X158306247Y-57272083D01*
X158304563Y-57268504D01*
X158143726Y-57015066D01*
X157952393Y-56783784D01*
X157733582Y-56578306D01*
X157571430Y-56460496D01*
X157493951Y-56404204D01*
X157493946Y-56404201D01*
X157490742Y-56401873D01*
X157487270Y-56399964D01*
X157231167Y-56259170D01*
X157231164Y-56259168D01*
X157227705Y-56257267D01*
X157075501Y-56197005D01*
X156952301Y-56148227D01*
X156952298Y-56148226D01*
X156948618Y-56146769D01*
X156944779Y-56145783D01*
X156944775Y-56145782D01*
X156809849Y-56111139D01*
X156657882Y-56072120D01*
X156653954Y-56071624D01*
X156653950Y-56071623D01*
X156508983Y-56053310D01*
X156360083Y-56034500D01*
X156059917Y-56034500D01*
X155911017Y-56053310D01*
X155766050Y-56071623D01*
X155766046Y-56071624D01*
X155762118Y-56072120D01*
X155610151Y-56111139D01*
X155475225Y-56145782D01*
X155475221Y-56145783D01*
X155471382Y-56146769D01*
X155467702Y-56148226D01*
X155467699Y-56148227D01*
X155344499Y-56197005D01*
X155192295Y-56257267D01*
X155188836Y-56259168D01*
X155188833Y-56259170D01*
X154932730Y-56399964D01*
X154929258Y-56401873D01*
X154926054Y-56404201D01*
X154926049Y-56404204D01*
X154848570Y-56460496D01*
X154686418Y-56578306D01*
X154467607Y-56783784D01*
X154276274Y-57015066D01*
X154115437Y-57268504D01*
X154113753Y-57272083D01*
X154113749Y-57272090D01*
X153989321Y-57536512D01*
X153987632Y-57540102D01*
X153894876Y-57825577D01*
X153838631Y-58120426D01*
X153819783Y-58420000D01*
X127635000Y-58420000D01*
X127635000Y-54610000D01*
X162872230Y-54610000D01*
X162891289Y-54900782D01*
X162892093Y-54904822D01*
X162892093Y-54904825D01*
X162915752Y-55023765D01*
X162948139Y-55186589D01*
X162949464Y-55190492D01*
X162949465Y-55190496D01*
X162987795Y-55303411D01*
X163041809Y-55462531D01*
X163043632Y-55466227D01*
X163043635Y-55466235D01*
X163147897Y-55677654D01*
X163170695Y-55723885D01*
X163172989Y-55727318D01*
X163172990Y-55727320D01*
X163277760Y-55884119D01*
X163332591Y-55966180D01*
X163335305Y-55969274D01*
X163335309Y-55969280D01*
X163492242Y-56148227D01*
X163524729Y-56185271D01*
X163527818Y-56187980D01*
X163740720Y-56374691D01*
X163740726Y-56374695D01*
X163743820Y-56377409D01*
X163747246Y-56379698D01*
X163747251Y-56379702D01*
X163982680Y-56537010D01*
X163986115Y-56539305D01*
X163989818Y-56541131D01*
X164243765Y-56666365D01*
X164243773Y-56666368D01*
X164247469Y-56668191D01*
X164251384Y-56669520D01*
X164519504Y-56760535D01*
X164519508Y-56760536D01*
X164523411Y-56761861D01*
X164527450Y-56762664D01*
X164527456Y-56762666D01*
X164805175Y-56817907D01*
X164805178Y-56817907D01*
X164809218Y-56818711D01*
X164813329Y-56818980D01*
X164813333Y-56818981D01*
X165095881Y-56837500D01*
X165100000Y-56837770D01*
X165104119Y-56837500D01*
X165386667Y-56818981D01*
X165386671Y-56818980D01*
X165390782Y-56818711D01*
X165394822Y-56817907D01*
X165394825Y-56817907D01*
X165672544Y-56762666D01*
X165672550Y-56762664D01*
X165676589Y-56761861D01*
X165680492Y-56760536D01*
X165680496Y-56760535D01*
X165948616Y-56669520D01*
X165952531Y-56668191D01*
X165956227Y-56666368D01*
X165956235Y-56666365D01*
X166210182Y-56541131D01*
X166213885Y-56539305D01*
X166217320Y-56537010D01*
X166452749Y-56379702D01*
X166452754Y-56379698D01*
X166456180Y-56377409D01*
X166459274Y-56374695D01*
X166459280Y-56374691D01*
X166672182Y-56187980D01*
X166675271Y-56185271D01*
X166707758Y-56148227D01*
X166864691Y-55969280D01*
X166864695Y-55969274D01*
X166867409Y-55966180D01*
X166922241Y-55884119D01*
X167027010Y-55727320D01*
X167027011Y-55727318D01*
X167029305Y-55723885D01*
X167052103Y-55677654D01*
X167156365Y-55466235D01*
X167156368Y-55466227D01*
X167158191Y-55462531D01*
X167212205Y-55303411D01*
X167250535Y-55190496D01*
X167250536Y-55190492D01*
X167251861Y-55186589D01*
X167284249Y-55023765D01*
X167307907Y-54904825D01*
X167307907Y-54904822D01*
X167308711Y-54900782D01*
X167327770Y-54610000D01*
X188272230Y-54610000D01*
X188291289Y-54900782D01*
X188292093Y-54904822D01*
X188292093Y-54904825D01*
X188315752Y-55023765D01*
X188348139Y-55186589D01*
X188349464Y-55190492D01*
X188349465Y-55190496D01*
X188387795Y-55303411D01*
X188441809Y-55462531D01*
X188443632Y-55466227D01*
X188443635Y-55466235D01*
X188547897Y-55677654D01*
X188570695Y-55723885D01*
X188572989Y-55727318D01*
X188572990Y-55727320D01*
X188677760Y-55884119D01*
X188732591Y-55966180D01*
X188735305Y-55969274D01*
X188735309Y-55969280D01*
X188892242Y-56148227D01*
X188924729Y-56185271D01*
X188927818Y-56187980D01*
X189140720Y-56374691D01*
X189140726Y-56374695D01*
X189143820Y-56377409D01*
X189147246Y-56379698D01*
X189147251Y-56379702D01*
X189382680Y-56537010D01*
X189386115Y-56539305D01*
X189389818Y-56541131D01*
X189643765Y-56666365D01*
X189643773Y-56666368D01*
X189647469Y-56668191D01*
X189651384Y-56669520D01*
X189919504Y-56760535D01*
X189919508Y-56760536D01*
X189923411Y-56761861D01*
X189927450Y-56762664D01*
X189927456Y-56762666D01*
X190205175Y-56817907D01*
X190205178Y-56817907D01*
X190209218Y-56818711D01*
X190213329Y-56818980D01*
X190213333Y-56818981D01*
X190495881Y-56837500D01*
X190500000Y-56837770D01*
X190504119Y-56837500D01*
X190786667Y-56818981D01*
X190786671Y-56818980D01*
X190790782Y-56818711D01*
X190794822Y-56817907D01*
X190794825Y-56817907D01*
X191072544Y-56762666D01*
X191072550Y-56762664D01*
X191076589Y-56761861D01*
X191080492Y-56760536D01*
X191080496Y-56760535D01*
X191348616Y-56669520D01*
X191352531Y-56668191D01*
X191356227Y-56666368D01*
X191356235Y-56666365D01*
X191610182Y-56541131D01*
X191613885Y-56539305D01*
X191617320Y-56537010D01*
X191852749Y-56379702D01*
X191852754Y-56379698D01*
X191856180Y-56377409D01*
X191859274Y-56374695D01*
X191859280Y-56374691D01*
X192072182Y-56187980D01*
X192075271Y-56185271D01*
X192107758Y-56148227D01*
X192264691Y-55969280D01*
X192264695Y-55969274D01*
X192267409Y-55966180D01*
X192322241Y-55884119D01*
X192324993Y-55880000D01*
X193352230Y-55880000D01*
X193352500Y-55884119D01*
X193369811Y-56148227D01*
X193371289Y-56170782D01*
X193372093Y-56174822D01*
X193372093Y-56174825D01*
X193416876Y-56399964D01*
X193428139Y-56456589D01*
X193429464Y-56460492D01*
X193429465Y-56460496D01*
X193520480Y-56728616D01*
X193521809Y-56732531D01*
X193523632Y-56736227D01*
X193523635Y-56736235D01*
X193573574Y-56837500D01*
X193650695Y-56993885D01*
X193652989Y-56997318D01*
X193652990Y-56997320D01*
X193664848Y-57015066D01*
X193812591Y-57236180D01*
X193815305Y-57239274D01*
X193815309Y-57239280D01*
X193838003Y-57265157D01*
X194004729Y-57455271D01*
X194007818Y-57457980D01*
X194220720Y-57644691D01*
X194220726Y-57644695D01*
X194223820Y-57647409D01*
X194227246Y-57649698D01*
X194227251Y-57649702D01*
X194462680Y-57807010D01*
X194466115Y-57809305D01*
X194469818Y-57811131D01*
X194723765Y-57936365D01*
X194723773Y-57936368D01*
X194727469Y-57938191D01*
X194731384Y-57939520D01*
X194999504Y-58030535D01*
X194999508Y-58030536D01*
X195003411Y-58031861D01*
X195007450Y-58032664D01*
X195007456Y-58032666D01*
X195285175Y-58087907D01*
X195285178Y-58087907D01*
X195289218Y-58088711D01*
X195293329Y-58088980D01*
X195293333Y-58088981D01*
X195575881Y-58107500D01*
X195580000Y-58107770D01*
X195584119Y-58107500D01*
X195866667Y-58088981D01*
X195866671Y-58088980D01*
X195870782Y-58088711D01*
X195874822Y-58087907D01*
X195874825Y-58087907D01*
X196152544Y-58032666D01*
X196152550Y-58032664D01*
X196156589Y-58031861D01*
X196160492Y-58030536D01*
X196160496Y-58030535D01*
X196428616Y-57939520D01*
X196432531Y-57938191D01*
X196436227Y-57936368D01*
X196436235Y-57936365D01*
X196690182Y-57811131D01*
X196693885Y-57809305D01*
X196697320Y-57807010D01*
X196932749Y-57649702D01*
X196932754Y-57649698D01*
X196936180Y-57647409D01*
X196939274Y-57644695D01*
X196939280Y-57644691D01*
X197152182Y-57457980D01*
X197155271Y-57455271D01*
X197321997Y-57265157D01*
X197344691Y-57239280D01*
X197344695Y-57239274D01*
X197347409Y-57236180D01*
X197495153Y-57015066D01*
X197507010Y-56997320D01*
X197507011Y-56997318D01*
X197509305Y-56993885D01*
X197586426Y-56837500D01*
X197636365Y-56736235D01*
X197636368Y-56736227D01*
X197638191Y-56732531D01*
X197639520Y-56728616D01*
X197730535Y-56460496D01*
X197730536Y-56460492D01*
X197731861Y-56456589D01*
X197743125Y-56399964D01*
X197787907Y-56174825D01*
X197787907Y-56174822D01*
X197788711Y-56170782D01*
X197790190Y-56148227D01*
X197807500Y-55884119D01*
X197807770Y-55880000D01*
X206052230Y-55880000D01*
X206052500Y-55884119D01*
X206069811Y-56148227D01*
X206071289Y-56170782D01*
X206072093Y-56174822D01*
X206072093Y-56174825D01*
X206116876Y-56399964D01*
X206128139Y-56456589D01*
X206129464Y-56460492D01*
X206129465Y-56460496D01*
X206220480Y-56728616D01*
X206221809Y-56732531D01*
X206223632Y-56736227D01*
X206223635Y-56736235D01*
X206273574Y-56837500D01*
X206350695Y-56993885D01*
X206352989Y-56997318D01*
X206352990Y-56997320D01*
X206364848Y-57015066D01*
X206512591Y-57236180D01*
X206515305Y-57239274D01*
X206515309Y-57239280D01*
X206538003Y-57265157D01*
X206704729Y-57455271D01*
X206707818Y-57457980D01*
X206920720Y-57644691D01*
X206920726Y-57644695D01*
X206923820Y-57647409D01*
X206927246Y-57649698D01*
X206927251Y-57649702D01*
X207162680Y-57807010D01*
X207166115Y-57809305D01*
X207169818Y-57811131D01*
X207423765Y-57936365D01*
X207423773Y-57936368D01*
X207427469Y-57938191D01*
X207431384Y-57939520D01*
X207699504Y-58030535D01*
X207699508Y-58030536D01*
X207703411Y-58031861D01*
X207707450Y-58032664D01*
X207707456Y-58032666D01*
X207985175Y-58087907D01*
X207985178Y-58087907D01*
X207989218Y-58088711D01*
X207993329Y-58088980D01*
X207993333Y-58088981D01*
X208275881Y-58107500D01*
X208280000Y-58107770D01*
X208284119Y-58107500D01*
X208566667Y-58088981D01*
X208566671Y-58088980D01*
X208570782Y-58088711D01*
X208574822Y-58087907D01*
X208574825Y-58087907D01*
X208852544Y-58032666D01*
X208852550Y-58032664D01*
X208856589Y-58031861D01*
X208860492Y-58030536D01*
X208860496Y-58030535D01*
X209128616Y-57939520D01*
X209132531Y-57938191D01*
X209136227Y-57936368D01*
X209136235Y-57936365D01*
X209390182Y-57811131D01*
X209393885Y-57809305D01*
X209397320Y-57807010D01*
X209632749Y-57649702D01*
X209632754Y-57649698D01*
X209636180Y-57647409D01*
X209639274Y-57644695D01*
X209639280Y-57644691D01*
X209852182Y-57457980D01*
X209855271Y-57455271D01*
X210021997Y-57265157D01*
X210044691Y-57239280D01*
X210044695Y-57239274D01*
X210047409Y-57236180D01*
X210195153Y-57015066D01*
X210207010Y-56997320D01*
X210207011Y-56997318D01*
X210209305Y-56993885D01*
X210286426Y-56837500D01*
X210336365Y-56736235D01*
X210336368Y-56736227D01*
X210338191Y-56732531D01*
X210339520Y-56728616D01*
X210430535Y-56460496D01*
X210430536Y-56460492D01*
X210431861Y-56456589D01*
X210443125Y-56399964D01*
X210487907Y-56174825D01*
X210487907Y-56174822D01*
X210488711Y-56170782D01*
X210490190Y-56148227D01*
X210507500Y-55884119D01*
X210507770Y-55880000D01*
X210488711Y-55589218D01*
X210487907Y-55585175D01*
X210432666Y-55307456D01*
X210432664Y-55307450D01*
X210431861Y-55303411D01*
X210393532Y-55190496D01*
X210339520Y-55031384D01*
X210338191Y-55027469D01*
X210336368Y-55023773D01*
X210336365Y-55023765D01*
X210211131Y-54769818D01*
X210209305Y-54766115D01*
X210104993Y-54610000D01*
X210049702Y-54527251D01*
X210049698Y-54527246D01*
X210047409Y-54523820D01*
X210044695Y-54520726D01*
X210044691Y-54520720D01*
X209857980Y-54307818D01*
X209855271Y-54304729D01*
X209852182Y-54302020D01*
X209639280Y-54115309D01*
X209639274Y-54115305D01*
X209636180Y-54112591D01*
X209632754Y-54110302D01*
X209632749Y-54110298D01*
X209397320Y-53952990D01*
X209397318Y-53952989D01*
X209393885Y-53950695D01*
X209347654Y-53927897D01*
X209136235Y-53823635D01*
X209136227Y-53823632D01*
X209132531Y-53821809D01*
X209128616Y-53820480D01*
X208860496Y-53729465D01*
X208860492Y-53729464D01*
X208856589Y-53728139D01*
X208852550Y-53727336D01*
X208852544Y-53727334D01*
X208574825Y-53672093D01*
X208574822Y-53672093D01*
X208570782Y-53671289D01*
X208566671Y-53671020D01*
X208566667Y-53671019D01*
X208284119Y-53652500D01*
X208280000Y-53652230D01*
X208275881Y-53652500D01*
X207993333Y-53671019D01*
X207993329Y-53671020D01*
X207989218Y-53671289D01*
X207985178Y-53672093D01*
X207985175Y-53672093D01*
X207707456Y-53727334D01*
X207707450Y-53727336D01*
X207703411Y-53728139D01*
X207699508Y-53729464D01*
X207699504Y-53729465D01*
X207431384Y-53820480D01*
X207427469Y-53821809D01*
X207423773Y-53823632D01*
X207423765Y-53823635D01*
X207212346Y-53927897D01*
X207166115Y-53950695D01*
X207162682Y-53952989D01*
X207162680Y-53952990D01*
X206927251Y-54110298D01*
X206927246Y-54110302D01*
X206923820Y-54112591D01*
X206920726Y-54115305D01*
X206920720Y-54115309D01*
X206707818Y-54302020D01*
X206704729Y-54304729D01*
X206702020Y-54307818D01*
X206515309Y-54520720D01*
X206515305Y-54520726D01*
X206512591Y-54523820D01*
X206510302Y-54527246D01*
X206510298Y-54527251D01*
X206455007Y-54610000D01*
X206350695Y-54766115D01*
X206348869Y-54769818D01*
X206223635Y-55023765D01*
X206223632Y-55023773D01*
X206221809Y-55027469D01*
X206220480Y-55031384D01*
X206166469Y-55190496D01*
X206128139Y-55303411D01*
X206127336Y-55307450D01*
X206127334Y-55307456D01*
X206072093Y-55585175D01*
X206071289Y-55589218D01*
X206052230Y-55880000D01*
X197807770Y-55880000D01*
X197788711Y-55589218D01*
X197787907Y-55585175D01*
X197732666Y-55307456D01*
X197732664Y-55307450D01*
X197731861Y-55303411D01*
X197693532Y-55190496D01*
X197639520Y-55031384D01*
X197638191Y-55027469D01*
X197636368Y-55023773D01*
X197636365Y-55023765D01*
X197511131Y-54769818D01*
X197509305Y-54766115D01*
X197404993Y-54610000D01*
X197349702Y-54527251D01*
X197349698Y-54527246D01*
X197347409Y-54523820D01*
X197344695Y-54520726D01*
X197344691Y-54520720D01*
X197157980Y-54307818D01*
X197155271Y-54304729D01*
X197152182Y-54302020D01*
X196939280Y-54115309D01*
X196939274Y-54115305D01*
X196936180Y-54112591D01*
X196932754Y-54110302D01*
X196932749Y-54110298D01*
X196697320Y-53952990D01*
X196697318Y-53952989D01*
X196693885Y-53950695D01*
X196647654Y-53927897D01*
X196436235Y-53823635D01*
X196436227Y-53823632D01*
X196432531Y-53821809D01*
X196428616Y-53820480D01*
X196160496Y-53729465D01*
X196160492Y-53729464D01*
X196156589Y-53728139D01*
X196152550Y-53727336D01*
X196152544Y-53727334D01*
X195874825Y-53672093D01*
X195874822Y-53672093D01*
X195870782Y-53671289D01*
X195866671Y-53671020D01*
X195866667Y-53671019D01*
X195584119Y-53652500D01*
X195580000Y-53652230D01*
X195575881Y-53652500D01*
X195293333Y-53671019D01*
X195293329Y-53671020D01*
X195289218Y-53671289D01*
X195285178Y-53672093D01*
X195285175Y-53672093D01*
X195007456Y-53727334D01*
X195007450Y-53727336D01*
X195003411Y-53728139D01*
X194999508Y-53729464D01*
X194999504Y-53729465D01*
X194731384Y-53820480D01*
X194727469Y-53821809D01*
X194723773Y-53823632D01*
X194723765Y-53823635D01*
X194512346Y-53927897D01*
X194466115Y-53950695D01*
X194462682Y-53952989D01*
X194462680Y-53952990D01*
X194227251Y-54110298D01*
X194227246Y-54110302D01*
X194223820Y-54112591D01*
X194220726Y-54115305D01*
X194220720Y-54115309D01*
X194007818Y-54302020D01*
X194004729Y-54304729D01*
X194002020Y-54307818D01*
X193815309Y-54520720D01*
X193815305Y-54520726D01*
X193812591Y-54523820D01*
X193810302Y-54527246D01*
X193810298Y-54527251D01*
X193755007Y-54610000D01*
X193650695Y-54766115D01*
X193648869Y-54769818D01*
X193523635Y-55023765D01*
X193523632Y-55023773D01*
X193521809Y-55027469D01*
X193520480Y-55031384D01*
X193466469Y-55190496D01*
X193428139Y-55303411D01*
X193427336Y-55307450D01*
X193427334Y-55307456D01*
X193372093Y-55585175D01*
X193371289Y-55589218D01*
X193352230Y-55880000D01*
X192324993Y-55880000D01*
X192427010Y-55727320D01*
X192427011Y-55727318D01*
X192429305Y-55723885D01*
X192452103Y-55677654D01*
X192556365Y-55466235D01*
X192556368Y-55466227D01*
X192558191Y-55462531D01*
X192612205Y-55303411D01*
X192650535Y-55190496D01*
X192650536Y-55190492D01*
X192651861Y-55186589D01*
X192684249Y-55023765D01*
X192707907Y-54904825D01*
X192707907Y-54904822D01*
X192708711Y-54900782D01*
X192727770Y-54610000D01*
X192708711Y-54319218D01*
X192707907Y-54315175D01*
X192652666Y-54037456D01*
X192652664Y-54037450D01*
X192651861Y-54033411D01*
X192579581Y-53820480D01*
X192559520Y-53761384D01*
X192558191Y-53757469D01*
X192556368Y-53753773D01*
X192556365Y-53753765D01*
X192431131Y-53499818D01*
X192429305Y-53496115D01*
X192267409Y-53253820D01*
X192264695Y-53250726D01*
X192264691Y-53250720D01*
X192077980Y-53037818D01*
X192075271Y-53034729D01*
X192045603Y-53008711D01*
X191859280Y-52845309D01*
X191859274Y-52845305D01*
X191856180Y-52842591D01*
X191852754Y-52840302D01*
X191852749Y-52840298D01*
X191617320Y-52682990D01*
X191617318Y-52682989D01*
X191613885Y-52680695D01*
X191567654Y-52657897D01*
X191356235Y-52553635D01*
X191356227Y-52553632D01*
X191352531Y-52551809D01*
X191348616Y-52550480D01*
X191080496Y-52459465D01*
X191080492Y-52459464D01*
X191076589Y-52458139D01*
X191072550Y-52457336D01*
X191072544Y-52457334D01*
X190794825Y-52402093D01*
X190794822Y-52402093D01*
X190790782Y-52401289D01*
X190786671Y-52401020D01*
X190786667Y-52401019D01*
X190504119Y-52382500D01*
X190500000Y-52382230D01*
X190495881Y-52382500D01*
X190213333Y-52401019D01*
X190213329Y-52401020D01*
X190209218Y-52401289D01*
X190205178Y-52402093D01*
X190205175Y-52402093D01*
X189927456Y-52457334D01*
X189927450Y-52457336D01*
X189923411Y-52458139D01*
X189919508Y-52459464D01*
X189919504Y-52459465D01*
X189651384Y-52550480D01*
X189647469Y-52551809D01*
X189643773Y-52553632D01*
X189643765Y-52553635D01*
X189432346Y-52657897D01*
X189386115Y-52680695D01*
X189382682Y-52682989D01*
X189382680Y-52682990D01*
X189147251Y-52840298D01*
X189147246Y-52840302D01*
X189143820Y-52842591D01*
X189140726Y-52845305D01*
X189140720Y-52845309D01*
X188954397Y-53008711D01*
X188924729Y-53034729D01*
X188922020Y-53037818D01*
X188735309Y-53250720D01*
X188735305Y-53250726D01*
X188732591Y-53253820D01*
X188570695Y-53496115D01*
X188568869Y-53499818D01*
X188443635Y-53753765D01*
X188443632Y-53753773D01*
X188441809Y-53757469D01*
X188440480Y-53761384D01*
X188420420Y-53820480D01*
X188348139Y-54033411D01*
X188347336Y-54037450D01*
X188347334Y-54037456D01*
X188292093Y-54315175D01*
X188291289Y-54319218D01*
X188272230Y-54610000D01*
X167327770Y-54610000D01*
X167308711Y-54319218D01*
X167307907Y-54315175D01*
X167252666Y-54037456D01*
X167252664Y-54037450D01*
X167251861Y-54033411D01*
X167179581Y-53820480D01*
X167159520Y-53761384D01*
X167158191Y-53757469D01*
X167156368Y-53753773D01*
X167156365Y-53753765D01*
X167031131Y-53499818D01*
X167029305Y-53496115D01*
X166867409Y-53253820D01*
X166864695Y-53250726D01*
X166864691Y-53250720D01*
X166677980Y-53037818D01*
X166675271Y-53034729D01*
X166645603Y-53008711D01*
X166459280Y-52845309D01*
X166459274Y-52845305D01*
X166456180Y-52842591D01*
X166452754Y-52840302D01*
X166452749Y-52840298D01*
X166217320Y-52682990D01*
X166217318Y-52682989D01*
X166213885Y-52680695D01*
X166167654Y-52657897D01*
X165956235Y-52553635D01*
X165956227Y-52553632D01*
X165952531Y-52551809D01*
X165948616Y-52550480D01*
X165680496Y-52459465D01*
X165680492Y-52459464D01*
X165676589Y-52458139D01*
X165672550Y-52457336D01*
X165672544Y-52457334D01*
X165394825Y-52402093D01*
X165394822Y-52402093D01*
X165390782Y-52401289D01*
X165386671Y-52401020D01*
X165386667Y-52401019D01*
X165104119Y-52382500D01*
X165100000Y-52382230D01*
X165095881Y-52382500D01*
X164813333Y-52401019D01*
X164813329Y-52401020D01*
X164809218Y-52401289D01*
X164805178Y-52402093D01*
X164805175Y-52402093D01*
X164527456Y-52457334D01*
X164527450Y-52457336D01*
X164523411Y-52458139D01*
X164519508Y-52459464D01*
X164519504Y-52459465D01*
X164251384Y-52550480D01*
X164247469Y-52551809D01*
X164243773Y-52553632D01*
X164243765Y-52553635D01*
X164032346Y-52657897D01*
X163986115Y-52680695D01*
X163982682Y-52682989D01*
X163982680Y-52682990D01*
X163747251Y-52840298D01*
X163747246Y-52840302D01*
X163743820Y-52842591D01*
X163740726Y-52845305D01*
X163740720Y-52845309D01*
X163554397Y-53008711D01*
X163524729Y-53034729D01*
X163522020Y-53037818D01*
X163335309Y-53250720D01*
X163335305Y-53250726D01*
X163332591Y-53253820D01*
X163170695Y-53496115D01*
X163168869Y-53499818D01*
X163043635Y-53753765D01*
X163043632Y-53753773D01*
X163041809Y-53757469D01*
X163040480Y-53761384D01*
X163020420Y-53820480D01*
X162948139Y-54033411D01*
X162947336Y-54037450D01*
X162947334Y-54037456D01*
X162892093Y-54315175D01*
X162891289Y-54319218D01*
X162872230Y-54610000D01*
X127635000Y-54610000D01*
X127635000Y-50800000D01*
X193352230Y-50800000D01*
X193371289Y-51090782D01*
X193428139Y-51376589D01*
X193521809Y-51652531D01*
X193523632Y-51656227D01*
X193523635Y-51656235D01*
X193627897Y-51867654D01*
X193650695Y-51913885D01*
X193812591Y-52156180D01*
X193815305Y-52159274D01*
X193815309Y-52159280D01*
X194002020Y-52372182D01*
X194004729Y-52375271D01*
X194007818Y-52377980D01*
X194220720Y-52564691D01*
X194220726Y-52564695D01*
X194223820Y-52567409D01*
X194227246Y-52569698D01*
X194227251Y-52569702D01*
X194462680Y-52727010D01*
X194466115Y-52729305D01*
X194469818Y-52731131D01*
X194723765Y-52856365D01*
X194723773Y-52856368D01*
X194727469Y-52858191D01*
X194731384Y-52859520D01*
X194999504Y-52950535D01*
X194999508Y-52950536D01*
X195003411Y-52951861D01*
X195007450Y-52952664D01*
X195007456Y-52952666D01*
X195285175Y-53007907D01*
X195285178Y-53007907D01*
X195289218Y-53008711D01*
X195293329Y-53008980D01*
X195293333Y-53008981D01*
X195575881Y-53027500D01*
X195580000Y-53027770D01*
X195584119Y-53027500D01*
X195866667Y-53008981D01*
X195866671Y-53008980D01*
X195870782Y-53008711D01*
X195874822Y-53007907D01*
X195874825Y-53007907D01*
X196152544Y-52952666D01*
X196152550Y-52952664D01*
X196156589Y-52951861D01*
X196160492Y-52950536D01*
X196160496Y-52950535D01*
X196428616Y-52859520D01*
X196432531Y-52858191D01*
X196436227Y-52856368D01*
X196436235Y-52856365D01*
X196690182Y-52731131D01*
X196693885Y-52729305D01*
X196697320Y-52727010D01*
X196932749Y-52569702D01*
X196932754Y-52569698D01*
X196936180Y-52567409D01*
X196939274Y-52564695D01*
X196939280Y-52564691D01*
X197152182Y-52377980D01*
X197155271Y-52375271D01*
X197157980Y-52372182D01*
X197344691Y-52159280D01*
X197344695Y-52159274D01*
X197347409Y-52156180D01*
X197509305Y-51913885D01*
X197532103Y-51867654D01*
X197636365Y-51656235D01*
X197636368Y-51656227D01*
X197638191Y-51652531D01*
X197731861Y-51376589D01*
X197788711Y-51090782D01*
X197807770Y-50800000D01*
X206052230Y-50800000D01*
X206071289Y-51090782D01*
X206128139Y-51376589D01*
X206221809Y-51652531D01*
X206223632Y-51656227D01*
X206223635Y-51656235D01*
X206327897Y-51867654D01*
X206350695Y-51913885D01*
X206512591Y-52156180D01*
X206515305Y-52159274D01*
X206515309Y-52159280D01*
X206702020Y-52372182D01*
X206704729Y-52375271D01*
X206707818Y-52377980D01*
X206920720Y-52564691D01*
X206920726Y-52564695D01*
X206923820Y-52567409D01*
X206927246Y-52569698D01*
X206927251Y-52569702D01*
X207162680Y-52727010D01*
X207166115Y-52729305D01*
X207169818Y-52731131D01*
X207423765Y-52856365D01*
X207423773Y-52856368D01*
X207427469Y-52858191D01*
X207431384Y-52859520D01*
X207699504Y-52950535D01*
X207699508Y-52950536D01*
X207703411Y-52951861D01*
X207707450Y-52952664D01*
X207707456Y-52952666D01*
X207985175Y-53007907D01*
X207985178Y-53007907D01*
X207989218Y-53008711D01*
X207993329Y-53008980D01*
X207993333Y-53008981D01*
X208275881Y-53027500D01*
X208280000Y-53027770D01*
X208284119Y-53027500D01*
X208566667Y-53008981D01*
X208566671Y-53008980D01*
X208570782Y-53008711D01*
X208574822Y-53007907D01*
X208574825Y-53007907D01*
X208852544Y-52952666D01*
X208852550Y-52952664D01*
X208856589Y-52951861D01*
X208860492Y-52950536D01*
X208860496Y-52950535D01*
X209128616Y-52859520D01*
X209132531Y-52858191D01*
X209136227Y-52856368D01*
X209136235Y-52856365D01*
X209390182Y-52731131D01*
X209393885Y-52729305D01*
X209397320Y-52727010D01*
X209632749Y-52569702D01*
X209632754Y-52569698D01*
X209636180Y-52567409D01*
X209639274Y-52564695D01*
X209639280Y-52564691D01*
X209852182Y-52377980D01*
X209855271Y-52375271D01*
X209857980Y-52372182D01*
X210044691Y-52159280D01*
X210044695Y-52159274D01*
X210047409Y-52156180D01*
X210209305Y-51913885D01*
X210232103Y-51867654D01*
X210336365Y-51656235D01*
X210336368Y-51656227D01*
X210338191Y-51652531D01*
X210431861Y-51376589D01*
X210488711Y-51090782D01*
X210507770Y-50800000D01*
X210488711Y-50509218D01*
X210431861Y-50223411D01*
X210338191Y-49947469D01*
X210336368Y-49943773D01*
X210336365Y-49943765D01*
X210211131Y-49689818D01*
X210209305Y-49686115D01*
X210047409Y-49443820D01*
X210044695Y-49440726D01*
X210044691Y-49440720D01*
X209857980Y-49227818D01*
X209855271Y-49224729D01*
X209852182Y-49222020D01*
X209639280Y-49035309D01*
X209639274Y-49035305D01*
X209636180Y-49032591D01*
X209632754Y-49030302D01*
X209632749Y-49030298D01*
X209397320Y-48872990D01*
X209397318Y-48872989D01*
X209393885Y-48870695D01*
X209347654Y-48847897D01*
X209136235Y-48743635D01*
X209136227Y-48743632D01*
X209132531Y-48741809D01*
X209128616Y-48740480D01*
X208860496Y-48649465D01*
X208860492Y-48649464D01*
X208856589Y-48648139D01*
X208852550Y-48647336D01*
X208852544Y-48647334D01*
X208574825Y-48592093D01*
X208574822Y-48592093D01*
X208570782Y-48591289D01*
X208566671Y-48591020D01*
X208566667Y-48591019D01*
X208284119Y-48572500D01*
X208280000Y-48572230D01*
X208275881Y-48572500D01*
X207993333Y-48591019D01*
X207993329Y-48591020D01*
X207989218Y-48591289D01*
X207985178Y-48592093D01*
X207985175Y-48592093D01*
X207707456Y-48647334D01*
X207707450Y-48647336D01*
X207703411Y-48648139D01*
X207699508Y-48649464D01*
X207699504Y-48649465D01*
X207431384Y-48740480D01*
X207427469Y-48741809D01*
X207423773Y-48743632D01*
X207423765Y-48743635D01*
X207212346Y-48847897D01*
X207166115Y-48870695D01*
X207162682Y-48872989D01*
X207162680Y-48872990D01*
X206927251Y-49030298D01*
X206927246Y-49030302D01*
X206923820Y-49032591D01*
X206920726Y-49035305D01*
X206920720Y-49035309D01*
X206707818Y-49222020D01*
X206704729Y-49224729D01*
X206702020Y-49227818D01*
X206515309Y-49440720D01*
X206515305Y-49440726D01*
X206512591Y-49443820D01*
X206350695Y-49686115D01*
X206348869Y-49689818D01*
X206223635Y-49943765D01*
X206223632Y-49943773D01*
X206221809Y-49947469D01*
X206128139Y-50223411D01*
X206071289Y-50509218D01*
X206052230Y-50800000D01*
X197807770Y-50800000D01*
X197788711Y-50509218D01*
X197731861Y-50223411D01*
X197638191Y-49947469D01*
X197636368Y-49943773D01*
X197636365Y-49943765D01*
X197511131Y-49689818D01*
X197509305Y-49686115D01*
X197347409Y-49443820D01*
X197344695Y-49440726D01*
X197344691Y-49440720D01*
X197157980Y-49227818D01*
X197155271Y-49224729D01*
X197152182Y-49222020D01*
X196939280Y-49035309D01*
X196939274Y-49035305D01*
X196936180Y-49032591D01*
X196932754Y-49030302D01*
X196932749Y-49030298D01*
X196697320Y-48872990D01*
X196697318Y-48872989D01*
X196693885Y-48870695D01*
X196647654Y-48847897D01*
X196436235Y-48743635D01*
X196436227Y-48743632D01*
X196432531Y-48741809D01*
X196428616Y-48740480D01*
X196160496Y-48649465D01*
X196160492Y-48649464D01*
X196156589Y-48648139D01*
X196152550Y-48647336D01*
X196152544Y-48647334D01*
X195874825Y-48592093D01*
X195874822Y-48592093D01*
X195870782Y-48591289D01*
X195866671Y-48591020D01*
X195866667Y-48591019D01*
X195584119Y-48572500D01*
X195580000Y-48572230D01*
X195575881Y-48572500D01*
X195293333Y-48591019D01*
X195293329Y-48591020D01*
X195289218Y-48591289D01*
X195285178Y-48592093D01*
X195285175Y-48592093D01*
X195007456Y-48647334D01*
X195007450Y-48647336D01*
X195003411Y-48648139D01*
X194999508Y-48649464D01*
X194999504Y-48649465D01*
X194731384Y-48740480D01*
X194727469Y-48741809D01*
X194723773Y-48743632D01*
X194723765Y-48743635D01*
X194512346Y-48847897D01*
X194466115Y-48870695D01*
X194462682Y-48872989D01*
X194462680Y-48872990D01*
X194227251Y-49030298D01*
X194227246Y-49030302D01*
X194223820Y-49032591D01*
X194220726Y-49035305D01*
X194220720Y-49035309D01*
X194007818Y-49222020D01*
X194004729Y-49224729D01*
X194002020Y-49227818D01*
X193815309Y-49440720D01*
X193815305Y-49440726D01*
X193812591Y-49443820D01*
X193650695Y-49686115D01*
X193648869Y-49689818D01*
X193523635Y-49943765D01*
X193523632Y-49943773D01*
X193521809Y-49947469D01*
X193428139Y-50223411D01*
X193371289Y-50509218D01*
X193352230Y-50800000D01*
X127635000Y-50800000D01*
X127635000Y-45720000D01*
X193352230Y-45720000D01*
X193371289Y-46010782D01*
X193428139Y-46296589D01*
X193521809Y-46572531D01*
X193523632Y-46576227D01*
X193523635Y-46576235D01*
X193627897Y-46787654D01*
X193650695Y-46833885D01*
X193812591Y-47076180D01*
X193815305Y-47079274D01*
X193815309Y-47079280D01*
X194002020Y-47292182D01*
X194004729Y-47295271D01*
X194007818Y-47297980D01*
X194220720Y-47484691D01*
X194220726Y-47484695D01*
X194223820Y-47487409D01*
X194227246Y-47489698D01*
X194227251Y-47489702D01*
X194462680Y-47647010D01*
X194466115Y-47649305D01*
X194469818Y-47651131D01*
X194723765Y-47776365D01*
X194723773Y-47776368D01*
X194727469Y-47778191D01*
X194731384Y-47779520D01*
X194999504Y-47870535D01*
X194999508Y-47870536D01*
X195003411Y-47871861D01*
X195007450Y-47872664D01*
X195007456Y-47872666D01*
X195285175Y-47927907D01*
X195285178Y-47927907D01*
X195289218Y-47928711D01*
X195293329Y-47928980D01*
X195293333Y-47928981D01*
X195575881Y-47947500D01*
X195580000Y-47947770D01*
X195584119Y-47947500D01*
X195866667Y-47928981D01*
X195866671Y-47928980D01*
X195870782Y-47928711D01*
X195874822Y-47927907D01*
X195874825Y-47927907D01*
X196152544Y-47872666D01*
X196152550Y-47872664D01*
X196156589Y-47871861D01*
X196160492Y-47870536D01*
X196160496Y-47870535D01*
X196428616Y-47779520D01*
X196432531Y-47778191D01*
X196436227Y-47776368D01*
X196436235Y-47776365D01*
X196690182Y-47651131D01*
X196693885Y-47649305D01*
X196697320Y-47647010D01*
X196932749Y-47489702D01*
X196932754Y-47489698D01*
X196936180Y-47487409D01*
X196939274Y-47484695D01*
X196939280Y-47484691D01*
X197152182Y-47297980D01*
X197155271Y-47295271D01*
X197157980Y-47292182D01*
X197344691Y-47079280D01*
X197344695Y-47079274D01*
X197347409Y-47076180D01*
X197509305Y-46833885D01*
X197532103Y-46787654D01*
X197636365Y-46576235D01*
X197636368Y-46576227D01*
X197638191Y-46572531D01*
X197731861Y-46296589D01*
X197788711Y-46010782D01*
X197807770Y-45720000D01*
X206052230Y-45720000D01*
X206071289Y-46010782D01*
X206128139Y-46296589D01*
X206221809Y-46572531D01*
X206223632Y-46576227D01*
X206223635Y-46576235D01*
X206327897Y-46787654D01*
X206350695Y-46833885D01*
X206512591Y-47076180D01*
X206515305Y-47079274D01*
X206515309Y-47079280D01*
X206702020Y-47292182D01*
X206704729Y-47295271D01*
X206707818Y-47297980D01*
X206920720Y-47484691D01*
X206920726Y-47484695D01*
X206923820Y-47487409D01*
X206927246Y-47489698D01*
X206927251Y-47489702D01*
X207162680Y-47647010D01*
X207166115Y-47649305D01*
X207169818Y-47651131D01*
X207423765Y-47776365D01*
X207423773Y-47776368D01*
X207427469Y-47778191D01*
X207431384Y-47779520D01*
X207699504Y-47870535D01*
X207699508Y-47870536D01*
X207703411Y-47871861D01*
X207707450Y-47872664D01*
X207707456Y-47872666D01*
X207985175Y-47927907D01*
X207985178Y-47927907D01*
X207989218Y-47928711D01*
X207993329Y-47928980D01*
X207993333Y-47928981D01*
X208275881Y-47947500D01*
X208280000Y-47947770D01*
X208284119Y-47947500D01*
X208566667Y-47928981D01*
X208566671Y-47928980D01*
X208570782Y-47928711D01*
X208574822Y-47927907D01*
X208574825Y-47927907D01*
X208852544Y-47872666D01*
X208852550Y-47872664D01*
X208856589Y-47871861D01*
X208860492Y-47870536D01*
X208860496Y-47870535D01*
X209128616Y-47779520D01*
X209132531Y-47778191D01*
X209136227Y-47776368D01*
X209136235Y-47776365D01*
X209390182Y-47651131D01*
X209393885Y-47649305D01*
X209397320Y-47647010D01*
X209632749Y-47489702D01*
X209632754Y-47489698D01*
X209636180Y-47487409D01*
X209639274Y-47484695D01*
X209639280Y-47484691D01*
X209852182Y-47297980D01*
X209855271Y-47295271D01*
X209857980Y-47292182D01*
X210044691Y-47079280D01*
X210044695Y-47079274D01*
X210047409Y-47076180D01*
X210209305Y-46833885D01*
X210232103Y-46787654D01*
X210336365Y-46576235D01*
X210336368Y-46576227D01*
X210338191Y-46572531D01*
X210431861Y-46296589D01*
X210488711Y-46010782D01*
X210507770Y-45720000D01*
X210488711Y-45429218D01*
X210431861Y-45143411D01*
X210338191Y-44867469D01*
X210336368Y-44863773D01*
X210336365Y-44863765D01*
X210211131Y-44609818D01*
X210209305Y-44606115D01*
X210047409Y-44363820D01*
X210044695Y-44360726D01*
X210044691Y-44360720D01*
X209857980Y-44147818D01*
X209855271Y-44144729D01*
X209852182Y-44142020D01*
X209639280Y-43955309D01*
X209639274Y-43955305D01*
X209636180Y-43952591D01*
X209632754Y-43950302D01*
X209632749Y-43950298D01*
X209397320Y-43792990D01*
X209397318Y-43792989D01*
X209393885Y-43790695D01*
X209347654Y-43767897D01*
X209136235Y-43663635D01*
X209136227Y-43663632D01*
X209132531Y-43661809D01*
X209083361Y-43645118D01*
X208860496Y-43569465D01*
X208860492Y-43569464D01*
X208856589Y-43568139D01*
X208852550Y-43567336D01*
X208852544Y-43567334D01*
X208574825Y-43512093D01*
X208574822Y-43512093D01*
X208570782Y-43511289D01*
X208566671Y-43511020D01*
X208566667Y-43511019D01*
X208284119Y-43492500D01*
X208280000Y-43492230D01*
X208275881Y-43492500D01*
X207993333Y-43511019D01*
X207993329Y-43511020D01*
X207989218Y-43511289D01*
X207985178Y-43512093D01*
X207985175Y-43512093D01*
X207707456Y-43567334D01*
X207707450Y-43567336D01*
X207703411Y-43568139D01*
X207699508Y-43569464D01*
X207699504Y-43569465D01*
X207476639Y-43645118D01*
X207427469Y-43661809D01*
X207423773Y-43663632D01*
X207423765Y-43663635D01*
X207212346Y-43767897D01*
X207166115Y-43790695D01*
X207162682Y-43792989D01*
X207162680Y-43792990D01*
X206927251Y-43950298D01*
X206927246Y-43950302D01*
X206923820Y-43952591D01*
X206920726Y-43955305D01*
X206920720Y-43955309D01*
X206707818Y-44142020D01*
X206704729Y-44144729D01*
X206702020Y-44147818D01*
X206515309Y-44360720D01*
X206515305Y-44360726D01*
X206512591Y-44363820D01*
X206350695Y-44606115D01*
X206348869Y-44609818D01*
X206223635Y-44863765D01*
X206223632Y-44863773D01*
X206221809Y-44867469D01*
X206128139Y-45143411D01*
X206071289Y-45429218D01*
X206052230Y-45720000D01*
X197807770Y-45720000D01*
X197788711Y-45429218D01*
X197731861Y-45143411D01*
X197638191Y-44867469D01*
X197636368Y-44863773D01*
X197636365Y-44863765D01*
X197511131Y-44609818D01*
X197509305Y-44606115D01*
X197347409Y-44363820D01*
X197344695Y-44360726D01*
X197344691Y-44360720D01*
X197157980Y-44147818D01*
X197155271Y-44144729D01*
X197152182Y-44142020D01*
X196939280Y-43955309D01*
X196939274Y-43955305D01*
X196936180Y-43952591D01*
X196932754Y-43950302D01*
X196932749Y-43950298D01*
X196697320Y-43792990D01*
X196697318Y-43792989D01*
X196693885Y-43790695D01*
X196647654Y-43767897D01*
X196436235Y-43663635D01*
X196436227Y-43663632D01*
X196432531Y-43661809D01*
X196383361Y-43645118D01*
X196160496Y-43569465D01*
X196160492Y-43569464D01*
X196156589Y-43568139D01*
X196152550Y-43567336D01*
X196152544Y-43567334D01*
X195874825Y-43512093D01*
X195874822Y-43512093D01*
X195870782Y-43511289D01*
X195866671Y-43511020D01*
X195866667Y-43511019D01*
X195584119Y-43492500D01*
X195580000Y-43492230D01*
X195575881Y-43492500D01*
X195293333Y-43511019D01*
X195293329Y-43511020D01*
X195289218Y-43511289D01*
X195285178Y-43512093D01*
X195285175Y-43512093D01*
X195007456Y-43567334D01*
X195007450Y-43567336D01*
X195003411Y-43568139D01*
X194999508Y-43569464D01*
X194999504Y-43569465D01*
X194776639Y-43645118D01*
X194727469Y-43661809D01*
X194723773Y-43663632D01*
X194723765Y-43663635D01*
X194512346Y-43767897D01*
X194466115Y-43790695D01*
X194462682Y-43792989D01*
X194462680Y-43792990D01*
X194227251Y-43950298D01*
X194227246Y-43950302D01*
X194223820Y-43952591D01*
X194220726Y-43955305D01*
X194220720Y-43955309D01*
X194007818Y-44142020D01*
X194004729Y-44144729D01*
X194002020Y-44147818D01*
X193815309Y-44360720D01*
X193815305Y-44360726D01*
X193812591Y-44363820D01*
X193650695Y-44606115D01*
X193648869Y-44609818D01*
X193523635Y-44863765D01*
X193523632Y-44863773D01*
X193521809Y-44867469D01*
X193428139Y-45143411D01*
X193371289Y-45429218D01*
X193352230Y-45720000D01*
X127635000Y-45720000D01*
X127635000Y-36830000D01*
X146997090Y-36830000D01*
X147016701Y-37079186D01*
X147028408Y-37127948D01*
X147058312Y-37252504D01*
X147075053Y-37322236D01*
X147076943Y-37326799D01*
X147076945Y-37326805D01*
X147168812Y-37548592D01*
X147170707Y-37553166D01*
X147301309Y-37766289D01*
X147463643Y-37956357D01*
X147653711Y-38118691D01*
X147866834Y-38249293D01*
X147871404Y-38251186D01*
X147871408Y-38251188D01*
X148093195Y-38343055D01*
X148093201Y-38343057D01*
X148097764Y-38344947D01*
X148102564Y-38346099D01*
X148102569Y-38346101D01*
X148208722Y-38371586D01*
X148340814Y-38403299D01*
X148590000Y-38422910D01*
X148839186Y-38403299D01*
X148971278Y-38371586D01*
X149077431Y-38346101D01*
X149077436Y-38346099D01*
X149082236Y-38344947D01*
X149086799Y-38343057D01*
X149086805Y-38343055D01*
X149308592Y-38251188D01*
X149308596Y-38251186D01*
X149313166Y-38249293D01*
X149526289Y-38118691D01*
X149716357Y-37956357D01*
X149740238Y-37928396D01*
X149868619Y-37778082D01*
X149928070Y-37739273D01*
X149999065Y-37738767D01*
X150059667Y-37777416D01*
X150123188Y-37850746D01*
X150123192Y-37850750D01*
X150126579Y-37854660D01*
X150307407Y-38004785D01*
X150311863Y-38007389D01*
X150311866Y-38007391D01*
X150496838Y-38115480D01*
X150510325Y-38123361D01*
X150729885Y-38207203D01*
X150734951Y-38208234D01*
X150734952Y-38208234D01*
X150936765Y-38249293D01*
X150960191Y-38254059D01*
X151195057Y-38262672D01*
X151382423Y-38238669D01*
X151423056Y-38233464D01*
X151423057Y-38233464D01*
X151428176Y-38232808D01*
X151653287Y-38165272D01*
X151657921Y-38163002D01*
X151859710Y-38064147D01*
X151859713Y-38064145D01*
X151864345Y-38061876D01*
X152012278Y-37956357D01*
X152051478Y-37928396D01*
X152051480Y-37928394D01*
X152055682Y-37925397D01*
X152222159Y-37759500D01*
X152359305Y-37568641D01*
X152463437Y-37357945D01*
X152464937Y-37353006D01*
X152464940Y-37353000D01*
X152530258Y-37138011D01*
X152531759Y-37133071D01*
X152562436Y-36900058D01*
X152564148Y-36830000D01*
X153347090Y-36830000D01*
X153366701Y-37079186D01*
X153378408Y-37127948D01*
X153408312Y-37252504D01*
X153425053Y-37322236D01*
X153426943Y-37326799D01*
X153426945Y-37326805D01*
X153518812Y-37548592D01*
X153520707Y-37553166D01*
X153651309Y-37766289D01*
X153813643Y-37956357D01*
X154003711Y-38118691D01*
X154216834Y-38249293D01*
X154221404Y-38251186D01*
X154221408Y-38251188D01*
X154443195Y-38343055D01*
X154443201Y-38343057D01*
X154447764Y-38344947D01*
X154452564Y-38346099D01*
X154452569Y-38346101D01*
X154558722Y-38371586D01*
X154690814Y-38403299D01*
X154940000Y-38422910D01*
X155189186Y-38403299D01*
X155321278Y-38371586D01*
X155427431Y-38346101D01*
X155427436Y-38346099D01*
X155432236Y-38344947D01*
X155436799Y-38343057D01*
X155436805Y-38343055D01*
X155658592Y-38251188D01*
X155658596Y-38251186D01*
X155663166Y-38249293D01*
X155876289Y-38118691D01*
X156066357Y-37956357D01*
X156228691Y-37766289D01*
X156359293Y-37553166D01*
X156361188Y-37548592D01*
X156453055Y-37326805D01*
X156453057Y-37326799D01*
X156454947Y-37322236D01*
X156471689Y-37252504D01*
X156501592Y-37127948D01*
X156513299Y-37079186D01*
X156532910Y-36830000D01*
X156513299Y-36580814D01*
X156482189Y-36451235D01*
X156485735Y-36380328D01*
X156515612Y-36332726D01*
X161569422Y-31278916D01*
X161631734Y-31244890D01*
X161658517Y-31242011D01*
X162159004Y-31242011D01*
X162227125Y-31262013D01*
X162273618Y-31315669D01*
X162283722Y-31385943D01*
X162281522Y-31397426D01*
X162268266Y-31452642D01*
X162256701Y-31500814D01*
X162237090Y-31750000D01*
X162256701Y-31999186D01*
X162271528Y-32060944D01*
X162313897Y-32237419D01*
X162315053Y-32242236D01*
X162316943Y-32246799D01*
X162316945Y-32246805D01*
X162408812Y-32468592D01*
X162410707Y-32473166D01*
X162541309Y-32686289D01*
X162703643Y-32876357D01*
X162707399Y-32879565D01*
X162759647Y-32924189D01*
X162798456Y-32983639D01*
X162798962Y-33054634D01*
X162759647Y-33115811D01*
X162703643Y-33163643D01*
X162541309Y-33353711D01*
X162410707Y-33566834D01*
X162408814Y-33571404D01*
X162408812Y-33571408D01*
X162316945Y-33793195D01*
X162316943Y-33793201D01*
X162315053Y-33797764D01*
X162313901Y-33802564D01*
X162313899Y-33802569D01*
X162287810Y-33911236D01*
X162256701Y-34040814D01*
X162237090Y-34290000D01*
X162256701Y-34539186D01*
X162281406Y-34642086D01*
X162277859Y-34712994D01*
X162236539Y-34770728D01*
X162170566Y-34796958D01*
X162158887Y-34797500D01*
X160047954Y-34797500D01*
X160040152Y-34797258D01*
X159978484Y-34793432D01*
X159971268Y-34794672D01*
X159971267Y-34794672D01*
X159957964Y-34796958D01*
X159914541Y-34804420D01*
X159907811Y-34805389D01*
X159843393Y-34812899D01*
X159836508Y-34815398D01*
X159836504Y-34815399D01*
X159834362Y-34816176D01*
X159812719Y-34821915D01*
X159810463Y-34822303D01*
X159810461Y-34822304D01*
X159803249Y-34823543D01*
X159743547Y-34848947D01*
X159737229Y-34851435D01*
X159683137Y-34871069D01*
X159683134Y-34871071D01*
X159676259Y-34873566D01*
X159670145Y-34877575D01*
X159670140Y-34877577D01*
X159668230Y-34878830D01*
X159648478Y-34889399D01*
X159639641Y-34893159D01*
X159633745Y-34897498D01*
X159587400Y-34931604D01*
X159581803Y-34935494D01*
X159527565Y-34971054D01*
X159520954Y-34978032D01*
X159504177Y-34992849D01*
X159496436Y-34998546D01*
X159491699Y-35004122D01*
X159454428Y-35047992D01*
X159449894Y-35053045D01*
X159405286Y-35100135D01*
X159401611Y-35106461D01*
X159401608Y-35106466D01*
X159400464Y-35108436D01*
X159387535Y-35126731D01*
X159381316Y-35134051D01*
X159377988Y-35140568D01*
X159377985Y-35140573D01*
X159351820Y-35191815D01*
X159348557Y-35197801D01*
X159322903Y-35241967D01*
X159271391Y-35290825D01*
X159201643Y-35304079D01*
X159184534Y-35301199D01*
X159004007Y-35257858D01*
X159004002Y-35257857D01*
X158999186Y-35256701D01*
X158750000Y-35237090D01*
X158500814Y-35256701D01*
X158429443Y-35273836D01*
X158262569Y-35313899D01*
X158262564Y-35313901D01*
X158257764Y-35315053D01*
X158253201Y-35316943D01*
X158253195Y-35316945D01*
X158031408Y-35408812D01*
X158031404Y-35408814D01*
X158026834Y-35410707D01*
X157813711Y-35541309D01*
X157623643Y-35703643D01*
X157461309Y-35893711D01*
X157330707Y-36106834D01*
X157328814Y-36111404D01*
X157328812Y-36111408D01*
X157236945Y-36333195D01*
X157236943Y-36333201D01*
X157235053Y-36337764D01*
X157233901Y-36342564D01*
X157233899Y-36342569D01*
X157207810Y-36451236D01*
X157176701Y-36580814D01*
X157157090Y-36830000D01*
X157176701Y-37079186D01*
X157188408Y-37127948D01*
X157218312Y-37252504D01*
X157235053Y-37322236D01*
X157236943Y-37326799D01*
X157236945Y-37326805D01*
X157328812Y-37548592D01*
X157330707Y-37553166D01*
X157461309Y-37766289D01*
X157623643Y-37956357D01*
X157813711Y-38118691D01*
X158026834Y-38249293D01*
X158031404Y-38251186D01*
X158031408Y-38251188D01*
X158253195Y-38343055D01*
X158253201Y-38343057D01*
X158257764Y-38344947D01*
X158262564Y-38346099D01*
X158262569Y-38346101D01*
X158368722Y-38371586D01*
X158500814Y-38403299D01*
X158750000Y-38422910D01*
X158999186Y-38403299D01*
X159003995Y-38402145D01*
X159003998Y-38402144D01*
X159102086Y-38378595D01*
X159172994Y-38382142D01*
X159230728Y-38423462D01*
X159256958Y-38489435D01*
X159257500Y-38501114D01*
X159257500Y-40037250D01*
X159237498Y-40105371D01*
X159183842Y-40151864D01*
X159131500Y-40163250D01*
X158210616Y-40163250D01*
X158208076Y-40163457D01*
X158208066Y-40163457D01*
X158145465Y-40168549D01*
X158067603Y-40174882D01*
X158062401Y-40176218D01*
X158062399Y-40176218D01*
X157937944Y-40208173D01*
X157847934Y-40231284D01*
X157842831Y-40233620D01*
X157842829Y-40233621D01*
X157770174Y-40266885D01*
X157641726Y-40325693D01*
X157455494Y-40455127D01*
X157416038Y-40494583D01*
X157353726Y-40528609D01*
X157282911Y-40523544D01*
X157255124Y-40509016D01*
X157177443Y-40455127D01*
X157099029Y-40400729D01*
X157058084Y-40380537D01*
X156870367Y-40287965D01*
X156870364Y-40287964D01*
X156866179Y-40285900D01*
X156820385Y-40271241D01*
X156623359Y-40208173D01*
X156623361Y-40208173D01*
X156618914Y-40206750D01*
X156535526Y-40193170D01*
X156367279Y-40165769D01*
X156367276Y-40165769D01*
X156362666Y-40165018D01*
X156232865Y-40163319D01*
X156107741Y-40161680D01*
X156107738Y-40161680D01*
X156103064Y-40161619D01*
X155845812Y-40196630D01*
X155841326Y-40197938D01*
X155841324Y-40197938D01*
X155775085Y-40217245D01*
X155596560Y-40269280D01*
X155360784Y-40377974D01*
X155356875Y-40380537D01*
X155147577Y-40517758D01*
X155147572Y-40517762D01*
X155143664Y-40520324D01*
X155046817Y-40606763D01*
X155022214Y-40628723D01*
X154949970Y-40693203D01*
X154783956Y-40892813D01*
X154781533Y-40896806D01*
X154686171Y-41053958D01*
X154649270Y-41114768D01*
X154647461Y-41119082D01*
X154647459Y-41119086D01*
X154608310Y-41212446D01*
X154548871Y-41354194D01*
X154484963Y-41605830D01*
X154458952Y-41864147D01*
X154471409Y-42123472D01*
X154522059Y-42378108D01*
X154609790Y-42622459D01*
X154612006Y-42626583D01*
X154708746Y-42806625D01*
X154732675Y-42851160D01*
X154735470Y-42854904D01*
X154735472Y-42854906D01*
X154885222Y-43055446D01*
X154885227Y-43055452D01*
X154888014Y-43059184D01*
X154891323Y-43062464D01*
X154891328Y-43062470D01*
X155038615Y-43208477D01*
X155072396Y-43241964D01*
X155076158Y-43244722D01*
X155076161Y-43244725D01*
X155278001Y-43392720D01*
X155281768Y-43395482D01*
X155285899Y-43397656D01*
X155285900Y-43397656D01*
X155507397Y-43514191D01*
X155507403Y-43514193D01*
X155511532Y-43516366D01*
X155515940Y-43517905D01*
X155515946Y-43517908D01*
X155752224Y-43600420D01*
X155756640Y-43601962D01*
X155761233Y-43602834D01*
X156007119Y-43649517D01*
X156007122Y-43649517D01*
X156011708Y-43650388D01*
X156141420Y-43655484D01*
X156266464Y-43660398D01*
X156266470Y-43660398D01*
X156271132Y-43660581D01*
X156430659Y-43643110D01*
X156524566Y-43632825D01*
X156524568Y-43632825D01*
X156529212Y-43632316D01*
X156780281Y-43566216D01*
X156896310Y-43516366D01*
X157014527Y-43465576D01*
X157014529Y-43465575D01*
X157018821Y-43463731D01*
X157239593Y-43327113D01*
X157247558Y-43320370D01*
X157312472Y-43291623D01*
X157382625Y-43302534D01*
X157418064Y-43327443D01*
X157455494Y-43364873D01*
X157641726Y-43494307D01*
X157770174Y-43553115D01*
X157842829Y-43586379D01*
X157842831Y-43586380D01*
X157847934Y-43588716D01*
X157853375Y-43590113D01*
X158062399Y-43643782D01*
X158062401Y-43643782D01*
X158067603Y-43645118D01*
X158145465Y-43651451D01*
X158208066Y-43656543D01*
X158208076Y-43656543D01*
X158210616Y-43656750D01*
X159289384Y-43656750D01*
X159291924Y-43656543D01*
X159291934Y-43656543D01*
X159354535Y-43651451D01*
X159432397Y-43645118D01*
X159437599Y-43643782D01*
X159437601Y-43643782D01*
X159646625Y-43590113D01*
X159652066Y-43588716D01*
X159657169Y-43586380D01*
X159657171Y-43586379D01*
X159729826Y-43553115D01*
X159858274Y-43494307D01*
X160044506Y-43364873D01*
X160204873Y-43204506D01*
X160334307Y-43018274D01*
X160403213Y-42867770D01*
X160426379Y-42817171D01*
X160426380Y-42817169D01*
X160428716Y-42812066D01*
X160457613Y-42699520D01*
X160483782Y-42597601D01*
X160483782Y-42597599D01*
X160485118Y-42592397D01*
X160496750Y-42449384D01*
X160496750Y-41370616D01*
X160495783Y-41358719D01*
X160492109Y-41313557D01*
X160506523Y-41244038D01*
X160533861Y-41212446D01*
X160532313Y-41210786D01*
X160537664Y-41205796D01*
X160543564Y-41201454D01*
X160577979Y-41160945D01*
X160584909Y-41153429D01*
X160590653Y-41147685D01*
X160592927Y-41144811D01*
X160592933Y-41144804D01*
X160608372Y-41125289D01*
X160611163Y-41121885D01*
X160653945Y-41071528D01*
X160653948Y-41071524D01*
X160658684Y-41065949D01*
X160662012Y-41059432D01*
X160665389Y-41054368D01*
X160668616Y-41049144D01*
X160673160Y-41043400D01*
X160704232Y-40976918D01*
X160706163Y-40972967D01*
X160736213Y-40914117D01*
X160739543Y-40907596D01*
X160741284Y-40900481D01*
X160743421Y-40894735D01*
X160745345Y-40888952D01*
X160748444Y-40882321D01*
X160763394Y-40810443D01*
X160764363Y-40806162D01*
X160780470Y-40740339D01*
X160781804Y-40734888D01*
X160782500Y-40723670D01*
X160782539Y-40723672D01*
X160782772Y-40719771D01*
X160783161Y-40715412D01*
X160784652Y-40708244D01*
X160782546Y-40630423D01*
X160782500Y-40627014D01*
X160782500Y-38501114D01*
X160802502Y-38432993D01*
X160856158Y-38386500D01*
X160926432Y-38376396D01*
X160937914Y-38378595D01*
X161036002Y-38402144D01*
X161036005Y-38402145D01*
X161040814Y-38403299D01*
X161290000Y-38422910D01*
X161539186Y-38403299D01*
X161668765Y-38372189D01*
X161739672Y-38375735D01*
X161787274Y-38405612D01*
X161972701Y-38591039D01*
X161985088Y-38605452D01*
X161998057Y-38623075D01*
X162003640Y-38627818D01*
X162038566Y-38657490D01*
X162046082Y-38664420D01*
X162051826Y-38670164D01*
X162054700Y-38672438D01*
X162054707Y-38672444D01*
X162074222Y-38687883D01*
X162077626Y-38690674D01*
X162127983Y-38733456D01*
X162127987Y-38733459D01*
X162133562Y-38738195D01*
X162140079Y-38741523D01*
X162145143Y-38744900D01*
X162150367Y-38748127D01*
X162156111Y-38752671D01*
X162222615Y-38783753D01*
X162226512Y-38785658D01*
X162291915Y-38819054D01*
X162299029Y-38820795D01*
X162304763Y-38822927D01*
X162310559Y-38824855D01*
X162317191Y-38827955D01*
X162389066Y-38842905D01*
X162393350Y-38843875D01*
X162464623Y-38861315D01*
X162470225Y-38861663D01*
X162470228Y-38861663D01*
X162475841Y-38862011D01*
X162475839Y-38862048D01*
X162479738Y-38862284D01*
X162484109Y-38862674D01*
X162491268Y-38864163D01*
X162569088Y-38862057D01*
X162572497Y-38862011D01*
X162751012Y-38862011D01*
X162819133Y-38882013D01*
X162865626Y-38935669D01*
X162876009Y-38988319D01*
X162877000Y-38988319D01*
X162877001Y-42291680D01*
X162879835Y-42327704D01*
X162881630Y-42333881D01*
X162881631Y-42333887D01*
X162914444Y-42446829D01*
X162924631Y-42481893D01*
X163006365Y-42620098D01*
X163119902Y-42733635D01*
X163126723Y-42737669D01*
X163243322Y-42806625D01*
X163258107Y-42815369D01*
X163265718Y-42817580D01*
X163265720Y-42817581D01*
X163406119Y-42858371D01*
X163406124Y-42858372D01*
X163412296Y-42860165D01*
X163433919Y-42861867D01*
X163445862Y-42862807D01*
X163445871Y-42862807D01*
X163448319Y-42863000D01*
X165098663Y-42863000D01*
X166751680Y-42862999D01*
X166770923Y-42861485D01*
X166781286Y-42860670D01*
X166781287Y-42860670D01*
X166787704Y-42860165D01*
X166793884Y-42858370D01*
X166793887Y-42858369D01*
X166934280Y-42817581D01*
X166934282Y-42817580D01*
X166941893Y-42815369D01*
X166956679Y-42806625D01*
X167073277Y-42737669D01*
X167080098Y-42733635D01*
X167193635Y-42620098D01*
X167275369Y-42481893D01*
X167285556Y-42446829D01*
X167318371Y-42333881D01*
X167318372Y-42333876D01*
X167320165Y-42327704D01*
X167321867Y-42306081D01*
X167322807Y-42294138D01*
X167322807Y-42294129D01*
X167323000Y-42291681D01*
X167323000Y-40640000D01*
X193352230Y-40640000D01*
X193352500Y-40644119D01*
X193370197Y-40914117D01*
X193371289Y-40930782D01*
X193372093Y-40934822D01*
X193372093Y-40934825D01*
X193426985Y-41210786D01*
X193428139Y-41216589D01*
X193429464Y-41220492D01*
X193429465Y-41220496D01*
X193520480Y-41488616D01*
X193521809Y-41492531D01*
X193523632Y-41496227D01*
X193523635Y-41496235D01*
X193627897Y-41707654D01*
X193650695Y-41753885D01*
X193652989Y-41757318D01*
X193652990Y-41757320D01*
X193724370Y-41864147D01*
X193812591Y-41996180D01*
X193815305Y-41999274D01*
X193815309Y-41999280D01*
X194002020Y-42212182D01*
X194004729Y-42215271D01*
X194007818Y-42217980D01*
X194220720Y-42404691D01*
X194220726Y-42404695D01*
X194223820Y-42407409D01*
X194227246Y-42409698D01*
X194227251Y-42409702D01*
X194462680Y-42567010D01*
X194466115Y-42569305D01*
X194469818Y-42571131D01*
X194723765Y-42696365D01*
X194723773Y-42696368D01*
X194727469Y-42698191D01*
X194731384Y-42699520D01*
X194999504Y-42790535D01*
X194999508Y-42790536D01*
X195003411Y-42791861D01*
X195007450Y-42792664D01*
X195007456Y-42792666D01*
X195285175Y-42847907D01*
X195285178Y-42847907D01*
X195289218Y-42848711D01*
X195293329Y-42848980D01*
X195293333Y-42848981D01*
X195575881Y-42867500D01*
X195580000Y-42867770D01*
X195584119Y-42867500D01*
X195866667Y-42848981D01*
X195866671Y-42848980D01*
X195870782Y-42848711D01*
X195874822Y-42847907D01*
X195874825Y-42847907D01*
X196152544Y-42792666D01*
X196152550Y-42792664D01*
X196156589Y-42791861D01*
X196160492Y-42790536D01*
X196160496Y-42790535D01*
X196428616Y-42699520D01*
X196432531Y-42698191D01*
X196436227Y-42696368D01*
X196436235Y-42696365D01*
X196690182Y-42571131D01*
X196693885Y-42569305D01*
X196697320Y-42567010D01*
X196932749Y-42409702D01*
X196932754Y-42409698D01*
X196936180Y-42407409D01*
X196939274Y-42404695D01*
X196939280Y-42404691D01*
X197152182Y-42217980D01*
X197155271Y-42215271D01*
X197157980Y-42212182D01*
X197344691Y-41999280D01*
X197344695Y-41999274D01*
X197347409Y-41996180D01*
X197435631Y-41864147D01*
X197507010Y-41757320D01*
X197507011Y-41757318D01*
X197509305Y-41753885D01*
X197532103Y-41707654D01*
X197636365Y-41496235D01*
X197636368Y-41496227D01*
X197638191Y-41492531D01*
X197639520Y-41488616D01*
X197730535Y-41220496D01*
X197730536Y-41220492D01*
X197731861Y-41216589D01*
X197733016Y-41210786D01*
X197787907Y-40934825D01*
X197787907Y-40934822D01*
X197788711Y-40930782D01*
X197789804Y-40914117D01*
X197807500Y-40644119D01*
X197807770Y-40640000D01*
X206052230Y-40640000D01*
X206052500Y-40644119D01*
X206070197Y-40914117D01*
X206071289Y-40930782D01*
X206072093Y-40934822D01*
X206072093Y-40934825D01*
X206126985Y-41210786D01*
X206128139Y-41216589D01*
X206129464Y-41220492D01*
X206129465Y-41220496D01*
X206220480Y-41488616D01*
X206221809Y-41492531D01*
X206223632Y-41496227D01*
X206223635Y-41496235D01*
X206327897Y-41707654D01*
X206350695Y-41753885D01*
X206352989Y-41757318D01*
X206352990Y-41757320D01*
X206424370Y-41864147D01*
X206512591Y-41996180D01*
X206515305Y-41999274D01*
X206515309Y-41999280D01*
X206702020Y-42212182D01*
X206704729Y-42215271D01*
X206707818Y-42217980D01*
X206920720Y-42404691D01*
X206920726Y-42404695D01*
X206923820Y-42407409D01*
X206927246Y-42409698D01*
X206927251Y-42409702D01*
X207162680Y-42567010D01*
X207166115Y-42569305D01*
X207169818Y-42571131D01*
X207423765Y-42696365D01*
X207423773Y-42696368D01*
X207427469Y-42698191D01*
X207431384Y-42699520D01*
X207699504Y-42790535D01*
X207699508Y-42790536D01*
X207703411Y-42791861D01*
X207707450Y-42792664D01*
X207707456Y-42792666D01*
X207985175Y-42847907D01*
X207985178Y-42847907D01*
X207989218Y-42848711D01*
X207993329Y-42848980D01*
X207993333Y-42848981D01*
X208275881Y-42867500D01*
X208280000Y-42867770D01*
X208284119Y-42867500D01*
X208566667Y-42848981D01*
X208566671Y-42848980D01*
X208570782Y-42848711D01*
X208574822Y-42847907D01*
X208574825Y-42847907D01*
X208852544Y-42792666D01*
X208852550Y-42792664D01*
X208856589Y-42791861D01*
X208860492Y-42790536D01*
X208860496Y-42790535D01*
X209128616Y-42699520D01*
X209132531Y-42698191D01*
X209136227Y-42696368D01*
X209136235Y-42696365D01*
X209390182Y-42571131D01*
X209393885Y-42569305D01*
X209397320Y-42567010D01*
X209632749Y-42409702D01*
X209632754Y-42409698D01*
X209636180Y-42407409D01*
X209639274Y-42404695D01*
X209639280Y-42404691D01*
X209852182Y-42217980D01*
X209855271Y-42215271D01*
X209857980Y-42212182D01*
X210044691Y-41999280D01*
X210044695Y-41999274D01*
X210047409Y-41996180D01*
X210135631Y-41864147D01*
X210207010Y-41757320D01*
X210207011Y-41757318D01*
X210209305Y-41753885D01*
X210232103Y-41707654D01*
X210336365Y-41496235D01*
X210336368Y-41496227D01*
X210338191Y-41492531D01*
X210339520Y-41488616D01*
X210430535Y-41220496D01*
X210430536Y-41220492D01*
X210431861Y-41216589D01*
X210433016Y-41210786D01*
X210487907Y-40934825D01*
X210487907Y-40934822D01*
X210488711Y-40930782D01*
X210489804Y-40914117D01*
X210507500Y-40644119D01*
X210507770Y-40640000D01*
X210488711Y-40349218D01*
X210487907Y-40345175D01*
X210432666Y-40067456D01*
X210432664Y-40067450D01*
X210431861Y-40063411D01*
X210338191Y-39787469D01*
X210336368Y-39783773D01*
X210336365Y-39783765D01*
X210211131Y-39529818D01*
X210209305Y-39526115D01*
X210047409Y-39283820D01*
X210044695Y-39280726D01*
X210044691Y-39280720D01*
X209857980Y-39067818D01*
X209855271Y-39064729D01*
X209852182Y-39062020D01*
X209639280Y-38875309D01*
X209639274Y-38875305D01*
X209636180Y-38872591D01*
X209632754Y-38870302D01*
X209632749Y-38870298D01*
X209397320Y-38712990D01*
X209397318Y-38712989D01*
X209393885Y-38710695D01*
X209311697Y-38670164D01*
X209136235Y-38583635D01*
X209136227Y-38583632D01*
X209132531Y-38581809D01*
X209128616Y-38580480D01*
X208860496Y-38489465D01*
X208860492Y-38489464D01*
X208856589Y-38488139D01*
X208852550Y-38487336D01*
X208852544Y-38487334D01*
X208574825Y-38432093D01*
X208574822Y-38432093D01*
X208570782Y-38431289D01*
X208566671Y-38431020D01*
X208566667Y-38431019D01*
X208284119Y-38412500D01*
X208280000Y-38412230D01*
X208275881Y-38412500D01*
X207993333Y-38431019D01*
X207993329Y-38431020D01*
X207989218Y-38431289D01*
X207985178Y-38432093D01*
X207985175Y-38432093D01*
X207707456Y-38487334D01*
X207707450Y-38487336D01*
X207703411Y-38488139D01*
X207699508Y-38489464D01*
X207699504Y-38489465D01*
X207431384Y-38580480D01*
X207427469Y-38581809D01*
X207423773Y-38583632D01*
X207423765Y-38583635D01*
X207248303Y-38670164D01*
X207166115Y-38710695D01*
X207162682Y-38712989D01*
X207162680Y-38712990D01*
X206927251Y-38870298D01*
X206927246Y-38870302D01*
X206923820Y-38872591D01*
X206920726Y-38875305D01*
X206920720Y-38875309D01*
X206707818Y-39062020D01*
X206704729Y-39064729D01*
X206702020Y-39067818D01*
X206515309Y-39280720D01*
X206515305Y-39280726D01*
X206512591Y-39283820D01*
X206350695Y-39526115D01*
X206348869Y-39529818D01*
X206223635Y-39783765D01*
X206223632Y-39783773D01*
X206221809Y-39787469D01*
X206128139Y-40063411D01*
X206127336Y-40067450D01*
X206127334Y-40067456D01*
X206072093Y-40345175D01*
X206071289Y-40349218D01*
X206052230Y-40640000D01*
X197807770Y-40640000D01*
X197788711Y-40349218D01*
X197787907Y-40345175D01*
X197732666Y-40067456D01*
X197732664Y-40067450D01*
X197731861Y-40063411D01*
X197638191Y-39787469D01*
X197636368Y-39783773D01*
X197636365Y-39783765D01*
X197511131Y-39529818D01*
X197509305Y-39526115D01*
X197347409Y-39283820D01*
X197344695Y-39280726D01*
X197344691Y-39280720D01*
X197157980Y-39067818D01*
X197155271Y-39064729D01*
X197152182Y-39062020D01*
X196939280Y-38875309D01*
X196939274Y-38875305D01*
X196936180Y-38872591D01*
X196932754Y-38870302D01*
X196932749Y-38870298D01*
X196697320Y-38712990D01*
X196697318Y-38712989D01*
X196693885Y-38710695D01*
X196611697Y-38670164D01*
X196436235Y-38583635D01*
X196436227Y-38583632D01*
X196432531Y-38581809D01*
X196428616Y-38580480D01*
X196160496Y-38489465D01*
X196160492Y-38489464D01*
X196156589Y-38488139D01*
X196152550Y-38487336D01*
X196152544Y-38487334D01*
X195874825Y-38432093D01*
X195874822Y-38432093D01*
X195870782Y-38431289D01*
X195866671Y-38431020D01*
X195866667Y-38431019D01*
X195584119Y-38412500D01*
X195580000Y-38412230D01*
X195575881Y-38412500D01*
X195293333Y-38431019D01*
X195293329Y-38431020D01*
X195289218Y-38431289D01*
X195285178Y-38432093D01*
X195285175Y-38432093D01*
X195007456Y-38487334D01*
X195007450Y-38487336D01*
X195003411Y-38488139D01*
X194999508Y-38489464D01*
X194999504Y-38489465D01*
X194731384Y-38580480D01*
X194727469Y-38581809D01*
X194723773Y-38583632D01*
X194723765Y-38583635D01*
X194548303Y-38670164D01*
X194466115Y-38710695D01*
X194462682Y-38712989D01*
X194462680Y-38712990D01*
X194227251Y-38870298D01*
X194227246Y-38870302D01*
X194223820Y-38872591D01*
X194220726Y-38875305D01*
X194220720Y-38875309D01*
X194007818Y-39062020D01*
X194004729Y-39064729D01*
X194002020Y-39067818D01*
X193815309Y-39280720D01*
X193815305Y-39280726D01*
X193812591Y-39283820D01*
X193650695Y-39526115D01*
X193648869Y-39529818D01*
X193523635Y-39783765D01*
X193523632Y-39783773D01*
X193521809Y-39787469D01*
X193428139Y-40063411D01*
X193427336Y-40067450D01*
X193427334Y-40067456D01*
X193372093Y-40345175D01*
X193371289Y-40349218D01*
X193352230Y-40640000D01*
X167323000Y-40640000D01*
X167322999Y-38988320D01*
X167324236Y-38988320D01*
X167340425Y-38924055D01*
X167392236Y-38875515D01*
X167448987Y-38862011D01*
X170113113Y-38862011D01*
X170132063Y-38863444D01*
X170146462Y-38865635D01*
X170146468Y-38865635D01*
X170153697Y-38866735D01*
X170160989Y-38866142D01*
X170160992Y-38866142D01*
X170206672Y-38862426D01*
X170216887Y-38862011D01*
X170225014Y-38862011D01*
X170228650Y-38861587D01*
X170228652Y-38861587D01*
X170232104Y-38861184D01*
X170253413Y-38858700D01*
X170257733Y-38858273D01*
X170330915Y-38852320D01*
X170337877Y-38850064D01*
X170343865Y-38848868D01*
X170349822Y-38847460D01*
X170357096Y-38846612D01*
X170363978Y-38844114D01*
X170363982Y-38844113D01*
X170426096Y-38821566D01*
X170430200Y-38820156D01*
X170500064Y-38797524D01*
X170506327Y-38793724D01*
X170511869Y-38791186D01*
X170517345Y-38788444D01*
X170524230Y-38785945D01*
X170585621Y-38745696D01*
X170589289Y-38743381D01*
X170652070Y-38705284D01*
X170656275Y-38701570D01*
X170656278Y-38701568D01*
X170660494Y-38697844D01*
X170660520Y-38697873D01*
X170663451Y-38695273D01*
X170666805Y-38692469D01*
X170672924Y-38688457D01*
X170726478Y-38631924D01*
X170728855Y-38629483D01*
X170952726Y-38405612D01*
X171015038Y-38371586D01*
X171071235Y-38372189D01*
X171200814Y-38403299D01*
X171450000Y-38422910D01*
X171699186Y-38403299D01*
X171831278Y-38371586D01*
X171937431Y-38346101D01*
X171937436Y-38346099D01*
X171942236Y-38344947D01*
X171946799Y-38343057D01*
X171946805Y-38343055D01*
X172168592Y-38251188D01*
X172168596Y-38251186D01*
X172173166Y-38249293D01*
X172386289Y-38118691D01*
X172576357Y-37956357D01*
X172624189Y-37900353D01*
X172683639Y-37861544D01*
X172754634Y-37861038D01*
X172815811Y-37900353D01*
X172863643Y-37956357D01*
X173053711Y-38118691D01*
X173266834Y-38249293D01*
X173271404Y-38251186D01*
X173271408Y-38251188D01*
X173493195Y-38343055D01*
X173493201Y-38343057D01*
X173497764Y-38344947D01*
X173502564Y-38346099D01*
X173502569Y-38346101D01*
X173608722Y-38371586D01*
X173740814Y-38403299D01*
X173990000Y-38422910D01*
X174239186Y-38403299D01*
X174371278Y-38371586D01*
X174477431Y-38346101D01*
X174477436Y-38346099D01*
X174482236Y-38344947D01*
X174486799Y-38343057D01*
X174486805Y-38343055D01*
X174708592Y-38251188D01*
X174708596Y-38251186D01*
X174713166Y-38249293D01*
X174926289Y-38118691D01*
X175116357Y-37956357D01*
X175164189Y-37900353D01*
X175223639Y-37861544D01*
X175294634Y-37861038D01*
X175355811Y-37900353D01*
X175403643Y-37956357D01*
X175593711Y-38118691D01*
X175806834Y-38249293D01*
X175811404Y-38251186D01*
X175811408Y-38251188D01*
X176033195Y-38343055D01*
X176033201Y-38343057D01*
X176037764Y-38344947D01*
X176042564Y-38346099D01*
X176042569Y-38346101D01*
X176148722Y-38371586D01*
X176280814Y-38403299D01*
X176530000Y-38422910D01*
X176779186Y-38403299D01*
X176911278Y-38371586D01*
X177017431Y-38346101D01*
X177017436Y-38346099D01*
X177022236Y-38344947D01*
X177026799Y-38343057D01*
X177026805Y-38343055D01*
X177248592Y-38251188D01*
X177248596Y-38251186D01*
X177253166Y-38249293D01*
X177466289Y-38118691D01*
X177656357Y-37956357D01*
X177704189Y-37900353D01*
X177763639Y-37861544D01*
X177834634Y-37861038D01*
X177895811Y-37900353D01*
X177943643Y-37956357D01*
X178133711Y-38118691D01*
X178346834Y-38249293D01*
X178351404Y-38251186D01*
X178351408Y-38251188D01*
X178573195Y-38343055D01*
X178573201Y-38343057D01*
X178577764Y-38344947D01*
X178582564Y-38346099D01*
X178582569Y-38346101D01*
X178688722Y-38371586D01*
X178820814Y-38403299D01*
X179070000Y-38422910D01*
X179319186Y-38403299D01*
X179451278Y-38371586D01*
X179557431Y-38346101D01*
X179557436Y-38346099D01*
X179562236Y-38344947D01*
X179566799Y-38343057D01*
X179566805Y-38343055D01*
X179788592Y-38251188D01*
X179788596Y-38251186D01*
X179793166Y-38249293D01*
X180006289Y-38118691D01*
X180196357Y-37956357D01*
X180244189Y-37900353D01*
X180303639Y-37861544D01*
X180374634Y-37861038D01*
X180435811Y-37900353D01*
X180483643Y-37956357D01*
X180673711Y-38118691D01*
X180886834Y-38249293D01*
X180891404Y-38251186D01*
X180891408Y-38251188D01*
X181113195Y-38343055D01*
X181113201Y-38343057D01*
X181117764Y-38344947D01*
X181122564Y-38346099D01*
X181122569Y-38346101D01*
X181228722Y-38371586D01*
X181360814Y-38403299D01*
X181610000Y-38422910D01*
X181859186Y-38403299D01*
X181991278Y-38371586D01*
X182097431Y-38346101D01*
X182097436Y-38346099D01*
X182102236Y-38344947D01*
X182106799Y-38343057D01*
X182106805Y-38343055D01*
X182328592Y-38251188D01*
X182328596Y-38251186D01*
X182333166Y-38249293D01*
X182546289Y-38118691D01*
X182736357Y-37956357D01*
X182898691Y-37766289D01*
X183029293Y-37553166D01*
X183031188Y-37548592D01*
X183123055Y-37326805D01*
X183123057Y-37326799D01*
X183124947Y-37322236D01*
X183141689Y-37252504D01*
X183171592Y-37127948D01*
X183183299Y-37079186D01*
X183202910Y-36830000D01*
X183183299Y-36580814D01*
X183152189Y-36451235D01*
X183155735Y-36380328D01*
X183185612Y-36332726D01*
X189508933Y-30009405D01*
X189571245Y-29975379D01*
X189598028Y-29972500D01*
X191306804Y-29972500D01*
X191374925Y-29992502D01*
X191421418Y-30046158D01*
X191431522Y-30116432D01*
X191402028Y-30181012D01*
X191336219Y-30221019D01*
X191282569Y-30233899D01*
X191282564Y-30233901D01*
X191277764Y-30235053D01*
X191273201Y-30236943D01*
X191273195Y-30236945D01*
X191051408Y-30328812D01*
X191051404Y-30328814D01*
X191046834Y-30330707D01*
X190833711Y-30461309D01*
X190643643Y-30623643D01*
X190481309Y-30813711D01*
X190350707Y-31026834D01*
X190348814Y-31031404D01*
X190348812Y-31031408D01*
X190256945Y-31253195D01*
X190256943Y-31253201D01*
X190255053Y-31257764D01*
X190253901Y-31262564D01*
X190253899Y-31262569D01*
X190231726Y-31354925D01*
X190196701Y-31500814D01*
X190177090Y-31750000D01*
X190196701Y-31999186D01*
X190211528Y-32060944D01*
X190253897Y-32237419D01*
X190255053Y-32242236D01*
X190256943Y-32246799D01*
X190256945Y-32246805D01*
X190348812Y-32468592D01*
X190350707Y-32473166D01*
X190481309Y-32686289D01*
X190643643Y-32876357D01*
X190833711Y-33038691D01*
X191046834Y-33169293D01*
X191051404Y-33171186D01*
X191051408Y-33171188D01*
X191273195Y-33263055D01*
X191273201Y-33263057D01*
X191277764Y-33264947D01*
X191282564Y-33266099D01*
X191282569Y-33266101D01*
X191393832Y-33292813D01*
X191520814Y-33323299D01*
X191770000Y-33342910D01*
X192019186Y-33323299D01*
X192146168Y-33292813D01*
X192257431Y-33266101D01*
X192257436Y-33266099D01*
X192262236Y-33264947D01*
X192266799Y-33263057D01*
X192266805Y-33263055D01*
X192488592Y-33171188D01*
X192488596Y-33171186D01*
X192493166Y-33169293D01*
X192706289Y-33038691D01*
X192896357Y-32876357D01*
X193058691Y-32686289D01*
X193189293Y-32473166D01*
X193191188Y-32468592D01*
X193283055Y-32246805D01*
X193283057Y-32246799D01*
X193284947Y-32242236D01*
X193286104Y-32237419D01*
X193328472Y-32060944D01*
X193343299Y-31999186D01*
X193362910Y-31750000D01*
X193343299Y-31500814D01*
X193308274Y-31354925D01*
X193286101Y-31262569D01*
X193286099Y-31262564D01*
X193284947Y-31257764D01*
X193283057Y-31253201D01*
X193283055Y-31253195D01*
X193191188Y-31031408D01*
X193191186Y-31031404D01*
X193189293Y-31026834D01*
X193058691Y-30813711D01*
X192896357Y-30623643D01*
X192706289Y-30461309D01*
X192493166Y-30330707D01*
X192488596Y-30328814D01*
X192488592Y-30328812D01*
X192266805Y-30236945D01*
X192266799Y-30236943D01*
X192262236Y-30235053D01*
X192257436Y-30233901D01*
X192257431Y-30233899D01*
X192203781Y-30221019D01*
X192142212Y-30185666D01*
X192109530Y-30122640D01*
X192116111Y-30051949D01*
X192159865Y-29996037D01*
X192233196Y-29972500D01*
X195384247Y-29972500D01*
X195452368Y-29992502D01*
X195491680Y-30032665D01*
X195506602Y-30057016D01*
X195561309Y-30146289D01*
X195723643Y-30336357D01*
X195913711Y-30498691D01*
X196126834Y-30629293D01*
X196131404Y-30631186D01*
X196131408Y-30631188D01*
X196353195Y-30723055D01*
X196353201Y-30723057D01*
X196357764Y-30724947D01*
X196362564Y-30726099D01*
X196362569Y-30726101D01*
X196452102Y-30747596D01*
X196600814Y-30783299D01*
X196850000Y-30802910D01*
X197099186Y-30783299D01*
X197247898Y-30747596D01*
X197337431Y-30726101D01*
X197337436Y-30726099D01*
X197342236Y-30724947D01*
X197346799Y-30723057D01*
X197346805Y-30723055D01*
X197568592Y-30631188D01*
X197568596Y-30631186D01*
X197573166Y-30629293D01*
X197786289Y-30498691D01*
X197976357Y-30336357D01*
X198138691Y-30146289D01*
X198269293Y-29933166D01*
X198286939Y-29890565D01*
X198363055Y-29706805D01*
X198363057Y-29706799D01*
X198364947Y-29702236D01*
X198423299Y-29459186D01*
X198442910Y-29210000D01*
X198423299Y-28960814D01*
X198420034Y-28947213D01*
X198398595Y-28857914D01*
X198402142Y-28787006D01*
X198443462Y-28729272D01*
X198509435Y-28703042D01*
X198521114Y-28702500D01*
X200291972Y-28702500D01*
X200360093Y-28722502D01*
X200381067Y-28739405D01*
X202400595Y-30758933D01*
X202434621Y-30821245D01*
X202437500Y-30848028D01*
X202437500Y-31286804D01*
X202417498Y-31354925D01*
X202363842Y-31401418D01*
X202293568Y-31411522D01*
X202228988Y-31382028D01*
X202188981Y-31316219D01*
X202176101Y-31262569D01*
X202176099Y-31262564D01*
X202174947Y-31257764D01*
X202173057Y-31253201D01*
X202173055Y-31253195D01*
X202081188Y-31031408D01*
X202081186Y-31031404D01*
X202079293Y-31026834D01*
X201948691Y-30813711D01*
X201786357Y-30623643D01*
X201596289Y-30461309D01*
X201383166Y-30330707D01*
X201378596Y-30328814D01*
X201378592Y-30328812D01*
X201156805Y-30236945D01*
X201156799Y-30236943D01*
X201152236Y-30235053D01*
X201147436Y-30233901D01*
X201147431Y-30233899D01*
X201036168Y-30207187D01*
X200909186Y-30176701D01*
X200660000Y-30157090D01*
X200410814Y-30176701D01*
X200283832Y-30207187D01*
X200172569Y-30233899D01*
X200172564Y-30233901D01*
X200167764Y-30235053D01*
X200163201Y-30236943D01*
X200163195Y-30236945D01*
X199941408Y-30328812D01*
X199941404Y-30328814D01*
X199936834Y-30330707D01*
X199723711Y-30461309D01*
X199533643Y-30623643D01*
X199371309Y-30813711D01*
X199240707Y-31026834D01*
X199238814Y-31031404D01*
X199238812Y-31031408D01*
X199146945Y-31253195D01*
X199146943Y-31253201D01*
X199145053Y-31257764D01*
X199143901Y-31262564D01*
X199143899Y-31262569D01*
X199121726Y-31354925D01*
X199086701Y-31500814D01*
X199067090Y-31750000D01*
X199086701Y-31999186D01*
X199101528Y-32060944D01*
X199143897Y-32237419D01*
X199145053Y-32242236D01*
X199146943Y-32246799D01*
X199146945Y-32246805D01*
X199238812Y-32468592D01*
X199240707Y-32473166D01*
X199371309Y-32686289D01*
X199533643Y-32876357D01*
X199537399Y-32879565D01*
X199589647Y-32924189D01*
X199628456Y-32983639D01*
X199628962Y-33054634D01*
X199589647Y-33115811D01*
X199533643Y-33163643D01*
X199371309Y-33353711D01*
X199240707Y-33566834D01*
X199238814Y-33571404D01*
X199238812Y-33571408D01*
X199146945Y-33793195D01*
X199146943Y-33793201D01*
X199145053Y-33797764D01*
X199143901Y-33802564D01*
X199143899Y-33802569D01*
X199117810Y-33911236D01*
X199086701Y-34040814D01*
X199067090Y-34290000D01*
X199086701Y-34539186D01*
X199087855Y-34543995D01*
X199087856Y-34543998D01*
X199111405Y-34642086D01*
X199107858Y-34712994D01*
X199066538Y-34770728D01*
X199000565Y-34796958D01*
X198988886Y-34797500D01*
X198521114Y-34797500D01*
X198452993Y-34777498D01*
X198406500Y-34723842D01*
X198396396Y-34653568D01*
X198398595Y-34642086D01*
X198422144Y-34543998D01*
X198422145Y-34543995D01*
X198423299Y-34539186D01*
X198442910Y-34290000D01*
X198423299Y-34040814D01*
X198392190Y-33911236D01*
X198366101Y-33802569D01*
X198366099Y-33802564D01*
X198364947Y-33797764D01*
X198363057Y-33793201D01*
X198363055Y-33793195D01*
X198271188Y-33571408D01*
X198271186Y-33571404D01*
X198269293Y-33566834D01*
X198138691Y-33353711D01*
X197976357Y-33163643D01*
X197786289Y-33001309D01*
X197573166Y-32870707D01*
X197568596Y-32868814D01*
X197568592Y-32868812D01*
X197346805Y-32776945D01*
X197346799Y-32776943D01*
X197342236Y-32775053D01*
X197337436Y-32773901D01*
X197337431Y-32773899D01*
X197226168Y-32747187D01*
X197099186Y-32716701D01*
X196850000Y-32697090D01*
X196600814Y-32716701D01*
X196473832Y-32747187D01*
X196362569Y-32773899D01*
X196362564Y-32773901D01*
X196357764Y-32775053D01*
X196353201Y-32776943D01*
X196353195Y-32776945D01*
X196131408Y-32868812D01*
X196131404Y-32868814D01*
X196126834Y-32870707D01*
X195913711Y-33001309D01*
X195723643Y-33163643D01*
X195561309Y-33353711D01*
X195430707Y-33566834D01*
X195428814Y-33571404D01*
X195428812Y-33571408D01*
X195336945Y-33793195D01*
X195336943Y-33793201D01*
X195335053Y-33797764D01*
X195333901Y-33802564D01*
X195333899Y-33802569D01*
X195307810Y-33911236D01*
X195276701Y-34040814D01*
X195257090Y-34290000D01*
X195276701Y-34539186D01*
X195277855Y-34543995D01*
X195277856Y-34543998D01*
X195301405Y-34642086D01*
X195297858Y-34712994D01*
X195256538Y-34770728D01*
X195190565Y-34796958D01*
X195178886Y-34797500D01*
X190901113Y-34797500D01*
X190832992Y-34777498D01*
X190786499Y-34723842D01*
X190776395Y-34653568D01*
X190778594Y-34642086D01*
X190803299Y-34539186D01*
X190822910Y-34290000D01*
X190803299Y-34040814D01*
X190772190Y-33911236D01*
X190746101Y-33802569D01*
X190746099Y-33802564D01*
X190744947Y-33797764D01*
X190743057Y-33793201D01*
X190743055Y-33793195D01*
X190651188Y-33571408D01*
X190651186Y-33571404D01*
X190649293Y-33566834D01*
X190518691Y-33353711D01*
X190356357Y-33163643D01*
X190166289Y-33001309D01*
X189953166Y-32870707D01*
X189948596Y-32868814D01*
X189948592Y-32868812D01*
X189726805Y-32776945D01*
X189726799Y-32776943D01*
X189722236Y-32775053D01*
X189717436Y-32773901D01*
X189717431Y-32773899D01*
X189606168Y-32747187D01*
X189479186Y-32716701D01*
X189230000Y-32697090D01*
X188980814Y-32716701D01*
X188853832Y-32747187D01*
X188742569Y-32773899D01*
X188742564Y-32773901D01*
X188737764Y-32775053D01*
X188733201Y-32776943D01*
X188733195Y-32776945D01*
X188511408Y-32868812D01*
X188511404Y-32868814D01*
X188506834Y-32870707D01*
X188293711Y-33001309D01*
X188103643Y-33163643D01*
X187941309Y-33353711D01*
X187810707Y-33566834D01*
X187808814Y-33571404D01*
X187808812Y-33571408D01*
X187716945Y-33793195D01*
X187716943Y-33793201D01*
X187715053Y-33797764D01*
X187713901Y-33802564D01*
X187713899Y-33802569D01*
X187687810Y-33911236D01*
X187656701Y-34040814D01*
X187637090Y-34290000D01*
X187656701Y-34539186D01*
X187684162Y-34653568D01*
X187704284Y-34737379D01*
X187715053Y-34782236D01*
X187716943Y-34786799D01*
X187716945Y-34786805D01*
X187808812Y-35008592D01*
X187810707Y-35013166D01*
X187941309Y-35226289D01*
X188103643Y-35416357D01*
X188293711Y-35578691D01*
X188506834Y-35709293D01*
X188511404Y-35711186D01*
X188511408Y-35711188D01*
X188733195Y-35803055D01*
X188733201Y-35803057D01*
X188737764Y-35804947D01*
X188742564Y-35806099D01*
X188742569Y-35806101D01*
X188851233Y-35832189D01*
X188980814Y-35863299D01*
X189230000Y-35882910D01*
X189479186Y-35863299D01*
X189608765Y-35832189D01*
X189679672Y-35835735D01*
X189727274Y-35865612D01*
X189913190Y-36051528D01*
X189925577Y-36065941D01*
X189938546Y-36083564D01*
X189944129Y-36088307D01*
X189979055Y-36117979D01*
X189986571Y-36124909D01*
X189992315Y-36130653D01*
X189995189Y-36132927D01*
X189995196Y-36132933D01*
X190014711Y-36148372D01*
X190018115Y-36151163D01*
X190068472Y-36193945D01*
X190068476Y-36193948D01*
X190074051Y-36198684D01*
X190080568Y-36202012D01*
X190085632Y-36205389D01*
X190090856Y-36208616D01*
X190096600Y-36213160D01*
X190103231Y-36216259D01*
X190163082Y-36244232D01*
X190167033Y-36246163D01*
X190232404Y-36279543D01*
X190239519Y-36281284D01*
X190245265Y-36283421D01*
X190251048Y-36285345D01*
X190257679Y-36288444D01*
X190329557Y-36303394D01*
X190333829Y-36304361D01*
X190405112Y-36321804D01*
X190410711Y-36322151D01*
X190410715Y-36322152D01*
X190416330Y-36322500D01*
X190416328Y-36322539D01*
X190420229Y-36322772D01*
X190424588Y-36323161D01*
X190431756Y-36324652D01*
X190439073Y-36324454D01*
X190509577Y-36322546D01*
X190512986Y-36322500D01*
X201862624Y-36322500D01*
X201881574Y-36323933D01*
X201895973Y-36326124D01*
X201895979Y-36326124D01*
X201903208Y-36327224D01*
X201910500Y-36326631D01*
X201910503Y-36326631D01*
X201956183Y-36322915D01*
X201966398Y-36322500D01*
X201974525Y-36322500D01*
X201978161Y-36322076D01*
X201978163Y-36322076D01*
X201981615Y-36321673D01*
X202002924Y-36319189D01*
X202007244Y-36318762D01*
X202080426Y-36312809D01*
X202087388Y-36310553D01*
X202093376Y-36309357D01*
X202099333Y-36307949D01*
X202106607Y-36307101D01*
X202113489Y-36304603D01*
X202113493Y-36304602D01*
X202175607Y-36282055D01*
X202179711Y-36280645D01*
X202249575Y-36258013D01*
X202255838Y-36254213D01*
X202261380Y-36251675D01*
X202266856Y-36248933D01*
X202273741Y-36246434D01*
X202335132Y-36206185D01*
X202338800Y-36203870D01*
X202401581Y-36165773D01*
X202405786Y-36162059D01*
X202405789Y-36162057D01*
X202410005Y-36158333D01*
X202410031Y-36158362D01*
X202412962Y-36155762D01*
X202416316Y-36152958D01*
X202422435Y-36148946D01*
X202475989Y-36092413D01*
X202478366Y-36089972D01*
X203110905Y-35457433D01*
X203173217Y-35423407D01*
X203244032Y-35428472D01*
X203289095Y-35457433D01*
X204164388Y-36332726D01*
X204198414Y-36395038D01*
X204197811Y-36451235D01*
X204166701Y-36580814D01*
X204147090Y-36830000D01*
X204166701Y-37079186D01*
X204178408Y-37127948D01*
X204208312Y-37252504D01*
X204225053Y-37322236D01*
X204226943Y-37326799D01*
X204226945Y-37326805D01*
X204318812Y-37548592D01*
X204320707Y-37553166D01*
X204451309Y-37766289D01*
X204613643Y-37956357D01*
X204803711Y-38118691D01*
X205016834Y-38249293D01*
X205021404Y-38251186D01*
X205021408Y-38251188D01*
X205243195Y-38343055D01*
X205243201Y-38343057D01*
X205247764Y-38344947D01*
X205252564Y-38346099D01*
X205252569Y-38346101D01*
X205358722Y-38371586D01*
X205490814Y-38403299D01*
X205740000Y-38422910D01*
X205989186Y-38403299D01*
X206121278Y-38371586D01*
X206227431Y-38346101D01*
X206227436Y-38346099D01*
X206232236Y-38344947D01*
X206236799Y-38343057D01*
X206236805Y-38343055D01*
X206458592Y-38251188D01*
X206458596Y-38251186D01*
X206463166Y-38249293D01*
X206676289Y-38118691D01*
X206866357Y-37956357D01*
X207028691Y-37766289D01*
X207159293Y-37553166D01*
X207161188Y-37548592D01*
X207253055Y-37326805D01*
X207253057Y-37326799D01*
X207254947Y-37322236D01*
X207271689Y-37252504D01*
X207301592Y-37127948D01*
X207313299Y-37079186D01*
X207332910Y-36830000D01*
X207313299Y-36580814D01*
X207282190Y-36451236D01*
X207256101Y-36342569D01*
X207256099Y-36342564D01*
X207254947Y-36337764D01*
X207253057Y-36333201D01*
X207253055Y-36333195D01*
X207161188Y-36111408D01*
X207161186Y-36111404D01*
X207159293Y-36106834D01*
X207028691Y-35893711D01*
X206866357Y-35703643D01*
X206810353Y-35655811D01*
X206771544Y-35596361D01*
X206771038Y-35525366D01*
X206810353Y-35464189D01*
X206862601Y-35419565D01*
X206866357Y-35416357D01*
X207028691Y-35226289D01*
X207159293Y-35013166D01*
X207161188Y-35008592D01*
X207253055Y-34786805D01*
X207253057Y-34786799D01*
X207254947Y-34782236D01*
X207265717Y-34737379D01*
X207285838Y-34653568D01*
X207313299Y-34539186D01*
X207332910Y-34290000D01*
X207313299Y-34040814D01*
X207282190Y-33911236D01*
X207256101Y-33802569D01*
X207256099Y-33802564D01*
X207254947Y-33797764D01*
X207253057Y-33793201D01*
X207253055Y-33793195D01*
X207161188Y-33571408D01*
X207161186Y-33571404D01*
X207159293Y-33566834D01*
X207045050Y-33380406D01*
X207026512Y-33311872D01*
X207047968Y-33244195D01*
X207075254Y-33215014D01*
X207078277Y-33212669D01*
X207085098Y-33208635D01*
X207198635Y-33095098D01*
X207280369Y-32956893D01*
X207283323Y-32946725D01*
X207323371Y-32808881D01*
X207323372Y-32808876D01*
X207325165Y-32802704D01*
X207327432Y-32773899D01*
X207327807Y-32769138D01*
X207327807Y-32769129D01*
X207328000Y-32766681D01*
X207327999Y-30733320D01*
X207326485Y-30714077D01*
X207325670Y-30703714D01*
X207325669Y-30703706D01*
X207325165Y-30697296D01*
X207305409Y-30629293D01*
X207282581Y-30550720D01*
X207282580Y-30550718D01*
X207280369Y-30543107D01*
X207198635Y-30404902D01*
X207085098Y-30291365D01*
X207000855Y-30241544D01*
X206953716Y-30213666D01*
X206953715Y-30213666D01*
X206946893Y-30209631D01*
X206939282Y-30207420D01*
X206939280Y-30207419D01*
X206798881Y-30166629D01*
X206798876Y-30166628D01*
X206792704Y-30164835D01*
X206771081Y-30163133D01*
X206759138Y-30162193D01*
X206759129Y-30162193D01*
X206756681Y-30162000D01*
X205974053Y-30162000D01*
X205905932Y-30141998D01*
X205859439Y-30088342D01*
X205849335Y-30018068D01*
X205866620Y-29970165D01*
X205886707Y-29937386D01*
X205889293Y-29933166D01*
X205906939Y-29890565D01*
X205983055Y-29706805D01*
X205983057Y-29706799D01*
X205984947Y-29702236D01*
X206043299Y-29459186D01*
X206062910Y-29210000D01*
X206060152Y-29174961D01*
X208116280Y-29174961D01*
X208116577Y-29180113D01*
X208116577Y-29180117D01*
X208122340Y-29280058D01*
X208129809Y-29409595D01*
X208130946Y-29414641D01*
X208130947Y-29414647D01*
X208154902Y-29520943D01*
X208181478Y-29638869D01*
X208183420Y-29643651D01*
X208183421Y-29643655D01*
X208245726Y-29797092D01*
X208269900Y-29856625D01*
X208392699Y-30057016D01*
X208546579Y-30234660D01*
X208727407Y-30384785D01*
X208731863Y-30387389D01*
X208731866Y-30387391D01*
X208916838Y-30495480D01*
X208930325Y-30503361D01*
X209132494Y-30580562D01*
X209149885Y-30587203D01*
X209149277Y-30588796D01*
X209202761Y-30622947D01*
X209232444Y-30687441D01*
X209233392Y-30715621D01*
X209232194Y-30730853D01*
X209232000Y-30733319D01*
X209232001Y-32766680D01*
X209234835Y-32802704D01*
X209236630Y-32808881D01*
X209236631Y-32808887D01*
X209276677Y-32946725D01*
X209279631Y-32956893D01*
X209361365Y-33095098D01*
X209474902Y-33208635D01*
X209481723Y-33212669D01*
X209484746Y-33215014D01*
X209526311Y-33272571D01*
X209530160Y-33343463D01*
X209514950Y-33380406D01*
X209400707Y-33566834D01*
X209398814Y-33571404D01*
X209398812Y-33571408D01*
X209306945Y-33793195D01*
X209306943Y-33793201D01*
X209305053Y-33797764D01*
X209303901Y-33802564D01*
X209303899Y-33802569D01*
X209277810Y-33911236D01*
X209246701Y-34040814D01*
X209227090Y-34290000D01*
X209246701Y-34539186D01*
X209274162Y-34653568D01*
X209294284Y-34737379D01*
X209305053Y-34782236D01*
X209306943Y-34786799D01*
X209306945Y-34786805D01*
X209398812Y-35008592D01*
X209400707Y-35013166D01*
X209531309Y-35226289D01*
X209693643Y-35416357D01*
X209883711Y-35578691D01*
X210096834Y-35709293D01*
X210101404Y-35711186D01*
X210101408Y-35711188D01*
X210323195Y-35803055D01*
X210323201Y-35803057D01*
X210327764Y-35804947D01*
X210332564Y-35806099D01*
X210332569Y-35806101D01*
X210441233Y-35832189D01*
X210570814Y-35863299D01*
X210820000Y-35882910D01*
X211069186Y-35863299D01*
X211198767Y-35832189D01*
X211307431Y-35806101D01*
X211307436Y-35806099D01*
X211312236Y-35804947D01*
X211316799Y-35803057D01*
X211316805Y-35803055D01*
X211538592Y-35711188D01*
X211538596Y-35711186D01*
X211543166Y-35709293D01*
X211756289Y-35578691D01*
X211946357Y-35416357D01*
X212108691Y-35226289D01*
X212239293Y-35013166D01*
X212241188Y-35008592D01*
X212333055Y-34786805D01*
X212333057Y-34786799D01*
X212334947Y-34782236D01*
X212345717Y-34737379D01*
X212365838Y-34653568D01*
X212393299Y-34539186D01*
X212412910Y-34290000D01*
X212393299Y-34040814D01*
X212362190Y-33911236D01*
X212336101Y-33802569D01*
X212336099Y-33802564D01*
X212334947Y-33797764D01*
X212333057Y-33793201D01*
X212333055Y-33793195D01*
X212241188Y-33571408D01*
X212241186Y-33571404D01*
X212239293Y-33566834D01*
X212125050Y-33380406D01*
X212106512Y-33311872D01*
X212127968Y-33244195D01*
X212155254Y-33215014D01*
X212158277Y-33212669D01*
X212165098Y-33208635D01*
X212278635Y-33095098D01*
X212360369Y-32956893D01*
X212363323Y-32946725D01*
X212403371Y-32808881D01*
X212403372Y-32808876D01*
X212405165Y-32802704D01*
X212407432Y-32773899D01*
X212407807Y-32769138D01*
X212407807Y-32769129D01*
X212408000Y-32766681D01*
X212407999Y-30733320D01*
X212406253Y-30711130D01*
X212420850Y-30641652D01*
X212470694Y-30591093D01*
X212495658Y-30580562D01*
X212608344Y-30546755D01*
X212613287Y-30545272D01*
X212672302Y-30516361D01*
X212819710Y-30444147D01*
X212819713Y-30444145D01*
X212824345Y-30441876D01*
X212904384Y-30384785D01*
X213011478Y-30308396D01*
X213011480Y-30308394D01*
X213015682Y-30305397D01*
X213182159Y-30139500D01*
X213319305Y-29948641D01*
X213345383Y-29895877D01*
X213421144Y-29742584D01*
X213423437Y-29737945D01*
X213424937Y-29733006D01*
X213424940Y-29733000D01*
X213490258Y-29518011D01*
X213491759Y-29513071D01*
X213522436Y-29280058D01*
X213524148Y-29210000D01*
X213514145Y-29088328D01*
X213505314Y-28980917D01*
X213505313Y-28980911D01*
X213504890Y-28975766D01*
X213447635Y-28747823D01*
X213445579Y-28743093D01*
X213445576Y-28743086D01*
X213355980Y-28537029D01*
X213355978Y-28537026D01*
X213353920Y-28532292D01*
X213334074Y-28501614D01*
X213229069Y-28339302D01*
X213229065Y-28339297D01*
X213226261Y-28334962D01*
X213068087Y-28161131D01*
X212883645Y-28015468D01*
X212677890Y-27901885D01*
X212558203Y-27859501D01*
X212461222Y-27825158D01*
X212461218Y-27825157D01*
X212456347Y-27823432D01*
X212451254Y-27822525D01*
X212451251Y-27822524D01*
X212230054Y-27783123D01*
X212230048Y-27783122D01*
X212224965Y-27782217D01*
X212151830Y-27781324D01*
X211995130Y-27779409D01*
X211995128Y-27779409D01*
X211989959Y-27779346D01*
X211757639Y-27814895D01*
X211752720Y-27816503D01*
X211752719Y-27816503D01*
X211661178Y-27846423D01*
X211534245Y-27887912D01*
X211325777Y-27996434D01*
X211137832Y-28137547D01*
X211115295Y-28161131D01*
X211011303Y-28269952D01*
X210975458Y-28307461D01*
X210924764Y-28381775D01*
X210869855Y-28426776D01*
X210799330Y-28434947D01*
X210735583Y-28403693D01*
X210714886Y-28379210D01*
X210686261Y-28334962D01*
X210528087Y-28161131D01*
X210343645Y-28015468D01*
X210137890Y-27901885D01*
X210018203Y-27859501D01*
X209921222Y-27825158D01*
X209921218Y-27825157D01*
X209916347Y-27823432D01*
X209911254Y-27822525D01*
X209911251Y-27822524D01*
X209690054Y-27783123D01*
X209690048Y-27783122D01*
X209684965Y-27782217D01*
X209611830Y-27781324D01*
X209455130Y-27779409D01*
X209455128Y-27779409D01*
X209449959Y-27779346D01*
X209217639Y-27814895D01*
X209212720Y-27816503D01*
X209212719Y-27816503D01*
X209121178Y-27846423D01*
X208994245Y-27887912D01*
X208785777Y-27996434D01*
X208597832Y-28137547D01*
X208575295Y-28161131D01*
X208471303Y-28269952D01*
X208435458Y-28307461D01*
X208432549Y-28311726D01*
X208432543Y-28311734D01*
X208386514Y-28379210D01*
X208303016Y-28501614D01*
X208288776Y-28532292D01*
X208206239Y-28710100D01*
X208206237Y-28710105D01*
X208204062Y-28714791D01*
X208141255Y-28941267D01*
X208116280Y-29174961D01*
X206060152Y-29174961D01*
X206043299Y-28960814D01*
X206001571Y-28787006D01*
X205986101Y-28722569D01*
X205986099Y-28722564D01*
X205984947Y-28717764D01*
X205983057Y-28713201D01*
X205983055Y-28713195D01*
X205891188Y-28491408D01*
X205891186Y-28491404D01*
X205889293Y-28486834D01*
X205758691Y-28273711D01*
X205596357Y-28083643D01*
X205406289Y-27921309D01*
X205193166Y-27790707D01*
X205188596Y-27788814D01*
X205188592Y-27788812D01*
X204966805Y-27696945D01*
X204966799Y-27696943D01*
X204962236Y-27695053D01*
X204957436Y-27693901D01*
X204957431Y-27693899D01*
X204846168Y-27667187D01*
X204719186Y-27636701D01*
X204470000Y-27617090D01*
X204220814Y-27636701D01*
X204093832Y-27667187D01*
X203982569Y-27693899D01*
X203982564Y-27693901D01*
X203977764Y-27695053D01*
X203973201Y-27696943D01*
X203973195Y-27696945D01*
X203751408Y-27788812D01*
X203751404Y-27788814D01*
X203746834Y-27790707D01*
X203533711Y-27921309D01*
X203343643Y-28083643D01*
X203181309Y-28273711D01*
X203050707Y-28486834D01*
X203048814Y-28491404D01*
X203048812Y-28491408D01*
X202956945Y-28713195D01*
X202956943Y-28713201D01*
X202955053Y-28717764D01*
X202953901Y-28722563D01*
X202953895Y-28722581D01*
X202922593Y-28852962D01*
X202887241Y-28914531D01*
X202824214Y-28947213D01*
X202753523Y-28940632D01*
X202710980Y-28912642D01*
X201246810Y-27448472D01*
X201234423Y-27434059D01*
X201225795Y-27422335D01*
X201221454Y-27416436D01*
X201180945Y-27382021D01*
X201173429Y-27375091D01*
X201167685Y-27369347D01*
X201164811Y-27367073D01*
X201164804Y-27367067D01*
X201145289Y-27351628D01*
X201141885Y-27348837D01*
X201091528Y-27306055D01*
X201091524Y-27306052D01*
X201085949Y-27301316D01*
X201079432Y-27297988D01*
X201074368Y-27294611D01*
X201069144Y-27291384D01*
X201063400Y-27286840D01*
X201000797Y-27257581D01*
X200996918Y-27255768D01*
X200992967Y-27253837D01*
X200934117Y-27223787D01*
X200927596Y-27220457D01*
X200920481Y-27218716D01*
X200914735Y-27216579D01*
X200908952Y-27214655D01*
X200902321Y-27211556D01*
X200830443Y-27196606D01*
X200826171Y-27195639D01*
X200754888Y-27178196D01*
X200749289Y-27177849D01*
X200749285Y-27177848D01*
X200743670Y-27177500D01*
X200743672Y-27177461D01*
X200739771Y-27177228D01*
X200735412Y-27176839D01*
X200728244Y-27175348D01*
X200720927Y-27175546D01*
X200650423Y-27177454D01*
X200647014Y-27177500D01*
X170247376Y-27177500D01*
X170228426Y-27176067D01*
X170214027Y-27173876D01*
X170214021Y-27173876D01*
X170206792Y-27172776D01*
X170199500Y-27173369D01*
X170199497Y-27173369D01*
X170153817Y-27177085D01*
X170143602Y-27177500D01*
X170135475Y-27177500D01*
X170131839Y-27177924D01*
X170131837Y-27177924D01*
X170128385Y-27178327D01*
X170107076Y-27180811D01*
X170102756Y-27181238D01*
X170029574Y-27187191D01*
X170022612Y-27189447D01*
X170016624Y-27190643D01*
X170010667Y-27192051D01*
X170003393Y-27192899D01*
X169996511Y-27195397D01*
X169996507Y-27195398D01*
X169934393Y-27217945D01*
X169930289Y-27219355D01*
X169860425Y-27241987D01*
X169854162Y-27245787D01*
X169848620Y-27248325D01*
X169843144Y-27251067D01*
X169836259Y-27253566D01*
X169830135Y-27257581D01*
X169774868Y-27293815D01*
X169771200Y-27296130D01*
X169708419Y-27334227D01*
X169704214Y-27337941D01*
X169704211Y-27337943D01*
X169699995Y-27341667D01*
X169699969Y-27341638D01*
X169697038Y-27344238D01*
X169693684Y-27347042D01*
X169687565Y-27351054D01*
X169658230Y-27382021D01*
X169634012Y-27407586D01*
X169631634Y-27410028D01*
X167361556Y-29680106D01*
X167299244Y-29714132D01*
X167272461Y-29717011D01*
X161357866Y-29717011D01*
X161338916Y-29715578D01*
X161324517Y-29713387D01*
X161324511Y-29713387D01*
X161317282Y-29712287D01*
X161309990Y-29712880D01*
X161309987Y-29712880D01*
X161264307Y-29716596D01*
X161254092Y-29717011D01*
X161245964Y-29717011D01*
X161242342Y-29717433D01*
X161242329Y-29717434D01*
X161217575Y-29720320D01*
X161213216Y-29720751D01*
X161140063Y-29726702D01*
X161133101Y-29728958D01*
X161127113Y-29730154D01*
X161121156Y-29731562D01*
X161113882Y-29732410D01*
X161107000Y-29734908D01*
X161106996Y-29734909D01*
X161044882Y-29757456D01*
X161040778Y-29758866D01*
X160970914Y-29781498D01*
X160964651Y-29785298D01*
X160959109Y-29787836D01*
X160953633Y-29790578D01*
X160946748Y-29793077D01*
X160940624Y-29797092D01*
X160885357Y-29833326D01*
X160881689Y-29835641D01*
X160818908Y-29873738D01*
X160814703Y-29877452D01*
X160814700Y-29877454D01*
X160810484Y-29881178D01*
X160810458Y-29881149D01*
X160807527Y-29883749D01*
X160804173Y-29886553D01*
X160798054Y-29890565D01*
X160793022Y-29895877D01*
X160744501Y-29947097D01*
X160742123Y-29949539D01*
X156699019Y-33992643D01*
X156636707Y-34026669D01*
X156565892Y-34021604D01*
X156509056Y-33979057D01*
X156487406Y-33932966D01*
X156483762Y-33917788D01*
X156482189Y-33911236D01*
X156485734Y-33840331D01*
X156515612Y-33792726D01*
X159241528Y-31066810D01*
X159255941Y-31054423D01*
X159267665Y-31045795D01*
X159273564Y-31041454D01*
X159307979Y-31000945D01*
X159314909Y-30993429D01*
X159320653Y-30987685D01*
X159322927Y-30984811D01*
X159322933Y-30984804D01*
X159338372Y-30965289D01*
X159341163Y-30961885D01*
X159383945Y-30911528D01*
X159383948Y-30911524D01*
X159388684Y-30905949D01*
X159392012Y-30899432D01*
X159395389Y-30894368D01*
X159398616Y-30889144D01*
X159403160Y-30883400D01*
X159434242Y-30816896D01*
X159436147Y-30812999D01*
X159469543Y-30747596D01*
X159471284Y-30740482D01*
X159473416Y-30734748D01*
X159475344Y-30728952D01*
X159478444Y-30722320D01*
X159490301Y-30665315D01*
X159523756Y-30602695D01*
X159547824Y-30583543D01*
X159686289Y-30498691D01*
X159876357Y-30336357D01*
X160038691Y-30146289D01*
X160169293Y-29933166D01*
X160186939Y-29890565D01*
X160263055Y-29706805D01*
X160263057Y-29706799D01*
X160264947Y-29702236D01*
X160323299Y-29459186D01*
X160342910Y-29210000D01*
X160323299Y-28960814D01*
X160281571Y-28787006D01*
X160266101Y-28722569D01*
X160266099Y-28722564D01*
X160264947Y-28717764D01*
X160263057Y-28713201D01*
X160263055Y-28713195D01*
X160171188Y-28491408D01*
X160171186Y-28491404D01*
X160169293Y-28486834D01*
X160038691Y-28273711D01*
X159876357Y-28083643D01*
X159686289Y-27921309D01*
X159473166Y-27790707D01*
X159468596Y-27788814D01*
X159468592Y-27788812D01*
X159246805Y-27696945D01*
X159246799Y-27696943D01*
X159242236Y-27695053D01*
X159237436Y-27693901D01*
X159237431Y-27693899D01*
X159126168Y-27667187D01*
X158999186Y-27636701D01*
X158750000Y-27617090D01*
X158500814Y-27636701D01*
X158373832Y-27667187D01*
X158262569Y-27693899D01*
X158262564Y-27693901D01*
X158257764Y-27695053D01*
X158253201Y-27696943D01*
X158253195Y-27696945D01*
X158031408Y-27788812D01*
X158031404Y-27788814D01*
X158026834Y-27790707D01*
X157813711Y-27921309D01*
X157623643Y-28083643D01*
X157461309Y-28273711D01*
X157330707Y-28486834D01*
X157328814Y-28491404D01*
X157328812Y-28491408D01*
X157236945Y-28713195D01*
X157236943Y-28713201D01*
X157235053Y-28717764D01*
X157233901Y-28722564D01*
X157233899Y-28722569D01*
X157218429Y-28787006D01*
X157176701Y-28960814D01*
X157157090Y-29210000D01*
X157176701Y-29459186D01*
X157235053Y-29702236D01*
X157236943Y-29706799D01*
X157236945Y-29706805D01*
X157313061Y-29890565D01*
X157330707Y-29933166D01*
X157461309Y-30146289D01*
X157623643Y-30336357D01*
X157627399Y-30339565D01*
X157630653Y-30342819D01*
X157664679Y-30405131D01*
X157659614Y-30475946D01*
X157630653Y-30521009D01*
X156743094Y-31408568D01*
X156680782Y-31442594D01*
X156609967Y-31437529D01*
X156553131Y-31394982D01*
X156528320Y-31328462D01*
X156527999Y-31319473D01*
X156527999Y-30733320D01*
X156526485Y-30714077D01*
X156525670Y-30703714D01*
X156525669Y-30703706D01*
X156525165Y-30697296D01*
X156505409Y-30629293D01*
X156482581Y-30550720D01*
X156482580Y-30550718D01*
X156480369Y-30543107D01*
X156398635Y-30404902D01*
X156285098Y-30291365D01*
X156200855Y-30241544D01*
X156153716Y-30213666D01*
X156153715Y-30213666D01*
X156146893Y-30209631D01*
X156139282Y-30207420D01*
X156139280Y-30207419D01*
X155998881Y-30166629D01*
X155998876Y-30166628D01*
X155992704Y-30164835D01*
X155971081Y-30163133D01*
X155959138Y-30162193D01*
X155959129Y-30162193D01*
X155956681Y-30162000D01*
X154940823Y-30162000D01*
X153923320Y-30162001D01*
X153904077Y-30163515D01*
X153893714Y-30164330D01*
X153893713Y-30164330D01*
X153887296Y-30164835D01*
X153881116Y-30166630D01*
X153881113Y-30166631D01*
X153740720Y-30207419D01*
X153740718Y-30207420D01*
X153733107Y-30209631D01*
X153726285Y-30213666D01*
X153726284Y-30213666D01*
X153679145Y-30241544D01*
X153594902Y-30291365D01*
X153481365Y-30404902D01*
X153399631Y-30543107D01*
X153397420Y-30550718D01*
X153397419Y-30550720D01*
X153356629Y-30691119D01*
X153356628Y-30691124D01*
X153354835Y-30697296D01*
X153353133Y-30718919D01*
X153352194Y-30730856D01*
X153352000Y-30733319D01*
X153352001Y-32766680D01*
X153354835Y-32802704D01*
X153356630Y-32808881D01*
X153356631Y-32808887D01*
X153396677Y-32946725D01*
X153399631Y-32956893D01*
X153481365Y-33095098D01*
X153594902Y-33208635D01*
X153601723Y-33212669D01*
X153604746Y-33215014D01*
X153646311Y-33272571D01*
X153650160Y-33343463D01*
X153634950Y-33380406D01*
X153520707Y-33566834D01*
X153518814Y-33571404D01*
X153518812Y-33571408D01*
X153426945Y-33793195D01*
X153426943Y-33793201D01*
X153425053Y-33797764D01*
X153423901Y-33802564D01*
X153423899Y-33802569D01*
X153397810Y-33911236D01*
X153366701Y-34040814D01*
X153347090Y-34290000D01*
X153366701Y-34539186D01*
X153394162Y-34653568D01*
X153414284Y-34737379D01*
X153425053Y-34782236D01*
X153426943Y-34786799D01*
X153426945Y-34786805D01*
X153518812Y-35008592D01*
X153520707Y-35013166D01*
X153651309Y-35226289D01*
X153813643Y-35416357D01*
X153817399Y-35419565D01*
X153869647Y-35464189D01*
X153908456Y-35523639D01*
X153908962Y-35594634D01*
X153869647Y-35655811D01*
X153813643Y-35703643D01*
X153651309Y-35893711D01*
X153520707Y-36106834D01*
X153518814Y-36111404D01*
X153518812Y-36111408D01*
X153426945Y-36333195D01*
X153426943Y-36333201D01*
X153425053Y-36337764D01*
X153423901Y-36342564D01*
X153423899Y-36342569D01*
X153397810Y-36451236D01*
X153366701Y-36580814D01*
X153347090Y-36830000D01*
X152564148Y-36830000D01*
X152557784Y-36752590D01*
X152545314Y-36600917D01*
X152545313Y-36600911D01*
X152544890Y-36595766D01*
X152494471Y-36395038D01*
X152488894Y-36372834D01*
X152488893Y-36372830D01*
X152487635Y-36367823D01*
X152485579Y-36363093D01*
X152485576Y-36363086D01*
X152395980Y-36157029D01*
X152395978Y-36157026D01*
X152393920Y-36152292D01*
X152353604Y-36089972D01*
X152269069Y-35959302D01*
X152269067Y-35959299D01*
X152266261Y-35954962D01*
X152108087Y-35781131D01*
X151951627Y-35657566D01*
X151910564Y-35599650D01*
X151907332Y-35528727D01*
X151942957Y-35467316D01*
X151956551Y-35456106D01*
X152055682Y-35385397D01*
X152222159Y-35219500D01*
X152359305Y-35028641D01*
X152376991Y-34992857D01*
X152426264Y-34893159D01*
X152463437Y-34817945D01*
X152464937Y-34813006D01*
X152464940Y-34813000D01*
X152530258Y-34598011D01*
X152531759Y-34593071D01*
X152562436Y-34360058D01*
X152564148Y-34290000D01*
X152554145Y-34168328D01*
X152545314Y-34060917D01*
X152545313Y-34060911D01*
X152544890Y-34055766D01*
X152508587Y-33911236D01*
X152488894Y-33832834D01*
X152488893Y-33832830D01*
X152487635Y-33827823D01*
X152485579Y-33823093D01*
X152485576Y-33823086D01*
X152395980Y-33617029D01*
X152395978Y-33617026D01*
X152393920Y-33612292D01*
X152374074Y-33581614D01*
X152269069Y-33419302D01*
X152269067Y-33419299D01*
X152266261Y-33414962D01*
X152108087Y-33241131D01*
X151923645Y-33095468D01*
X151717890Y-32981885D01*
X151542066Y-32919622D01*
X151501222Y-32905158D01*
X151501218Y-32905157D01*
X151496347Y-32903432D01*
X151491254Y-32902525D01*
X151491251Y-32902524D01*
X151270054Y-32863123D01*
X151270048Y-32863122D01*
X151264965Y-32862217D01*
X151191830Y-32861324D01*
X151035130Y-32859409D01*
X151035128Y-32859409D01*
X151029959Y-32859346D01*
X150797639Y-32894895D01*
X150792720Y-32896503D01*
X150792719Y-32896503D01*
X150721987Y-32919622D01*
X150574245Y-32967912D01*
X150365777Y-33076434D01*
X150361635Y-33079544D01*
X150189702Y-33208635D01*
X150177832Y-33217547D01*
X150155295Y-33241131D01*
X150051303Y-33349952D01*
X150015458Y-33387461D01*
X150012544Y-33391733D01*
X150012543Y-33391734D01*
X149961557Y-33466477D01*
X149883016Y-33581614D01*
X149868776Y-33612292D01*
X149786239Y-33790100D01*
X149786237Y-33790105D01*
X149784062Y-33794791D01*
X149721255Y-34021267D01*
X149696280Y-34254961D01*
X149696577Y-34260113D01*
X149696577Y-34260117D01*
X149701578Y-34346851D01*
X149709809Y-34489595D01*
X149720713Y-34537979D01*
X149716175Y-34608829D01*
X149686890Y-34654772D01*
X149087274Y-35254388D01*
X149024962Y-35288414D01*
X148968765Y-35287811D01*
X148839186Y-35256701D01*
X148590000Y-35237090D01*
X148340814Y-35256701D01*
X148269443Y-35273836D01*
X148102569Y-35313899D01*
X148102564Y-35313901D01*
X148097764Y-35315053D01*
X148093201Y-35316943D01*
X148093195Y-35316945D01*
X147871408Y-35408812D01*
X147871404Y-35408814D01*
X147866834Y-35410707D01*
X147653711Y-35541309D01*
X147463643Y-35703643D01*
X147301309Y-35893711D01*
X147170707Y-36106834D01*
X147168814Y-36111404D01*
X147168812Y-36111408D01*
X147076945Y-36333195D01*
X147076943Y-36333201D01*
X147075053Y-36337764D01*
X147073901Y-36342564D01*
X147073899Y-36342569D01*
X147047810Y-36451236D01*
X147016701Y-36580814D01*
X146997090Y-36830000D01*
X127635000Y-36830000D01*
X127635000Y-29210000D01*
X149537090Y-29210000D01*
X149556701Y-29459186D01*
X149615053Y-29702236D01*
X149616943Y-29706799D01*
X149616945Y-29706805D01*
X149693061Y-29890565D01*
X149710707Y-29933166D01*
X149841309Y-30146289D01*
X150003643Y-30336357D01*
X150193711Y-30498691D01*
X150406834Y-30629293D01*
X150411404Y-30631186D01*
X150411408Y-30631188D01*
X150633195Y-30723055D01*
X150633201Y-30723057D01*
X150637764Y-30724947D01*
X150642564Y-30726099D01*
X150642569Y-30726101D01*
X150732102Y-30747596D01*
X150880814Y-30783299D01*
X151130000Y-30802910D01*
X151379186Y-30783299D01*
X151527898Y-30747596D01*
X151617431Y-30726101D01*
X151617436Y-30726099D01*
X151622236Y-30724947D01*
X151626799Y-30723057D01*
X151626805Y-30723055D01*
X151848592Y-30631188D01*
X151848596Y-30631186D01*
X151853166Y-30629293D01*
X152066289Y-30498691D01*
X152256357Y-30336357D01*
X152418691Y-30146289D01*
X152549293Y-29933166D01*
X152566939Y-29890565D01*
X152643055Y-29706805D01*
X152643057Y-29706799D01*
X152644947Y-29702236D01*
X152703299Y-29459186D01*
X152722910Y-29210000D01*
X152703299Y-28960814D01*
X152661571Y-28787006D01*
X152646101Y-28722569D01*
X152646099Y-28722564D01*
X152644947Y-28717764D01*
X152643057Y-28713201D01*
X152643055Y-28713195D01*
X152551188Y-28491408D01*
X152551186Y-28491404D01*
X152549293Y-28486834D01*
X152418691Y-28273711D01*
X152256357Y-28083643D01*
X152066289Y-27921309D01*
X151853166Y-27790707D01*
X151848596Y-27788814D01*
X151848592Y-27788812D01*
X151626805Y-27696945D01*
X151626799Y-27696943D01*
X151622236Y-27695053D01*
X151617436Y-27693901D01*
X151617431Y-27693899D01*
X151506168Y-27667187D01*
X151379186Y-27636701D01*
X151130000Y-27617090D01*
X150880814Y-27636701D01*
X150753832Y-27667187D01*
X150642569Y-27693899D01*
X150642564Y-27693901D01*
X150637764Y-27695053D01*
X150633201Y-27696943D01*
X150633195Y-27696945D01*
X150411408Y-27788812D01*
X150411404Y-27788814D01*
X150406834Y-27790707D01*
X150193711Y-27921309D01*
X150003643Y-28083643D01*
X149841309Y-28273711D01*
X149710707Y-28486834D01*
X149708814Y-28491404D01*
X149708812Y-28491408D01*
X149616945Y-28713195D01*
X149616943Y-28713201D01*
X149615053Y-28717764D01*
X149613901Y-28722564D01*
X149613899Y-28722569D01*
X149598429Y-28787006D01*
X149556701Y-28960814D01*
X149537090Y-29210000D01*
X127635000Y-29210000D01*
X127635000Y-26161000D01*
X127655002Y-26092879D01*
X127708658Y-26046386D01*
X127761000Y-26035000D01*
X227839000Y-26035000D01*
X227907121Y-26055002D01*
G37*
%TD.AperFunction*%
%TD*%
M02*
