%TF.GenerationSoftware,KiCad,Pcbnew,(6.0.0)*%
%TF.CreationDate,2023-06-01T11:58:54-04:00*%
%TF.ProjectId,SEPIC,53455049-432e-46b6-9963-61645f706362,rev?*%
%TF.SameCoordinates,Original*%
%TF.FileFunction,Legend,Top*%
%TF.FilePolarity,Positive*%
%FSLAX46Y46*%
G04 Gerber Fmt 4.6, Leading zero omitted, Abs format (unit mm)*
G04 Created by KiCad (PCBNEW (6.0.0)) date 2023-06-01 11:58:54*
%MOMM*%
%LPD*%
G01*
G04 APERTURE LIST*
%ADD10C,0.254000*%
%ADD11C,0.127000*%
%ADD12C,0.150000*%
%ADD13C,0.120000*%
G04 APERTURE END LIST*
D10*
X169272857Y-112160654D02*
X169802023Y-113748154D01*
X170331190Y-112160654D01*
X170860357Y-113748154D02*
X170860357Y-112160654D01*
X174504047Y-112160654D02*
X174655238Y-112160654D01*
X174806428Y-112236250D01*
X174882023Y-112311845D01*
X174957619Y-112463035D01*
X175033214Y-112765416D01*
X175033214Y-113143392D01*
X174957619Y-113445773D01*
X174882023Y-113596964D01*
X174806428Y-113672559D01*
X174655238Y-113748154D01*
X174504047Y-113748154D01*
X174352857Y-113672559D01*
X174277261Y-113596964D01*
X174201666Y-113445773D01*
X174126071Y-113143392D01*
X174126071Y-112765416D01*
X174201666Y-112463035D01*
X174277261Y-112311845D01*
X174352857Y-112236250D01*
X174504047Y-112160654D01*
X175486785Y-112160654D02*
X176015952Y-113748154D01*
X176545119Y-112160654D01*
D11*
X147338142Y-39829619D02*
X147338142Y-38813619D01*
X147821952Y-39829619D02*
X147821952Y-38813619D01*
X148402523Y-39829619D01*
X148402523Y-38813619D01*
X148886333Y-39829619D02*
X148886333Y-38813619D01*
X149273380Y-38813619D01*
X149370142Y-38862000D01*
X149418523Y-38910380D01*
X149466904Y-39007142D01*
X149466904Y-39152285D01*
X149418523Y-39249047D01*
X149370142Y-39297428D01*
X149273380Y-39345809D01*
X148886333Y-39345809D01*
X149902333Y-38813619D02*
X149902333Y-39636095D01*
X149950714Y-39732857D01*
X149999095Y-39781238D01*
X150095857Y-39829619D01*
X150289380Y-39829619D01*
X150386142Y-39781238D01*
X150434523Y-39732857D01*
X150482904Y-39636095D01*
X150482904Y-38813619D01*
X150821571Y-38813619D02*
X151402142Y-38813619D01*
X151111857Y-39829619D02*
X151111857Y-38813619D01*
X153047095Y-38862000D02*
X152950333Y-38813619D01*
X152805190Y-38813619D01*
X152660047Y-38862000D01*
X152563285Y-38958761D01*
X152514904Y-39055523D01*
X152466523Y-39249047D01*
X152466523Y-39394190D01*
X152514904Y-39587714D01*
X152563285Y-39684476D01*
X152660047Y-39781238D01*
X152805190Y-39829619D01*
X152901952Y-39829619D01*
X153047095Y-39781238D01*
X153095476Y-39732857D01*
X153095476Y-39394190D01*
X152901952Y-39394190D01*
X153724428Y-38813619D02*
X153917952Y-38813619D01*
X154014714Y-38862000D01*
X154111476Y-38958761D01*
X154159857Y-39152285D01*
X154159857Y-39490952D01*
X154111476Y-39684476D01*
X154014714Y-39781238D01*
X153917952Y-39829619D01*
X153724428Y-39829619D01*
X153627666Y-39781238D01*
X153530904Y-39684476D01*
X153482523Y-39490952D01*
X153482523Y-39152285D01*
X153530904Y-38958761D01*
X153627666Y-38862000D01*
X153724428Y-38813619D01*
X154788809Y-38813619D02*
X154982333Y-38813619D01*
X155079095Y-38862000D01*
X155175857Y-38958761D01*
X155224238Y-39152285D01*
X155224238Y-39490952D01*
X155175857Y-39684476D01*
X155079095Y-39781238D01*
X154982333Y-39829619D01*
X154788809Y-39829619D01*
X154692047Y-39781238D01*
X154595285Y-39684476D01*
X154546904Y-39490952D01*
X154546904Y-39152285D01*
X154595285Y-38958761D01*
X154692047Y-38862000D01*
X154788809Y-38813619D01*
X155659666Y-39829619D02*
X155659666Y-38813619D01*
X155901571Y-38813619D01*
X156046714Y-38862000D01*
X156143476Y-38958761D01*
X156191857Y-39055523D01*
X156240238Y-39249047D01*
X156240238Y-39394190D01*
X156191857Y-39587714D01*
X156143476Y-39684476D01*
X156046714Y-39781238D01*
X155901571Y-39829619D01*
X155659666Y-39829619D01*
D10*
X189139285Y-112160654D02*
X189668452Y-113748154D01*
X190197619Y-112160654D01*
X191029166Y-112160654D02*
X191331547Y-112160654D01*
X191482738Y-112236250D01*
X191633928Y-112387440D01*
X191709523Y-112689821D01*
X191709523Y-113218988D01*
X191633928Y-113521369D01*
X191482738Y-113672559D01*
X191331547Y-113748154D01*
X191029166Y-113748154D01*
X190877976Y-113672559D01*
X190726785Y-113521369D01*
X190651190Y-113218988D01*
X190651190Y-112689821D01*
X190726785Y-112387440D01*
X190877976Y-112236250D01*
X191029166Y-112160654D01*
X153609523Y-120649622D02*
X153836309Y-120725217D01*
X154214285Y-120725217D01*
X154365476Y-120649622D01*
X154441071Y-120574027D01*
X154516666Y-120422836D01*
X154516666Y-120271646D01*
X154441071Y-120120455D01*
X154365476Y-120044860D01*
X154214285Y-119969265D01*
X153911904Y-119893670D01*
X153760714Y-119818074D01*
X153685119Y-119742479D01*
X153609523Y-119591289D01*
X153609523Y-119440098D01*
X153685119Y-119288908D01*
X153760714Y-119213313D01*
X153911904Y-119137717D01*
X154289880Y-119137717D01*
X154516666Y-119213313D01*
X155197023Y-119893670D02*
X155726190Y-119893670D01*
X155952976Y-120725217D02*
X155197023Y-120725217D01*
X155197023Y-119137717D01*
X155952976Y-119137717D01*
X156633333Y-120725217D02*
X156633333Y-119137717D01*
X157238095Y-119137717D01*
X157389285Y-119213313D01*
X157464880Y-119288908D01*
X157540476Y-119440098D01*
X157540476Y-119666884D01*
X157464880Y-119818074D01*
X157389285Y-119893670D01*
X157238095Y-119969265D01*
X156633333Y-119969265D01*
X158220833Y-120725217D02*
X158220833Y-119137717D01*
X159883928Y-120574027D02*
X159808333Y-120649622D01*
X159581547Y-120725217D01*
X159430357Y-120725217D01*
X159203571Y-120649622D01*
X159052380Y-120498432D01*
X158976785Y-120347241D01*
X158901190Y-120044860D01*
X158901190Y-119818074D01*
X158976785Y-119515693D01*
X159052380Y-119364503D01*
X159203571Y-119213313D01*
X159430357Y-119137717D01*
X159581547Y-119137717D01*
X159808333Y-119213313D01*
X159883928Y-119288908D01*
X161773809Y-120725217D02*
X161773809Y-119137717D01*
X162378571Y-119137717D01*
X162529761Y-119213313D01*
X162605357Y-119288908D01*
X162680952Y-119440098D01*
X162680952Y-119666884D01*
X162605357Y-119818074D01*
X162529761Y-119893670D01*
X162378571Y-119969265D01*
X161773809Y-119969265D01*
X163285714Y-120649622D02*
X163512500Y-120725217D01*
X163890476Y-120725217D01*
X164041666Y-120649622D01*
X164117261Y-120574027D01*
X164192857Y-120422836D01*
X164192857Y-120271646D01*
X164117261Y-120120455D01*
X164041666Y-120044860D01*
X163890476Y-119969265D01*
X163588095Y-119893670D01*
X163436904Y-119818074D01*
X163361309Y-119742479D01*
X163285714Y-119591289D01*
X163285714Y-119440098D01*
X163361309Y-119288908D01*
X163436904Y-119213313D01*
X163588095Y-119137717D01*
X163966071Y-119137717D01*
X164192857Y-119213313D01*
X164873214Y-119137717D02*
X164873214Y-120422836D01*
X164948809Y-120574027D01*
X165024404Y-120649622D01*
X165175595Y-120725217D01*
X165477976Y-120725217D01*
X165629166Y-120649622D01*
X165704761Y-120574027D01*
X165780357Y-120422836D01*
X165780357Y-119137717D01*
X167519047Y-119137717D02*
X168048214Y-120725217D01*
X168577380Y-119137717D01*
X169106547Y-119893670D02*
X169635714Y-119893670D01*
X169862500Y-120725217D02*
X169106547Y-120725217D01*
X169106547Y-119137717D01*
X169862500Y-119137717D01*
X171450000Y-120725217D02*
X170920833Y-119969265D01*
X170542857Y-120725217D02*
X170542857Y-119137717D01*
X171147619Y-119137717D01*
X171298809Y-119213313D01*
X171374404Y-119288908D01*
X171450000Y-119440098D01*
X171450000Y-119666884D01*
X171374404Y-119818074D01*
X171298809Y-119893670D01*
X171147619Y-119969265D01*
X170542857Y-119969265D01*
X172130357Y-120574027D02*
X172205952Y-120649622D01*
X172130357Y-120725217D01*
X172054761Y-120649622D01*
X172130357Y-120574027D01*
X172130357Y-120725217D01*
X173944642Y-119137717D02*
X175002976Y-120725217D01*
X175002976Y-119137717D02*
X173944642Y-120725217D01*
X175607738Y-120120455D02*
X176817261Y-120120455D01*
X178404761Y-120725217D02*
X177497619Y-120725217D01*
X177951190Y-120725217D02*
X177951190Y-119137717D01*
X177800000Y-119364503D01*
X177648809Y-119515693D01*
X177497619Y-119591289D01*
X181201785Y-120725217D02*
X180672619Y-119969265D01*
X180294642Y-120725217D02*
X180294642Y-119137717D01*
X180899404Y-119137717D01*
X181050595Y-119213313D01*
X181126190Y-119288908D01*
X181201785Y-119440098D01*
X181201785Y-119666884D01*
X181126190Y-119818074D01*
X181050595Y-119893670D01*
X180899404Y-119969265D01*
X180294642Y-119969265D01*
X181882142Y-119893670D02*
X182411309Y-119893670D01*
X182638095Y-120725217D02*
X181882142Y-120725217D01*
X181882142Y-119137717D01*
X182638095Y-119137717D01*
X183091666Y-119137717D02*
X183620833Y-120725217D01*
X184150000Y-119137717D01*
X184679166Y-120574027D02*
X184754761Y-120649622D01*
X184679166Y-120725217D01*
X184603571Y-120649622D01*
X184679166Y-120574027D01*
X184679166Y-120725217D01*
X187476190Y-120725217D02*
X186569047Y-120725217D01*
X187022619Y-120725217D02*
X187022619Y-119137717D01*
X186871428Y-119364503D01*
X186720238Y-119515693D01*
X186569047Y-119591289D01*
X188836904Y-119666884D02*
X188836904Y-120725217D01*
X188458928Y-119062122D02*
X188080952Y-120196051D01*
X189063690Y-120196051D01*
X189668452Y-120120455D02*
X190877976Y-120120455D01*
X191936309Y-119137717D02*
X192087500Y-119137717D01*
X192238690Y-119213313D01*
X192314285Y-119288908D01*
X192389880Y-119440098D01*
X192465476Y-119742479D01*
X192465476Y-120120455D01*
X192389880Y-120422836D01*
X192314285Y-120574027D01*
X192238690Y-120649622D01*
X192087500Y-120725217D01*
X191936309Y-120725217D01*
X191785119Y-120649622D01*
X191709523Y-120574027D01*
X191633928Y-120422836D01*
X191558333Y-120120455D01*
X191558333Y-119742479D01*
X191633928Y-119440098D01*
X191709523Y-119288908D01*
X191785119Y-119213313D01*
X191936309Y-119137717D01*
X193901785Y-119137717D02*
X193145833Y-119137717D01*
X193070238Y-119893670D01*
X193145833Y-119818074D01*
X193297023Y-119742479D01*
X193675000Y-119742479D01*
X193826190Y-119818074D01*
X193901785Y-119893670D01*
X193977380Y-120044860D01*
X193977380Y-120422836D01*
X193901785Y-120574027D01*
X193826190Y-120649622D01*
X193675000Y-120725217D01*
X193297023Y-120725217D01*
X193145833Y-120649622D01*
X193070238Y-120574027D01*
X194657738Y-120120455D02*
X195867261Y-120120455D01*
X196547619Y-119288908D02*
X196623214Y-119213313D01*
X196774404Y-119137717D01*
X197152380Y-119137717D01*
X197303571Y-119213313D01*
X197379166Y-119288908D01*
X197454761Y-119440098D01*
X197454761Y-119591289D01*
X197379166Y-119818074D01*
X196472023Y-120725217D01*
X197454761Y-120725217D01*
X198437500Y-119137717D02*
X198588690Y-119137717D01*
X198739880Y-119213313D01*
X198815476Y-119288908D01*
X198891071Y-119440098D01*
X198966666Y-119742479D01*
X198966666Y-120120455D01*
X198891071Y-120422836D01*
X198815476Y-120574027D01*
X198739880Y-120649622D01*
X198588690Y-120725217D01*
X198437500Y-120725217D01*
X198286309Y-120649622D01*
X198210714Y-120574027D01*
X198135119Y-120422836D01*
X198059523Y-120120455D01*
X198059523Y-119742479D01*
X198135119Y-119440098D01*
X198210714Y-119288908D01*
X198286309Y-119213313D01*
X198437500Y-119137717D01*
X199571428Y-119288908D02*
X199647023Y-119213313D01*
X199798214Y-119137717D01*
X200176190Y-119137717D01*
X200327380Y-119213313D01*
X200402976Y-119288908D01*
X200478571Y-119440098D01*
X200478571Y-119591289D01*
X200402976Y-119818074D01*
X199495833Y-120725217D01*
X200478571Y-120725217D01*
X201083333Y-119288908D02*
X201158928Y-119213313D01*
X201310119Y-119137717D01*
X201688095Y-119137717D01*
X201839285Y-119213313D01*
X201914880Y-119288908D01*
X201990476Y-119440098D01*
X201990476Y-119591289D01*
X201914880Y-119818074D01*
X201007738Y-120725217D01*
X201990476Y-120725217D01*
X154478869Y-123281092D02*
X154478869Y-121693592D01*
X155008035Y-122827521D01*
X155537202Y-121693592D01*
X155537202Y-123281092D01*
X156822321Y-122449545D02*
X156293154Y-122449545D01*
X156293154Y-123281092D02*
X156293154Y-121693592D01*
X157049107Y-121693592D01*
X158561011Y-123281092D02*
X158031845Y-122525140D01*
X157653869Y-123281092D02*
X157653869Y-121693592D01*
X158258630Y-121693592D01*
X158409821Y-121769188D01*
X158485416Y-121844783D01*
X158561011Y-121995973D01*
X158561011Y-122222759D01*
X158485416Y-122373949D01*
X158409821Y-122449545D01*
X158258630Y-122525140D01*
X157653869Y-122525140D01*
X159241369Y-123129902D02*
X159316964Y-123205497D01*
X159241369Y-123281092D01*
X159165773Y-123205497D01*
X159241369Y-123129902D01*
X159241369Y-123281092D01*
X161509226Y-121693592D02*
X161660416Y-121693592D01*
X161811607Y-121769188D01*
X161887202Y-121844783D01*
X161962797Y-121995973D01*
X162038392Y-122298354D01*
X162038392Y-122676330D01*
X161962797Y-122978711D01*
X161887202Y-123129902D01*
X161811607Y-123205497D01*
X161660416Y-123281092D01*
X161509226Y-123281092D01*
X161358035Y-123205497D01*
X161282440Y-123129902D01*
X161206845Y-122978711D01*
X161131250Y-122676330D01*
X161131250Y-122298354D01*
X161206845Y-121995973D01*
X161282440Y-121844783D01*
X161358035Y-121769188D01*
X161509226Y-121693592D01*
X163928273Y-123281092D02*
X163928273Y-121693592D01*
X164457440Y-122827521D01*
X164986607Y-121693592D01*
X164986607Y-123281092D01*
X166271726Y-122449545D02*
X165742559Y-122449545D01*
X165742559Y-123281092D02*
X165742559Y-121693592D01*
X166498511Y-121693592D01*
X167103273Y-123281092D02*
X167103273Y-121693592D01*
X167481250Y-121693592D01*
X167708035Y-121769188D01*
X167859226Y-121920378D01*
X167934821Y-122071568D01*
X168010416Y-122373949D01*
X168010416Y-122600735D01*
X167934821Y-122903116D01*
X167859226Y-123054307D01*
X167708035Y-123205497D01*
X167481250Y-123281092D01*
X167103273Y-123281092D01*
X168690773Y-123129902D02*
X168766369Y-123205497D01*
X168690773Y-123281092D01*
X168615178Y-123205497D01*
X168690773Y-123129902D01*
X168690773Y-123281092D01*
X170656250Y-123281092D02*
X170656250Y-121693592D01*
X171034226Y-121693592D01*
X171261011Y-121769188D01*
X171412202Y-121920378D01*
X171487797Y-122071568D01*
X171563392Y-122373949D01*
X171563392Y-122600735D01*
X171487797Y-122903116D01*
X171412202Y-123054307D01*
X171261011Y-123205497D01*
X171034226Y-123281092D01*
X170656250Y-123281092D01*
X172243750Y-123281092D02*
X172243750Y-121693592D01*
X172621726Y-121693592D01*
X172848511Y-121769188D01*
X172999702Y-121920378D01*
X173075297Y-122071568D01*
X173150892Y-122373949D01*
X173150892Y-122600735D01*
X173075297Y-122903116D01*
X172999702Y-123054307D01*
X172848511Y-123205497D01*
X172621726Y-123281092D01*
X172243750Y-123281092D01*
X173831250Y-122676330D02*
X175040773Y-122676330D01*
X175796726Y-123281092D02*
X175796726Y-121693592D01*
X176325892Y-122827521D01*
X176855059Y-121693592D01*
X176855059Y-123281092D01*
X177611011Y-123281092D02*
X177611011Y-121693592D01*
X178140178Y-122827521D01*
X178669345Y-121693592D01*
X178669345Y-123281092D01*
X179425297Y-122676330D02*
X180634821Y-122676330D01*
X181693154Y-122525140D02*
X181693154Y-123281092D01*
X181163988Y-121693592D02*
X181693154Y-122525140D01*
X182222321Y-121693592D01*
X183053869Y-122525140D02*
X183053869Y-123281092D01*
X182524702Y-121693592D02*
X183053869Y-122525140D01*
X183583035Y-121693592D01*
X184414583Y-122525140D02*
X184414583Y-123281092D01*
X183885416Y-121693592D02*
X184414583Y-122525140D01*
X184943750Y-121693592D01*
X185775297Y-122525140D02*
X185775297Y-123281092D01*
X185246130Y-121693592D02*
X185775297Y-122525140D01*
X186304464Y-121693592D01*
X187967559Y-123205497D02*
X188194345Y-123281092D01*
X188572321Y-123281092D01*
X188723511Y-123205497D01*
X188799107Y-123129902D01*
X188874702Y-122978711D01*
X188874702Y-122827521D01*
X188799107Y-122676330D01*
X188723511Y-122600735D01*
X188572321Y-122525140D01*
X188269940Y-122449545D01*
X188118750Y-122373949D01*
X188043154Y-122298354D01*
X187967559Y-122147164D01*
X187967559Y-121995973D01*
X188043154Y-121844783D01*
X188118750Y-121769188D01*
X188269940Y-121693592D01*
X188647916Y-121693592D01*
X188874702Y-121769188D01*
X189555059Y-122449545D02*
X190084226Y-122449545D01*
X190311011Y-123281092D02*
X189555059Y-123281092D01*
X189555059Y-121693592D01*
X190311011Y-121693592D01*
X191898511Y-123281092D02*
X191369345Y-122525140D01*
X190991369Y-123281092D02*
X190991369Y-121693592D01*
X191596130Y-121693592D01*
X191747321Y-121769188D01*
X191822916Y-121844783D01*
X191898511Y-121995973D01*
X191898511Y-122222759D01*
X191822916Y-122373949D01*
X191747321Y-122449545D01*
X191596130Y-122525140D01*
X190991369Y-122525140D01*
X192578869Y-123129902D02*
X192654464Y-123205497D01*
X192578869Y-123281092D01*
X192503273Y-123205497D01*
X192578869Y-123129902D01*
X192578869Y-123281092D01*
X194468750Y-122827521D02*
X195224702Y-122827521D01*
X194317559Y-123281092D02*
X194846726Y-121693592D01*
X195375892Y-123281092D01*
X196434226Y-122449545D02*
X196661011Y-122525140D01*
X196736607Y-122600735D01*
X196812202Y-122751926D01*
X196812202Y-122978711D01*
X196736607Y-123129902D01*
X196661011Y-123205497D01*
X196509821Y-123281092D01*
X195905059Y-123281092D01*
X195905059Y-121693592D01*
X196434226Y-121693592D01*
X196585416Y-121769188D01*
X196661011Y-121844783D01*
X196736607Y-121995973D01*
X196736607Y-122147164D01*
X196661011Y-122298354D01*
X196585416Y-122373949D01*
X196434226Y-122449545D01*
X195905059Y-122449545D01*
X198399702Y-123129902D02*
X198324107Y-123205497D01*
X198097321Y-123281092D01*
X197946130Y-123281092D01*
X197719345Y-123205497D01*
X197568154Y-123054307D01*
X197492559Y-122903116D01*
X197416964Y-122600735D01*
X197416964Y-122373949D01*
X197492559Y-122071568D01*
X197568154Y-121920378D01*
X197719345Y-121769188D01*
X197946130Y-121693592D01*
X198097321Y-121693592D01*
X198324107Y-121769188D01*
X198399702Y-121844783D01*
X199080059Y-123281092D02*
X199080059Y-121693592D01*
X199458035Y-121693592D01*
X199684821Y-121769188D01*
X199836011Y-121920378D01*
X199911607Y-122071568D01*
X199987202Y-122373949D01*
X199987202Y-122600735D01*
X199911607Y-122903116D01*
X199836011Y-123054307D01*
X199684821Y-123205497D01*
X199458035Y-123281092D01*
X199080059Y-123281092D01*
X184059285Y-112160654D02*
X184588452Y-113748154D01*
X185117619Y-112160654D01*
X185949166Y-112160654D02*
X186251547Y-112160654D01*
X186402738Y-112236250D01*
X186553928Y-112387440D01*
X186629523Y-112689821D01*
X186629523Y-113218988D01*
X186553928Y-113521369D01*
X186402738Y-113672559D01*
X186251547Y-113748154D01*
X185949166Y-113748154D01*
X185797976Y-113672559D01*
X185646785Y-113521369D01*
X185571190Y-113218988D01*
X185571190Y-112689821D01*
X185646785Y-112387440D01*
X185797976Y-112236250D01*
X185949166Y-112160654D01*
D11*
X203369333Y-26113619D02*
X203562857Y-26113619D01*
X203659619Y-26162000D01*
X203756380Y-26258761D01*
X203804761Y-26452285D01*
X203804761Y-26790952D01*
X203756380Y-26984476D01*
X203659619Y-27081238D01*
X203562857Y-27129619D01*
X203369333Y-27129619D01*
X203272571Y-27081238D01*
X203175809Y-26984476D01*
X203127428Y-26790952D01*
X203127428Y-26452285D01*
X203175809Y-26258761D01*
X203272571Y-26162000D01*
X203369333Y-26113619D01*
X204240190Y-26113619D02*
X204240190Y-26936095D01*
X204288571Y-27032857D01*
X204336952Y-27081238D01*
X204433714Y-27129619D01*
X204627238Y-27129619D01*
X204724000Y-27081238D01*
X204772380Y-27032857D01*
X204820761Y-26936095D01*
X204820761Y-26113619D01*
X205159428Y-26113619D02*
X205740000Y-26113619D01*
X205449714Y-27129619D02*
X205449714Y-26113619D01*
X206078666Y-27129619D02*
X206078666Y-26113619D01*
X206465714Y-26113619D01*
X206562476Y-26162000D01*
X206610857Y-26210380D01*
X206659238Y-26307142D01*
X206659238Y-26452285D01*
X206610857Y-26549047D01*
X206562476Y-26597428D01*
X206465714Y-26645809D01*
X206078666Y-26645809D01*
X207094666Y-26113619D02*
X207094666Y-26936095D01*
X207143047Y-27032857D01*
X207191428Y-27081238D01*
X207288190Y-27129619D01*
X207481714Y-27129619D01*
X207578476Y-27081238D01*
X207626857Y-27032857D01*
X207675238Y-26936095D01*
X207675238Y-26113619D01*
X208013904Y-26113619D02*
X208594476Y-26113619D01*
X208304190Y-27129619D02*
X208304190Y-26113619D01*
X210239428Y-26162000D02*
X210142666Y-26113619D01*
X209997523Y-26113619D01*
X209852380Y-26162000D01*
X209755619Y-26258761D01*
X209707238Y-26355523D01*
X209658857Y-26549047D01*
X209658857Y-26694190D01*
X209707238Y-26887714D01*
X209755619Y-26984476D01*
X209852380Y-27081238D01*
X209997523Y-27129619D01*
X210094285Y-27129619D01*
X210239428Y-27081238D01*
X210287809Y-27032857D01*
X210287809Y-26694190D01*
X210094285Y-26694190D01*
X210916761Y-26113619D02*
X211110285Y-26113619D01*
X211207047Y-26162000D01*
X211303809Y-26258761D01*
X211352190Y-26452285D01*
X211352190Y-26790952D01*
X211303809Y-26984476D01*
X211207047Y-27081238D01*
X211110285Y-27129619D01*
X210916761Y-27129619D01*
X210820000Y-27081238D01*
X210723238Y-26984476D01*
X210674857Y-26790952D01*
X210674857Y-26452285D01*
X210723238Y-26258761D01*
X210820000Y-26162000D01*
X210916761Y-26113619D01*
X211981142Y-26113619D02*
X212174666Y-26113619D01*
X212271428Y-26162000D01*
X212368190Y-26258761D01*
X212416571Y-26452285D01*
X212416571Y-26790952D01*
X212368190Y-26984476D01*
X212271428Y-27081238D01*
X212174666Y-27129619D01*
X211981142Y-27129619D01*
X211884380Y-27081238D01*
X211787619Y-26984476D01*
X211739238Y-26790952D01*
X211739238Y-26452285D01*
X211787619Y-26258761D01*
X211884380Y-26162000D01*
X211981142Y-26113619D01*
X212852000Y-27129619D02*
X212852000Y-26113619D01*
X213093904Y-26113619D01*
X213239047Y-26162000D01*
X213335809Y-26258761D01*
X213384190Y-26355523D01*
X213432571Y-26549047D01*
X213432571Y-26694190D01*
X213384190Y-26887714D01*
X213335809Y-26984476D01*
X213239047Y-27081238D01*
X213093904Y-27129619D01*
X212852000Y-27129619D01*
D10*
X164192857Y-112160654D02*
X164722023Y-113748154D01*
X165251190Y-112160654D01*
X165780357Y-113748154D02*
X165780357Y-112160654D01*
X179584047Y-112160654D02*
X179735238Y-112160654D01*
X179886428Y-112236250D01*
X179962023Y-112311845D01*
X180037619Y-112463035D01*
X180113214Y-112765416D01*
X180113214Y-113143392D01*
X180037619Y-113445773D01*
X179962023Y-113596964D01*
X179886428Y-113672559D01*
X179735238Y-113748154D01*
X179584047Y-113748154D01*
X179432857Y-113672559D01*
X179357261Y-113596964D01*
X179281666Y-113445773D01*
X179206071Y-113143392D01*
X179206071Y-112765416D01*
X179281666Y-112463035D01*
X179357261Y-112311845D01*
X179432857Y-112236250D01*
X179584047Y-112160654D01*
X180566785Y-112160654D02*
X181095952Y-113748154D01*
X181625119Y-112160654D01*
D12*
%TO.C,D2*%
X201191904Y-46172380D02*
X201191904Y-45172380D01*
X201430000Y-45172380D01*
X201572857Y-45220000D01*
X201668095Y-45315238D01*
X201715714Y-45410476D01*
X201763333Y-45600952D01*
X201763333Y-45743809D01*
X201715714Y-45934285D01*
X201668095Y-46029523D01*
X201572857Y-46124761D01*
X201430000Y-46172380D01*
X201191904Y-46172380D01*
X202144285Y-45267619D02*
X202191904Y-45220000D01*
X202287142Y-45172380D01*
X202525238Y-45172380D01*
X202620476Y-45220000D01*
X202668095Y-45267619D01*
X202715714Y-45362857D01*
X202715714Y-45458095D01*
X202668095Y-45600952D01*
X202096666Y-46172380D01*
X202715714Y-46172380D01*
%TO.C,C5*%
X170013333Y-82907142D02*
X169965714Y-82954761D01*
X169822857Y-83002380D01*
X169727619Y-83002380D01*
X169584761Y-82954761D01*
X169489523Y-82859523D01*
X169441904Y-82764285D01*
X169394285Y-82573809D01*
X169394285Y-82430952D01*
X169441904Y-82240476D01*
X169489523Y-82145238D01*
X169584761Y-82050000D01*
X169727619Y-82002380D01*
X169822857Y-82002380D01*
X169965714Y-82050000D01*
X170013333Y-82097619D01*
X170918095Y-82002380D02*
X170441904Y-82002380D01*
X170394285Y-82478571D01*
X170441904Y-82430952D01*
X170537142Y-82383333D01*
X170775238Y-82383333D01*
X170870476Y-82430952D01*
X170918095Y-82478571D01*
X170965714Y-82573809D01*
X170965714Y-82811904D01*
X170918095Y-82907142D01*
X170870476Y-82954761D01*
X170775238Y-83002380D01*
X170537142Y-83002380D01*
X170441904Y-82954761D01*
X170394285Y-82907142D01*
%TO.C,T0*%
X152487380Y-35051904D02*
X152487380Y-34480476D01*
X153487380Y-34766190D02*
X152487380Y-34766190D01*
X152487380Y-33956666D02*
X152487380Y-33861428D01*
X152535000Y-33766190D01*
X152582619Y-33718571D01*
X152677857Y-33670952D01*
X152868333Y-33623333D01*
X153106428Y-33623333D01*
X153296904Y-33670952D01*
X153392142Y-33718571D01*
X153439761Y-33766190D01*
X153487380Y-33861428D01*
X153487380Y-33956666D01*
X153439761Y-34051904D01*
X153392142Y-34099523D01*
X153296904Y-34147142D01*
X153106428Y-34194761D01*
X152868333Y-34194761D01*
X152677857Y-34147142D01*
X152582619Y-34099523D01*
X152535000Y-34051904D01*
X152487380Y-33956666D01*
%TO.C,D4*%
X201191904Y-56332380D02*
X201191904Y-55332380D01*
X201430000Y-55332380D01*
X201572857Y-55380000D01*
X201668095Y-55475238D01*
X201715714Y-55570476D01*
X201763333Y-55760952D01*
X201763333Y-55903809D01*
X201715714Y-56094285D01*
X201668095Y-56189523D01*
X201572857Y-56284761D01*
X201430000Y-56332380D01*
X201191904Y-56332380D01*
X202620476Y-55665714D02*
X202620476Y-56332380D01*
X202382380Y-55284761D02*
X202144285Y-55999047D01*
X202763333Y-55999047D01*
%TO.C,D1*%
X201191904Y-41092380D02*
X201191904Y-40092380D01*
X201430000Y-40092380D01*
X201572857Y-40140000D01*
X201668095Y-40235238D01*
X201715714Y-40330476D01*
X201763333Y-40520952D01*
X201763333Y-40663809D01*
X201715714Y-40854285D01*
X201668095Y-40949523D01*
X201572857Y-41044761D01*
X201430000Y-41092380D01*
X201191904Y-41092380D01*
X202715714Y-41092380D02*
X202144285Y-41092380D01*
X202430000Y-41092380D02*
X202430000Y-40092380D01*
X202334761Y-40235238D01*
X202239523Y-40330476D01*
X202144285Y-40378095D01*
%TO.C,C0*%
X153503333Y-29567142D02*
X153455714Y-29614761D01*
X153312857Y-29662380D01*
X153217619Y-29662380D01*
X153074761Y-29614761D01*
X152979523Y-29519523D01*
X152931904Y-29424285D01*
X152884285Y-29233809D01*
X152884285Y-29090952D01*
X152931904Y-28900476D01*
X152979523Y-28805238D01*
X153074761Y-28710000D01*
X153217619Y-28662380D01*
X153312857Y-28662380D01*
X153455714Y-28710000D01*
X153503333Y-28757619D01*
X154122380Y-28662380D02*
X154217619Y-28662380D01*
X154312857Y-28710000D01*
X154360476Y-28757619D01*
X154408095Y-28852857D01*
X154455714Y-29043333D01*
X154455714Y-29281428D01*
X154408095Y-29471904D01*
X154360476Y-29567142D01*
X154312857Y-29614761D01*
X154217619Y-29662380D01*
X154122380Y-29662380D01*
X154027142Y-29614761D01*
X153979523Y-29567142D01*
X153931904Y-29471904D01*
X153884285Y-29281428D01*
X153884285Y-29043333D01*
X153931904Y-28852857D01*
X153979523Y-28757619D01*
X154027142Y-28710000D01*
X154122380Y-28662380D01*
%TO.C,R2*%
X159202380Y-33186666D02*
X158726190Y-33520000D01*
X159202380Y-33758095D02*
X158202380Y-33758095D01*
X158202380Y-33377142D01*
X158250000Y-33281904D01*
X158297619Y-33234285D01*
X158392857Y-33186666D01*
X158535714Y-33186666D01*
X158630952Y-33234285D01*
X158678571Y-33281904D01*
X158726190Y-33377142D01*
X158726190Y-33758095D01*
X158297619Y-32805714D02*
X158250000Y-32758095D01*
X158202380Y-32662857D01*
X158202380Y-32424761D01*
X158250000Y-32329523D01*
X158297619Y-32281904D01*
X158392857Y-32234285D01*
X158488095Y-32234285D01*
X158630952Y-32281904D01*
X159202380Y-32853333D01*
X159202380Y-32234285D01*
%TO.C,T1*%
X155448095Y-52792380D02*
X156019523Y-52792380D01*
X155733809Y-53792380D02*
X155733809Y-52792380D01*
X156876666Y-53792380D02*
X156305238Y-53792380D01*
X156590952Y-53792380D02*
X156590952Y-52792380D01*
X156495714Y-52935238D01*
X156400476Y-53030476D01*
X156305238Y-53078095D01*
%TO.C,D3*%
X201191904Y-51252380D02*
X201191904Y-50252380D01*
X201430000Y-50252380D01*
X201572857Y-50300000D01*
X201668095Y-50395238D01*
X201715714Y-50490476D01*
X201763333Y-50680952D01*
X201763333Y-50823809D01*
X201715714Y-51014285D01*
X201668095Y-51109523D01*
X201572857Y-51204761D01*
X201430000Y-51252380D01*
X201191904Y-51252380D01*
X202096666Y-50252380D02*
X202715714Y-50252380D01*
X202382380Y-50633333D01*
X202525238Y-50633333D01*
X202620476Y-50680952D01*
X202668095Y-50728571D01*
X202715714Y-50823809D01*
X202715714Y-51061904D01*
X202668095Y-51157142D01*
X202620476Y-51204761D01*
X202525238Y-51252380D01*
X202239523Y-51252380D01*
X202144285Y-51204761D01*
X202096666Y-51157142D01*
%TO.C,R4*%
X194762380Y-34456666D02*
X194286190Y-34790000D01*
X194762380Y-35028095D02*
X193762380Y-35028095D01*
X193762380Y-34647142D01*
X193810000Y-34551904D01*
X193857619Y-34504285D01*
X193952857Y-34456666D01*
X194095714Y-34456666D01*
X194190952Y-34504285D01*
X194238571Y-34551904D01*
X194286190Y-34647142D01*
X194286190Y-35028095D01*
X194095714Y-33599523D02*
X194762380Y-33599523D01*
X193714761Y-33837619D02*
X194429047Y-34075714D01*
X194429047Y-33456666D01*
%TO.C,T3*%
X203287380Y-35051904D02*
X203287380Y-34480476D01*
X204287380Y-34766190D02*
X203287380Y-34766190D01*
X203287380Y-34242380D02*
X203287380Y-33623333D01*
X203668333Y-33956666D01*
X203668333Y-33813809D01*
X203715952Y-33718571D01*
X203763571Y-33670952D01*
X203858809Y-33623333D01*
X204096904Y-33623333D01*
X204192142Y-33670952D01*
X204239761Y-33718571D01*
X204287380Y-33813809D01*
X204287380Y-34099523D01*
X204239761Y-34194761D01*
X204192142Y-34242380D01*
%TO.C,C4*%
X185253333Y-68937142D02*
X185205714Y-68984761D01*
X185062857Y-69032380D01*
X184967619Y-69032380D01*
X184824761Y-68984761D01*
X184729523Y-68889523D01*
X184681904Y-68794285D01*
X184634285Y-68603809D01*
X184634285Y-68460952D01*
X184681904Y-68270476D01*
X184729523Y-68175238D01*
X184824761Y-68080000D01*
X184967619Y-68032380D01*
X185062857Y-68032380D01*
X185205714Y-68080000D01*
X185253333Y-68127619D01*
X186110476Y-68365714D02*
X186110476Y-69032380D01*
X185872380Y-67984761D02*
X185634285Y-68699047D01*
X186253333Y-68699047D01*
%TO.C,D6*%
X170711904Y-71572380D02*
X170711904Y-70572380D01*
X170950000Y-70572380D01*
X171092857Y-70620000D01*
X171188095Y-70715238D01*
X171235714Y-70810476D01*
X171283333Y-71000952D01*
X171283333Y-71143809D01*
X171235714Y-71334285D01*
X171188095Y-71429523D01*
X171092857Y-71524761D01*
X170950000Y-71572380D01*
X170711904Y-71572380D01*
X172140476Y-70572380D02*
X171950000Y-70572380D01*
X171854761Y-70620000D01*
X171807142Y-70667619D01*
X171711904Y-70810476D01*
X171664285Y-71000952D01*
X171664285Y-71381904D01*
X171711904Y-71477142D01*
X171759523Y-71524761D01*
X171854761Y-71572380D01*
X172045238Y-71572380D01*
X172140476Y-71524761D01*
X172188095Y-71477142D01*
X172235714Y-71381904D01*
X172235714Y-71143809D01*
X172188095Y-71048571D01*
X172140476Y-71000952D01*
X172045238Y-70953333D01*
X171854761Y-70953333D01*
X171759523Y-71000952D01*
X171711904Y-71048571D01*
X171664285Y-71143809D01*
%TO.C,C1*%
X177633333Y-62587142D02*
X177585714Y-62634761D01*
X177442857Y-62682380D01*
X177347619Y-62682380D01*
X177204761Y-62634761D01*
X177109523Y-62539523D01*
X177061904Y-62444285D01*
X177014285Y-62253809D01*
X177014285Y-62110952D01*
X177061904Y-61920476D01*
X177109523Y-61825238D01*
X177204761Y-61730000D01*
X177347619Y-61682380D01*
X177442857Y-61682380D01*
X177585714Y-61730000D01*
X177633333Y-61777619D01*
X178585714Y-62682380D02*
X178014285Y-62682380D01*
X178300000Y-62682380D02*
X178300000Y-61682380D01*
X178204761Y-61825238D01*
X178109523Y-61920476D01*
X178014285Y-61968095D01*
%TO.C,R8*%
X200493333Y-29662380D02*
X200160000Y-29186190D01*
X199921904Y-29662380D02*
X199921904Y-28662380D01*
X200302857Y-28662380D01*
X200398095Y-28710000D01*
X200445714Y-28757619D01*
X200493333Y-28852857D01*
X200493333Y-28995714D01*
X200445714Y-29090952D01*
X200398095Y-29138571D01*
X200302857Y-29186190D01*
X199921904Y-29186190D01*
X201064761Y-29090952D02*
X200969523Y-29043333D01*
X200921904Y-28995714D01*
X200874285Y-28900476D01*
X200874285Y-28852857D01*
X200921904Y-28757619D01*
X200969523Y-28710000D01*
X201064761Y-28662380D01*
X201255238Y-28662380D01*
X201350476Y-28710000D01*
X201398095Y-28757619D01*
X201445714Y-28852857D01*
X201445714Y-28900476D01*
X201398095Y-28995714D01*
X201350476Y-29043333D01*
X201255238Y-29090952D01*
X201064761Y-29090952D01*
X200969523Y-29138571D01*
X200921904Y-29186190D01*
X200874285Y-29281428D01*
X200874285Y-29471904D01*
X200921904Y-29567142D01*
X200969523Y-29614761D01*
X201064761Y-29662380D01*
X201255238Y-29662380D01*
X201350476Y-29614761D01*
X201398095Y-29567142D01*
X201445714Y-29471904D01*
X201445714Y-29281428D01*
X201398095Y-29186190D01*
X201350476Y-29138571D01*
X201255238Y-29090952D01*
%TO.C,H0*%
X177038095Y-105862380D02*
X177038095Y-104862380D01*
X177038095Y-105338571D02*
X177609523Y-105338571D01*
X177609523Y-105862380D02*
X177609523Y-104862380D01*
X178276190Y-104862380D02*
X178371428Y-104862380D01*
X178466666Y-104910000D01*
X178514285Y-104957619D01*
X178561904Y-105052857D01*
X178609523Y-105243333D01*
X178609523Y-105481428D01*
X178561904Y-105671904D01*
X178514285Y-105767142D01*
X178466666Y-105814761D01*
X178371428Y-105862380D01*
X178276190Y-105862380D01*
X178180952Y-105814761D01*
X178133333Y-105767142D01*
X178085714Y-105671904D01*
X178038095Y-105481428D01*
X178038095Y-105243333D01*
X178085714Y-105052857D01*
X178133333Y-104957619D01*
X178180952Y-104910000D01*
X178276190Y-104862380D01*
%TO.C,D5*%
X183411904Y-71572380D02*
X183411904Y-70572380D01*
X183650000Y-70572380D01*
X183792857Y-70620000D01*
X183888095Y-70715238D01*
X183935714Y-70810476D01*
X183983333Y-71000952D01*
X183983333Y-71143809D01*
X183935714Y-71334285D01*
X183888095Y-71429523D01*
X183792857Y-71524761D01*
X183650000Y-71572380D01*
X183411904Y-71572380D01*
X184888095Y-70572380D02*
X184411904Y-70572380D01*
X184364285Y-71048571D01*
X184411904Y-71000952D01*
X184507142Y-70953333D01*
X184745238Y-70953333D01*
X184840476Y-71000952D01*
X184888095Y-71048571D01*
X184935714Y-71143809D01*
X184935714Y-71381904D01*
X184888095Y-71477142D01*
X184840476Y-71524761D01*
X184745238Y-71572380D01*
X184507142Y-71572380D01*
X184411904Y-71524761D01*
X184364285Y-71477142D01*
%TO.C,D7*%
X150391904Y-32837380D02*
X150391904Y-31837380D01*
X150630000Y-31837380D01*
X150772857Y-31885000D01*
X150868095Y-31980238D01*
X150915714Y-32075476D01*
X150963333Y-32265952D01*
X150963333Y-32408809D01*
X150915714Y-32599285D01*
X150868095Y-32694523D01*
X150772857Y-32789761D01*
X150630000Y-32837380D01*
X150391904Y-32837380D01*
X151296666Y-31837380D02*
X151963333Y-31837380D01*
X151534761Y-32837380D01*
%TO.C,R1*%
X176982380Y-33186666D02*
X176506190Y-33520000D01*
X176982380Y-33758095D02*
X175982380Y-33758095D01*
X175982380Y-33377142D01*
X176030000Y-33281904D01*
X176077619Y-33234285D01*
X176172857Y-33186666D01*
X176315714Y-33186666D01*
X176410952Y-33234285D01*
X176458571Y-33281904D01*
X176506190Y-33377142D01*
X176506190Y-33758095D01*
X176982380Y-32234285D02*
X176982380Y-32805714D01*
X176982380Y-32520000D02*
X175982380Y-32520000D01*
X176125238Y-32615238D01*
X176220476Y-32710476D01*
X176268095Y-32805714D01*
%TO.C,L0*%
X177633333Y-48712380D02*
X177157142Y-48712380D01*
X177157142Y-47712380D01*
X178157142Y-47712380D02*
X178252380Y-47712380D01*
X178347619Y-47760000D01*
X178395238Y-47807619D01*
X178442857Y-47902857D01*
X178490476Y-48093333D01*
X178490476Y-48331428D01*
X178442857Y-48521904D01*
X178395238Y-48617142D01*
X178347619Y-48664761D01*
X178252380Y-48712380D01*
X178157142Y-48712380D01*
X178061904Y-48664761D01*
X178014285Y-48617142D01*
X177966666Y-48521904D01*
X177919047Y-48331428D01*
X177919047Y-48093333D01*
X177966666Y-47902857D01*
X178014285Y-47807619D01*
X178061904Y-47760000D01*
X178157142Y-47712380D01*
%TO.C,R3*%
X187142380Y-34456666D02*
X186666190Y-34790000D01*
X187142380Y-35028095D02*
X186142380Y-35028095D01*
X186142380Y-34647142D01*
X186190000Y-34551904D01*
X186237619Y-34504285D01*
X186332857Y-34456666D01*
X186475714Y-34456666D01*
X186570952Y-34504285D01*
X186618571Y-34551904D01*
X186666190Y-34647142D01*
X186666190Y-35028095D01*
X186142380Y-34123333D02*
X186142380Y-33504285D01*
X186523333Y-33837619D01*
X186523333Y-33694761D01*
X186570952Y-33599523D01*
X186618571Y-33551904D01*
X186713809Y-33504285D01*
X186951904Y-33504285D01*
X187047142Y-33551904D01*
X187094761Y-33599523D01*
X187142380Y-33694761D01*
X187142380Y-33980476D01*
X187094761Y-34075714D01*
X187047142Y-34123333D01*
%TO.C,T4*%
X208367380Y-35051904D02*
X208367380Y-34480476D01*
X209367380Y-34766190D02*
X208367380Y-34766190D01*
X208700714Y-33718571D02*
X209367380Y-33718571D01*
X208319761Y-33956666D02*
X209034047Y-34194761D01*
X209034047Y-33575714D01*
%TO.C,R0*%
X174442380Y-33186666D02*
X173966190Y-33520000D01*
X174442380Y-33758095D02*
X173442380Y-33758095D01*
X173442380Y-33377142D01*
X173490000Y-33281904D01*
X173537619Y-33234285D01*
X173632857Y-33186666D01*
X173775714Y-33186666D01*
X173870952Y-33234285D01*
X173918571Y-33281904D01*
X173966190Y-33377142D01*
X173966190Y-33758095D01*
X173442380Y-32567619D02*
X173442380Y-32472380D01*
X173490000Y-32377142D01*
X173537619Y-32329523D01*
X173632857Y-32281904D01*
X173823333Y-32234285D01*
X174061428Y-32234285D01*
X174251904Y-32281904D01*
X174347142Y-32329523D01*
X174394761Y-32377142D01*
X174442380Y-32472380D01*
X174442380Y-32567619D01*
X174394761Y-32662857D01*
X174347142Y-32710476D01*
X174251904Y-32758095D01*
X174061428Y-32805714D01*
X173823333Y-32805714D01*
X173632857Y-32758095D01*
X173537619Y-32710476D01*
X173490000Y-32662857D01*
X173442380Y-32567619D01*
%TO.C,R5*%
X179522380Y-33186666D02*
X179046190Y-33520000D01*
X179522380Y-33758095D02*
X178522380Y-33758095D01*
X178522380Y-33377142D01*
X178570000Y-33281904D01*
X178617619Y-33234285D01*
X178712857Y-33186666D01*
X178855714Y-33186666D01*
X178950952Y-33234285D01*
X178998571Y-33281904D01*
X179046190Y-33377142D01*
X179046190Y-33758095D01*
X178522380Y-32281904D02*
X178522380Y-32758095D01*
X178998571Y-32805714D01*
X178950952Y-32758095D01*
X178903333Y-32662857D01*
X178903333Y-32424761D01*
X178950952Y-32329523D01*
X178998571Y-32281904D01*
X179093809Y-32234285D01*
X179331904Y-32234285D01*
X179427142Y-32281904D01*
X179474761Y-32329523D01*
X179522380Y-32424761D01*
X179522380Y-32662857D01*
X179474761Y-32758095D01*
X179427142Y-32805714D01*
%TO.C,D8*%
X206271904Y-29662380D02*
X206271904Y-28662380D01*
X206510000Y-28662380D01*
X206652857Y-28710000D01*
X206748095Y-28805238D01*
X206795714Y-28900476D01*
X206843333Y-29090952D01*
X206843333Y-29233809D01*
X206795714Y-29424285D01*
X206748095Y-29519523D01*
X206652857Y-29614761D01*
X206510000Y-29662380D01*
X206271904Y-29662380D01*
X207414761Y-29090952D02*
X207319523Y-29043333D01*
X207271904Y-28995714D01*
X207224285Y-28900476D01*
X207224285Y-28852857D01*
X207271904Y-28757619D01*
X207319523Y-28710000D01*
X207414761Y-28662380D01*
X207605238Y-28662380D01*
X207700476Y-28710000D01*
X207748095Y-28757619D01*
X207795714Y-28852857D01*
X207795714Y-28900476D01*
X207748095Y-28995714D01*
X207700476Y-29043333D01*
X207605238Y-29090952D01*
X207414761Y-29090952D01*
X207319523Y-29138571D01*
X207271904Y-29186190D01*
X207224285Y-29281428D01*
X207224285Y-29471904D01*
X207271904Y-29567142D01*
X207319523Y-29614761D01*
X207414761Y-29662380D01*
X207605238Y-29662380D01*
X207700476Y-29614761D01*
X207748095Y-29567142D01*
X207795714Y-29471904D01*
X207795714Y-29281428D01*
X207748095Y-29186190D01*
X207700476Y-29138571D01*
X207605238Y-29090952D01*
%TO.C,R7*%
X149042380Y-33186666D02*
X148566190Y-33520000D01*
X149042380Y-33758095D02*
X148042380Y-33758095D01*
X148042380Y-33377142D01*
X148090000Y-33281904D01*
X148137619Y-33234285D01*
X148232857Y-33186666D01*
X148375714Y-33186666D01*
X148470952Y-33234285D01*
X148518571Y-33281904D01*
X148566190Y-33377142D01*
X148566190Y-33758095D01*
X148042380Y-32853333D02*
X148042380Y-32186666D01*
X149042380Y-32615238D01*
%TO.C,C2*%
X185253333Y-82907142D02*
X185205714Y-82954761D01*
X185062857Y-83002380D01*
X184967619Y-83002380D01*
X184824761Y-82954761D01*
X184729523Y-82859523D01*
X184681904Y-82764285D01*
X184634285Y-82573809D01*
X184634285Y-82430952D01*
X184681904Y-82240476D01*
X184729523Y-82145238D01*
X184824761Y-82050000D01*
X184967619Y-82002380D01*
X185062857Y-82002380D01*
X185205714Y-82050000D01*
X185253333Y-82097619D01*
X185634285Y-82097619D02*
X185681904Y-82050000D01*
X185777142Y-82002380D01*
X186015238Y-82002380D01*
X186110476Y-82050000D01*
X186158095Y-82097619D01*
X186205714Y-82192857D01*
X186205714Y-82288095D01*
X186158095Y-82430952D01*
X185586666Y-83002380D01*
X186205714Y-83002380D01*
%TO.C,C7*%
X170013333Y-68937142D02*
X169965714Y-68984761D01*
X169822857Y-69032380D01*
X169727619Y-69032380D01*
X169584761Y-68984761D01*
X169489523Y-68889523D01*
X169441904Y-68794285D01*
X169394285Y-68603809D01*
X169394285Y-68460952D01*
X169441904Y-68270476D01*
X169489523Y-68175238D01*
X169584761Y-68080000D01*
X169727619Y-68032380D01*
X169822857Y-68032380D01*
X169965714Y-68080000D01*
X170013333Y-68127619D01*
X170346666Y-68032380D02*
X171013333Y-68032380D01*
X170584761Y-69032380D01*
%TO.C,IC0*%
X166663809Y-33472380D02*
X166663809Y-32472380D01*
X167711428Y-33377142D02*
X167663809Y-33424761D01*
X167520952Y-33472380D01*
X167425714Y-33472380D01*
X167282857Y-33424761D01*
X167187619Y-33329523D01*
X167140000Y-33234285D01*
X167092380Y-33043809D01*
X167092380Y-32900952D01*
X167140000Y-32710476D01*
X167187619Y-32615238D01*
X167282857Y-32520000D01*
X167425714Y-32472380D01*
X167520952Y-32472380D01*
X167663809Y-32520000D01*
X167711428Y-32567619D01*
X168330476Y-32472380D02*
X168425714Y-32472380D01*
X168520952Y-32520000D01*
X168568571Y-32567619D01*
X168616190Y-32662857D01*
X168663809Y-32853333D01*
X168663809Y-33091428D01*
X168616190Y-33281904D01*
X168568571Y-33377142D01*
X168520952Y-33424761D01*
X168425714Y-33472380D01*
X168330476Y-33472380D01*
X168235238Y-33424761D01*
X168187619Y-33377142D01*
X168140000Y-33281904D01*
X168092380Y-33091428D01*
X168092380Y-32853333D01*
X168140000Y-32662857D01*
X168187619Y-32567619D01*
X168235238Y-32520000D01*
X168330476Y-32472380D01*
%TO.C,C6*%
X170013333Y-98147142D02*
X169965714Y-98194761D01*
X169822857Y-98242380D01*
X169727619Y-98242380D01*
X169584761Y-98194761D01*
X169489523Y-98099523D01*
X169441904Y-98004285D01*
X169394285Y-97813809D01*
X169394285Y-97670952D01*
X169441904Y-97480476D01*
X169489523Y-97385238D01*
X169584761Y-97290000D01*
X169727619Y-97242380D01*
X169822857Y-97242380D01*
X169965714Y-97290000D01*
X170013333Y-97337619D01*
X170870476Y-97242380D02*
X170680000Y-97242380D01*
X170584761Y-97290000D01*
X170537142Y-97337619D01*
X170441904Y-97480476D01*
X170394285Y-97670952D01*
X170394285Y-98051904D01*
X170441904Y-98147142D01*
X170489523Y-98194761D01*
X170584761Y-98242380D01*
X170775238Y-98242380D01*
X170870476Y-98194761D01*
X170918095Y-98147142D01*
X170965714Y-98051904D01*
X170965714Y-97813809D01*
X170918095Y-97718571D01*
X170870476Y-97670952D01*
X170775238Y-97623333D01*
X170584761Y-97623333D01*
X170489523Y-97670952D01*
X170441904Y-97718571D01*
X170394285Y-97813809D01*
%TO.C,T2*%
X202017380Y-35051904D02*
X202017380Y-34480476D01*
X203017380Y-34766190D02*
X202017380Y-34766190D01*
X202112619Y-34194761D02*
X202065000Y-34147142D01*
X202017380Y-34051904D01*
X202017380Y-33813809D01*
X202065000Y-33718571D01*
X202112619Y-33670952D01*
X202207857Y-33623333D01*
X202303095Y-33623333D01*
X202445952Y-33670952D01*
X203017380Y-34242380D01*
X203017380Y-33623333D01*
%TO.C,C3*%
X185253333Y-98147142D02*
X185205714Y-98194761D01*
X185062857Y-98242380D01*
X184967619Y-98242380D01*
X184824761Y-98194761D01*
X184729523Y-98099523D01*
X184681904Y-98004285D01*
X184634285Y-97813809D01*
X184634285Y-97670952D01*
X184681904Y-97480476D01*
X184729523Y-97385238D01*
X184824761Y-97290000D01*
X184967619Y-97242380D01*
X185062857Y-97242380D01*
X185205714Y-97290000D01*
X185253333Y-97337619D01*
X185586666Y-97242380D02*
X186205714Y-97242380D01*
X185872380Y-97623333D01*
X186015238Y-97623333D01*
X186110476Y-97670952D01*
X186158095Y-97718571D01*
X186205714Y-97813809D01*
X186205714Y-98051904D01*
X186158095Y-98147142D01*
X186110476Y-98194761D01*
X186015238Y-98242380D01*
X185729523Y-98242380D01*
X185634285Y-98194761D01*
X185586666Y-98147142D01*
%TO.C,R6*%
X182062380Y-33186666D02*
X181586190Y-33520000D01*
X182062380Y-33758095D02*
X181062380Y-33758095D01*
X181062380Y-33377142D01*
X181110000Y-33281904D01*
X181157619Y-33234285D01*
X181252857Y-33186666D01*
X181395714Y-33186666D01*
X181490952Y-33234285D01*
X181538571Y-33281904D01*
X181586190Y-33377142D01*
X181586190Y-33758095D01*
X181062380Y-32329523D02*
X181062380Y-32520000D01*
X181110000Y-32615238D01*
X181157619Y-32662857D01*
X181300476Y-32758095D01*
X181490952Y-32805714D01*
X181871904Y-32805714D01*
X181967142Y-32758095D01*
X182014761Y-32710476D01*
X182062380Y-32615238D01*
X182062380Y-32424761D01*
X182014761Y-32329523D01*
X181967142Y-32281904D01*
X181871904Y-32234285D01*
X181633809Y-32234285D01*
X181538571Y-32281904D01*
X181490952Y-32329523D01*
X181443333Y-32424761D01*
X181443333Y-32615238D01*
X181490952Y-32710476D01*
X181538571Y-32758095D01*
X181633809Y-32805714D01*
%TO.C,D0*%
X161742380Y-32488095D02*
X160742380Y-32488095D01*
X160742380Y-32250000D01*
X160790000Y-32107142D01*
X160885238Y-32011904D01*
X160980476Y-31964285D01*
X161170952Y-31916666D01*
X161313809Y-31916666D01*
X161504285Y-31964285D01*
X161599523Y-32011904D01*
X161694761Y-32107142D01*
X161742380Y-32250000D01*
X161742380Y-32488095D01*
X160742380Y-31297619D02*
X160742380Y-31202380D01*
X160790000Y-31107142D01*
X160837619Y-31059523D01*
X160932857Y-31011904D01*
X161123333Y-30964285D01*
X161361428Y-30964285D01*
X161551904Y-31011904D01*
X161647142Y-31059523D01*
X161694761Y-31107142D01*
X161742380Y-31202380D01*
X161742380Y-31297619D01*
X161694761Y-31392857D01*
X161647142Y-31440476D01*
X161551904Y-31488095D01*
X161361428Y-31535714D01*
X161123333Y-31535714D01*
X160932857Y-31488095D01*
X160837619Y-31440476D01*
X160790000Y-31392857D01*
X160742380Y-31297619D01*
D13*
%TO.C,D2*%
X204851000Y-46101000D02*
X204597000Y-46101000D01*
X210820000Y-48260000D02*
X193040000Y-48260000D01*
X205740000Y-45085000D02*
X205740000Y-46355000D01*
X206248000Y-45466000D02*
X206248000Y-45212000D01*
X193040000Y-43180000D02*
X210820000Y-43180000D01*
X206248000Y-46101000D02*
X205994000Y-46101000D01*
X206248000Y-45212000D02*
X205994000Y-45212000D01*
X205740000Y-45720000D02*
X205105000Y-45085000D01*
X210820000Y-43180000D02*
X210820000Y-48260000D01*
X204724000Y-46228000D02*
X204724000Y-45974000D01*
X204597000Y-45339000D02*
X204597000Y-45212000D01*
X204724000Y-45466000D02*
X204597000Y-45339000D01*
X205105000Y-45085000D02*
X205105000Y-46355000D01*
X204851000Y-45339000D02*
X204851000Y-45212000D01*
X204851000Y-45339000D02*
X204724000Y-45466000D01*
X193040000Y-48260000D02*
X193040000Y-43180000D01*
X204851000Y-45339000D02*
X204597000Y-45339000D01*
X205105000Y-45720000D02*
X204470000Y-45720000D01*
X206248000Y-45466000D02*
X205994000Y-45466000D01*
X205740000Y-45720000D02*
X206375000Y-45720000D01*
X205105000Y-46355000D02*
X205740000Y-45720000D01*
%TO.C,C5*%
X176530000Y-80010000D02*
X177800000Y-80010000D01*
X177800000Y-80010000D02*
G75*
G03*
X177800000Y-80010000I-7620000J0D01*
G01*
%TO.C,T0*%
X152400000Y-30480000D02*
X157480000Y-30480000D01*
X152400000Y-38100000D02*
X152400000Y-30480000D01*
X157480000Y-30480000D02*
X157480000Y-38100000D01*
X157480000Y-38100000D02*
X152400000Y-38100000D01*
X156210000Y-33655000D02*
X156210000Y-34925000D01*
X156210000Y-34925000D02*
G75*
G03*
X156210000Y-33655000I0J635000D01*
G01*
%TO.C,D4*%
X210820000Y-53340000D02*
X210820000Y-58420000D01*
X205105000Y-56515000D02*
X205740000Y-55880000D01*
X193040000Y-58420000D02*
X193040000Y-53340000D01*
X204724000Y-55626000D02*
X204597000Y-55499000D01*
X204851000Y-55499000D02*
X204724000Y-55626000D01*
X205740000Y-55880000D02*
X205105000Y-55245000D01*
X206248000Y-55372000D02*
X205994000Y-55372000D01*
X205105000Y-55880000D02*
X204470000Y-55880000D01*
X205740000Y-55245000D02*
X205740000Y-56515000D01*
X205740000Y-55880000D02*
X206375000Y-55880000D01*
X210820000Y-58420000D02*
X193040000Y-58420000D01*
X204724000Y-56388000D02*
X204724000Y-56134000D01*
X204851000Y-55499000D02*
X204851000Y-55372000D01*
X206248000Y-55626000D02*
X205994000Y-55626000D01*
X204851000Y-56261000D02*
X204597000Y-56261000D01*
X206248000Y-56261000D02*
X205994000Y-56261000D01*
X206248000Y-55626000D02*
X206248000Y-55372000D01*
X193040000Y-53340000D02*
X210820000Y-53340000D01*
X204851000Y-55499000D02*
X204597000Y-55499000D01*
X205105000Y-55245000D02*
X205105000Y-56515000D01*
X204597000Y-55499000D02*
X204597000Y-55372000D01*
%TO.C,D1*%
X204851000Y-40259000D02*
X204724000Y-40386000D01*
X206248000Y-40386000D02*
X205994000Y-40386000D01*
X206248000Y-41021000D02*
X205994000Y-41021000D01*
X193040000Y-43180000D02*
X193040000Y-38100000D01*
X205105000Y-40640000D02*
X204470000Y-40640000D01*
X210820000Y-43180000D02*
X193040000Y-43180000D01*
X210820000Y-38100000D02*
X210820000Y-43180000D01*
X206248000Y-40132000D02*
X205994000Y-40132000D01*
X204597000Y-40259000D02*
X204597000Y-40132000D01*
X204851000Y-41021000D02*
X204597000Y-41021000D01*
X204724000Y-40386000D02*
X204597000Y-40259000D01*
X205740000Y-40640000D02*
X206375000Y-40640000D01*
X193040000Y-38100000D02*
X210820000Y-38100000D01*
X205740000Y-40640000D02*
X205105000Y-40005000D01*
X204724000Y-41148000D02*
X204724000Y-40894000D01*
X205740000Y-40005000D02*
X205740000Y-41275000D01*
X204851000Y-40259000D02*
X204851000Y-40132000D01*
X206248000Y-40386000D02*
X206248000Y-40132000D01*
X205105000Y-41275000D02*
X205740000Y-40640000D01*
X205105000Y-40005000D02*
X205105000Y-41275000D01*
X204851000Y-40259000D02*
X204597000Y-40259000D01*
%TO.C,C0*%
X149860000Y-30480000D02*
X149860000Y-27940000D01*
X157480000Y-27940000D02*
X157480000Y-30480000D01*
X149860000Y-27940000D02*
X157480000Y-27940000D01*
X157480000Y-30480000D02*
X149860000Y-30480000D01*
%TO.C,R2*%
X157480000Y-38100000D02*
X157480000Y-27940000D01*
X157480000Y-27940000D02*
X160020000Y-27940000D01*
X160020000Y-27940000D02*
X160020000Y-38100000D01*
X160020000Y-38100000D02*
X157480000Y-38100000D01*
%TO.C,T1*%
X162560000Y-40640000D02*
X149860000Y-40640000D01*
X162560000Y-45720000D02*
X162560000Y-40640000D01*
X149860000Y-63500000D02*
X149860000Y-45720000D01*
X162560000Y-45720000D02*
X162560000Y-63500000D01*
X149860000Y-45720000D02*
X162560000Y-45720000D01*
X153670000Y-45720000D02*
X153670000Y-43180000D01*
X162560000Y-63500000D02*
X149860000Y-63500000D01*
X149860000Y-45720000D02*
X149860000Y-40640000D01*
X158750000Y-45720000D02*
X158750000Y-43180000D01*
X149860000Y-54610000D02*
X162560000Y-54610000D01*
X156210000Y-45720000D02*
X156210000Y-43180000D01*
%TO.C,D3*%
X204851000Y-50419000D02*
X204851000Y-50292000D01*
X205740000Y-50800000D02*
X206375000Y-50800000D01*
X193040000Y-53340000D02*
X193040000Y-48260000D01*
X205740000Y-50165000D02*
X205740000Y-51435000D01*
X204724000Y-51308000D02*
X204724000Y-51054000D01*
X210820000Y-53340000D02*
X193040000Y-53340000D01*
X205105000Y-50165000D02*
X205105000Y-51435000D01*
X205740000Y-50800000D02*
X205105000Y-50165000D01*
X206248000Y-51181000D02*
X205994000Y-51181000D01*
X193040000Y-48260000D02*
X210820000Y-48260000D01*
X204851000Y-51181000D02*
X204597000Y-51181000D01*
X210820000Y-48260000D02*
X210820000Y-53340000D01*
X206248000Y-50546000D02*
X206248000Y-50292000D01*
X206248000Y-50546000D02*
X205994000Y-50546000D01*
X204597000Y-50419000D02*
X204597000Y-50292000D01*
X204724000Y-50546000D02*
X204597000Y-50419000D01*
X204851000Y-50419000D02*
X204724000Y-50546000D01*
X205105000Y-51435000D02*
X205740000Y-50800000D01*
X204851000Y-50419000D02*
X204597000Y-50419000D01*
X205105000Y-50800000D02*
X204470000Y-50800000D01*
X206248000Y-50292000D02*
X205994000Y-50292000D01*
%TO.C,R4*%
X198120000Y-38100000D02*
X190500000Y-38100000D01*
X190500000Y-30480000D02*
X198120000Y-30480000D01*
X198120000Y-30480000D02*
X198120000Y-38100000D01*
X190500000Y-38100000D02*
X190500000Y-30480000D01*
%TO.C,T3*%
X203200000Y-30480000D02*
X208280000Y-30480000D01*
X203200000Y-38100000D02*
X203200000Y-30480000D01*
X208280000Y-38100000D02*
X203200000Y-38100000D01*
X207010000Y-33655000D02*
X207010000Y-34925000D01*
X208280000Y-30480000D02*
X208280000Y-38100000D01*
X207010000Y-34925000D02*
G75*
G03*
X207010000Y-33655000I0J635000D01*
G01*
%TO.C,C4*%
X181610000Y-69850000D02*
X181610000Y-67310000D01*
X189230000Y-67310000D02*
X189230000Y-69850000D01*
X189230000Y-69850000D02*
X181610000Y-69850000D01*
X181610000Y-67310000D02*
X189230000Y-67310000D01*
%TO.C,D6*%
X169164000Y-71501000D02*
X169418000Y-71501000D01*
X175260000Y-72390000D02*
X165100000Y-72390000D01*
X168275000Y-71120000D02*
X168910000Y-71755000D01*
X168910000Y-70485000D02*
X168275000Y-71120000D01*
X169164000Y-71501000D02*
X169291000Y-71374000D01*
X165100000Y-69850000D02*
X175260000Y-69850000D01*
X167767000Y-71628000D02*
X168021000Y-71628000D01*
X168910000Y-71755000D02*
X168910000Y-70485000D01*
X167767000Y-71374000D02*
X168021000Y-71374000D01*
X168275000Y-71755000D02*
X168275000Y-70485000D01*
X169291000Y-71374000D02*
X169418000Y-71501000D01*
X168275000Y-71120000D02*
X167640000Y-71120000D01*
X169164000Y-70739000D02*
X169418000Y-70739000D01*
X169164000Y-71501000D02*
X169164000Y-71628000D01*
X165100000Y-72390000D02*
X165100000Y-69850000D01*
X167767000Y-71374000D02*
X167767000Y-71628000D01*
X168910000Y-71120000D02*
X169545000Y-71120000D01*
X169418000Y-71501000D02*
X169418000Y-71628000D01*
X169291000Y-70612000D02*
X169291000Y-70866000D01*
X167767000Y-70739000D02*
X168021000Y-70739000D01*
X175260000Y-69850000D02*
X175260000Y-72390000D01*
%TO.C,C1*%
X193040000Y-67310000D02*
X162560000Y-67310000D01*
X193040000Y-57150000D02*
X193040000Y-67310000D01*
X162560000Y-67310000D02*
X162560000Y-57150000D01*
X162560000Y-57150000D02*
X193040000Y-57150000D01*
%TO.C,R8*%
X195580000Y-30480000D02*
X195580000Y-27940000D01*
X195580000Y-27940000D02*
X205740000Y-27940000D01*
X205740000Y-27940000D02*
X205740000Y-30480000D01*
X205740000Y-30480000D02*
X195580000Y-30480000D01*
%TO.C,H0*%
X162560000Y-111760000D02*
X162560000Y-102870000D01*
X193040000Y-102870000D02*
X193040000Y-111760000D01*
X162560000Y-110490000D02*
X193040000Y-110490000D01*
X162560000Y-111760000D02*
X193040000Y-111760000D01*
X162560000Y-102870000D02*
X193040000Y-102870000D01*
%TO.C,D5*%
X186309000Y-70866000D02*
X186182000Y-70739000D01*
X186690000Y-71120000D02*
X186055000Y-71120000D01*
X186436000Y-70739000D02*
X186182000Y-70739000D01*
X187325000Y-70485000D02*
X187325000Y-71755000D01*
X186182000Y-70739000D02*
X186182000Y-70612000D01*
X187833000Y-70866000D02*
X187833000Y-70612000D01*
X187833000Y-70612000D02*
X187579000Y-70612000D01*
X186309000Y-71628000D02*
X186309000Y-71374000D01*
X187325000Y-71120000D02*
X187960000Y-71120000D01*
X186690000Y-70485000D02*
X186690000Y-71755000D01*
X187325000Y-71120000D02*
X186690000Y-70485000D01*
X180340000Y-69850000D02*
X190500000Y-69850000D01*
X186436000Y-70739000D02*
X186436000Y-70612000D01*
X190500000Y-69850000D02*
X190500000Y-72390000D01*
X180340000Y-72390000D02*
X180340000Y-69850000D01*
X187833000Y-71501000D02*
X187579000Y-71501000D01*
X186436000Y-70739000D02*
X186309000Y-70866000D01*
X187833000Y-70866000D02*
X187579000Y-70866000D01*
X190500000Y-72390000D02*
X180340000Y-72390000D01*
X186690000Y-71755000D02*
X187325000Y-71120000D01*
X186436000Y-71501000D02*
X186182000Y-71501000D01*
%TO.C,D7*%
X152273000Y-37719000D02*
X152019000Y-37719000D01*
X149860000Y-33020000D02*
X152400000Y-33020000D01*
X150495000Y-35864800D02*
X151765000Y-35864800D01*
X152400000Y-33020000D02*
X152400000Y-38100000D01*
X150495000Y-35229800D02*
X151765000Y-35229800D01*
X152400000Y-38100000D02*
X149860000Y-38100000D01*
X152146000Y-33274000D02*
X152146000Y-33528000D01*
X151130000Y-35229800D02*
X150495000Y-35864800D01*
X151638000Y-33274000D02*
X151638000Y-33528000D01*
X151892000Y-33274000D02*
X151892000Y-33528000D01*
X149860000Y-38100000D02*
X149860000Y-33020000D01*
X151765000Y-35864800D02*
X151130000Y-35229800D01*
X151892000Y-33274000D02*
X151638000Y-33274000D01*
X151765000Y-37592000D02*
X151765000Y-37846000D01*
X151892000Y-37719000D02*
X151765000Y-37846000D01*
X151765000Y-37592000D02*
X151892000Y-37719000D01*
X151765000Y-37592000D02*
X151638000Y-37592000D01*
X152146000Y-37592000D02*
X152146000Y-37846000D01*
X151765000Y-37846000D02*
X151638000Y-37846000D01*
%TO.C,R1*%
X177800000Y-38100000D02*
X175260000Y-38100000D01*
X175260000Y-38100000D02*
X175260000Y-27940000D01*
X175260000Y-27940000D02*
X177800000Y-27940000D01*
X177800000Y-27940000D02*
X177800000Y-38100000D01*
%TO.C,L0*%
X162560000Y-38100000D02*
X193040000Y-38100000D01*
X162560000Y-57150000D02*
X162560000Y-38100000D01*
X193040000Y-38100000D02*
X193040000Y-57150000D01*
X190500000Y-43180000D02*
X190500000Y-52070000D01*
X165100000Y-43180000D02*
X165100000Y-52070000D01*
X193040000Y-57150000D02*
X162560000Y-57150000D01*
%TO.C,R3*%
X182880000Y-38100000D02*
X182880000Y-30480000D01*
X182880000Y-30480000D02*
X190500000Y-30480000D01*
X190500000Y-30480000D02*
X190500000Y-38100000D01*
X190500000Y-38100000D02*
X182880000Y-38100000D01*
%TO.C,T4*%
X208280000Y-30480000D02*
X213360000Y-30480000D01*
X213360000Y-30480000D02*
X213360000Y-38100000D01*
X212090000Y-33655000D02*
X212090000Y-34925000D01*
X208280000Y-38100000D02*
X208280000Y-30480000D01*
X213360000Y-38100000D02*
X208280000Y-38100000D01*
X212090000Y-34925000D02*
G75*
G03*
X212090000Y-33655000I0J635000D01*
G01*
%TO.C,R0*%
X172720000Y-38100000D02*
X172720000Y-27940000D01*
X175260000Y-38100000D02*
X172720000Y-38100000D01*
X175260000Y-27940000D02*
X175260000Y-38100000D01*
X172720000Y-27940000D02*
X175260000Y-27940000D01*
%TO.C,R5*%
X180340000Y-27940000D02*
X180340000Y-38100000D01*
X177800000Y-27940000D02*
X180340000Y-27940000D01*
X180340000Y-38100000D02*
X177800000Y-38100000D01*
X177800000Y-38100000D02*
X177800000Y-27940000D01*
%TO.C,D8*%
X208280000Y-27940000D02*
X213360000Y-27940000D01*
X211150200Y-29210000D02*
X210515200Y-28575000D01*
X210515200Y-28575000D02*
X210515200Y-29845000D01*
X208280000Y-30480000D02*
X208280000Y-27940000D01*
X213360000Y-27940000D02*
X213360000Y-30480000D01*
X213106000Y-29972000D02*
X213106000Y-29718000D01*
X213106000Y-30226000D02*
X212852000Y-30226000D01*
X213106000Y-29972000D02*
X212852000Y-29972000D01*
X208788000Y-29845000D02*
X208788000Y-29718000D01*
X208534000Y-29845000D02*
X208534000Y-29718000D01*
X208661000Y-30353000D02*
X208661000Y-30099000D01*
X208788000Y-29845000D02*
X208661000Y-29972000D01*
X213360000Y-30480000D02*
X208280000Y-30480000D01*
X211150200Y-28575000D02*
X211150200Y-29845000D01*
X208788000Y-30226000D02*
X208534000Y-30226000D01*
X208788000Y-29845000D02*
X208534000Y-29845000D01*
X210515200Y-29845000D02*
X211150200Y-29210000D01*
X213106000Y-29718000D02*
X212852000Y-29718000D01*
X208661000Y-29972000D02*
X208534000Y-29845000D01*
%TO.C,R7*%
X149860000Y-27940000D02*
X149860000Y-38100000D01*
X147320000Y-38100000D02*
X147320000Y-27940000D01*
X147320000Y-27940000D02*
X149860000Y-27940000D01*
X149860000Y-38100000D02*
X147320000Y-38100000D01*
%TO.C,C2*%
X179070000Y-80010000D02*
X177800000Y-80010000D01*
X193040000Y-80010000D02*
G75*
G03*
X193040000Y-80010000I-7620000J0D01*
G01*
%TO.C,C7*%
X173990000Y-67310000D02*
X173990000Y-69850000D01*
X166370000Y-69850000D02*
X166370000Y-67310000D01*
X166370000Y-67310000D02*
X173990000Y-67310000D01*
X173990000Y-69850000D02*
X166370000Y-69850000D01*
%TO.C,IC0*%
X162560000Y-27940000D02*
X162560000Y-38100000D01*
X162560000Y-38100000D02*
X172720000Y-38100000D01*
X172720000Y-27940000D02*
X162560000Y-27940000D01*
X172720000Y-38100000D02*
X172720000Y-27940000D01*
X166370000Y-27940000D02*
G75*
G03*
X168910000Y-27940000I1270000J0D01*
G01*
%TO.C,C6*%
X176530000Y-95250000D02*
X177800000Y-95250000D01*
X177800000Y-95250000D02*
G75*
G03*
X177800000Y-95250000I-7620000J0D01*
G01*
%TO.C,T2*%
X199390000Y-34925000D02*
X199390000Y-33655000D01*
X198120000Y-38100000D02*
X198120000Y-30480000D01*
X198120000Y-30480000D02*
X203200000Y-30480000D01*
X203200000Y-30480000D02*
X203200000Y-38100000D01*
X203200000Y-38100000D02*
X198120000Y-38100000D01*
X199390000Y-33655000D02*
G75*
G03*
X199390000Y-34925000I0J-635000D01*
G01*
%TO.C,C3*%
X179070000Y-95250000D02*
X177800000Y-95250000D01*
X193040000Y-95250000D02*
G75*
G03*
X193040000Y-95250000I-7620000J0D01*
G01*
%TO.C,R6*%
X180340000Y-27940000D02*
X182880000Y-27940000D01*
X180340000Y-38100000D02*
X180340000Y-27940000D01*
X182880000Y-38100000D02*
X180340000Y-38100000D01*
X182880000Y-27940000D02*
X182880000Y-38100000D01*
%TO.C,D0*%
X160655000Y-34290000D02*
X161290000Y-34925000D01*
X161544000Y-33909000D02*
X161671000Y-33782000D01*
X162560000Y-27940000D02*
X162560000Y-38100000D01*
X160782000Y-33909000D02*
X161036000Y-33909000D01*
X161925000Y-34290000D02*
X160655000Y-34290000D01*
X161544000Y-35433000D02*
X161798000Y-35433000D01*
X160020000Y-38100000D02*
X160020000Y-27940000D01*
X161290000Y-34925000D02*
X161290000Y-35560000D01*
X161290000Y-34290000D02*
X161290000Y-33655000D01*
X161671000Y-34036000D02*
X161544000Y-33909000D01*
X160909000Y-34036000D02*
X160909000Y-33782000D01*
X160909000Y-35433000D02*
X160909000Y-35179000D01*
X161290000Y-34925000D02*
X161925000Y-34290000D01*
X161671000Y-34036000D02*
X161798000Y-34036000D01*
X161671000Y-33782000D02*
X161798000Y-33782000D01*
X160020000Y-27940000D02*
X162560000Y-27940000D01*
X162560000Y-38100000D02*
X160020000Y-38100000D01*
X161544000Y-35433000D02*
X161544000Y-35179000D01*
X161925000Y-34925000D02*
X160655000Y-34925000D01*
X161798000Y-35433000D02*
X161798000Y-35179000D01*
X161671000Y-34036000D02*
X161671000Y-33782000D01*
%TD*%
M02*
